<svg width="1440" height="1006" viewBox="0 0 1440 1006" fill="none" xmlns="http://www.w3.org/2000/svg">
<rect width="1440" height="1006" fill="#FFF6E7"/>
<path d="M92.7291 198.443C73.6967 198.443 62.4007 185.312 61.1691 183.795C60.0144 182.386 58.9751 180.869 58.1091 179.275C53.0479 170.021 54.2028 159.771 61.3039 151.145C68.6936 142.151 81.1248 136.773 94.5379 136.773H680.885C682.001 136.773 682.925 137.494 682.925 138.398C682.925 139.286 682.02 140.022 680.885 140.022H94.5379C82.5104 140.022 71.3489 144.848 64.7097 152.922C58.3784 160.614 57.3392 169.761 61.8423 177.988C62.6121 179.413 63.5361 180.762 64.5753 182.033C65.6914 183.397 75.9097 195.47 93.1331 195.21C104.121 195.087 116.977 190.353 120.325 181.528C122.5 175.782 121.249 166.16 113.224 163.05C108.625 161.273 103.506 162.33 100.85 163.111C99.8108 163.418 98.618 163.004 98.2331 162.161C97.8482 161.319 98.3676 160.384 99.426 160.078C102.697 159.112 109.048 157.825 115.014 160.139C124.54 163.831 127.215 174.602 124.232 182.462C120.325 192.774 105.661 198.32 93.1909 198.443C93.037 198.443 92.883 198.443 92.7291 198.443Z" fill="#002137"/>
<path d="M1346.88 198.442C1346.72 198.442 1346.59 198.442 1346.44 198.442C1333.99 198.305 1319.32 192.773 1315.4 182.447C1312.41 174.587 1315.09 163.816 1324.61 160.123C1330.56 157.81 1336.93 159.097 1340.2 160.062C1341.26 160.368 1341.8 161.303 1341.39 162.146C1341.01 162.988 1339.82 163.402 1338.78 163.096C1336.12 162.314 1331 161.257 1326.4 163.034C1318.38 166.145 1317.13 175.767 1319.3 181.512C1322.65 190.337 1335.52 195.072 1346.49 195.194C1346.63 195.194 1346.76 195.194 1346.88 195.194C1363.77 195.194 1373.92 183.381 1375.03 182.018C1376.07 180.761 1377 179.398 1377.77 177.973C1382.27 169.745 1381.23 160.614 1374.9 152.907C1368.26 144.832 1357.1 140.006 1345.07 140.006H758.185C757.068 140.006 756.145 139.286 756.145 138.382C756.145 137.493 757.049 136.758 758.185 136.758H1345.07C1358.48 136.758 1370.91 142.136 1378.3 151.129C1385.41 159.755 1386.56 170.021 1381.5 179.26C1380.63 180.838 1379.59 182.37 1378.44 183.78C1377.21 185.297 1365.89 198.442 1346.88 198.442Z" fill="#002137"/>
<path d="M1345.05 889.63H758.185C757.068 889.63 756.145 888.91 756.145 888.006C756.145 887.118 757.049 886.382 758.185 886.382H1345.07C1357.1 886.382 1368.26 881.556 1374.9 873.481C1381.23 865.79 1382.27 856.643 1377.77 848.415C1377 846.99 1376.07 845.642 1375.03 844.37C1373.92 843.007 1363.77 831.194 1346.88 831.194C1346.74 831.194 1346.61 831.194 1346.49 831.194C1335.52 831.316 1322.65 836.051 1319.3 844.876C1317.13 850.622 1318.38 860.244 1326.4 863.354C1331 865.131 1336.12 864.074 1338.78 863.292C1339.82 862.986 1341.01 863.4 1341.39 864.242C1341.8 865.085 1341.26 866.02 1340.2 866.326C1336.93 867.291 1330.58 868.578 1324.61 866.265C1315.09 862.572 1312.41 851.801 1315.4 843.941C1319.3 833.63 1333.97 828.084 1346.44 827.961C1346.59 827.961 1346.74 827.961 1346.88 827.961C1365.93 827.961 1377.21 841.107 1378.44 842.608C1379.59 844.018 1380.61 845.535 1381.5 847.128C1386.56 856.382 1385.41 866.633 1378.3 875.259C1370.9 884.252 1358.46 889.63 1345.05 889.63Z" fill="#002137"/>
<path d="M680.885 889.63H94.5379C81.1248 889.63 68.6936 884.252 61.3039 875.259C54.2028 866.633 53.0479 856.367 58.1091 847.128C58.9751 845.55 60.0144 844.018 61.1691 842.608C62.4007 841.107 73.6967 827.961 92.7291 827.961C92.883 827.961 93.0177 827.961 93.1717 827.961C105.623 828.099 120.287 833.63 124.213 843.957C127.195 851.817 124.52 862.588 114.995 866.28C109.048 868.594 102.678 867.307 99.4067 866.342C98.3483 866.035 97.8097 865.1 98.2138 864.258C98.5987 863.415 99.7916 863.001 100.831 863.308C103.486 864.089 108.606 865.146 113.205 863.369C121.23 860.259 122.481 850.637 120.306 844.891C116.957 836.066 104.083 831.332 93.1139 831.209C75.852 830.995 65.6914 843.022 64.556 844.386C63.5168 845.642 62.6121 847.006 61.823 848.431C57.3199 856.658 58.3591 865.79 64.6904 873.497C71.3296 881.571 82.4911 886.397 94.5186 886.397H680.866C681.982 886.397 682.905 887.118 682.905 888.022C682.924 888.91 682.001 889.63 680.885 889.63Z" fill="#002137"/>
<path d="M57.0512 829.6C55.9351 829.6 55.0117 828.88 55.0117 827.976V196.819C55.0117 195.931 55.9158 195.195 57.0512 195.195C58.1674 195.195 59.0912 195.915 59.0912 196.819V827.976C59.0912 828.88 58.1866 829.6 57.0512 829.6Z" fill="#002137"/>
<path d="M1382.96 829.6C1381.85 829.6 1380.92 828.88 1380.92 827.976V196.819C1380.92 195.931 1381.83 195.195 1382.96 195.195C1384.08 195.195 1385 195.915 1385 196.819V827.976C1385 828.88 1384.1 829.6 1382.96 829.6Z" fill="#002137"/>
<path d="M73.329 821.526C72.2129 821.526 71.2891 820.805 71.2891 819.901V204.894C71.2891 204.005 72.1936 203.27 73.329 203.27C74.4452 203.27 75.3686 203.99 75.3686 204.894V819.886C75.3686 820.79 74.4644 821.526 73.329 821.526Z" fill="#002137"/>
<path d="M1366.7 821.526C1365.58 821.526 1364.66 820.805 1364.66 819.901V204.894C1364.66 204.005 1365.56 203.27 1366.7 203.27C1367.84 203.27 1368.74 203.99 1368.74 204.894V819.886C1368.72 820.79 1367.82 821.526 1366.7 821.526Z" fill="#002137"/>
<path d="M719.525 153.704C708.902 153.704 700.242 146.825 700.242 138.352C700.242 129.895 708.883 123 719.525 123C730.167 123 738.807 129.879 738.807 138.352C738.807 146.825 730.167 153.704 719.525 153.704ZM719.525 126.248C711.134 126.248 704.322 131.672 704.322 138.352C704.322 145.032 711.134 150.456 719.525 150.456C727.915 150.456 734.728 145.032 734.728 138.352C734.747 131.687 727.915 126.248 719.525 126.248Z" fill="#002137"/>
<path d="M719.525 902.009C708.902 902.009 700.242 895.13 700.242 886.657C700.242 878.199 708.883 871.305 719.525 871.305C730.167 871.305 738.807 878.184 738.807 886.657C738.807 895.114 730.167 902.009 719.525 902.009ZM719.525 874.553C711.134 874.553 704.322 879.977 704.322 886.657C704.322 893.337 711.134 898.761 719.525 898.761C727.915 898.761 734.728 893.337 734.728 886.657C734.747 879.977 727.915 874.553 719.525 874.553Z" fill="#002137"/>
<path d="M344 281.903L347.154 280.999L390.244 431.307L387.09 432.211L344 281.903Z" fill="#002137"/>
<path d="M1108 281.903L1111.15 280.999L1154.24 431.307L1151.09 432.211L1108 281.903Z" fill="#002137"/>
<path d="M645.001 575.905L648.155 575.001L689.662 719.787L686.508 720.691L645.001 575.905Z" fill="#002137"/>
<path d="M869.708 582.999L872.893 583.787L850.185 675.542L847 674.754L869.708 582.999Z" fill="#002137"/>
<mask id="mask0_337_4076" style="mask-type:alpha" maskUnits="userSpaceOnUse" x="215" y="389" width="1010" height="242">
<path d="M254.805 574.512L218.55 575.488C216.515 574.349 215.498 572.355 215.498 569.507C215.498 566.74 216.515 564.665 218.55 563.281H237.959C238.447 563.281 238.854 563.118 239.18 562.793C239.587 562.386 239.79 561.938 239.79 561.45V403.247C239.79 402.108 239.18 401.538 237.959 401.538H218.55C216.515 400.399 215.498 398.405 215.498 395.557C215.498 392.708 216.515 390.592 218.55 389.209L254.561 390.308L302.778 389.453C320.926 389.453 335.29 394.458 345.869 404.468C356.449 414.396 361.738 427.336 361.738 443.286C361.738 459.318 356.286 472.217 345.381 481.982C334.557 491.667 319.258 496.509 299.482 496.509H269.941V561.45C269.941 561.938 270.104 562.386 270.43 562.793C270.837 563.118 271.284 563.281 271.772 563.281H296.309C298.262 564.583 299.238 566.659 299.238 569.507C299.238 572.437 298.262 574.43 296.309 575.488L254.805 574.512ZM269.941 485.034H294.722C305.22 485.034 313.317 481.169 319.014 473.438C324.71 465.706 327.559 455.656 327.559 443.286C327.559 430.754 324.71 420.662 319.014 413.013C313.398 405.363 305.545 401.538 295.454 401.538H271.772C270.552 401.538 269.941 402.108 269.941 403.247V485.034ZM454.39 552.539H452.925C449.67 559.375 444.665 565.194 437.91 569.995C431.156 574.797 423.058 577.197 413.618 577.197C403.12 577.197 394.412 574.023 387.495 567.676C380.578 561.247 377.119 552.336 377.119 540.942C377.119 534.513 378.299 528.573 380.659 523.12C383.101 517.668 386.356 513.029 390.425 509.204C394.575 505.379 399.214 502.002 404.341 499.072C409.468 496.143 414.88 493.823 420.576 492.114C426.354 490.405 431.888 489.144 437.178 488.33C442.467 487.516 447.554 487.069 452.437 486.987V470.264C452.437 458.382 445.763 452.441 432.417 452.441C424.849 452.441 418.826 453.499 414.351 455.615C409.875 457.65 407.637 459.928 407.637 462.451C407.637 463.59 408.206 465.503 409.346 468.188C410.566 470.793 411.177 472.99 411.177 474.78C411.177 478.198 409.793 481.128 407.026 483.569C404.259 486.011 400.638 487.231 396.162 487.231C391.523 487.231 387.821 485.848 385.054 483.081C382.287 480.233 380.903 476.693 380.903 472.461C380.903 466.439 383.996 460.986 390.181 456.104C396.447 451.221 403.812 447.559 412.275 445.117C420.739 442.676 428.958 441.455 436.934 441.455C451.175 441.455 461.836 443.978 468.916 449.023C476.077 454.069 479.658 462.329 479.658 473.804V554.004C479.658 558.805 481.652 561.206 485.64 561.206C487.756 561.206 489.465 560.514 490.767 559.131C492.15 557.666 493.452 555.632 494.673 553.027C496.138 549.854 498.132 548.267 500.654 548.267C502.201 548.267 503.462 548.796 504.438 549.854C505.415 550.911 505.903 552.295 505.903 554.004C505.903 555.306 505.578 556.893 504.927 558.765C504.276 560.555 503.177 562.508 501.631 564.624C500.166 566.659 498.376 568.571 496.26 570.361C494.225 572.07 491.58 573.535 488.325 574.756C485.07 575.895 481.53 576.465 477.705 576.465C469.974 576.465 464.155 574.268 460.249 569.873C456.343 565.479 454.39 559.701 454.39 552.539ZM422.163 560.962C430.627 560.962 437.544 557.381 442.915 550.22C448.368 543.058 451.541 534.473 452.437 524.463V497.485C447.798 497.567 443.241 498.055 438.765 498.95C434.289 499.845 429.894 501.351 425.581 503.467C421.349 505.501 417.646 508.024 414.473 511.035C411.299 514.046 408.735 517.83 406.782 522.388C404.829 526.864 403.853 531.828 403.853 537.28C403.853 544.849 405.195 550.708 407.881 554.858C410.566 558.927 415.327 560.962 422.163 560.962ZM543.989 629.443L514.082 630.542C512.048 628.996 511.03 626.88 511.03 624.194C511.03 621.509 512.048 619.515 514.082 618.213H528.853C529.829 618.213 530.317 617.643 530.317 616.504V459.277C530.317 458.789 530.114 458.382 529.707 458.057C529.382 457.65 528.975 457.446 528.486 457.446H514.082C512.048 455.9 511.03 453.825 511.03 451.221C511.03 448.535 512.048 446.541 514.082 445.239C515.791 445.321 518.07 445.443 520.918 445.605C523.766 445.687 526.248 445.768 528.364 445.85C530.562 445.931 532.271 445.972 533.491 445.972C536.014 445.972 538.74 445.646 541.67 444.995C544.6 444.344 546.797 444.019 548.262 444.019C552.412 444.019 554.487 446.419 554.487 451.221V470.752C559.207 462.288 565.474 455.29 573.286 449.756C581.099 444.222 589.603 441.455 598.799 441.455C614.098 441.455 626.59 447.64 636.274 460.01C645.959 472.38 650.801 488.94 650.801 509.692C650.801 519.946 649.214 529.468 646.04 538.257C642.866 547.046 638.594 554.411 633.223 560.352C627.852 566.211 621.626 570.809 614.546 574.146C607.547 577.401 600.223 579.028 592.573 579.028C577.925 579.028 566.247 574.023 557.539 564.014V616.504C557.539 617.643 558.027 618.213 559.004 618.213H579.268C581.302 619.515 582.319 621.509 582.319 624.194C582.319 626.88 581.302 628.996 579.268 630.542L543.989 629.443ZM594.526 455.005C587.772 455.005 581.383 457.365 575.361 462.085C569.421 466.724 563.48 474.129 557.539 484.302V545.215C563.887 559.049 573.815 565.967 587.324 565.967C609.46 565.967 620.527 547.209 620.527 509.692C620.527 501.229 620.08 493.823 619.185 487.476C618.371 481.047 617.191 475.798 615.645 471.729C614.18 467.66 612.308 464.364 610.029 461.841C607.751 459.318 605.35 457.568 602.827 456.592C600.386 455.534 597.619 455.005 594.526 455.005ZM674.727 575.488C672.773 574.43 671.797 572.437 671.797 569.507C671.797 566.659 672.773 564.583 674.727 563.281H689.009C690.148 563.281 690.718 562.671 690.718 561.45V459.521C690.718 458.301 690.148 457.69 689.009 457.69H674.727C672.773 456.632 671.797 454.639 671.797 451.709C671.797 448.861 672.773 446.785 674.727 445.483L704.268 446.216L734.053 445.483C736.006 446.948 736.982 449.023 736.982 451.709C736.982 454.476 736.006 456.47 734.053 457.69H719.526C718.55 457.69 718.062 458.301 718.062 459.521V541.309L772.505 460.498V459.277C772.505 458.219 772.017 457.69 771.04 457.69H756.514C754.723 456.551 753.828 454.557 753.828 451.709C753.828 448.942 754.723 446.867 756.514 445.483L786.299 446.216L815.718 445.483C817.752 446.867 818.77 448.942 818.77 451.709C818.77 454.557 817.752 456.551 815.718 457.69H801.313C800.418 457.69 799.971 458.301 799.971 459.521V561.45C799.971 562.671 800.418 563.281 801.313 563.281H815.718C817.752 564.665 818.77 566.74 818.77 569.507C818.77 572.355 817.752 574.349 815.718 575.488L786.299 574.756L756.514 575.488C754.723 574.349 753.828 572.355 753.828 569.507C753.828 566.659 754.723 564.583 756.514 563.281H771.04C772.017 563.281 772.505 562.671 772.505 561.45V479.785L718.062 560.474V561.694C718.062 562.752 718.55 563.281 719.526 563.281H734.053C736.006 564.746 736.982 566.821 736.982 569.507C736.982 572.274 736.006 574.268 734.053 575.488L704.268 574.756L674.727 575.488ZM863.325 575.488C861.291 574.186 860.273 572.192 860.273 569.507C860.273 566.903 861.291 564.827 863.325 563.281H879.805C880.781 563.281 881.27 562.671 881.27 561.45V459.277C881.27 458.057 880.781 457.446 879.805 457.446H869.062C862.389 457.609 857.547 458.748 854.536 460.864C851.606 462.899 850.02 466.927 849.775 472.949L849.043 483.691C848.962 486.214 848.351 488.086 847.212 489.307C846.073 490.446 844.689 491.016 843.062 491.016C840.457 491.016 838.545 489.917 837.324 487.72L837.08 450.977C837.08 447.803 838.83 446.216 842.329 446.216L896.284 446.46L947.798 445.972C951.297 445.972 953.047 447.559 953.047 450.732L952.803 487.476C951.582 489.673 949.67 490.771 947.065 490.771C943.322 490.771 941.328 488.33 941.084 483.447L940.352 472.705C940.107 466.764 938.48 462.777 935.469 460.742C932.539 458.708 927.738 457.609 921.064 457.446H910.322C909.264 457.446 908.735 458.057 908.735 459.277V561.45C908.735 562.671 909.264 563.281 910.322 563.281H929.487C931.359 564.665 932.295 566.74 932.295 569.507C932.295 572.355 931.359 574.349 929.487 575.488L895.063 574.756L863.325 575.488ZM972.334 510.791C972.334 498.177 974.979 486.58 980.269 476.001C985.558 465.34 992.801 456.917 1002 450.732C1011.27 444.548 1021.49 441.455 1032.64 441.455C1040.04 441.455 1047.08 442.798 1053.75 445.483C1060.43 448.169 1066.37 452.035 1071.58 457.08C1076.79 462.044 1080.9 468.514 1083.91 476.489C1087 484.383 1088.54 493.213 1088.54 502.979C1088.54 510.14 1084.88 513.721 1077.56 513.721H1002.85V516.528C1002.85 531.584 1005.82 543.628 1011.76 552.661C1017.7 561.694 1026.41 566.211 1037.89 566.211C1046.59 566.211 1054.57 563.2 1061.81 557.178C1069.14 551.156 1073.98 543.506 1076.34 534.229C1077.64 528.939 1079.8 526.294 1082.81 526.294C1086.14 526.294 1087.81 528.288 1087.81 532.275C1087.81 533.984 1087.28 536.426 1086.23 539.6C1085.25 542.773 1084.19 545.581 1083.05 548.022C1078.82 556.974 1072.15 564.38 1063.03 570.239C1054 576.099 1043.79 579.028 1032.39 579.028C1024.01 579.028 1016.16 577.441 1008.83 574.268C1001.51 571.012 995.12 566.496 989.668 560.718C984.297 554.858 980.065 547.656 976.973 539.111C973.88 530.485 972.334 521.045 972.334 510.791ZM1003.34 501.758H1056.56C1059.74 501.758 1061.32 500.171 1061.32 496.997C1061.32 484.22 1058.68 473.682 1053.39 465.381C1048.18 456.999 1041.34 452.808 1032.88 452.808C1024.42 452.808 1017.5 457.324 1012.13 466.357C1006.76 475.309 1003.83 487.109 1003.34 501.758ZM1134.81 575.488C1132.78 574.186 1131.76 572.192 1131.76 569.507C1131.76 566.903 1132.78 564.827 1134.81 563.281H1151.29C1152.27 563.281 1152.75 562.671 1152.75 561.45V459.277C1152.75 458.057 1152.27 457.446 1151.29 457.446H1140.55C1133.87 457.609 1129.03 458.748 1126.02 460.864C1123.09 462.899 1121.5 466.927 1121.26 472.949L1120.53 483.691C1120.45 486.214 1119.84 488.086 1118.7 489.307C1117.56 490.446 1116.17 491.016 1114.55 491.016C1111.94 491.016 1110.03 489.917 1108.81 487.72L1108.56 450.977C1108.56 447.803 1110.31 446.216 1113.81 446.216L1167.77 446.46L1219.28 445.972C1222.78 445.972 1224.53 447.559 1224.53 450.732L1224.29 487.476C1223.07 489.673 1221.15 490.771 1218.55 490.771C1214.81 490.771 1212.81 488.33 1212.57 483.447L1211.84 472.705C1211.59 466.764 1209.96 462.777 1206.95 460.742C1204.02 458.708 1199.22 457.609 1192.55 457.446H1181.81C1180.75 457.446 1180.22 458.057 1180.22 459.277V561.45C1180.22 562.671 1180.75 563.281 1181.81 563.281H1200.97C1202.84 564.665 1203.78 566.74 1203.78 569.507C1203.78 572.355 1202.84 574.349 1200.97 575.488L1166.55 574.756L1134.81 575.488Z" fill="#002137"/>
</mask>
<g mask="url(#mask0_337_4076)">
<rect x="198" y="343" width="1098" height="310" fill="#002137"/>
<path d="M396 448C409.255 448 420 458.745 420 472C420 485.255 409.255 496 396 496C382.745 496 372 485.255 372 472C372 458.745 382.745 448 396 448Z" fill="#F9DBB3" stroke="#F9DBB3" stroke-width="2"/>
<path d="M635.5 483C651.792 483 665 496.208 665 512.5C665 528.792 651.792 542 635.5 542C619.208 542 606 528.792 606 512.5C606 496.208 619.208 483 635.5 483Z" fill="#F9DBB3" stroke="#F9DBB3" stroke-width="2"/>
<path d="M877 542C888.046 542 897 550.954 897 562C897 573.046 888.046 582 877 582C865.954 582 857 573.046 857 562C857 550.954 865.954 542 877 542Z" fill="#F9DBB3" stroke="#F9DBB3" stroke-width="2"/>
<path d="M1152 579V446.491V444H1180.48L1181 579H1152Z" fill="#F9DBB3"/>
</g>
</svg>
