<svg width="1440" height="915" viewBox="0 0 1440 915" fill="none" xmlns="http://www.w3.org/2000/svg">
<rect width="1440" height="915" fill="#FFF6E7"/>
<path d="M607.204 118.833C507.76 150.898 465.307 87.2764 418.908 122.492L398.408 143.529C176.121 82.2455 41.7782 261.523 102.745 357.565C38.0015 389.579 85.4807 409.702 85.4766 439.886C71.4514 489.279 39.6167 481.047 79.0019 545.989C85.4781 599.498 34.762 600.87 94.6501 638.373C1.84903 833.657 302.37 897.227 392.471 844.633C467.466 934.73 489.586 833.657 577.53 862.47C670.761 914.79 777.697 890.786 823.017 873.903C943.333 829.084 946.57 931.071 1025.88 850.579C1277.3 907.289 1396.54 727.554 1333.95 631.97C1363.63 616.878 1375.5 601.328 1375.5 593.096C1375.5 567.485 1333.95 579.833 1375.5 514.433C1391.14 485.621 1353.38 441.716 1353.38 417.477C1397.4 365.889 1353.38 363.053 1330.71 344.76C1388.98 287.135 1285.4 85.4473 1016.71 145.816C971.928 87.2767 939.556 123.634 903.407 128.437C803.594 141.7 778.5 63.6001 607.204 118.833Z" fill="#FFF6E7" stroke="#F9DBB3" stroke-width="4"/>
<path d="M623.633 184.322C540.999 218.301 501.539 158.272 461.615 187.343L443.976 204.709C252.712 154.119 137.118 302.114 189.576 381.397C133.868 407.825 174.721 424.437 174.718 449.354C162.65 490.129 135.258 483.333 169.147 536.943C174.719 581.116 131.081 582.248 182.611 613.207C102.761 774.415 361.341 826.893 438.868 783.477C503.396 857.852 522.43 774.416 598.1 798.201C678.32 841.391 770.332 821.576 809.327 807.639C912.851 770.64 915.637 854.832 983.879 788.385C1200.21 835.2 1302.81 686.827 1248.96 607.921C1274.49 595.462 1284.7 582.626 1284.7 575.83C1284.7 554.688 1248.96 564.882 1284.7 510.894C1298.16 487.109 1265.67 450.865 1265.67 430.855C1303.55 388.269 1265.67 385.928 1246.17 370.827C1296.31 323.257 1207.18 156.762 975.987 206.597C937.456 158.272 909.602 188.286 878.498 192.251C792.615 203.199 724.372 142.899 623.633 184.322Z" stroke="#F9DBB3" stroke-width="11"/>
<path d="M907.74 631.573C899.958 717.293 778.676 684.174 783.864 745.216L783.985 745.735C794.29 790.011 800.339 816 700.848 816C601.143 816 604.336 783.103 619.253 740.027C582.933 657.554 519.251 703.006 504.334 606.896C472.165 587.155 470.609 545.421 473.852 527.022C443.758 503.643 447.477 457.104 453.098 436.756C434.42 384.805 448.774 364.025 458.286 360.128C447.909 310.255 471.257 290.86 484.229 287.397C491.492 243.758 518.819 231.116 531.574 230.25C543.507 192.845 574.163 186.525 587.999 188.04C604.083 162.064 640.532 161.631 656.746 164.662C685.283 142.323 717.062 152.324 729.385 160.116C770.374 145.05 794.89 163.363 802.024 174.403C841.975 169.727 862.34 194.101 867.529 206.872C906.961 206.353 919.414 238.692 920.711 254.927C953.398 261.681 960.273 298.003 959.625 315.32C990.237 334.023 987.08 374.631 981.676 392.598C1007.62 419.093 992.485 452.991 981.676 466.628C999.836 506.631 967.624 546.503 949.248 561.439C950.285 601.961 922.008 625.079 907.74 631.573Z" fill="#002137"/>
<path d="M783.864 745.217C778.676 684.174 899.958 717.293 907.74 631.573M783.864 745.217C794.241 789.808 800.727 816 700.848 816C601.143 816 604.336 783.103 619.253 740.027M783.864 745.217C781.207 738.312 778.44 731.82 775.578 725.735M907.74 631.573C922.008 625.079 950.285 601.961 949.248 561.439M907.74 631.573C884.272 639.582 824.984 669.628 775.578 725.735M949.248 561.439C967.624 546.503 999.836 506.631 981.676 466.628M949.248 561.439C902.265 590.012 801.122 661.575 772.41 719.241M981.676 466.628C992.485 452.991 1007.62 419.093 981.676 392.598M981.676 466.628C924.779 513.168 802.372 627.157 767.916 710.799M981.676 392.598C987.08 374.631 990.237 334.023 959.625 315.32M981.676 392.598C932.876 435.157 820.472 556.171 761.253 699.759M959.625 315.32C960.273 298.003 953.398 261.681 920.711 254.927M959.625 315.32C904.69 381.342 786.331 548.192 752.374 687.421M920.711 254.927C919.414 238.692 906.961 206.353 867.529 206.872M920.711 254.927C875.96 338.134 776.99 538.289 739.114 673.261M867.529 206.872C862.34 194.101 841.975 169.727 802.024 174.403M867.529 206.872C837.837 211.202 767.916 476.369 725.706 663.393M802.024 174.403C794.89 163.363 770.374 145.05 729.385 160.116M802.024 174.403C768.731 324.921 703.572 632.103 709.28 656.689M729.385 160.116C717.062 152.324 685.283 142.323 656.746 164.662M729.385 160.116L694.363 655.436M656.746 164.662C640.532 161.631 604.083 162.064 587.998 188.04M656.746 164.662C667.765 318.427 689.091 632.103 686.246 656.689M587.998 188.04C574.163 186.525 543.507 192.845 531.574 230.25M587.998 188.04C610.914 264.049 660.508 464.956 675.554 660.516M531.574 230.25C518.819 231.116 491.492 243.758 484.229 287.397M531.574 230.25C560.11 275.065 626.393 425.411 663.232 668.275M484.229 287.397C471.257 290.86 447.909 310.255 458.286 360.128M484.229 287.397C521.052 360.128 606.157 540.269 651.989 678.979M458.286 360.128C448.774 364.025 434.42 384.805 453.098 436.756M458.286 360.128C495.038 417.956 583.329 565.161 642.478 691.365M453.098 436.756C447.477 457.104 443.758 503.643 473.852 527.022M453.098 436.756C494.3 480.265 587.657 595.987 631.474 710.799M473.852 527.022C470.609 545.421 472.165 587.155 504.334 606.896M473.852 527.022C517.017 565.985 608.213 658.978 627.669 719.241M504.334 606.896C519.251 703.006 582.933 657.554 619.253 740.027M504.334 606.896C527.736 616.637 584.641 654.042 625.047 725.735M619.253 740.027C621.269 733.155 622.692 731.849 625.047 725.735M775.578 725.735C774.534 723.516 773.478 721.352 772.41 719.241M772.41 719.241C770.934 716.324 769.435 713.51 767.916 710.799M767.916 710.799C765.736 706.909 763.513 703.23 761.253 699.759M761.253 699.759C758.351 695.304 755.388 691.192 752.374 687.421M752.374 687.421C748.046 682.004 743.614 677.288 739.114 673.261M739.114 673.261C734.7 669.312 730.22 666.027 725.706 663.393M725.706 663.393C720.261 660.216 714.767 657.988 709.28 656.689M709.28 656.689C704.287 655.507 699.3 655.094 694.363 655.436M694.363 655.436C691.64 655.625 688.932 656.043 686.246 656.689M686.246 656.689C682.636 657.556 679.066 658.834 675.554 660.516M675.554 660.516C671.355 662.527 667.237 665.117 663.232 668.275M663.232 668.275C659.371 671.318 655.615 674.889 651.989 678.979M651.989 678.979C648.705 682.684 645.527 686.815 642.478 691.365M642.478 691.365C638.589 697.166 634.907 703.649 631.474 710.799M631.474 710.799C630.169 713.517 628.9 716.331 627.669 719.241M627.669 719.241C626.775 721.355 625.9 723.52 625.047 725.735" stroke="#1C3753" stroke-width="3"/>
<path d="M371.739 697.851C383.643 688.101 374.529 679.102 368.484 675.821C368.484 673.571 366.624 671.134 365.694 670.196C377.225 658.197 378.869 647.073 378.249 643.01C388.665 636.636 382.589 622.855 378.249 616.762C375.273 606.638 370.189 605.669 368.019 606.45C375.459 585.358 361.974 526.299 360.579 524.893C359.463 523.768 361.044 458.803 361.974 426.461C365.322 424.211 366.159 416.149 366.159 412.4C372.204 405.838 369.414 332.248 369.414 306C362.439 323.811 361.974 408.181 354.534 403.963C347.467 408.837 344.77 343.029 341.98 307.406C337.33 343.498 334.075 404.431 344.77 412.4C345.235 421.305 345.7 421.305 348.955 426.461C351.559 430.586 351.59 493.801 351.28 524.893C341.98 554.891 344.925 600.513 347.56 619.574C338.26 624.074 339.345 630.511 341.05 633.167C334.726 641.417 336.865 647.541 338.725 649.573C336.121 657.072 342.29 660.822 345.7 661.759C347.188 668.134 345.08 672.227 343.84 673.477C330.82 677.227 335.005 689.101 338.725 694.57C337.981 706.944 347.095 708.788 351.745 708.163C366.624 716.412 371.274 704.725 371.739 697.851Z" fill="#002137" stroke="#1C3753" stroke-width="3"/>
<path d="M1087.58 681.76C1146.49 681.76 1073.16 612.136 1092.53 385.55C1113.95 374.427 1106.53 358.638 1128.37 341.057C1153.74 320.623 1150.48 306.177 1145.67 301.508C1152.92 278.107 1139.9 267.314 1132.49 264.842C1127.54 242.43 1111.2 243.419 1103.65 246.715C1088.49 229.247 1070.28 236.004 1063.69 246.715C1043.25 240.453 1035.67 258.662 1034.44 268.55C1019.28 271.845 1017.96 291.895 1019.19 301.508C1007 312.384 1024.28 332.406 1034.44 341.057C1052.98 352.18 1054.62 382.667 1070.28 385.55C1082.23 663.633 1025.79 681.76 1087.58 681.76Z" fill="#002137"/>
<path d="M1034.44 341.057C1052.98 352.18 1054.62 382.667 1070.28 385.55C1082.23 663.633 1025.79 681.76 1087.58 681.76C1146.49 681.76 1073.16 612.136 1092.53 385.55C1113.95 374.427 1106.53 358.638 1128.37 341.057M1034.44 341.057C1024.28 332.406 1007 312.384 1019.19 301.508M1034.44 341.057C1038.28 338.311 1050.34 342.787 1064.51 372.779M1019.19 301.508C1017.96 291.895 1019.28 271.845 1034.44 268.55M1019.19 301.508C1029.08 300.958 1053.14 315.68 1068.63 369.071M1034.44 268.55C1035.67 258.662 1043.25 240.453 1063.69 246.715M1034.44 268.55C1045.56 274.317 1067.39 317.163 1072.34 366.6M1063.69 246.715C1070.28 236.004 1088.49 229.247 1103.65 246.715M1063.69 246.715C1069.32 263.743 1079.75 306.039 1077.69 366.6M1103.65 246.715C1111.2 243.419 1127.54 242.43 1132.49 264.842M1103.65 246.715C1095.96 257.014 1083.46 304.391 1083.46 366.6M1132.49 264.842C1139.9 267.314 1152.92 278.107 1145.67 301.508M1132.49 264.842C1122.6 273.905 1096.64 294.916 1088.41 369.071M1145.67 301.508C1150.48 306.177 1153.74 320.623 1128.37 341.057M1145.67 301.508C1134 301.645 1106.2 316.009 1093.35 370.719M1128.37 341.057C1123.84 338.585 1110.82 341.799 1098.29 372.779" stroke="#1C3753" stroke-width="3" stroke-linecap="round" stroke-linejoin="round"/>
<g style="mix-blend-mode:saturation" filter="url(#filter0_f_413_37)">
<ellipse cx="1099.78" cy="319.563" rx="44.8573" ry="57.6834" transform="rotate(-20.1557 1099.78 319.563)" fill="#011827"/>
</g>
<path d="M265.412 719.383C297.818 714.217 288.832 682.68 280.288 667.557C283.81 667.172 284.25 651.415 274.414 644.54C256.479 632.003 253.37 433.192 251.068 338.449C254.876 335.621 260.564 326.786 252.856 314.077C245.148 301.369 249.46 279.371 252.579 269.961C248.515 268.096 241.835 251.876 239.004 244C239.014 258.648 234.568 266.928 232.344 269.237C238.678 283.913 238.417 304.187 237.494 312.49C233.305 315.865 227.304 325.498 236.814 337.026C246.325 348.555 245.719 545.379 244.227 642.35C237.613 650.415 239.87 663.707 241.826 669.344C230.567 676.724 224.906 725.841 265.412 719.383Z" fill="#002137" stroke="#1C3753" stroke-width="3" stroke-linecap="round"/>
<path d="M1214.56 775.196C1219.33 769.537 1227.57 754.855 1222.36 741.403C1264.49 694.612 1223.1 712.286 1231.21 693.763C1250.3 679.682 1232 662.567 1242.12 646.869L1237.96 646.763C1233.5 649.424 1224.53 656.133 1224.39 661.679C1220.75 659.273 1212.27 652.49 1207.48 644.598C1203.87 650.056 1195.67 661.501 1191.73 663.62C1189.39 660.49 1185.1 654.397 1185.61 653.802L1182.23 655.053C1185.35 669.007 1176.97 698.068 1190.76 701.749C1171.47 723.456 1197.64 731.061 1201.48 743.645C1200.62 750.329 1202.03 765.997 1214.56 775.196Z" fill="#002137"/>
<path d="M1236.51 485.786C1231.34 471.086 1238.63 451.71 1229.98 442.609C1234.06 436.933 1239.35 423.425 1227.92 414.808C1235 409.208 1244.63 396.088 1226.51 388.412L1231.57 380.216C1229.04 289.276 1243.12 145.344 1227.86 144.954C1250.58 124.723 1212.09 110.56 1210.43 93.869C1198.27 98.8773 1174.18 116.669 1175.05 147.769C1175.93 178.87 1180.2 317.628 1182.23 383.12L1191.69 393.073C1185.33 397.535 1176.72 408.785 1193.14 418.083C1188.34 424.667 1181.49 439.291 1192.45 445.12C1181.09 455.236 1191.53 481.17 1186.98 496.315C1190.3 496.4 1191.4 486.254 1191.53 481.17L1202.18 498.784C1197.57 505.326 1203.47 520.553 1207 527.349C1218.98 514.891 1215.71 503.292 1212.58 499.05C1216.56 488.283 1224.48 467.859 1224.37 472.296C1224.25 476.732 1232.42 483.138 1236.51 485.786Z" fill="#002137"/>
<path d="M1237.96 646.763C1242.03 623.05 1247.45 557.656 1236.51 485.786C1232.42 483.138 1224.25 476.732 1224.37 472.296C1224.48 467.859 1216.56 488.283 1212.58 499.05C1215.71 503.292 1218.98 514.891 1207 527.349C1203.47 520.553 1197.57 505.326 1202.18 498.784L1191.53 481.17C1191.4 486.254 1190.3 496.4 1186.98 496.315C1185 546.674 1181.98 648.665 1185.73 653.755L1185.61 653.802C1185.1 654.397 1189.39 660.49 1191.73 663.62C1195.67 661.501 1203.87 650.056 1207.48 644.598C1212.27 652.49 1220.75 659.273 1224.39 661.679C1224.53 656.133 1233.5 649.424 1237.96 646.763Z" fill="#1C3753"/>
<path d="M1237.96 646.763L1242.12 646.869C1232 662.567 1250.3 679.682 1231.21 693.763C1223.1 712.286 1264.49 694.612 1222.36 741.403C1227.57 754.855 1219.33 769.537 1214.56 775.196C1202.03 765.997 1200.62 750.329 1201.48 743.645C1197.64 731.061 1171.47 723.456 1190.76 701.749C1176.97 698.068 1185.35 669.007 1182.23 655.053L1185.61 653.802M1237.96 646.763C1242.03 623.05 1247.45 557.656 1236.51 485.786M1237.96 646.763C1233.5 649.424 1224.53 656.133 1224.39 661.679C1220.75 659.273 1212.27 652.49 1207.48 644.598C1203.87 650.056 1195.67 661.501 1191.73 663.62C1189.39 660.49 1185.1 654.397 1185.61 653.802M1236.51 485.786C1231.34 471.086 1238.63 451.71 1229.98 442.609C1234.06 436.933 1239.35 423.425 1227.92 414.808C1235 409.208 1244.63 396.088 1226.51 388.412L1231.57 380.216C1229.04 289.276 1243.12 145.344 1227.86 144.954C1250.58 124.723 1212.09 110.56 1210.43 93.869C1198.27 98.8773 1174.18 116.669 1175.05 147.769C1175.93 178.87 1180.2 317.628 1182.23 383.12L1191.69 393.073C1185.33 397.535 1176.72 408.785 1193.14 418.083C1188.34 424.667 1181.49 439.291 1192.45 445.12C1181.09 455.236 1191.53 481.17 1186.98 496.315M1236.51 485.786C1232.42 483.138 1224.25 476.732 1224.37 472.296C1224.48 467.859 1216.56 488.283 1212.58 499.05C1215.71 503.292 1218.98 514.891 1207 527.349C1203.47 520.553 1197.57 505.326 1202.18 498.784L1191.53 481.17C1191.4 486.254 1190.3 496.4 1186.98 496.315M1186.98 496.315C1185 546.674 1181.98 648.665 1185.73 653.755M1185.73 653.755C1185.68 653.754 1185.64 653.77 1185.61 653.802M1185.73 653.755L1185.61 653.802" stroke="#1C3753" stroke-width="3" stroke-linecap="round"/>
<defs>
<filter id="filter0_f_413_37" x="1046.3" y="256.335" width="106.952" height="126.456" filterUnits="userSpaceOnUse" color-interpolation-filters="sRGB">
<feFlood flood-opacity="0" result="BackgroundImageFix"/>
<feBlend mode="normal" in="SourceGraphic" in2="BackgroundImageFix" result="shape"/>
<feGaussianBlur stdDeviation="3.45" result="effect1_foregroundBlur_413_37"/>
</filter>
</defs>
</svg>
