<svg width="1440" height="915" viewBox="0 0 1440 915" fill="none" xmlns="http://www.w3.org/2000/svg">
<g clip-path="url(#clip0_337_2590)">
<rect width="1440" height="915" fill="#FFF6E7"/>
<path d="M193.63 682.311C172.243 692.263 168.712 733.939 169.62 753.533L182.667 751.533L629.957 682.983L483.083 257.87C486.749 272.421 479.469 286.395 474.859 292.057C395.772 248.603 346.732 292.485 332.098 319.858C249.289 272.384 203.988 308.021 191.689 331.773C191.452 327.608 119.357 282.105 93.3669 328.293C72.5751 365.244 110.988 399.634 132.793 412.21C85.8384 468.694 132.898 524.004 162.296 544.598C106.748 607.879 160.04 662.774 193.63 682.311Z" fill="#FFF6E7"/>
<path d="M201.26 829.59C199.792 819.628 199.803 792.054 211.587 761.453C208.03 761.338 200.895 760.292 193.421 757.326C187.392 777.288 177.717 821.129 187.257 836.797L201.26 829.59Z" fill="#F9DBB3"/>
<path d="M169.62 753.533C168.712 733.939 172.243 692.263 193.63 682.311C160.04 662.774 106.748 607.879 162.296 544.598C132.898 524.004 85.8384 468.694 132.793 412.21C110.988 399.634 72.5751 365.244 93.3669 328.293C119.357 282.105 191.452 327.608 191.689 331.773C203.988 308.021 249.289 272.384 332.098 319.858C346.732 292.485 395.772 248.603 474.859 292.057C479.469 286.395 486.749 272.421 483.083 257.87L481.278 252.644C485.465 267.897 474.696 274.94 468.789 276.555C454.848 268.107 441.588 262.997 429.145 260.443C378.55 250.055 341.477 281.914 327.221 303.412C257.264 263.569 205.23 294.468 187.958 314.898C165.096 291.873 103.497 284.504 84.2639 315.666C63.0951 349.966 72.7547 377.085 88.2147 394.717C91.998 399.032 96.1288 402.779 100.24 405.924C105.522 409.965 110.772 413.012 115.212 414.993C73.7923 475.224 116.881 528.291 143.602 547.295C124.076 576.964 121.121 602.912 126.484 624.234C127.459 628.113 128.71 631.839 130.186 635.406C131.831 639.379 133.755 643.156 135.89 646.728C138.868 651.711 142.258 656.298 145.871 660.466C155.158 671.178 165.927 679.131 175.015 683.978C164.042 701.767 158.717 718.45 156.469 731.731C155.298 738.651 154.962 744.647 155.099 749.395C155.19 752.562 155.491 755.174 155.895 757.134L169.62 753.533Z" fill="#F9DBB3"/>
<path d="M135.89 646.728C117.162 697.518 140.893 736.335 155.099 749.395C154.962 744.647 155.298 738.651 156.469 731.731C136.496 703.189 141.082 672.329 145.871 660.466C142.258 656.298 138.868 651.711 135.89 646.728Z" fill="#F9DBB3"/>
<path d="M126.484 624.234C105.261 611.185 70.0988 572.071 99.2329 520.011C73.3435 509.537 25.9036 478.869 43.2597 439.994C56.4556 410.436 88.4783 401.082 100.24 405.924C96.1288 402.779 91.998 399.032 88.2147 394.717C71.5646 395.167 39.3422 404.354 29.1821 433.718C18.3537 465.014 24.6421 491.419 78.1407 524.595C67.3353 554.338 62.617 618.14 130.186 635.406C128.71 631.839 127.459 628.113 126.484 624.234Z" fill="#F9DBB3"/>
<path d="M143.602 547.295C116.881 528.291 73.7923 475.224 115.212 414.993C110.772 413.012 105.522 409.965 100.24 405.924C88.4783 401.082 56.4556 410.436 43.2597 439.994C25.9036 478.869 73.3435 509.537 99.2329 520.011C70.0988 572.071 105.261 611.185 126.484 624.234C121.121 602.912 124.076 576.964 143.602 547.295Z" fill="#FFF6E7"/>
<path d="M175.015 683.978C165.927 679.131 155.158 671.178 145.871 660.466C141.082 672.329 136.496 703.189 156.469 731.731C158.717 718.45 164.042 701.767 175.015 683.978Z" fill="#FFF6E7"/>
<path d="M201.26 829.59L629.957 682.983L182.667 751.533C186.084 753.992 189.793 755.885 193.421 757.326C200.895 760.292 208.03 761.338 211.587 761.453C199.803 792.054 199.792 819.628 201.26 829.59Z" fill="#FFF6E7"/>
<path d="M468.789 276.555C474.696 274.94 485.465 267.897 481.278 252.644C474.273 246.692 454.04 239.919 429.145 260.443C441.588 262.997 454.848 268.107 468.789 276.555Z" fill="#F9DBB3"/>
<path d="M629.957 682.983L201.26 829.59M629.957 682.983L182.667 751.533M629.957 682.983L483.083 257.87M169.62 753.533C168.712 733.939 172.243 692.263 193.63 682.311C160.04 662.774 106.748 607.879 162.296 544.598C132.898 524.004 85.8384 468.694 132.793 412.21C110.988 399.634 72.5751 365.244 93.3669 328.293C119.357 282.105 191.452 327.608 191.689 331.773C203.988 308.021 249.289 272.384 332.098 319.858C346.732 292.485 395.772 248.603 474.859 292.057C479.469 286.395 486.749 272.421 483.083 257.87M169.62 753.533L155.895 757.134C155.491 755.174 155.19 752.562 155.099 749.395M169.62 753.533L182.667 751.533M481.278 252.644C485.465 267.897 474.696 274.94 468.789 276.555C454.848 268.107 441.588 262.997 429.145 260.443M481.278 252.644C474.273 246.692 454.04 239.919 429.145 260.443M481.278 252.644L483.083 257.87M481.278 252.644C482.051 254.385 482.645 256.132 483.083 257.87M201.26 829.59C199.792 819.628 199.803 792.054 211.587 761.453C208.03 761.338 200.895 760.292 193.421 757.326M201.26 829.59L187.257 836.797C177.717 821.129 187.392 777.288 193.421 757.326M182.667 751.533C186.084 753.992 189.793 755.885 193.421 757.326M155.099 749.395C140.893 736.335 117.162 697.518 135.89 646.728M155.099 749.395C154.962 744.647 155.298 738.651 156.469 731.731M135.89 646.728C138.868 651.711 142.258 656.298 145.871 660.466M135.89 646.728C133.755 643.156 131.831 639.379 130.186 635.406M145.871 660.466C155.158 671.178 165.927 679.131 175.015 683.978C164.042 701.767 158.717 718.45 156.469 731.731M145.871 660.466C141.082 672.329 136.496 703.189 156.469 731.731M126.484 624.234C121.121 602.912 124.076 576.964 143.602 547.295C116.881 528.291 73.7923 475.224 115.212 414.993C110.772 413.012 105.522 409.965 100.24 405.924M126.484 624.234C105.261 611.185 70.0988 572.071 99.2329 520.011C73.3435 509.537 25.9036 478.869 43.2597 439.994C56.4556 410.436 88.4783 401.082 100.24 405.924M126.484 624.234C127.459 628.113 128.71 631.839 130.186 635.406M100.24 405.924C96.1288 402.779 91.998 399.032 88.2147 394.717M88.2147 394.717C72.7547 377.085 63.0951 349.966 84.2639 315.666C103.497 284.504 165.096 291.873 187.958 314.898C205.23 294.468 257.264 263.569 327.221 303.412C341.477 281.914 378.55 250.055 429.145 260.443M88.2147 394.717C71.5646 395.167 39.3422 404.354 29.1821 433.718C18.3537 465.014 24.6421 491.419 78.1407 524.595C67.3353 554.338 62.617 618.14 130.186 635.406" stroke="#F9DBB3" stroke-width="3" stroke-linecap="round"/>
<path d="M912.74 614.573C904.958 700.293 783.676 667.174 788.864 728.216L788.985 728.735C799.29 773.011 805.339 799 705.848 799C606.143 799 609.336 766.103 624.253 723.027C587.933 640.554 524.251 686.006 509.334 589.896C477.165 570.155 475.609 528.421 478.852 510.022C448.758 486.643 452.477 440.104 458.098 419.756C439.42 367.805 453.774 347.025 463.286 343.128C452.909 293.255 476.257 273.86 489.229 270.397C496.492 226.758 523.819 214.116 536.574 213.25C548.507 175.845 579.163 169.525 592.999 171.04C609.083 145.064 645.532 144.631 661.746 147.662C690.283 125.323 722.062 135.324 734.385 143.116C775.374 128.05 799.89 146.363 807.024 157.403C846.975 152.727 867.34 177.101 872.529 189.872C911.961 189.353 924.414 221.692 925.711 237.927C958.398 244.681 965.273 281.003 964.625 298.32C995.237 317.023 992.08 357.631 986.676 375.598C1012.62 402.093 997.485 435.991 986.676 449.628C1004.84 489.631 972.624 529.503 954.248 544.439C955.285 584.961 927.008 608.079 912.74 614.573Z" fill="#002137"/>
<path d="M788.864 728.217C783.676 667.174 904.958 700.293 912.74 614.573M788.864 728.217C799.241 772.808 805.727 799 705.848 799C606.143 799 609.336 766.103 624.253 723.027M788.864 728.217C786.207 721.312 783.44 714.82 780.578 708.735M912.74 614.573C927.008 608.079 955.285 584.961 954.248 544.439M912.74 614.573C889.272 622.582 829.984 652.628 780.578 708.735M954.248 544.439C972.624 529.503 1004.84 489.631 986.676 449.628M954.248 544.439C907.265 573.012 806.122 644.575 777.41 702.241M986.676 449.628C997.485 435.991 1012.62 402.093 986.676 375.598M986.676 449.628C929.779 496.168 807.372 610.157 772.916 693.799M986.676 375.598C992.08 357.631 995.237 317.023 964.625 298.32M986.676 375.598C937.876 418.157 825.472 539.171 766.253 682.759M964.625 298.32C965.273 281.003 958.398 244.681 925.711 237.927M964.625 298.32C909.69 364.342 791.331 531.192 757.374 670.421M925.711 237.927C924.414 221.692 911.961 189.353 872.529 189.872M925.711 237.927C880.96 321.134 781.99 521.289 744.114 656.261M872.529 189.872C867.34 177.101 846.975 152.727 807.024 157.403M872.529 189.872C842.837 194.202 772.916 459.369 730.706 646.393M807.024 157.403C799.89 146.363 775.374 128.05 734.385 143.116M807.024 157.403C773.731 307.921 708.572 615.103 714.28 639.689M734.385 143.116C722.062 135.324 690.283 125.323 661.746 147.662M734.385 143.116L699.363 638.436M661.746 147.662C645.532 144.631 609.083 145.064 592.998 171.04M661.746 147.662C672.765 301.427 694.091 615.103 691.246 639.689M592.998 171.04C579.163 169.525 548.507 175.845 536.574 213.25M592.998 171.04C615.914 247.049 665.508 447.956 680.554 643.516M536.574 213.25C523.819 214.116 496.492 226.758 489.229 270.397M536.574 213.25C565.11 258.065 631.393 408.411 668.232 651.275M489.229 270.397C476.257 273.86 452.909 293.255 463.286 343.128M489.229 270.397C526.052 343.128 611.157 523.269 656.989 661.979M463.286 343.128C453.774 347.025 439.42 367.805 458.098 419.756M463.286 343.128C500.038 400.956 588.329 548.161 647.478 674.365M458.098 419.756C452.477 440.104 448.758 486.643 478.852 510.022M458.098 419.756C499.3 463.265 592.657 578.987 636.474 693.799M478.852 510.022C475.609 528.421 477.165 570.155 509.334 589.896M478.852 510.022C522.017 548.985 613.213 641.978 632.669 702.241M509.334 589.896C524.251 686.006 587.933 640.554 624.253 723.027M509.334 589.896C532.736 599.637 589.641 637.042 630.047 708.735M624.253 723.027C626.269 716.155 627.692 714.849 630.047 708.735M780.578 708.735C779.534 706.516 778.478 704.352 777.41 702.241M777.41 702.241C775.934 699.324 774.435 696.51 772.916 693.799M772.916 693.799C770.736 689.909 768.513 686.23 766.253 682.759M766.253 682.759C763.351 678.304 760.388 674.192 757.374 670.421M757.374 670.421C753.046 665.004 748.614 660.288 744.114 656.261M744.114 656.261C739.7 652.312 735.22 649.027 730.706 646.393M730.706 646.393C725.261 643.216 719.767 640.988 714.28 639.689M714.28 639.689C709.287 638.507 704.3 638.094 699.363 638.436M699.363 638.436C696.64 638.625 693.932 639.043 691.246 639.689M691.246 639.689C687.636 640.556 684.066 641.834 680.554 643.516M680.554 643.516C676.355 645.527 672.237 648.117 668.232 651.275M668.232 651.275C664.371 654.318 660.615 657.889 656.989 661.979M656.989 661.979C653.705 665.684 650.527 669.815 647.478 674.365M647.478 674.365C643.589 680.166 639.907 686.649 636.474 693.799M636.474 693.799C635.169 696.517 633.9 699.331 632.669 702.241M632.669 702.241C631.775 704.355 630.9 706.52 630.047 708.735" stroke="#1C3753" stroke-width="3"/>
<path d="M345.739 641.851C357.643 632.101 348.529 623.102 342.484 619.821C342.484 617.571 340.624 615.134 339.694 614.196C351.225 602.197 352.869 591.073 352.249 587.01C362.665 580.636 356.589 566.855 352.249 560.762C349.273 550.638 344.189 549.669 342.019 550.45C349.459 529.358 335.974 470.299 334.579 468.893C333.463 467.768 335.044 402.803 335.974 370.461C339.322 368.211 340.159 360.149 340.159 356.4C346.204 349.838 343.414 276.248 343.414 250C336.439 267.811 335.974 352.181 328.534 347.963C321.467 352.837 318.77 287.029 315.98 251.406C311.33 287.498 308.075 348.431 318.77 356.4C319.235 365.305 319.7 365.305 322.955 370.461C325.559 374.586 325.59 437.801 325.28 468.893C315.98 498.891 318.925 544.513 321.56 563.574C312.26 568.074 313.345 574.511 315.05 577.167C308.726 585.417 310.865 591.541 312.725 593.573C310.121 601.072 316.29 604.822 319.7 605.759C321.188 612.134 319.08 616.227 317.84 617.477C304.82 621.227 309.005 633.101 312.725 638.57C311.981 650.944 321.095 652.788 325.745 652.163C340.624 660.412 345.274 648.725 345.739 641.851Z" fill="#002137" stroke="#1C3753" stroke-width="3"/>
<path d="M1211.92 710.265C1276.71 692.938 1175.59 637.941 1130.24 383.07C1150.53 364.537 1137.73 349.356 1156.57 323.6C1178.47 293.664 1170.62 278.739 1163.96 275.018C1165.06 247.152 1147.56 239.112 1138.68 238.574C1126.65 215.383 1108.97 221.276 1101.64 227.122C1079.83 212.372 1061.79 225.158 1057.69 238.876C1033.38 237.999 1030.4 260.253 1031.95 271.49C1016.25 279.573 1020.69 302.009 1024.88 312.217C1014.67 327.764 1039.55 344.701 1053.27 351.226C1076.93 358.006 1087.71 391.046 1105.78 389.613C1200.7 691.906 1143.97 728.44 1211.92 710.265Z" fill="#002137"/>
<path d="M1053.27 351.226C1076.93 358.006 1087.71 391.046 1105.78 389.613C1200.7 691.906 1143.97 728.44 1211.92 710.265C1276.71 692.938 1175.59 637.941 1130.24 383.07C1150.53 364.537 1137.73 349.356 1156.57 323.6M1053.27 351.226C1039.55 344.701 1014.67 327.764 1024.88 312.217M1053.27 351.226C1056.69 347.075 1071.27 348.452 1095.68 377.266M1024.88 312.217C1020.69 302.009 1016.25 279.573 1031.95 271.49M1024.88 312.217C1035.59 308.705 1066.38 317.818 1099.12 371.976M1031.95 271.49C1030.4 260.253 1033.38 237.999 1057.69 238.876M1031.95 271.49C1045.88 274.561 1082.49 315.256 1102.47 368.168M1057.69 238.876C1061.79 225.158 1079.83 212.372 1101.64 227.122M1057.69 238.876C1068.89 255.945 1092.81 299.389 1108.36 366.592M1101.64 227.122C1108.97 221.276 1126.65 215.383 1138.68 238.574M1101.64 227.122C1096.21 240.71 1096.4 296.486 1114.7 364.896M1138.68 238.574C1147.56 239.112 1165.06 247.152 1163.96 275.018M1138.68 238.574C1130.48 251.449 1108.11 282.189 1120.86 366.16M1163.96 275.018C1170.62 278.739 1178.47 293.664 1156.57 323.6M1163.96 275.018C1151.17 278.602 1124.83 302.573 1126.78 366.518M1156.57 323.6C1150.86 322.214 1137.49 329.577 1132.83 367.33" stroke="#1C3753" stroke-width="3" stroke-linecap="round" stroke-linejoin="round"/>
<g style="mix-blend-mode:saturation" filter="url(#filter0_f_337_2590)">
<ellipse cx="1099.78" cy="302.563" rx="44.8573" ry="57.6834" transform="rotate(-20.1557 1099.78 302.563)" fill="#011827"/>
</g>
<path d="M239.412 663.383C271.818 658.217 262.832 626.68 254.288 611.557C257.81 611.172 258.25 595.415 248.414 588.54C230.479 576.003 227.37 377.192 225.068 282.449C228.876 279.621 234.564 270.786 226.856 258.077C219.148 245.369 223.46 223.371 226.579 213.961C222.515 212.096 215.835 195.876 213.004 188C213.014 202.648 208.568 210.928 206.344 213.237C212.678 227.913 212.417 248.187 211.494 256.49C207.305 259.865 201.304 269.498 210.814 281.026C220.325 292.555 219.719 489.379 218.227 586.35C211.613 594.415 213.87 607.707 215.826 613.344C204.567 620.724 198.906 669.841 239.412 663.383Z" fill="#002137" stroke="#1C3753" stroke-width="3" stroke-linecap="round"/>
<path d="M1373.66 686.397C1376.82 679.705 1381.03 663.403 1372.55 651.734C1401.29 595.711 1365.81 623.398 1368.9 603.417C1383.75 584.915 1361.67 573.057 1367.43 555.292L1363.38 556.256C1359.75 559.971 1352.81 568.751 1354.09 574.148C1349.96 572.756 1340.02 568.37 1333.37 561.97C1331.28 568.17 1326.28 581.334 1323.01 584.392C1319.96 581.964 1314.24 577.175 1314.58 576.469L1311.64 578.543C1318.22 591.234 1317.57 621.47 1331.84 621.498C1318.75 647.421 1346 648.068 1352.94 659.249C1353.82 665.931 1359.19 680.715 1373.66 686.397Z" fill="#002137"/>
<path d="M1320.75 401.019C1311.98 388.135 1314.07 367.537 1303.38 360.956C1305.87 354.424 1307.52 340.011 1294.26 334.612C1299.67 327.384 1305.62 312.235 1286.14 309.456L1288.94 300.237C1263.19 212.98 1239.93 70.2435 1225.08 73.775C1241.86 48.3985 1201.02 44.5693 1195.15 28.8591C1184.68 36.8139 1165.95 60.1834 1174.76 90.0228C1183.57 119.862 1223.25 252.896 1241.98 315.683L1253.68 322.88C1248.67 328.823 1243.23 341.904 1261.48 346.687C1258.53 354.278 1255.66 370.169 1267.74 372.998C1259.35 385.686 1276.08 408.08 1275.56 423.886C1278.8 423.116 1277.26 413.028 1276.08 408.08L1290.89 422.379C1288.11 429.883 1297.72 443.09 1302.87 448.755C1311.25 433.645 1305.13 423.269 1301.01 419.971C1302.1 408.545 1304.53 386.772 1305.56 391.09C1306.58 395.408 1316.11 399.509 1320.75 401.019Z" fill="#002137"/>
<path d="M1363.38 556.256C1361.25 532.29 1349.73 467.69 1320.75 401.019C1316.11 399.509 1306.58 395.408 1305.56 391.09C1304.53 386.772 1302.1 408.545 1301.01 419.971C1305.13 423.269 1311.25 433.645 1302.87 448.755C1297.72 443.09 1288.11 429.883 1290.89 422.379L1276.08 408.08C1277.26 413.028 1278.8 423.116 1275.56 423.886C1286.55 473.072 1309.76 572.433 1314.69 576.391L1314.58 576.469C1314.24 577.175 1319.96 581.964 1323.01 584.392C1326.28 581.334 1331.28 568.17 1333.37 561.97C1340.02 568.37 1349.96 572.756 1354.09 574.148C1352.81 568.751 1359.75 559.971 1363.38 556.256Z" fill="#1C3753"/>
<path d="M1363.38 556.256L1367.43 555.292C1361.67 573.057 1383.75 584.915 1368.9 603.417C1365.81 623.398 1401.29 595.711 1372.55 651.734C1381.03 663.403 1376.82 679.705 1373.66 686.397C1359.19 680.715 1353.82 665.931 1352.94 659.249C1346 648.068 1318.75 647.421 1331.84 621.498C1317.57 621.47 1318.22 591.234 1311.64 578.543L1314.58 576.469M1363.38 556.256C1361.25 532.29 1349.73 467.69 1320.75 401.019M1363.38 556.256C1359.75 559.971 1352.81 568.751 1354.09 574.148C1349.96 572.756 1340.02 568.37 1333.37 561.97C1331.28 568.17 1326.28 581.334 1323.01 584.392C1319.96 581.964 1314.24 577.175 1314.58 576.469M1320.75 401.019C1311.98 388.135 1314.07 367.537 1303.38 360.956C1305.87 354.424 1307.52 340.011 1294.26 334.612C1299.67 327.384 1305.62 312.235 1286.14 309.456L1288.94 300.237C1263.19 212.98 1239.93 70.2435 1225.08 73.775C1241.86 48.3985 1201.02 44.5693 1195.15 28.8591C1184.68 36.8139 1165.95 60.1834 1174.76 90.0228C1183.57 119.862 1223.25 252.896 1241.98 315.683L1253.68 322.88C1248.67 328.823 1243.23 341.904 1261.48 346.687C1258.53 354.278 1255.66 370.169 1267.74 372.998C1259.35 385.686 1276.08 408.08 1275.56 423.886M1320.75 401.019C1316.11 399.509 1306.58 395.408 1305.56 391.09C1304.53 386.772 1302.1 408.545 1301.01 419.971C1305.13 423.269 1311.25 433.645 1302.87 448.755C1297.72 443.09 1288.11 429.883 1290.89 422.379L1276.08 408.08C1277.26 413.028 1278.8 423.116 1275.56 423.886M1275.56 423.886C1286.55 473.072 1309.76 572.433 1314.69 576.391M1314.69 576.391C1314.64 576.405 1314.6 576.431 1314.58 576.469M1314.69 576.391L1314.58 576.469" stroke="#1C3753" stroke-width="3" stroke-linecap="round"/>
</g>
<defs>
<filter id="filter0_f_337_2590" x="1046.3" y="239.334" width="106.952" height="126.456" filterUnits="userSpaceOnUse" color-interpolation-filters="sRGB">
<feFlood flood-opacity="0" result="BackgroundImageFix"/>
<feBlend mode="normal" in="SourceGraphic" in2="BackgroundImageFix" result="shape"/>
<feGaussianBlur stdDeviation="3.45" result="effect1_foregroundBlur_337_2590"/>
</filter>
<clipPath id="clip0_337_2590">
<rect width="1440" height="915" fill="white"/>
</clipPath>
</defs>
</svg>
