<svg width="1440" height="877" viewBox="0 0 1440 877" fill="none" xmlns="http://www.w3.org/2000/svg">
<g clip-path="url(#clip0_421_71)">
<rect width="1440" height="877" fill="#FFF6E7"/>
<rect x="-1.5" y="138.5" width="1447" height="672" fill="#FFDAA9" stroke="#FFDAA9"/>
<rect x="12.9219" y="482.169" width="158.845" height="54.7493" rx="7.5" stroke="#FFF6E7"/>
<rect x="170.91" y="482.169" width="158.845" height="54.7493" rx="7.5" stroke="#FFF6E7"/>
<rect x="328.895" y="482.169" width="158.845" height="54.7493" rx="7.5" stroke="#FFF6E7"/>
<rect x="486.879" y="482.169" width="158.845" height="54.7493" rx="7.5" stroke="#FFF6E7"/>
<rect x="644.867" y="482.169" width="158.845" height="54.7493" rx="7.5" stroke="#FFF6E7"/>
<rect x="802.852" y="482.169" width="158.845" height="54.7493" rx="7.5" stroke="#FFF6E7"/>
<rect x="960.84" y="482.169" width="158.845" height="54.7493" rx="7.5" stroke="#FFF6E7"/>
<rect x="1118.82" y="482.169" width="158.845" height="54.7493" rx="7.5" stroke="#FFF6E7"/>
<rect x="1276.81" y="482.169" width="158.845" height="54.7493" rx="7.5" stroke="#FFF6E7"/>
<rect x="1434.8" y="482.169" width="158.845" height="54.7493" rx="7.5" stroke="#FFF6E7"/>
<rect x="12.9219" y="262.889" width="158.845" height="54.7493" rx="7.5" stroke="#FFF6E7"/>
<rect x="170.91" y="262.889" width="158.845" height="54.7493" rx="7.5" stroke="#FFF6E7"/>
<rect x="328.895" y="262.889" width="158.845" height="54.7493" rx="7.5" stroke="#FFF6E7"/>
<rect x="486.879" y="262.889" width="158.845" height="54.7493" rx="7.5" stroke="#FFF6E7"/>
<rect x="644.867" y="262.889" width="158.845" height="54.7493" rx="7.5" stroke="#FFF6E7"/>
<rect x="802.852" y="262.889" width="158.845" height="54.7493" rx="7.5" stroke="#FFF6E7"/>
<rect x="960.84" y="262.889" width="158.845" height="54.7493" rx="7.5" stroke="#FFF6E7"/>
<rect x="1118.82" y="262.889" width="158.845" height="54.7493" rx="7.5" stroke="#FFF6E7"/>
<rect x="1276.81" y="262.889" width="158.845" height="54.7493" rx="7.5" stroke="#FFF6E7"/>
<rect x="1434.8" y="262.889" width="158.845" height="54.7493" rx="7.5" stroke="#FFF6E7"/>
<rect x="12.9219" y="701.45" width="158.845" height="54.7493" rx="7.5" stroke="#FFF6E7"/>
<rect x="170.91" y="701.45" width="158.845" height="54.7493" rx="7.5" stroke="#FFF6E7"/>
<rect x="328.895" y="701.45" width="158.845" height="54.7493" rx="7.5" stroke="#FFF6E7"/>
<rect x="486.879" y="701.45" width="158.845" height="54.7493" rx="7.5" stroke="#FFF6E7"/>
<rect x="644.867" y="701.45" width="158.845" height="54.7493" rx="7.5" stroke="#FFF6E7"/>
<rect x="802.852" y="701.45" width="158.845" height="54.7493" rx="7.5" stroke="#FFF6E7"/>
<rect x="960.84" y="701.45" width="158.845" height="54.7493" rx="7.5" stroke="#FFF6E7"/>
<rect x="1118.82" y="701.45" width="158.845" height="54.7493" rx="7.5" stroke="#FFF6E7"/>
<rect x="1276.81" y="701.45" width="158.845" height="54.7493" rx="7.5" stroke="#FFF6E7"/>
<rect x="1434.8" y="701.45" width="158.845" height="54.7493" rx="7.5" stroke="#FFF6E7"/>
<rect x="12.9219" y="371.909" width="158.845" height="54.7493" rx="7.5" stroke="#FFF6E7"/>
<rect x="170.91" y="371.909" width="158.845" height="54.7493" rx="7.5" stroke="#FFF6E7"/>
<rect x="328.895" y="371.909" width="158.845" height="54.7493" rx="7.5" stroke="#FFF6E7"/>
<rect x="486.879" y="371.909" width="158.845" height="54.7493" rx="7.5" stroke="#FFF6E7"/>
<rect x="644.867" y="371.909" width="158.845" height="54.7493" rx="7.5" stroke="#FFF6E7"/>
<rect x="802.852" y="371.909" width="158.845" height="54.7493" rx="7.5" stroke="#FFF6E7"/>
<rect x="960.84" y="371.909" width="158.845" height="54.7493" rx="7.5" stroke="#FFF6E7"/>
<rect x="1118.82" y="371.909" width="158.845" height="54.7493" rx="7.5" stroke="#FFF6E7"/>
<rect x="1276.81" y="371.909" width="158.845" height="54.7493" rx="7.5" stroke="#FFF6E7"/>
<rect x="1434.8" y="371.909" width="158.845" height="54.7493" rx="7.5" stroke="#FFF6E7"/>
<rect x="12.9219" y="810.47" width="158.845" height="54.7493" rx="7.5" stroke="#FFF6E7"/>
<rect x="170.91" y="810.47" width="158.845" height="54.7493" rx="7.5" stroke="#FFF6E7"/>
<rect x="328.895" y="810.47" width="158.845" height="54.7493" rx="7.5" stroke="#FFF6E7"/>
<rect x="486.879" y="810.47" width="158.845" height="54.7493" rx="7.5" stroke="#FFF6E7"/>
<rect x="644.867" y="810.47" width="158.845" height="54.7493" rx="7.5" stroke="#FFF6E7"/>
<rect x="802.852" y="810.47" width="158.845" height="54.7493" rx="7.5" stroke="#FFF6E7"/>
<rect x="960.84" y="810.47" width="158.845" height="54.7493" rx="7.5" stroke="#FFF6E7"/>
<rect x="1118.82" y="810.47" width="158.845" height="54.7493" rx="7.5" stroke="#FFF6E7"/>
<rect x="1276.81" y="810.47" width="158.845" height="54.7493" rx="7.5" stroke="#FFF6E7"/>
<rect x="1434.8" y="810.47" width="158.845" height="54.7493" rx="7.5" stroke="#FFF6E7"/>
<rect x="12.9219" y="152.629" width="158.845" height="54.7493" rx="7.5" stroke="#FFF6E7"/>
<rect x="170.91" y="152.629" width="158.845" height="54.7493" rx="7.5" stroke="#FFF6E7"/>
<rect x="328.895" y="152.629" width="158.845" height="54.7493" rx="7.5" stroke="#FFF6E7"/>
<rect x="486.879" y="152.629" width="158.845" height="54.7493" rx="7.5" stroke="#FFF6E7"/>
<rect x="644.867" y="152.629" width="158.845" height="54.7493" rx="7.5" stroke="#FFF6E7"/>
<rect x="802.852" y="152.629" width="158.845" height="54.7493" rx="7.5" stroke="#FFF6E7"/>
<rect x="960.84" y="152.629" width="158.845" height="54.7493" rx="7.5" stroke="#FFF6E7"/>
<rect x="1118.82" y="152.629" width="158.845" height="54.7493" rx="7.5" stroke="#FFF6E7"/>
<rect x="1276.81" y="152.629" width="158.845" height="54.7493" rx="7.5" stroke="#FFF6E7"/>
<rect x="1434.8" y="152.629" width="158.845" height="54.7493" rx="7.5" stroke="#FFF6E7"/>
<rect x="12.9219" y="591.19" width="158.845" height="54.7493" rx="7.5" stroke="#FFF6E7"/>
<rect x="170.91" y="591.19" width="158.845" height="54.7493" rx="7.5" stroke="#FFF6E7"/>
<rect x="328.895" y="591.19" width="158.845" height="54.7493" rx="7.5" stroke="#FFF6E7"/>
<rect x="486.879" y="591.19" width="158.845" height="54.7493" rx="7.5" stroke="#FFF6E7"/>
<rect x="644.867" y="591.19" width="158.845" height="54.7493" rx="7.5" stroke="#FFF6E7"/>
<rect x="802.852" y="591.19" width="158.845" height="54.7493" rx="7.5" stroke="#FFF6E7"/>
<rect x="960.84" y="591.19" width="158.845" height="54.7493" rx="7.5" stroke="#FFF6E7"/>
<rect x="1118.82" y="591.19" width="158.845" height="54.7493" rx="7.5" stroke="#FFF6E7"/>
<rect x="1276.81" y="591.19" width="158.845" height="54.7493" rx="7.5" stroke="#FFF6E7"/>
<rect x="1434.8" y="591.19" width="158.845" height="54.7493" rx="7.5" stroke="#FFF6E7"/>
<rect x="-67" y="536.679" width="158.845" height="54.7493" rx="7.5" stroke="#FFF6E7"/>
<rect x="90.9844" y="536.679" width="158.845" height="54.7493" rx="7.5" stroke="#FFF6E7"/>
<rect x="248.973" y="536.679" width="158.845" height="54.7493" rx="7.5" stroke="#FFF6E7"/>
<rect x="406.957" y="536.679" width="158.845" height="54.7493" rx="7.5" stroke="#FFF6E7"/>
<rect x="564.945" y="536.679" width="158.845" height="54.7493" rx="7.5" stroke="#FFF6E7"/>
<rect x="722.93" y="536.679" width="158.845" height="54.7493" rx="7.5" stroke="#FFF6E7"/>
<rect x="880.914" y="536.679" width="158.845" height="54.7493" rx="7.5" stroke="#FFF6E7"/>
<rect x="1038.9" y="536.679" width="158.845" height="54.7493" rx="7.5" stroke="#FFF6E7"/>
<rect x="1196.89" y="536.679" width="158.845" height="54.7493" rx="7.5" stroke="#FFF6E7"/>
<rect x="1354.88" y="536.679" width="158.845" height="54.7493" rx="7.5" stroke="#FFF6E7"/>
<rect x="-67" y="317.399" width="158.845" height="54.7493" rx="7.5" stroke="#FFF6E7"/>
<rect x="90.9844" y="317.399" width="158.845" height="54.7493" rx="7.5" stroke="#FFF6E7"/>
<rect x="248.973" y="317.399" width="158.845" height="54.7493" rx="7.5" stroke="#FFF6E7"/>
<rect x="406.957" y="317.399" width="158.845" height="54.7493" rx="7.5" stroke="#FFF6E7"/>
<rect x="564.945" y="317.399" width="158.845" height="54.7493" rx="7.5" stroke="#FFF6E7"/>
<rect x="722.93" y="317.399" width="158.845" height="54.7493" rx="7.5" stroke="#FFF6E7"/>
<rect x="880.914" y="317.399" width="158.845" height="54.7493" rx="7.5" stroke="#FFF6E7"/>
<rect x="1038.9" y="317.399" width="158.845" height="54.7493" rx="7.5" stroke="#FFF6E7"/>
<rect x="1196.89" y="317.399" width="158.845" height="54.7493" rx="7.5" stroke="#FFF6E7"/>
<rect x="1354.88" y="317.399" width="158.845" height="54.7493" rx="7.5" stroke="#FFF6E7"/>
<rect x="-67" y="755.96" width="158.845" height="54.7493" rx="7.5" stroke="#FFF6E7"/>
<rect x="90.9844" y="755.96" width="158.845" height="54.7493" rx="7.5" stroke="#FFF6E7"/>
<rect x="248.973" y="755.96" width="158.845" height="54.7493" rx="7.5" stroke="#FFF6E7"/>
<rect x="406.957" y="755.96" width="158.845" height="54.7493" rx="7.5" stroke="#FFF6E7"/>
<rect x="564.945" y="755.96" width="158.845" height="54.7493" rx="7.5" stroke="#FFF6E7"/>
<rect x="722.93" y="755.96" width="158.845" height="54.7493" rx="7.5" stroke="#FFF6E7"/>
<rect x="880.914" y="755.96" width="158.845" height="54.7493" rx="7.5" stroke="#FFF6E7"/>
<rect x="1038.9" y="755.96" width="158.845" height="54.7493" rx="7.5" stroke="#FFF6E7"/>
<rect x="1196.89" y="755.96" width="158.845" height="54.7493" rx="7.5" stroke="#FFF6E7"/>
<rect x="1354.88" y="755.96" width="158.845" height="54.7493" rx="7.5" stroke="#FFF6E7"/>
<rect x="-67" y="427.659" width="158.845" height="54.7493" rx="7.5" stroke="#FFF6E7"/>
<rect x="90.9844" y="427.659" width="158.845" height="54.7493" rx="7.5" stroke="#FFF6E7"/>
<rect x="248.973" y="427.659" width="158.845" height="54.7493" rx="7.5" stroke="#FFF6E7"/>
<rect x="406.957" y="427.659" width="158.845" height="54.7493" rx="7.5" stroke="#FFF6E7"/>
<rect x="564.945" y="427.659" width="158.845" height="54.7493" rx="7.5" stroke="#FFF6E7"/>
<rect x="722.93" y="427.659" width="158.845" height="54.7493" rx="7.5" stroke="#FFF6E7"/>
<rect x="880.914" y="427.659" width="158.845" height="54.7493" rx="7.5" stroke="#FFF6E7"/>
<rect x="1038.9" y="427.659" width="158.845" height="54.7493" rx="7.5" stroke="#FFF6E7"/>
<rect x="1196.89" y="427.659" width="158.845" height="54.7493" rx="7.5" stroke="#FFF6E7"/>
<rect x="1354.88" y="427.659" width="158.845" height="54.7493" rx="7.5" stroke="#FFF6E7"/>
<rect x="-67" y="866.22" width="158.845" height="54.7493" rx="7.5" stroke="#FFF6E7"/>
<rect x="90.9844" y="866.219" width="158.845" height="54.7493" rx="7.5" stroke="#FFF6E7"/>
<rect x="248.973" y="866.219" width="158.845" height="54.7493" rx="7.5" stroke="#FFF6E7"/>
<rect x="406.957" y="866.219" width="158.845" height="54.7493" rx="7.5" stroke="#FFF6E7"/>
<rect x="564.945" y="866.219" width="158.845" height="54.7493" rx="7.5" stroke="#FFF6E7"/>
<rect x="722.93" y="866.219" width="158.845" height="54.7493" rx="7.5" stroke="#FFF6E7"/>
<rect x="880.914" y="866.219" width="158.845" height="54.7493" rx="7.5" stroke="#FFF6E7"/>
<rect x="1038.9" y="866.219" width="158.845" height="54.7493" rx="7.5" stroke="#FFF6E7"/>
<rect x="1196.89" y="866.219" width="158.845" height="54.7493" rx="7.5" stroke="#FFF6E7"/>
<rect x="1354.88" y="866.219" width="158.845" height="54.7493" rx="7.5" stroke="#FFF6E7"/>
<rect x="-67" y="208.379" width="158.845" height="54.7493" rx="7.5" stroke="#FFF6E7"/>
<rect x="90.9844" y="208.379" width="158.845" height="54.7493" rx="7.5" stroke="#FFF6E7"/>
<rect x="248.973" y="208.379" width="158.845" height="54.7493" rx="7.5" stroke="#FFF6E7"/>
<rect x="406.957" y="208.379" width="158.845" height="54.7493" rx="7.5" stroke="#FFF6E7"/>
<rect x="564.945" y="208.379" width="158.845" height="54.7493" rx="7.5" stroke="#FFF6E7"/>
<rect x="722.93" y="208.379" width="158.845" height="54.7493" rx="7.5" stroke="#FFF6E7"/>
<rect x="880.914" y="208.379" width="158.845" height="54.7493" rx="7.5" stroke="#FFF6E7"/>
<rect x="1038.9" y="208.379" width="158.845" height="54.7493" rx="7.5" stroke="#FFF6E7"/>
<rect x="1196.89" y="208.379" width="158.845" height="54.7493" rx="7.5" stroke="#FFF6E7"/>
<rect x="1354.88" y="208.379" width="158.845" height="54.7493" rx="7.5" stroke="#FFF6E7"/>
<rect x="-67" y="646.939" width="158.845" height="54.7493" rx="7.5" stroke="#FFF6E7"/>
<rect x="90.9844" y="646.939" width="158.845" height="54.7493" rx="7.5" stroke="#FFF6E7"/>
<rect x="248.973" y="646.939" width="158.845" height="54.7493" rx="7.5" stroke="#FFF6E7"/>
<rect x="406.957" y="646.939" width="158.845" height="54.7493" rx="7.5" stroke="#FFF6E7"/>
<rect x="564.945" y="646.939" width="158.845" height="54.7493" rx="7.5" stroke="#FFF6E7"/>
<rect x="722.93" y="646.939" width="158.845" height="54.7493" rx="7.5" stroke="#FFF6E7"/>
<rect x="880.914" y="646.939" width="158.845" height="54.7493" rx="7.5" stroke="#FFF6E7"/>
<rect x="1038.9" y="646.939" width="158.845" height="54.7493" rx="7.5" stroke="#FFF6E7"/>
<rect x="1196.89" y="646.939" width="158.845" height="54.7493" rx="7.5" stroke="#FFF6E7"/>
<rect x="1354.88" y="646.939" width="158.845" height="54.7493" rx="7.5" stroke="#FFF6E7"/>
<path d="M391.722 474.487L439.979 429.959C435.519 423.817 419.799 411.709 392.6 412.411L391.722 474.487Z" fill="#FFF6E7"/>
<path d="M385.361 472.952V413.289C377.245 411.542 356.714 412.125 339.517 428.424L385.361 472.952Z" fill="#FFF6E7"/>
<path d="M379.439 474.487H319.776C319.63 464.251 322.54 441.76 335.35 433.688L379.439 474.487Z" fill="#FFF6E7"/>
<path fill-rule="evenodd" clip-rule="evenodd" d="M504.248 463.699L464.107 484.796C466.959 458.986 456.123 406.928 389.968 405.173C323.812 403.418 311.66 454.681 313.853 480.532L272.835 461.984H264.5V706.777H272.835L313.853 674.314H463.23L504.248 709.629L511.267 708.093V460.01L504.248 463.699ZM457.088 665.101H323.285V484.796H457.088V665.101ZM379.439 474.487H319.776C319.63 464.251 322.54 441.76 335.35 433.688L379.439 474.487ZM385.361 413.289V472.952L339.517 428.424C356.714 412.125 377.245 411.542 385.361 413.289ZM391.722 474.487L439.979 429.959C435.519 423.817 419.799 411.709 392.6 412.411L391.722 474.487ZM457.088 476.242L400.058 474.487L444.366 435.443C456.123 446.837 457.746 467.39 457.088 476.242ZM306.834 487.429V670.365L280.512 690.984V475.364L306.834 487.429ZM494.597 478.435L469.372 491.596L470.688 669.049L494.597 691.423V478.435Z" fill="#002137"/>
<path d="M469.372 491.596L494.597 478.435V691.423L470.688 669.049L469.372 491.596Z" fill="#1C3753"/>
<path d="M306.834 487.429V670.365L280.512 690.984V475.364L306.834 487.429Z" fill="#1C3753"/>
<path d="M400.058 474.487L457.088 476.242C457.746 467.39 456.123 446.837 444.366 435.443L400.058 474.487Z" fill="#FFF6E7"/>
<path d="M323.285 665.101H457.088V484.796H323.285V665.101Z" fill="#FFF6E7"/>
<path d="M323.285 484.796H457.088V665.101H323.285V484.796ZM323.285 484.796L313.853 480.532M464.107 484.796L511.267 460.01M464.107 484.796C466.959 458.986 456.123 406.928 389.968 405.173C323.812 403.418 311.66 454.681 313.853 480.532M464.107 484.796L504.248 463.699M511.267 460.01V708.093L504.248 709.629M511.267 460.01L504.248 463.699M504.248 709.629V463.699M504.248 709.629L463.23 674.314M463.23 495.983V674.314M463.23 674.314H313.853M313.853 674.314V490.342M313.853 674.314L272.835 706.777M272.835 461.984V706.777M272.835 461.984H264.5V706.777H272.835M272.835 461.984L313.853 480.532M469.372 491.596L494.597 478.435V691.423L470.688 669.049L469.372 491.596ZM306.834 487.429V670.365L280.512 690.984V475.364L306.834 487.429ZM379.439 474.487H319.776C319.63 464.251 322.54 441.76 335.35 433.688L379.439 474.487ZM385.361 472.952V413.289C377.245 411.542 356.714 412.125 339.517 428.424L385.361 472.952ZM391.722 474.487L439.979 429.959C435.519 423.817 419.799 411.709 392.6 412.411L391.722 474.487ZM400.058 474.487L457.088 476.242C457.746 467.39 456.123 446.837 444.366 435.443L400.058 474.487Z" stroke="#1C3753" stroke-width="2"/>
<path d="M471.042 631.818C470.66 632.365 470.278 632.911 469.895 633.457C470.23 633.679 470.565 633.9 470.9 634.122C476.93 638.114 482.96 642.106 488.99 646.099C489.325 646.32 489.66 646.542 489.995 646.764C490.138 646.559 490.282 646.354 490.425 646.149C490.102 645.911 489.779 645.672 489.456 645.433C483.641 641.134 477.826 636.834 472.011 632.535C471.688 632.296 471.365 632.057 471.042 631.818Z" fill="#002137"/>
<path d="M471.061 639.226C470.684 639.776 470.308 640.326 469.932 640.877C470.211 641.055 470.491 641.234 470.77 641.412C475.803 644.627 480.836 647.842 485.869 651.056C486.148 651.235 486.428 651.413 486.708 651.592C486.849 651.386 486.99 651.179 487.131 650.973C486.863 650.777 486.595 650.581 486.327 650.385C481.506 646.861 476.685 643.337 471.864 639.813C471.596 639.617 471.328 639.422 471.061 639.226Z" fill="#002137"/>
<path d="M470.306 586.693C470.172 587.346 470.039 587.999 469.905 588.652C470.103 588.682 470.301 588.712 470.499 588.742C474.068 589.282 477.636 589.821 481.204 590.361C481.402 590.391 481.6 590.421 481.799 590.451C481.849 590.206 481.899 589.961 481.949 589.716C481.755 589.666 481.561 589.616 481.367 589.565C477.874 588.658 474.381 587.751 470.888 586.844C470.694 586.794 470.5 586.743 470.306 586.693Z" fill="#002137"/>
<path d="M470.461 580.552C470.32 581.203 470.18 581.855 470.039 582.507C470.279 582.548 470.519 582.589 470.759 582.63C475.076 583.368 479.392 584.106 483.709 584.844C483.949 584.885 484.189 584.926 484.429 584.967C484.481 584.722 484.534 584.478 484.587 584.234C484.351 584.172 484.116 584.111 483.88 584.049C479.643 582.945 475.405 581.84 471.167 580.736C470.931 580.674 470.696 580.613 470.461 580.552Z" fill="#002137"/>
<path d="M469.906 526.35C469.906 527.017 469.906 527.683 469.906 528.35C470.058 528.34 470.21 528.329 470.362 528.319C473.098 528.131 475.833 527.944 478.569 527.756C478.721 527.746 478.873 527.736 479.025 527.725C479.025 527.475 479.025 527.225 479.025 526.975C478.873 526.965 478.721 526.954 478.569 526.944C475.833 526.756 473.098 526.569 470.362 526.381C470.21 526.371 470.058 526.361 469.906 526.35Z" fill="#002137"/>
<path d="M469.594 521.011C469.675 521.673 469.755 522.335 469.835 522.996C470.154 522.947 470.472 522.898 470.791 522.849C476.522 521.963 482.253 521.078 487.984 520.193C488.302 520.143 488.621 520.094 488.939 520.045C488.909 519.797 488.879 519.549 488.849 519.301C488.528 519.329 488.207 519.358 487.886 519.386C482.11 519.899 476.333 520.412 470.557 520.925C470.236 520.954 469.915 520.982 469.594 521.011Z" fill="#002137"/>
<path d="M306.346 525.669C306.593 525.049 306.841 524.43 307.088 523.811C306.753 523.689 306.419 523.566 306.084 523.444C300.062 521.243 294.04 519.041 288.018 516.84C287.683 516.718 287.349 516.595 287.014 516.473C286.921 516.705 286.829 516.937 286.736 517.17C287.063 517.311 287.39 517.453 287.717 517.595C293.6 520.144 299.483 522.694 305.366 525.244C305.693 525.385 306.02 525.527 306.346 525.669Z" fill="#002137"/>
<path d="M306.31 532.69C306.58 532.08 306.851 531.471 307.121 530.862C306.819 530.739 306.517 530.616 306.215 530.493C300.779 528.284 295.342 526.075 289.906 523.866C289.604 523.743 289.302 523.62 289 523.498C288.898 523.726 288.797 523.955 288.695 524.183C288.989 524.325 289.283 524.467 289.576 524.608C294.86 527.16 300.145 529.712 305.429 532.264C305.722 532.406 306.016 532.548 306.31 532.69Z" fill="#002137"/>
<path d="M306.903 580.446C306.779 579.791 306.655 579.136 306.53 578.481C306.158 578.563 305.785 578.644 305.413 578.725C298.705 580.187 291.998 581.649 285.29 583.111C284.918 583.192 284.545 583.273 284.172 583.354C284.219 583.6 284.265 583.846 284.312 584.091C284.689 584.03 285.065 583.97 285.442 583.909C292.219 582.815 298.996 581.722 305.773 580.629C306.15 580.568 306.526 580.507 306.903 580.446Z" fill="#002137"/>
<path d="M306.902 585.528C306.779 584.873 306.657 584.218 306.534 583.562C306.18 583.639 305.825 583.716 305.471 583.793C299.092 585.179 292.713 586.564 286.334 587.949C285.98 588.026 285.625 588.103 285.271 588.18C285.317 588.425 285.363 588.671 285.409 588.917C285.767 588.86 286.125 588.804 286.484 588.747C292.931 587.731 299.379 586.714 305.827 585.698C306.186 585.641 306.544 585.585 306.902 585.528Z" fill="#002137"/>
<path d="M307.277 629.154C306.904 628.601 306.532 628.048 306.159 627.495C305.809 627.744 305.458 627.993 305.108 628.241C298.799 632.718 292.49 637.194 286.182 641.671C285.831 641.919 285.481 642.168 285.13 642.417C285.27 642.624 285.41 642.831 285.549 643.039C285.911 642.807 286.274 642.576 286.636 642.344C293.154 638.179 299.672 634.014 306.19 629.848C306.552 629.617 306.915 629.385 307.277 629.154Z" fill="#002137"/>
<path d="M307.298 637.736C306.909 637.195 306.52 636.654 306.131 636.112C305.774 636.382 305.416 636.652 305.059 636.921C298.623 641.776 292.188 646.63 285.752 651.485C285.395 651.755 285.037 652.024 284.68 652.294C284.826 652.497 284.971 652.7 285.117 652.903C285.487 652.65 285.857 652.397 286.226 652.145C292.881 647.595 299.535 643.045 306.189 638.495C306.559 638.242 306.929 637.989 307.298 637.736Z" fill="#002137"/>
<path d="M1016.32 419.946H1050.67H1080.99C1080.39 417.754 1079.68 415.689 1078.88 413.751C1077.99 411.594 1076.99 409.593 1075.89 407.749C1074.17 404.881 1072.22 402.392 1070.08 400.28C1067.69 397.906 1065.06 396.009 1062.3 394.586C1058.22 392.481 1053.83 391.413 1049.43 391.372C1045.7 391.338 1041.96 392.038 1038.37 393.469C1035.51 394.609 1032.75 396.213 1030.17 398.279C1027.34 400.548 1024.73 403.375 1022.46 406.754C1021.27 408.522 1020.17 410.442 1019.19 412.512C1018.09 414.805 1017.13 417.284 1016.32 419.946Z" fill="#FFF6E7"/>
<path d="M1075.89 407.749C1076.99 409.593 1077.99 411.594 1078.88 413.751H1110.66C1109.59 406.845 1107.44 400.353 1104.44 394.41L1075.89 407.749Z" fill="#FFF6E7"/>
<path d="M1070.08 400.28C1072.22 402.392 1074.17 404.881 1075.89 407.749L1104.44 394.41C1101.19 388.005 1096.95 382.238 1091.98 377.28L1070.08 400.28Z" fill="#FFF6E7"/>
<path d="M1080.99 419.946H1111.31C1111.19 417.848 1110.97 415.782 1110.66 413.751H1078.88C1079.68 415.689 1080.39 417.754 1080.99 419.946Z" fill="#FFF6E7"/>
<path d="M1111.31 419.946H1142.25C1141.66 417.839 1141.05 415.774 1140.42 413.751H1110.66C1110.97 415.782 1111.19 417.848 1111.31 419.946Z" fill="#FFF6E7"/>
<path d="M1140.42 413.751C1136.88 402.334 1132.7 392.247 1128.01 383.395L1104.44 394.41C1107.44 400.353 1109.59 406.845 1110.66 413.751H1140.42Z" fill="#FFF6E7"/>
<path d="M1128.01 383.395C1122.71 373.398 1116.76 364.977 1110.34 357.995L1091.98 377.28C1096.95 382.238 1101.19 388.005 1104.44 394.41L1128.01 383.395Z" fill="#FFF6E7"/>
<path d="M1062.3 394.586C1065.06 396.009 1067.69 397.906 1070.08 400.28L1091.98 377.28C1086.42 371.729 1079.95 367.192 1072.96 363.909L1062.3 394.586Z" fill="#FFF6E7"/>
<path d="M1110.34 357.995C1101.68 348.574 1092.16 341.773 1082.22 337.256L1072.96 363.909C1079.95 367.192 1086.42 371.729 1091.98 377.28L1110.34 357.995Z" fill="#FFF6E7"/>
<path d="M1049.43 391.372C1053.83 391.413 1058.22 392.481 1062.3 394.586L1072.96 363.909C1065.55 360.425 1057.55 358.354 1049.43 357.983V391.372Z" fill="#FFF6E7"/>
<path d="M1082.22 337.256C1071.59 332.421 1060.48 330.202 1049.43 330.187V357.983C1057.55 358.354 1065.55 360.425 1072.96 363.909L1082.22 337.256Z" fill="#FFF6E7"/>
<path d="M1038.37 393.469C1041.96 392.038 1045.7 391.338 1049.43 391.372V357.983C1041.69 357.629 1033.84 358.82 1026.29 361.804L1038.37 393.469Z" fill="#FFF6E7"/>
<path d="M1049.43 330.187C1038.24 330.171 1027.12 332.414 1016.63 336.487L1026.29 361.804C1033.84 358.82 1041.69 357.629 1049.43 357.983V330.187Z" fill="#FFF6E7"/>
<path d="M1030.17 398.279C1032.75 396.213 1035.51 394.609 1038.37 393.469L1026.29 361.804C1019.32 364.557 1012.61 368.838 1006.46 374.84L1030.17 398.279Z" fill="#FFF6E7"/>
<path d="M1016.63 336.487C1005.61 340.768 995.273 347.071 986.287 354.898L1006.46 374.84C1012.61 368.838 1019.32 364.557 1026.29 361.804L1016.63 336.487Z" fill="#FFF6E7"/>
<path d="M1022.46 406.754C1024.73 403.375 1027.34 400.548 1030.17 398.279L1006.46 374.84C1001.38 379.797 996.695 385.929 992.573 393.346L1022.46 406.754Z" fill="#FFF6E7"/>
<path d="M986.287 354.898C977.746 362.336 970.421 371.152 964.872 380.917L992.573 393.346C996.695 385.929 1001.38 379.797 1006.46 374.84L986.287 354.898Z" fill="#FFF6E7"/>
<path d="M1019.19 412.512C1020.17 410.442 1021.27 408.522 1022.46 406.754L992.573 393.346C989.443 398.978 986.64 405.351 984.242 412.512H1019.19Z" fill="#FFF6E7"/>
<path d="M964.872 380.917C959.343 390.647 955.577 401.319 954.128 412.512H984.242C986.64 405.351 989.443 398.978 992.573 393.346L964.872 380.917Z" fill="#FFF6E7"/>
<path d="M981.979 419.946H1016.32C1017.13 417.284 1018.09 414.805 1019.19 412.512H984.242C983.441 414.902 982.686 417.379 981.979 419.946Z" fill="#FFF6E7"/>
<path d="M953.514 419.946H981.979C982.686 417.379 983.441 414.902 984.242 412.512H954.128C953.81 414.967 953.604 417.446 953.514 419.946Z" fill="#FFF6E7"/>
<path fill-rule="evenodd" clip-rule="evenodd" d="M1157.72 422.424V786.698H1142.25H955.371H936.807V422.424C936.807 354.898 992.499 325.574 1015.39 318.966V309.673H1009.21V301H1086.56V309.673H1082.22V318.966C1101.41 323.922 1157.72 354.898 1157.72 422.424ZM1016.32 419.946H1050.67H1080.99H1111.31H1142.25C1141.66 417.839 1141.05 415.774 1140.42 413.751C1136.88 402.334 1132.7 392.247 1128.01 383.395C1122.71 373.398 1116.76 364.977 1110.34 357.995C1101.68 348.574 1092.16 341.773 1082.22 337.256C1071.59 332.421 1060.48 330.202 1049.43 330.187C1038.24 330.171 1027.12 332.414 1016.63 336.487C1005.61 340.768 995.273 347.071 986.287 354.898C977.746 362.336 970.421 371.152 964.872 380.917C959.343 390.647 955.577 401.319 954.128 412.512C953.81 414.967 953.604 417.446 953.514 419.946H981.979H1016.32Z" fill="#1C3753"/>
<path d="M930 809H1167V786.698H1157.72H1142.25H955.371H936.807H930V809Z" fill="#002137"/>
<path d="M1157.72 786.698H1167V809H930V786.698H936.807M1157.72 786.698V422.424C1157.72 354.898 1101.41 323.922 1082.22 318.966V309.673H1086.56V301H1009.21V309.673H1015.39V318.966C992.499 325.574 936.807 354.898 936.807 422.424V786.698M1157.72 786.698H1142.25M936.807 786.698H955.371M955.371 786.698H1142.25M955.371 786.698L955.211 755.102M953.514 419.946L953.539 424.902M953.514 419.946H981.979M953.514 419.946C953.604 417.446 953.81 414.967 954.128 412.512M1142.25 419.946V424.902M1142.25 419.946H1111.31M1142.25 419.946C1141.66 417.839 1141.05 415.774 1140.42 413.751M1142.25 786.698V755.102M1050.67 419.946V755.102M1050.67 419.946H1016.32M1050.67 419.946H1080.99M1050.67 755.102H1142.25M1050.67 755.102H955.211M1142.25 755.102V738.995M955.211 755.102L955.12 737.137M955.12 737.137L1142.25 738.995M955.12 737.137L953.731 462.693M1142.25 738.995V462.693M953.659 448.444H1142.25M953.659 448.444L953.539 424.902M953.659 448.444L953.731 462.693M1142.25 448.444V424.902M1142.25 448.444V462.693M953.539 424.902H1142.25M981.979 419.946H1016.32M981.979 419.946C982.686 417.379 983.441 414.902 984.242 412.512M1111.31 419.946H1080.99M1111.31 419.946C1111.19 417.848 1110.97 415.782 1110.66 413.751M1016.32 419.946C1017.13 417.284 1018.09 414.805 1019.19 412.512M1080.99 419.946C1080.39 417.754 1079.68 415.689 1078.88 413.751M954.128 412.512C955.577 401.319 959.343 390.647 964.872 380.917M954.128 412.512H984.242M1024.68 412.512H1019.19M964.872 380.917C970.421 371.152 977.746 362.336 986.287 354.898M964.872 380.917L992.573 393.346M1028.39 409.415L1022.46 406.754M986.287 354.898C995.273 347.071 1005.61 340.768 1016.63 336.487M986.287 354.898L1006.46 374.84M1037.05 405.078L1030.17 398.279M1016.63 336.487C1027.12 332.414 1038.24 330.171 1049.43 330.187M1016.63 336.487L1026.29 361.804M1041.38 401.361L1038.37 393.469M1049.43 330.187C1060.48 330.202 1071.59 332.421 1082.22 337.256M1049.43 330.187V357.983M1049.43 401.361V391.372M1082.22 337.256C1092.16 341.773 1101.68 348.574 1110.34 357.995M1082.22 337.256L1072.96 363.909M1059.95 401.361L1062.3 394.586M1110.34 357.995C1116.76 364.977 1122.71 373.398 1128.01 383.395M1110.34 357.995L1091.98 377.28M1065.52 405.078L1070.08 400.28M1128.01 383.395C1132.7 392.247 1136.88 402.334 1140.42 413.751M1128.01 383.395L1104.44 394.41M1072.32 409.415L1075.89 407.749M1140.42 413.751H1110.66M1073.56 413.751H1078.88M953.731 462.693H1142.25M1019.19 412.512C1020.17 410.442 1021.27 408.522 1022.46 406.754M1019.19 412.512H984.242M1022.46 406.754C1024.73 403.375 1027.34 400.548 1030.17 398.279M1022.46 406.754L992.573 393.346M1030.17 398.279C1032.75 396.213 1035.51 394.609 1038.37 393.469M1030.17 398.279L1006.46 374.84M1038.37 393.469C1041.96 392.038 1045.7 391.338 1049.43 391.372M1038.37 393.469L1026.29 361.804M1049.43 391.372C1053.83 391.413 1058.22 392.481 1062.3 394.586M1049.43 391.372V357.983M1062.3 394.586C1065.06 396.009 1067.69 397.906 1070.08 400.28M1062.3 394.586L1072.96 363.909M1070.08 400.28C1072.22 402.392 1074.17 404.881 1075.89 407.749M1070.08 400.28L1091.98 377.28M1075.89 407.749C1076.99 409.593 1077.99 411.594 1078.88 413.751M1075.89 407.749L1104.44 394.41M1078.88 413.751H1110.66M1110.66 413.751C1109.59 406.845 1107.44 400.353 1104.44 394.41M1104.44 394.41C1101.19 388.005 1096.95 382.238 1091.98 377.28M1091.98 377.28C1086.42 371.729 1079.95 367.192 1072.96 363.909M1072.96 363.909C1065.55 360.425 1057.55 358.354 1049.43 357.983M1049.43 357.983C1041.69 357.629 1033.84 358.82 1026.29 361.804M1026.29 361.804C1019.32 364.557 1012.61 368.838 1006.46 374.84M1006.46 374.84C1001.38 379.797 996.695 385.929 992.573 393.346M992.573 393.346C989.443 398.978 986.64 405.351 984.242 412.512" stroke="#002137" stroke-width="2"/>
<rect x="975.5" y="617.129" width="63" height="122" fill="#002137" stroke="#002137" stroke-width="2"/>
<rect x="1065.5" y="617.129" width="64" height="122" fill="#002137" stroke="#002137" stroke-width="2"/>
<rect x="1065.5" y="465.129" width="64" height="115" fill="#002137" stroke="#002137" stroke-width="2"/>
<rect x="975.5" y="465.129" width="63" height="115" fill="#002137" stroke="#002137" stroke-width="2"/>
<rect x="1022.5" y="311.129" width="55" height="8" fill="#002137" stroke="#002137" stroke-width="2"/>
<g filter="url(#filter0_d_421_71)">
<path d="M1356.45 30.061H66.4068L-32.5 153.129C-13.3567 144.977 9.50882 149.732 18.5487 153.129C45.7747 143.409 75.9785 149.079 87.6771 153.129C127.665 143.409 161.414 149.079 173.29 153.129C210.726 144.036 244.191 149.34 256.244 153.129C295.382 143.409 330.69 149.079 343.452 153.129C384.291 144.977 422.861 149.732 437.042 153.129C474.477 144.036 513.969 149.34 529.036 153.129C566.471 144.036 604.545 149.34 618.903 153.129C667.824 142.782 705.225 148.818 717.809 153.129C753.118 142.782 791.015 148.818 805.549 153.129C841.284 143.409 879.641 149.079 894.353 153.129C930.087 144.036 969.862 149.34 985.283 153.129C1026.12 142.155 1058.31 148.556 1069.3 153.129C1101.21 142.782 1137.9 148.818 1152.26 153.129C1186.71 145.604 1217.66 149.994 1228.83 153.129C1262.86 142.782 1296.54 148.818 1309.12 153.129C1338.05 142.782 1379.67 148.818 1396.86 153.129C1431.96 141.763 1462.09 149.994 1474.5 153.129L1356.45 30.061Z" fill="#1C3753" stroke="#002137"/>
<path d="M1429.5 104.326C1417.78 101.032 1389.33 92.3856 1356.19 104.326C1339.96 99.7969 1300.66 93.4561 1273.34 104.326C1261.46 99.7969 1229.66 93.4561 1197.52 104.326C1186.98 101.032 1157.75 96.4206 1125.22 104.326C1111.66 99.7969 1077.01 93.4561 1046.89 104.326C1036.51 99.5224 1006.11 92.7973 967.552 104.326C952.991 100.346 915.432 94.7737 881.69 104.326C867.798 100.071 831.579 94.1149 797.837 104.326C784.112 99.7969 748.328 93.4561 714.987 104.326C703.104 99.7969 667.788 93.4561 621.594 104.326C608.036 100.346 572.085 94.7737 536.736 104.326C522.509 100.346 485.218 94.7737 449.869 104.326C436.48 100.758 400.059 95.7619 361.497 104.326C349.446 100.071 316.105 94.1149 279.15 104.326C267.768 100.346 236.168 94.7737 200.819 104.326C189.605 100.071 157.738 94.1149 119.978 104.326C108.932 100.071 80.4116 94.1149 54.7032 104.326C46.1673 100.758 24.5762 95.7619 6.5 104.326" stroke="#002137"/>
<path d="M1386.5 60.828C1375.42 57.5341 1348.5 48.8876 1317.16 60.828C1301.8 56.2989 1264.63 49.9581 1238.79 60.828C1227.55 56.2989 1197.47 49.9581 1167.07 60.828C1157.1 57.5341 1129.46 52.9226 1098.68 60.828C1085.86 56.2989 1053.09 49.9581 1024.59 60.828C1014.77 56.0244 986.025 49.2993 949.549 60.828C935.775 56.8478 900.249 51.2756 868.333 60.828C855.193 56.5734 820.933 50.6169 789.017 60.828C776.035 56.2989 742.187 49.9581 710.65 60.828C699.41 56.2989 666.005 49.9581 622.31 60.828C609.487 56.8478 575.48 51.2756 542.044 60.828C528.587 56.8478 493.315 51.2756 459.878 60.828C447.213 57.2596 412.764 52.2638 376.288 60.828C364.889 56.5734 333.352 50.6169 298.396 60.828C287.631 56.8478 257.741 51.2756 224.305 60.828C213.697 56.5734 183.554 50.6169 147.838 60.828C137.389 56.5734 110.412 50.6169 86.0949 60.828C78.0208 57.2596 57.5981 52.2638 40.5 60.828" stroke="#002137"/>
<path d="M1289.5 30.061L1398.5 153.129" stroke="#002137"/>
<path d="M1213.5 30.061L1309.5 153.129" stroke="#002137"/>
<path d="M1145.5 30.061L1228.5 153.129" stroke="#002137"/>
<path d="M1078.5 29L1152.5 152.068" stroke="#002137"/>
<path d="M1009.5 30.061L1069.5 152.068" stroke="#002137"/>
<path d="M938.5 29L986.5 153.129" stroke="#002137"/>
<path d="M859.5 29L893.5 153.129" stroke="#002137"/>
<path d="M109.5 29L17.5 153.129" stroke="#002137"/>
<path d="M169.5 30.061L88.5 153.129" stroke="#002137"/>
<path d="M241.5 30.061L174.5 152.068" stroke="#002137"/>
<path d="M314.5 30.061L255.5 153.129" stroke="#002137"/>
<path d="M387.5 30.061L343.5 153.129" stroke="#002137"/>
<path d="M468.5 30.061L436.5 153.129" stroke="#002137"/>
<path d="M547.5 30.061L528.5 153.129" stroke="#002137"/>
<path d="M624.5 29L618.5 153.129" stroke="#002137"/>
<path d="M709.5 29L716.5 152.068" stroke="#002137"/>
<path d="M784.5 29L804.5 152.068" stroke="#002137"/>
</g>
<rect x="192" y="170.629" width="1057" height="107" fill="#002137" stroke="#FFDAA9" stroke-width="3"/>
<path d="M20.6793 315.567C18.7891 314.74 17.486 312.966 16.9423 310.703C16.3986 308.439 16.6257 305.715 17.779 303.078C18.9323 300.441 20.7788 298.425 22.8101 297.287C24.8412 296.15 27.0287 295.902 28.919 296.729C30.8093 297.555 32.1119 299.33 32.6556 301.594C33.1992 303.858 32.9722 306.582 31.8189 309.219C30.6655 311.855 28.8192 313.872 26.7878 315.009C24.7567 316.146 22.5696 316.394 20.6793 315.567Z" fill="#1C3753" stroke="#002137"/>
<path d="M27.1298 300.764C23.0922 298.998 21.4593 293.378 23.7776 288.078C26.0963 282.777 31.3318 280.16 35.3695 281.926C39.4073 283.692 41.0399 289.313 38.7213 294.614C36.4026 299.915 31.1675 302.53 27.1298 300.764Z" fill="#1C3753" stroke="#002137"/>
<path d="M15.1298 284.764C11.0922 282.998 9.45929 277.378 11.7776 272.078C14.0963 266.777 19.3318 264.16 23.3695 265.926C27.4073 267.692 29.0399 273.313 26.7213 278.614C24.4026 283.915 19.1675 286.53 15.1298 284.764Z" fill="#1C3753" stroke="#002137"/>
<path d="M29.1298 282.764C25.0922 280.998 23.4593 275.378 25.7776 270.078C28.0963 264.777 33.3318 262.16 37.3695 263.926C41.4073 265.692 43.0399 271.313 40.7213 276.614C38.4026 281.915 33.1675 284.53 29.1298 282.764Z" fill="#1C3753" stroke="#002137"/>
<path d="M19.2835 267.034C16.1595 263.926 16.6726 258.096 20.7533 253.995C24.8342 249.893 30.6619 249.35 33.786 252.459C36.9102 255.567 36.3965 261.397 32.3156 265.499C28.2346 269.6 22.4075 270.143 19.2835 267.034Z" fill="#1C3753" stroke="#002137"/>
<path d="M30.0921 253.726C28.863 252.503 28.3826 250.707 28.6563 248.743C28.9301 246.78 29.9584 244.681 31.6973 242.933C33.4362 241.186 35.5298 240.147 37.4922 239.863C39.4543 239.579 41.2525 240.052 42.4814 241.274C43.7103 242.497 44.1915 244.293 43.9178 246.256C43.6441 248.22 42.6156 250.319 40.8768 252.067C39.138 253.814 37.0444 254.853 35.082 255.137C33.1197 255.42 31.3211 254.949 30.0921 253.726Z" fill="#1C3753" stroke="#002137"/>
<path d="M53.5559 287.071C51.3401 290.88 45.5705 291.86 40.5692 288.951C35.5677 286.042 33.5665 280.542 35.7823 276.733C37.9981 272.923 43.7684 271.943 48.7698 274.852C53.771 277.762 55.7717 283.261 53.5559 287.071Z" fill="#1C3753" stroke="#002137"/>
<path d="M7.6715 515.567C5.78125 514.74 4.47816 512.966 3.9345 510.703C3.39079 508.439 3.61793 505.715 4.77116 503.078C5.92444 500.441 7.77096 498.425 9.80226 497.287C11.8334 496.15 14.0209 495.902 15.9112 496.729C17.8015 497.555 19.1041 499.33 19.6478 501.594C20.1914 503.858 19.9644 506.582 18.8111 509.219C17.6577 511.855 15.8114 513.872 13.78 515.009C11.7489 516.146 9.56177 516.394 7.6715 515.567Z" fill="#1C3753" stroke="#002137"/>
<path d="M22.1571 530.105C20.094 530.094 18.1952 528.981 16.8001 527.117C15.4049 525.254 14.5352 522.662 14.5507 519.784C14.5663 516.906 15.4641 514.324 16.8793 512.475C18.2945 510.627 20.2051 509.533 22.2683 509.544C24.3315 509.555 26.2301 510.669 27.6253 512.533C29.0204 514.397 29.8903 516.989 29.8747 519.867C29.8591 522.745 28.9614 525.327 27.5461 527.175C26.1309 529.024 24.2203 530.116 22.1571 530.105Z" fill="#1C3753" stroke="#002137"/>
<path d="M32.451 532.15C31.1524 532.143 29.9291 531.383 29.0131 530.057C28.0982 528.732 27.5224 526.879 27.5336 524.812C27.5448 522.746 28.1405 520.899 29.0697 519.584C30 518.268 31.2315 517.523 32.5301 517.53C33.8286 517.537 35.052 518.296 35.968 519.622C36.883 520.946 37.4596 522.799 37.4485 524.866C37.4373 526.933 36.8406 528.78 35.9114 530.094C34.981 531.41 33.7498 532.157 32.451 532.15Z" fill="#1C3753" stroke="#002137"/>
<path d="M44.0953 523.872C42.6913 525.168 40.6819 525.602 38.519 525.192C36.356 524.781 34.0754 523.528 32.2114 521.51C30.3475 519.491 29.2793 517.118 29.0419 514.93C28.8045 512.741 29.3967 510.772 30.8005 509.476C32.2046 508.179 34.2145 507.744 36.3775 508.155C38.5405 508.565 40.8212 509.819 42.6851 511.837C44.5491 513.855 45.6172 516.228 45.8547 518.417C46.0922 520.606 45.4994 522.575 44.0953 523.872Z" fill="#1C3753" stroke="#002137"/>
<path d="M33.2281 513.939C31.8241 515.235 29.8147 515.669 27.6518 515.259C25.4888 514.848 23.2082 513.595 21.3442 511.577C19.4803 509.559 18.4122 507.186 18.1747 504.997C17.9373 502.808 18.5295 500.84 19.9334 499.543C21.3374 498.246 23.3473 497.812 25.5104 498.222C27.6733 498.633 29.954 499.886 31.8179 501.904C33.6819 503.923 34.75 506.296 34.9875 508.484C35.225 510.673 34.6322 512.642 33.2281 513.939Z" fill="#1C3753" stroke="#002137"/>
<path d="M18.9798 174.36C29.3903 179.007 25.4811 204.204 48.8983 203.289C46.8125 216.733 61.3138 225.452 68.8252 228.132C70.8489 215.088 67.9125 207.924 66.1914 205.972C72.0245 210.12 84.2627 204.726 89.6527 201.511C81.1323 187.232 73.5351 185.369 70.0487 186.354C69.7673 186.496 69.4784 186.611 69.1818 186.697C69.4332 186.563 69.723 186.446 70.0487 186.354C75.8012 183.458 78.4196 169.4 79.0204 162.418C62.2149 162.124 55.6904 167.852 53.8571 172.352C53.7818 173.24 53.5921 174.164 53.2685 175.12C53.2696 174.315 53.4445 173.365 53.8571 172.352C54.478 165.025 47.3161 160.07 43.216 158.381C36.6489 170.118 36.3843 176.728 37.6985 179.907C38.3033 180.581 38.9163 181.31 39.5365 182.098C38.8666 181.768 38.1777 181.065 37.6985 179.907C28.7405 169.915 21.5708 171.916 18.9798 174.36Z" fill="#1C3753"/>
<path d="M41.4782 227.389C41.6484 226.841 41.8667 225.782 42.1444 223.992C43.0927 215.706 39.4418 197.058 17.252 188.758C15.6442 194.033 13.6824 205.4 17.7457 211.154C18.1362 211.529 18.4418 211.901 18.6667 212.252C18.3301 211.915 18.0238 211.547 17.7457 211.154C14.6001 208.131 5.94605 204.887 -10.3738 210.277C-7.07402 216.186 1.81359 228.258 10.9662 229.273C-9.33078 233.952 -1.18265 259.604 -8.18611 262.865C6.66416 258.306 24.905 271.026 32.4935 250.322C31.934 253.929 32.8015 261.353 38.8462 268.08C40.8069 270.262 43.3123 272.37 46.4904 274.251C50.8406 271.215 57.3804 260.154 48.7385 240.193C54.5682 239.58 67.202 237.289 71.1 233.037C65.5758 227.29 52.0507 217.435 42.1444 223.992C41.8667 225.782 41.6484 226.841 41.4782 227.389C41.0469 228.779 40.9242 226.893 40.9262 225.321C41.1024 225.831 41.2931 226.523 41.4782 227.389Z" fill="#1C3753"/>
<path d="M57.0203 304.22C43.1925 296.812 35.5729 300.049 33.4915 302.593C33.1363 294.038 24.2907 283.455 19.9123 279.234C15.2512 285.795 16.3349 292.508 17.4593 295.044C6.90965 292.598 -1.63963 297.478 -4.59557 300.224C3.56911 312.825 11.6699 313.88 14.6997 312.832C10.9398 314.216 12.4248 329.353 13.7242 337.35C16.2684 335.967 18.7685 335.432 21.1348 335.477C26.5713 332.153 29.4126 326.517 30.272 323.345C29.5361 328.088 45.0379 330.358 52.8809 330.901C52.2877 319.07 45.5515 315.09 42.2576 314.579C49.4672 312.054 55.1034 306.621 57.0203 304.22Z" fill="#1C3753"/>
<path d="M19.4371 354.045C22.1745 353.795 29.2711 351.321 35.7588 343.422C33.15 340.119 27.6499 335.601 21.1348 335.477C19.0816 336.732 16.6581 337.658 13.8314 337.996C13.7959 337.786 13.7601 337.571 13.7242 337.35C12.6749 337.92 11.6182 338.635 10.5602 339.512C11.7074 334.293 11.8736 323.22 3.36144 320.686C1.43062 324.434 -2.28105 333.573 -1.68116 340.143C-3.12093 336.378 -10.2751 330.309 -27.3738 336.157C-24.5785 342.95 -16.6592 356.75 -7.20864 358.014C-7.13299 358.021 -7.05939 358.03 -6.9879 358.041C-7.06157 358.033 -7.13515 358.024 -7.20864 358.014C-10.2698 357.73 -16.6457 360.872 -19.3654 375.856C-14.4131 377.636 -2.91734 379.419 3.44768 372.311C2.73217 376.923 2.55511 386.544 7.57098 388.131C12.6052 375.251 34.4441 366.898 19.4371 354.045Z" fill="#1C3753"/>
<path d="M30.9941 391.522C25.4852 388.98 12.2425 387.803 3.34252 403.423C7.79634 406.981 18.4785 412.653 25.5765 406.873C27.7545 410.309 29.8682 415.307 30.273 420.544C31.8047 423.63 33.6077 426.186 35.5864 427.148C36.572 426.23 38.9059 422.058 40.3566 412.708C41.4669 416.422 49.1482 422.573 70.9901 417.461C70.7836 416.402 70.47 415.144 70.0426 413.771C67.9428 407.027 63.0966 397.511 54.7103 395.201C57.473 394.788 63.0478 391.034 63.2456 379.323C60.5224 378.394 53.1952 378.877 45.6717 388.234C46.4354 385.485 46.3835 378.428 40.0659 372.185C36.0334 376.434 28.5735 386.251 30.9941 391.522Z" fill="#1C3753"/>
<path d="M32.7938 471.238C20.1725 471.708 13.6097 479.73 11.906 483.683C2.47389 485.863 1.85425 496.797 2.72344 501.991C7.86197 502.788 15.1323 499.194 18.1252 497.297C14.8337 502.858 29.5434 506.321 37.3097 507.357C39.0268 496.29 31.9311 492.018 28.1687 491.265C33.7091 486.863 33.5606 476.079 32.7938 471.238Z" fill="#1C3753"/>
<path d="M21.3959 442.405C22.8697 439.428 24.8018 430.888 20.7396 420.544C17.046 421.522 9.43186 424.941 8.52402 430.793C6.72932 427.141 0.713783 420.473 -8.9907 423.016C-9.61314 428.064 -9.58575 438.209 -4.84174 440.233C-4.5658 440.3 -4.32093 440.381 -4.10903 440.47C-4.36493 440.412 -4.60901 440.332 -4.84174 440.233C-7.86414 439.492 -14.6138 440.328 -22.5945 448.734C-17.3526 451.909 -6.12244 457.361 -3.13756 453.777C-3.53494 457.425 -3.09272 466.533 1.85514 473.777C4.66063 469.827 11.1541 461.456 14.684 459.576C17.5206 460.86 24.6097 462.131 30.273 456.936C29.2105 451.713 25.9475 441.493 21.3959 442.405Z" fill="#1C3753"/>
<path d="M48.8983 203.289C25.4811 204.204 29.3903 179.007 18.9798 174.36C21.5708 171.916 28.7405 169.915 37.6985 179.907M48.8983 203.289C46.8125 216.733 61.3138 225.452 68.8252 228.132C70.8489 215.088 67.9125 207.924 66.1914 205.972C72.0245 210.12 84.2627 204.726 89.6527 201.511C81.1323 187.232 73.5351 185.369 70.0487 186.354M48.8983 203.289C49.4662 201.91 50.458 199.948 51.8729 197.673M48.8983 203.289C47.0558 207.555 43.1256 217.668 42.1444 223.992M68.6962 180.043C60.7893 185.336 55.1774 192.359 51.8729 197.673M51.8729 197.673C49.3427 194.243 45.1119 186.601 48.4301 183.478M51.8729 197.673C55.5839 198.586 65.0744 200.126 73.3478 198.981M42.1444 223.992C43.0927 215.706 39.4418 197.058 17.252 188.758C15.6442 194.033 13.6824 205.4 17.7457 211.154M42.1444 223.992C52.0507 217.435 65.5758 227.29 71.1 233.037C67.202 237.289 54.5682 239.58 48.7385 240.193C57.3804 260.154 50.8406 271.215 46.4904 274.251C43.3123 272.37 40.8069 270.262 38.8462 268.08M42.1444 223.992C41.8667 225.782 41.6484 226.841 41.4782 227.389M40.9262 225.321C31.8852 230.327 14.0826 241.799 15.2004 247.639M40.9262 225.321C37.6209 223.797 28.6915 220.691 19.4163 220.466M40.9262 225.321C40.9242 226.893 41.0469 228.779 41.4782 227.389M40.9262 225.321C41.1024 225.831 41.2931 226.523 41.4782 227.389M41.3871 251.702C43.1726 240.194 42.3938 231.673 41.4782 227.389M38.8462 268.08C32.8015 261.353 31.934 253.929 32.4935 250.322C24.905 271.026 6.66416 258.306 -8.18611 262.865M38.8462 268.08C41.0479 273.456 43.0594 287.886 33.4915 302.593M33.4915 302.593C30.0187 303.235 22.4871 305.035 20.1428 307.1M33.4915 302.593C30.8366 307.747 24.7585 318.442 21.685 319.989M33.4915 302.593C34.9966 304.851 37.7307 311.144 36.6268 318.259M33.4915 302.593C35.5729 300.049 43.1925 296.812 57.0203 304.22C55.1034 306.621 49.4672 312.054 42.2576 314.579C45.5515 315.09 52.2877 319.07 52.8809 330.901C45.0379 330.358 29.5361 328.088 30.272 323.345C29.4126 326.517 26.5713 332.153 21.1348 335.477M33.4915 302.593C33.1363 294.038 24.2907 283.455 19.9123 279.234C15.2512 285.795 16.3349 292.508 17.4593 295.044C6.90965 292.598 -1.63963 297.478 -4.59557 300.224C3.56911 312.825 11.6699 313.88 14.6997 312.832C10.9398 314.216 12.4248 329.353 13.7242 337.35M19.4371 354.045C22.1745 353.795 29.2711 351.321 35.7588 343.422C33.15 340.119 27.6499 335.601 21.1348 335.477M19.4371 354.045C34.4441 366.898 12.6052 375.251 7.57098 388.131C2.55511 386.544 2.73217 376.923 3.44768 372.311C-2.91734 379.419 -14.4131 377.636 -19.3654 375.856C-16.6457 360.872 -10.2698 357.73 -7.20864 358.014M19.4371 354.045L-2.67809 346.569M19.4371 354.045C17.1205 358.541 6.32403 362.469 1.2154 363.87M19.4371 354.045L14.6238 342.673M23.6503 367.107C21.5803 370.665 20.1511 380.529 30.9941 391.522M30.9941 391.522C41.837 402.514 51.4139 406.665 54.8469 407.366M30.9941 391.522C35.6794 393.935 45.4233 398.314 46.9157 396.522M30.9941 391.522C32.7774 394.16 36.0681 401.214 34.9642 408.329M30.9941 391.522C25.4852 388.98 12.2425 387.803 3.34252 403.423C7.79634 406.981 18.4785 412.653 25.5765 406.873M30.9941 391.522C28.5735 386.251 36.0334 376.434 40.0659 372.185C46.3835 378.428 46.4354 385.485 45.6717 388.234C53.1952 378.877 60.5224 378.394 63.2456 379.323C63.0478 391.034 57.473 394.788 54.7103 395.201C63.0966 397.511 67.9428 407.027 70.0426 413.771C70.47 415.144 70.7836 416.402 70.9901 417.461C49.1482 422.573 41.4669 416.422 40.3566 412.708C38.9059 422.058 36.572 426.23 35.5864 427.148C33.6077 426.186 31.8047 423.63 30.273 420.544M25.5765 406.873C27.7545 410.309 29.8682 415.307 30.273 420.544M25.5765 406.873C26.3495 410.308 28.0169 416 30.273 420.544M21.3959 442.405C18.6074 442.984 0.925809 444.438 -9.90316 446.401M21.3959 442.405C18.383 440.082 1.75021 435.863 -3.08837 438.351M21.3959 442.405C20.4533 446.307 8.60824 453.625 6.35926 452.466M21.3959 442.405C22.8697 439.428 24.8018 430.888 20.7396 420.544C17.046 421.522 9.43186 424.941 8.52402 430.793C6.72932 427.141 0.713783 420.473 -8.9907 423.016C-9.61314 428.064 -9.58575 438.209 -4.84174 440.233M21.3959 442.405C25.9475 441.493 29.2105 451.713 30.273 456.936C24.6097 462.131 17.5206 460.86 14.684 459.576M21.3959 442.405C36.5314 438.257 30.9259 428.991 30.273 420.544M14.684 459.576C11.1541 461.456 4.66063 469.827 1.85514 473.777C-3.09272 466.533 -3.53494 457.425 -3.13756 453.777C-6.12244 457.361 -17.3526 451.909 -22.5945 448.734C-14.6138 440.328 -7.86414 439.492 -4.84174 440.233M14.684 459.576C14.711 465.284 6.85693 475.445 11.906 483.683M21.7797 493.31C17.5405 491.08 14.3219 487.624 11.906 483.683M11.906 483.683C13.6097 479.73 20.1725 471.708 32.7938 471.238C33.5606 476.079 33.7091 486.863 28.1687 491.265C31.9311 492.018 39.0268 496.29 37.3097 507.357C29.5434 506.321 14.8337 502.858 18.1252 497.297C15.1323 499.194 7.86197 502.788 2.72344 501.991C1.85425 496.797 2.47389 485.863 11.906 483.683ZM25.9456 505.594C27.2379 515.745 29.7921 539.727 -0.671105 532.572C-2.66926 531.767 -13.1764 523.884 -14.8861 520.916M-7.10661 519.693C0.143051 528.407 4.73104 502.096 -9.37288 508.209C-17.2971 511.644 -17.251 516.81 -14.8861 520.916M-14.8861 520.916C-19.7517 520.629 -28.4896 517.029 -30.0606 512.083M-21.8101 513.364C-17.2525 516.601 -18.0283 498.772 -25.3712 503.703C-29.7931 506.673 -30.864 509.554 -30.0606 512.083M-30.0606 512.083C-35.9258 511.511 -40.195 517.94 -40.6923 526.363M70.0487 186.354C69.7673 186.496 69.4784 186.611 69.1818 186.697C69.4332 186.563 69.723 186.446 70.0487 186.354ZM70.0487 186.354C75.8012 183.458 78.4196 169.4 79.0204 162.418C62.2149 162.124 55.6904 167.852 53.8571 172.352M53.8571 172.352C53.7818 173.24 53.5921 174.164 53.2685 175.12C53.2696 174.315 53.4445 173.365 53.8571 172.352ZM53.8571 172.352C54.478 165.025 47.3161 160.07 43.216 158.381C36.6489 170.118 36.3843 176.728 37.6985 179.907M37.6985 179.907C38.3033 180.581 38.9163 181.31 39.5365 182.098C38.8666 181.768 38.1777 181.065 37.6985 179.907ZM17.7457 211.154C18.1362 211.529 18.4418 211.901 18.6667 212.252C18.3301 211.915 18.0238 211.547 17.7457 211.154ZM17.7457 211.154C14.6001 208.131 5.94605 204.887 -10.3738 210.277C-7.07402 216.186 1.81359 228.258 10.9662 229.273C-9.33078 233.952 -1.18265 259.604 -8.18611 262.865M-8.18611 262.865C-8.44457 262.944 -8.702 263.028 -8.95834 263.118C-8.6821 263.061 -8.42527 262.976 -8.18611 262.865ZM13.7242 337.35C16.2684 335.967 18.7685 335.432 21.1348 335.477M13.7242 337.35C12.6749 337.92 11.6182 338.635 10.5602 339.512C11.7074 334.293 11.8736 323.22 3.36144 320.686C1.43062 324.434 -2.28105 333.573 -1.68116 340.143C-3.12093 336.378 -10.2751 330.309 -27.3738 336.157C-24.5785 342.95 -16.6592 356.75 -7.20864 358.014M13.7242 337.35C13.7601 337.571 13.7959 337.786 13.8314 337.996C16.6581 337.658 19.0816 336.732 21.1348 335.477M-7.20864 358.014C-7.13299 358.021 -7.05939 358.03 -6.9879 358.041C-7.06157 358.033 -7.13515 358.024 -7.20864 358.014ZM-4.84174 440.233C-4.5658 440.3 -4.32093 440.381 -4.10903 440.47C-4.36493 440.412 -4.60901 440.332 -4.84174 440.233Z" stroke="#002137" stroke-width="2" stroke-linecap="round"/>
<path d="M29.4534 757.565C26.8994 763.516 25.3181 768.597 24.5478 771.989C35.9316 777.717 47.8412 776.631 53.0875 775.055C43.7326 781.322 50.0139 800.826 54.3239 809.795C70.6553 797.976 71.5347 785.54 69.933 780.799C84.915 796.178 102.633 792.585 109.619 788.866C103.318 772.177 88.7287 765.431 82.2217 764.144C93.0591 763.765 98.7947 747.761 100.308 739.806C86.5538 735.727 75.716 741.25 72.0163 744.522C74.8707 736.751 70.5971 726.583 68.1035 722.47C51.0191 733.219 49.3429 748.575 50.6404 754.91C42.9215 751.953 35.4622 754.01 29.4534 757.565Z" fill="#1C3753"/>
<path d="M124.598 543.451C95.5389 551.743 90.3576 564.356 91.3994 569.627C73.3645 559.918 55.3461 571.272 48.5912 578.163C55.5667 589.896 69.6971 594.511 75.8904 595.352C65.3467 597.654 59.6379 613.197 58.1015 620.681C78.7131 623.133 90.5388 612.379 93.8752 606.695C98.1948 619.659 118.135 626.958 127.566 628.987C134.463 617.408 124.628 599.98 118.848 592.713C131.934 599.267 146.663 591.968 152.391 587.5C134.168 572.626 124.743 570.166 120.439 571.682C119.565 572.947 118.561 574.167 117.412 575.319C117.625 573.814 118.527 572.356 120.439 571.682C127.261 561.811 126.209 549.122 124.598 543.451Z" fill="#1C3753"/>
<path d="M17.3672 574.437C23.0519 573.136 34.8576 566.947 36.6025 552.594C31.9356 550.996 22.5289 549.292 17.7304 553.316C17.1567 554.244 16.5173 555.002 15.8918 555.573C16.3758 554.674 16.9997 553.929 17.7304 553.316C20.6561 548.583 21.8743 539.42 10.8398 527.921C4.9104 532.763 -6.41342 544.231 -4.27345 551.367C-9.21144 548.708 -22.1793 546.049 -34.5469 556.678C-33.7048 561.286 -28.1958 571.731 -12.8962 576.644C-15.4232 577.223 -20.9729 581.771 -22.9555 595.33C-18.8763 597.526 -7.95287 599.251 3.10665 588.583C6.33487 591.983 12.6577 599.874 12.1232 604.24C11.455 609.698 24.3926 582.992 17.3672 574.437Z" fill="#1C3753"/>
<path d="M-90.7545 963.567C-96.8809 949.742 -96.1719 917.767 -44.3251 900.467C-40.9561 897.294 -37.5475 890.652 -50.8646 889.467C-24.2062 873.899 68.6476 823.324 39.5161 791.02C34.312 786.804 25.9765 779.429 23.7841 775.499C22.4851 781.034 20.7262 786.027 18.587 790.557C41.6604 796.329 34.3559 820.654 13.6445 834.437C-2.92466 845.463 -57.322 880.885 -82.4495 897.217C-84.0893 907.515 -89.103 920.184 -103.336 936.017L-90.7545 963.567Z" fill="#1C3753"/>
<path d="M49.6762 725.848C38.7803 675.104 92.7863 675.089 105.423 636.183C90.3554 658.448 67.974 654.877 46.7848 684.78C45.1115 692.199 42.3656 698.953 38.9704 705.008C38.0991 710.834 37.9416 717.331 39.6196 722.927C43.7794 736.802 10.6826 748.904 15.3388 768.032C19.995 787.16 -13.9464 816.26 -44.0219 825.833C-12.5645 802.876 -8.64988 738.829 5.77819 737.953C16.0617 732.478 29.8558 721.264 38.9704 705.008C39.8272 699.28 41.374 694.2 42.5449 691.259C43.9511 688.937 45.3653 686.784 46.7848 684.78C50.1131 670.026 49.1981 652.647 40.709 632.926C39.5758 630.294 38.5672 627.711 37.6767 625.18C14.7823 560.106 69.9419 529.277 91.3994 569.627C76.911 536.68 35.6661 541.357 27.0641 580.702C24.5789 592.07 24.8184 606.331 29.2151 623.415C30.0146 624.984 30.7648 626.526 31.4673 628.043C63.067 696.264 -1.80594 712.172 -10.677 740.729C-13.6329 733.875 -22.1509 721.92 -32.5759 728.941C6.6621 773.334 -64.8871 833.715 -85.4503 853.396C-106.013 873.076 -89.3182 905.334 -111.417 921.694L-103.336 936.017C-89.103 920.184 -84.0893 907.515 -82.4495 897.217C-79.797 880.561 -85.9722 870.11 -76.2351 862.512C-54.7121 834.892 -1.42271 832.933 18.587 790.557C20.7262 786.027 22.4851 781.034 23.7841 775.499C22.9706 774.041 23.0029 773.057 24.3548 772.885C24.4122 772.601 24.4765 772.302 24.5478 771.989C25.3181 768.597 26.8994 763.516 29.4534 757.565C32.2072 751.148 36.0918 743.719 41.3098 736.303C43.79 732.778 46.5716 729.256 49.6762 725.848Z" fill="#1C3753"/>
<path d="M24.3548 772.885C24.4122 772.601 24.4765 772.302 24.5478 771.989M24.3548 772.885C23.0029 773.057 22.9706 774.041 23.7841 775.499M24.3548 772.885C24.1758 773.77 23.9854 774.641 23.7841 775.499M91.3994 569.627C76.911 536.68 35.6661 541.357 27.0641 580.702M91.3994 569.627C98.7632 578.577 113.551 598.837 113.793 608.276M91.3994 569.627C88.2778 576.969 82.9857 593.899 86.7902 602.881M91.3994 569.627C99.0626 572.367 114.815 578.908 116.519 583.149M91.3994 569.627C90.3576 564.356 95.5389 551.743 124.598 543.451C126.209 549.122 127.261 561.811 120.439 571.682M91.3994 569.627C73.3645 559.918 55.3461 571.272 48.5912 578.163C55.5667 589.896 69.6971 594.511 75.8904 595.352C65.3467 597.654 59.6379 613.197 58.1015 620.681C78.7131 623.133 90.5388 612.379 93.8752 606.695C98.1948 619.659 118.135 626.958 127.566 628.987C134.463 617.408 124.628 599.98 118.848 592.713C131.934 599.267 146.663 591.968 152.391 587.5C134.168 572.626 124.743 570.166 120.439 571.682M91.3994 569.627C69.9419 529.277 14.7823 560.106 37.6767 625.18C38.5672 627.711 39.5758 630.294 40.709 632.926C49.1981 652.647 50.1131 670.026 46.7848 684.78M-103.336 936.017L-111.417 921.694C-89.3182 905.334 -106.013 873.076 -85.4503 853.396C-64.8871 833.715 6.6621 773.334 -32.5759 728.941C-22.1509 721.92 -13.6329 733.875 -10.677 740.729C-1.80594 712.172 63.067 696.264 31.4673 628.043C30.7648 626.526 30.0146 624.984 29.2151 623.415C24.8184 606.331 24.5789 592.07 27.0641 580.702M-103.336 936.017C-89.103 920.184 -84.0893 907.515 -82.4495 897.217M-103.336 936.017L-90.7545 963.567C-96.8809 949.742 -96.1719 917.767 -44.3251 900.467C-40.9561 897.294 -37.5475 890.652 -50.8646 889.467C-24.2062 873.899 68.6476 823.324 39.5161 791.02C34.312 786.804 25.9765 779.429 23.7841 775.499M-82.4495 897.217C-79.797 880.561 -85.9722 870.11 -76.2351 862.512C-54.7121 834.892 -1.42271 832.933 18.587 790.557M-82.4495 897.217C-57.322 880.885 -2.92466 845.463 13.6445 834.437C34.3559 820.654 41.6604 796.329 18.587 790.557M18.587 790.557C20.7262 786.027 22.4851 781.034 23.7841 775.499M41.3098 736.303C43.79 732.778 46.5716 729.256 49.6762 725.848C38.7803 675.104 92.7863 675.089 105.423 636.183C90.3554 658.448 67.974 654.877 46.7848 684.78M41.3098 736.303C43.0201 741.05 46.6199 749.377 50.6404 754.91M41.3098 736.303C36.0918 743.719 32.2072 751.148 29.4534 757.565M56.166 760.091C62.1069 762.624 72.9072 758.299 77.5648 755.82M56.166 760.091L83.856 774.997M56.166 760.091L57.6954 774.211M56.166 760.091C54.3278 759.307 52.4419 757.389 50.6404 754.91M50.6404 754.91C49.3429 748.575 51.0191 733.219 68.1035 722.47C70.5971 726.583 74.8707 736.751 72.0163 744.522C75.716 741.25 86.5538 735.727 100.308 739.806C98.7947 747.761 93.0591 763.765 82.2217 764.144C88.7287 765.431 103.318 772.177 109.619 788.866C102.633 792.585 84.915 796.178 69.933 780.799C71.5347 785.54 70.6553 797.976 54.3239 809.795C50.0139 800.826 43.7326 781.322 53.0875 775.055C47.8412 776.631 35.9316 777.717 24.5478 771.989M50.6404 754.91C42.9215 751.953 35.4622 754.01 29.4534 757.565M27.0641 580.702C24.4224 578.883 21.0544 576.682 17.3672 574.437M-14.4312 562.52C-10.0665 560.076 1.65226 565.375 12.3233 571.462M12.3233 571.462C11.9934 565.902 10.1543 554.812 5.43749 554.932M12.3233 571.462C10.11 574.03 4.1177 578.988 -2.14482 578.276M12.3233 571.462C14.0436 572.443 15.7366 573.444 17.3672 574.437M17.3672 574.437C23.0519 573.136 34.8576 566.947 36.6025 552.594C31.9356 550.996 22.5289 549.292 17.7304 553.316M17.3672 574.437C24.3926 582.992 11.455 609.698 12.1232 604.24C12.6577 599.874 6.33487 591.983 3.10665 588.583C-7.95287 599.251 -18.8763 597.526 -22.9555 595.33C-20.9729 581.771 -15.4232 577.223 -12.8962 576.644C-28.1958 571.731 -33.7048 561.286 -34.5469 556.678C-22.1793 546.049 -9.21144 548.708 -4.27345 551.367C-6.41342 544.231 4.9104 532.763 10.8398 527.921C21.8743 539.42 20.6561 548.583 17.7304 553.316M29.4534 757.565C26.8994 763.516 25.3181 768.597 24.5478 771.989M120.439 571.682C119.565 572.947 118.561 574.167 117.412 575.319C117.625 573.814 118.527 572.356 120.439 571.682ZM17.7304 553.316C17.1567 554.244 16.5173 555.002 15.8918 555.573C16.3758 554.674 16.9997 553.929 17.7304 553.316ZM46.7848 684.78C45.1115 692.199 42.3656 698.953 38.9704 705.008M46.7848 684.78C45.3653 686.784 43.9511 688.937 42.5449 691.259C41.374 694.2 39.8272 699.28 38.9704 705.008M38.9704 705.008C38.0991 710.834 37.9416 717.331 39.6196 722.927C43.7794 736.802 10.6826 748.904 15.3388 768.032C19.995 787.16 -13.9464 816.26 -44.0219 825.833C-12.5645 802.876 -8.64988 738.829 5.77819 737.953C16.0617 732.478 29.8558 721.264 38.9704 705.008Z" stroke="#002137" stroke-width="2" stroke-linecap="round"/>
</g>
<defs>
<filter id="filter0_d_421_71" x="-32.8906" y="28.7021" width="1510.96" height="135.339" filterUnits="userSpaceOnUse" color-interpolation-filters="sRGB">
<feFlood flood-opacity="0" result="BackgroundImageFix"/>
<feColorMatrix in="SourceAlpha" type="matrix" values="0 0 0 0 0 0 0 0 0 0 0 0 0 0 0 0 0 0 127 0" result="hardAlpha"/>
<feOffset dx="2" dy="10"/>
<feComposite in2="hardAlpha" operator="out"/>
<feColorMatrix type="matrix" values="0 0 0 0 0.876327 0 0 0 0 0.737921 0 0 0 0 0.554627 0 0 0 1 0"/>
<feBlend mode="normal" in2="BackgroundImageFix" result="effect1_dropShadow_421_71"/>
<feBlend mode="normal" in="SourceGraphic" in2="effect1_dropShadow_421_71" result="shape"/>
</filter>
<clipPath id="clip0_421_71">
<rect width="1440" height="877" fill="white"/>
</clipPath>
</defs>
</svg>
