<svg width="1440" height="764" viewBox="0 0 1440 764" fill="none" xmlns="http://www.w3.org/2000/svg">
<g clip-path="url(#clip0_337_2552)">
<rect width="1440" height="764" fill="#FFF6E7"/>
<path d="M752.314 764.772V333.652L735 314V764.772H752.314Z" fill="#1C3753"/>
<path d="M735 314L752.314 333.652L939.026 331.954L954 315.228L735 314Z" fill="#1C3753"/>
<path d="M954 766V315.228L939.026 331.954V339.793V754.332V766H954Z" fill="#1C3753"/>
<path d="M752.314 333.652V764.772L758.397 759.859V339.793L752.314 333.652Z" fill="#1C3753"/>
<path fill-rule="evenodd" clip-rule="evenodd" d="M897.378 571.935L852.455 561.495L851.051 705.815L897.378 721.168V571.935ZM851.051 397.522V513.592L897.846 517.891V379.712L851.051 397.522ZM837.013 517.891H844.5V532.91L852.455 533.859V540L844.5 538.418V555.967H837.013V536.929V532.016V517.891Z" fill="#1C3753"/>
<path d="M856.199 568.25L894.103 578.076V713.185L856.199 700.288V568.25Z" fill="#002137"/>
<path d="M856.199 509.908L895.038 511.75V385.239L856.199 400.592V509.908Z" fill="#002137"/>
<path fill-rule="evenodd" clip-rule="evenodd" d="M852.455 561.495L897.378 571.935V721.168L851.051 705.815L852.455 561.495ZM894.103 578.076L856.199 568.25V700.288L894.103 713.185V578.076Z" fill="#1C3753"/>
<path fill-rule="evenodd" clip-rule="evenodd" d="M851.051 513.592V397.522L897.846 379.712V517.891L851.051 513.592ZM895.038 511.75L856.199 509.908V400.592L895.038 385.239V511.75Z" fill="#1C3753"/>
<path d="M837.013 555.967H844.5V538.418L837.013 536.929V555.967Z" fill="#002137"/>
<path d="M844.5 517.891H837.013V532.016L844.5 532.91V517.891Z" fill="#002137"/>
<path d="M852.455 540V533.859L844.5 532.91V538.418L852.455 540Z" fill="#002137"/>
<path d="M837.013 532.016V536.929L844.5 538.418V532.91L837.013 532.016Z" fill="#002137"/>
<path fill-rule="evenodd" clip-rule="evenodd" d="M897.378 571.935L852.455 561.495L851.051 705.815L897.378 721.168V571.935ZM851.051 397.522V513.592L897.846 517.891V379.712L851.051 397.522ZM837.013 517.891H844.5V532.91L852.455 533.859V540L844.5 538.418V555.967H837.013V536.929V532.016V517.891Z" fill="#1C3753"/>
<path d="M752.314 333.652L758.397 339.793H913.491H920.776H939.026V331.954L752.314 333.652Z" fill="#1C3753"/>
<path fill-rule="evenodd" clip-rule="evenodd" d="M830.929 381.554V723.625L920.776 759.859V339.793H913.491L830.929 381.554ZM897.378 571.935L852.455 561.495L851.051 705.815L897.378 721.168V571.935ZM851.051 397.522V513.592L897.846 517.891V379.712L851.051 397.522ZM837.013 517.891H844.5V532.91L852.455 533.859V540L844.5 538.418V555.967H837.013V536.929V532.016V517.891Z" fill="#1C3753"/>
<path d="M939.026 754.332V339.793H920.776V759.859L939.026 754.332Z" fill="#1C3753"/>
<path d="M752.314 764.772V333.652M752.314 764.772H735V314M752.314 764.772L758.397 759.859V339.793M752.314 333.652L735 314M752.314 333.652L758.397 339.793M752.314 333.652L939.026 331.954M735 314L954 315.228M758.397 339.793H913.491M939.026 339.793V331.954M939.026 339.793V754.332M939.026 339.793H913.491M939.026 339.793H920.776M954 315.228V766H939.026M954 315.228L939.026 331.954M939.026 766V331.954M939.026 766V754.332M939.026 754.332L920.776 759.859M920.776 759.859L830.929 723.625V381.554L913.491 339.793M920.776 759.859V339.793M837.013 536.929V555.967H844.5V538.418M837.013 536.929V532.016M837.013 536.929L844.5 538.418M837.013 532.016V517.891H844.5V532.91M837.013 532.016L844.5 532.91M920.776 339.793H913.491M844.5 532.91L852.455 533.859V540L844.5 538.418M844.5 532.91V538.418M852.455 561.495L897.378 571.935V721.168L851.051 705.815L852.455 561.495ZM856.199 568.25L894.103 578.076V713.185L856.199 700.288V568.25ZM856.199 509.908L895.038 511.75V385.239L856.199 400.592V509.908ZM851.051 513.592V397.522L897.846 379.712V517.891L851.051 513.592Z" stroke="#002137" stroke-width="2" stroke-linecap="round"/>
<path d="M62.0281 538.617C38.8006 524.892 54.7654 466.674 -0.537913 462.542C7.98013 431.48 -23.7704 407.078 -40.7104 398.76C-48.9751 428.899 -43.9973 446.538 -40.4753 451.591C-53.0747 440.269 -83.2987 449.671 -96.8357 455.788C-80.6414 491.661 -63.2799 498.08 -54.8182 496.699C-54.1185 496.441 -53.4082 496.248 -52.6879 496.125C-53.3148 496.373 -54.0277 496.57 -54.8182 496.699C-69.1218 501.968 -79.057 534.331 -82.3465 550.592C-42.9134 555.795 -26.0334 544.072 -20.5137 533.981C-20.0978 531.911 -19.4034 529.79 -18.3855 527.626C-18.6044 529.521 -19.2713 531.709 -20.5137 533.981C-23.9431 551.048 -8.43627 564.623 0.749622 569.697C19.345 543.853 21.7438 528.377 19.5085 520.547C18.2679 518.798 17.0228 516.919 15.7763 514.9C17.2628 515.854 18.6936 517.693 19.5085 520.547C37.8844 546.453 55.2793 543.669 62.0281 538.617Z" fill="#1C3753"/>
<path d="M23.3868 407.846C22.8391 409.091 22.0412 411.522 20.9072 415.657C16.45 434.894 20.0206 479.737 69.9608 505.215C75.1592 493.238 82.8275 467.028 74.8207 452.404C74.0034 451.416 73.3849 450.46 72.9507 449.572C73.6514 450.456 74.2727 451.403 74.8207 452.404C81.4039 460.358 100.879 470.311 140.698 462.013C134.528 447.229 116.877 416.448 95.6314 411.604C144.61 406.045 132.349 343.521 149.691 337.732C113.551 344.468 74.0835 309.654 50.676 356.315C52.961 347.983 52.9171 330.287 40.5135 312.843C36.4902 307.184 31.1664 301.552 24.1999 296.275C13.156 302.248 -5.19376 326.511 9.7586 375.781C-4.11267 375.66 -34.4323 377.656 -44.7404 386.612C-33.2971 401.613 -4.14683 428.423 20.9072 415.657C22.0412 411.522 22.8391 409.091 23.3868 407.846C24.7743 404.693 24.5558 409.162 24.1285 412.859C23.8512 411.613 23.5891 409.932 23.3868 407.846Z" fill="#1C3753"/>
<path d="M7.49897 222.958C38.0188 244.093 56.8039 238.524 62.3814 233.098C60.9166 253.318 78.8691 280.583 88.0284 291.688C100.751 277.505 100.008 261.424 98.0462 255.157C122.192 263.742 143.605 254.558 151.293 248.892C135.484 217.062 116.721 212.408 109.316 214.059C118.529 211.811 119.106 175.808 118.201 156.651C111.847 159.222 105.825 159.808 100.274 159.067C86.5983 165.426 78.4028 177.921 75.5297 185.151C78.5351 174.192 42.6981 164.692 24.4039 161.312C22.6182 189.299 37.386 200.468 44.9931 202.554C27.3637 206.557 12.6514 217.824 7.49897 222.958Z" fill="#1C3753"/>
<path d="M109.257 115.847C102.754 115.701 85.4035 119.617 68.0266 136.455C73.2724 144.924 84.9893 157.027 100.274 159.067C105.439 156.665 111.386 155.139 118.122 155.102C118.15 155.605 118.176 156.122 118.201 156.651C120.821 155.591 123.498 154.194 126.221 152.413C122.121 164.383 118.753 190.383 138.086 198.627C143.633 190.329 154.816 169.829 155.172 154.215C157.545 163.458 172.734 179.652 214.508 170.486C209.762 153.757 194.852 119.174 172.972 113.663C172.796 113.627 172.626 113.585 172.46 113.54C172.631 113.579 172.802 113.621 172.972 113.663C180.093 115.153 195.928 109.474 206.351 74.9596C195.186 69.443 168.637 62.1626 151.761 77.174C154.683 66.5182 157.686 43.9365 146.319 38.8557C131.021 67.8015 77.4287 81.5883 109.257 115.847Z" fill="#1C3753"/>
<path d="M-0.537913 462.542C54.7654 466.674 38.8006 524.892 62.0281 538.617C55.2793 543.669 37.8844 546.453 19.5085 520.547M-0.537913 462.542C7.98013 431.48 -23.7704 407.078 -40.7104 398.76C-48.9751 428.899 -43.9973 446.538 -40.4753 451.591C-53.0747 440.269 -83.2987 449.671 -96.8357 455.788C-80.6414 491.661 -63.2799 498.08 -54.8182 496.699M-0.537913 462.542C-2.24375 465.633 -5.10323 469.982 -9.04144 474.954M-0.537913 462.542C4.94085 453.003 16.9001 430.27 20.9072 415.657M-53.3347 511.906C-33.3218 501.58 -18.2394 486.567 -9.04144 474.954M-9.04144 474.954C-4.01475 483.702 3.87831 502.81 -4.76297 509.268M-9.04144 474.954C-17.5211 471.81 -39.4204 465.64 -59.1804 466.114M20.9072 415.657C16.45 434.894 20.0206 479.737 69.9608 505.215C75.1592 493.238 82.8275 467.028 74.8207 452.404M20.9072 415.657C-4.14683 428.423 -33.2971 401.613 -44.7404 386.612C-34.4323 377.656 -4.11267 375.66 9.7586 375.781C-5.19376 326.511 13.156 302.248 24.1999 296.275C31.1664 301.552 36.4902 307.184 40.5135 312.843M20.9072 415.657C22.0412 411.522 22.8391 409.091 23.3868 407.846M24.1285 412.859C46.731 403.51 91.6714 381.305 90.6134 367.267M24.1285 412.859C31.4899 417.332 51.6494 427.034 73.3964 430.051M24.1285 412.859C24.5558 409.162 24.7743 404.693 23.3868 407.846M24.1285 412.859C23.8512 411.613 23.5891 409.932 23.3868 407.846M30.1367 350.683C22.8451 377.273 22.3856 397.524 23.3868 407.846M40.5135 312.843C52.9171 330.287 52.961 347.983 50.676 356.315C74.0835 309.654 113.551 344.468 149.691 337.732M40.5135 312.843C36.7823 299.605 35.9323 265.124 62.3814 233.098M62.3814 233.098C70.719 232.521 88.9109 230.308 94.9778 226.08M62.3814 233.098C70.0089 221.688 87.1745 198.164 94.8167 195.35M62.3814 233.098C59.4497 227.385 54.7133 211.847 59.2213 195.408M62.3814 233.098C56.8039 238.524 38.0188 244.093 7.49897 222.958C12.6514 217.824 27.3637 206.557 44.9931 202.554C37.386 200.468 22.6182 189.299 24.4039 161.312C42.6981 164.692 78.5351 174.192 75.5297 185.151C78.4028 177.921 86.5983 165.426 100.274 159.067M62.3814 233.098C60.9166 253.318 78.8691 280.583 88.0284 291.688C100.751 277.505 100.008 261.424 98.0462 255.157C122.192 263.742 143.605 254.558 151.293 248.892C135.484 217.062 116.721 212.408 109.316 214.059C118.529 211.811 119.106 175.808 118.201 156.651M109.257 115.847C102.754 115.701 85.4035 119.617 68.0266 136.455C73.2724 144.924 84.9893 157.027 100.274 159.067M109.257 115.847C77.4287 81.5883 131.021 67.8015 146.319 38.8557C157.686 43.9365 154.683 66.5182 151.761 77.174C168.637 62.1626 195.186 69.443 206.351 74.9596C195.928 109.474 180.093 115.153 172.972 113.663M109.257 115.847L159.243 139.368M109.257 115.847C115.912 105.894 142.352 99.5536 154.74 97.6275M109.257 115.847L117.517 143.889M-54.8182 496.699C-54.1185 496.441 -53.4082 496.248 -52.6879 496.125C-53.3148 496.373 -54.0277 496.57 -54.8182 496.699ZM-54.8182 496.699C-69.1218 501.968 -79.057 534.331 -82.3465 550.592C-42.9134 555.795 -26.0334 544.072 -20.5137 533.981M-20.5137 533.981C-20.0978 531.911 -19.4034 529.79 -18.3855 527.626C-18.6044 529.521 -19.2713 531.709 -20.5137 533.981ZM-20.5137 533.981C-23.9431 551.048 -8.43627 564.623 0.749622 569.697C19.345 543.853 21.7438 528.377 19.5085 520.547M19.5085 520.547C18.2679 518.798 17.0228 516.919 15.7763 514.9C17.2628 515.854 18.6936 517.693 19.5085 520.547ZM74.8207 452.404C74.0034 451.416 73.3849 450.46 72.9507 449.572C73.6514 450.456 74.2727 451.403 74.8207 452.404ZM74.8207 452.404C81.4039 460.358 100.879 470.311 140.698 462.013C134.528 447.229 116.877 416.448 95.6314 411.604C144.61 406.045 132.349 343.521 149.691 337.732M149.691 337.732C150.321 337.614 150.949 337.485 151.575 337.342C150.91 337.402 150.284 337.534 149.691 337.732ZM118.201 156.651C111.847 159.222 105.825 159.808 100.274 159.067M118.201 156.651C120.821 155.591 123.498 154.194 126.221 152.413C122.121 164.383 118.753 190.383 138.086 198.627C143.633 190.329 154.816 169.829 155.172 154.215C157.545 163.458 172.734 179.652 214.508 170.486C209.762 153.757 194.852 119.174 172.972 113.663M118.201 156.651C118.176 156.122 118.15 155.605 118.122 155.102C111.386 155.139 105.439 156.665 100.274 159.067M172.972 113.663C172.796 113.627 172.626 113.585 172.46 113.54C172.631 113.579 172.802 113.621 172.972 113.663Z" stroke="#002137" stroke-width="2" stroke-linecap="round"/>
<path d="M1428.26 214.326C1429.38 214.843 1431.57 215.606 1435.29 216.702C1452.65 221.062 1493.33 218.581 1517.24 173.787C1506.47 168.879 1482.86 161.495 1469.48 168.499C1468.57 169.223 1467.69 169.767 1466.88 170.145C1467.69 169.526 1468.56 168.979 1469.48 168.499C1476.79 162.672 1486.13 145.204 1479.27 109.007C1465.78 114.345 1437.6 129.812 1432.86 148.969C1428.63 104.524 1371.79 114.577 1366.83 98.7757C1372.33 131.615 1340.14 166.769 1382.03 188.749C1374.52 186.54 1358.48 186.283 1342.48 197.221C1337.28 200.77 1332.09 205.496 1327.2 211.716C1332.42 221.816 1354.1 238.84 1398.98 226.128C1398.64 238.687 1399.95 266.176 1407.89 275.66C1421.67 265.55 1446.44 239.604 1435.29 216.702C1431.57 215.606 1429.38 214.843 1428.26 214.326C1425.43 213.016 1429.47 213.289 1432.81 213.738C1431.68 213.969 1430.15 214.178 1428.26 214.326Z" fill="#1C3753"/>
<path d="M1068.43 160.181C1075.39 149.196 1081.63 121.395 1050.92 98.0673C1042.1 106.523 1027.03 127.613 1037.32 144.328C1029.4 147.983 1018.17 151.059 1006.92 150.437C999.928 152.819 993.984 155.926 991.381 159.858C993.054 162.211 1001.27 168.35 1020.74 174.077C1012.53 175.386 997.284 189.964 1001.99 237.814C1004.3 237.675 1007.07 237.365 1010.11 236.845C1025.04 234.293 1046.64 226.689 1053.92 209.526C1054.02 215.512 1060.43 228.418 1085.28 232.152C1088.02 226.629 1089.06 210.926 1071.28 192.294C1076.91 194.694 1091.94 196.581 1106.99 184.926C1099.09 175.156 1080.32 156.53 1068.43 160.181Z" fill="#1C3753"/>
<path d="M898.414 141.45C900.973 114.502 885.766 98.29 877.843 93.5522C875.867 72.8966 852.791 68.4865 841.501 68.8634C838.356 79.5548 843.949 96.0179 847.139 102.913C836.242 94.3467 824.729 124.618 820.336 140.824C843.386 147.604 854.47 133.738 857.131 125.957C864.931 138.974 887.903 141.709 898.414 141.45Z" fill="#1C3753"/>
<path d="M966.006 105.483C971.921 109.456 989.535 115.977 1012.68 110.274C1011.64 102.15 1006.52 85.0061 994.329 81.4217C1002.6 78.642 1018.48 67.7484 1015.81 46.4117C1005.25 43.661 983.667 40.8488 978.025 50.355C977.804 50.9221 977.563 51.4194 977.313 51.8444C977.51 51.3173 977.749 50.8213 978.025 50.355C980.452 44.1433 980.578 29.567 964.955 10.2335C956.726 20.4719 941.964 42.7877 948.745 50.1434C941.099 48.2669 921.607 46.6295 904.807 55.0917C912.416 62.1697 928.385 78.3336 931.386 86.3649C927.855 92.028 923.155 106.729 932.603 120.231C944.01 119.452 966.661 115.411 966.006 105.483Z" fill="#1C3753"/>
<path d="M1260.5 225.607C1280.15 198.326 1275.42 181.222 1270.6 176.08C1288.89 177.746 1313.89 161.948 1324.1 153.84C1311.46 142.081 1296.88 142.484 1291.17 144.155C1299.35 122.434 1291.38 102.89 1286.37 95.8334C1257.28 109.614 1252.75 126.526 1254.12 133.26C1252.24 124.88 1219.63 123.752 1202.26 124.25C1201.78 124.264 1201.32 124.279 1200.86 124.295C1200.78 130.396 1202.07 135.807 1204.16 140.524C1209.69 153.014 1220.87 160.645 1227.38 163.369C1217.5 160.463 1208.3 192.755 1204.93 209.264C1230.26 211.351 1240.62 198.166 1242.64 191.313C1245.97 207.344 1255.94 220.855 1260.5 225.607Z" fill="#1C3753"/>
<path d="M1435.29 216.702C1452.65 221.062 1493.33 218.581 1517.24 173.787C1506.47 168.879 1482.86 161.495 1469.48 168.499M1435.29 216.702C1446.44 239.604 1421.67 265.55 1407.89 275.66C1399.95 266.176 1398.64 238.687 1398.98 226.128C1354.1 238.84 1332.42 221.816 1327.2 211.716C1332.09 205.496 1337.28 200.77 1342.48 197.221M1435.29 216.702C1431.57 215.606 1429.38 214.843 1428.26 214.326M1435.29 216.702C1432.45 271.733 1427.62 326.991 1487.51 274.871M1432.81 213.738C1424.72 193.114 1405.34 152.046 1392.61 152.769M1432.81 213.738C1436.99 207.148 1446.11 189.056 1449.2 169.414M1432.81 213.738C1429.47 213.289 1425.43 213.016 1428.26 214.326M1432.81 213.738C1431.68 213.969 1430.15 214.178 1428.26 214.326M1376.58 207.253C1400.55 214.303 1418.89 215.059 1428.26 214.326M1342.48 197.221C1358.48 186.283 1374.52 186.54 1382.03 188.749C1340.14 166.769 1372.33 131.615 1366.83 98.7757M1342.48 197.221C1330.42 200.378 1299.17 200.568 1270.6 176.08M1270.6 176.08C1270.21 168.52 1268.51 152.01 1264.78 146.445M1270.6 176.08C1260.38 168.981 1239.36 153.042 1236.94 146.075M1270.6 176.08C1265.37 178.639 1251.22 182.667 1236.4 178.309M1270.6 176.08C1275.42 181.222 1280.15 198.326 1260.5 225.607C1255.94 220.855 1245.97 207.344 1242.64 191.313C1240.62 198.166 1230.26 211.351 1204.93 209.264C1208.3 192.755 1217.5 160.463 1227.38 163.369C1220.87 160.645 1209.69 153.014 1204.16 140.524C1202.07 135.807 1200.78 130.396 1200.86 124.295C1201.32 124.279 1201.78 124.264 1202.26 124.25C1219.63 123.752 1252.24 124.88 1254.12 133.26C1252.75 126.526 1257.28 109.614 1286.37 95.8334C1291.38 102.89 1299.35 122.434 1291.17 144.155C1296.88 142.484 1311.46 142.081 1324.1 153.84C1313.89 161.948 1288.89 177.746 1270.6 176.08ZM1122.42 151.487C1115.44 146.082 1094.86 140.255 1068.43 160.181M1068.43 160.181C1042 180.107 1030.47 199.279 1028.01 206.374M1068.43 160.181C1061.98 169.452 1049.92 188.914 1053.31 192.592M1068.43 160.181C1062.32 163.223 1046.39 168.218 1031.57 163.86M1068.43 160.181C1075.39 149.196 1081.63 121.395 1050.92 98.0673C1042.1 106.523 1027.03 127.613 1037.32 144.328M1068.43 160.181C1080.32 156.53 1099.09 175.156 1106.99 184.926C1091.94 196.581 1076.91 194.694 1071.28 192.294C1089.06 210.926 1088.02 226.629 1085.28 232.152C1060.43 228.418 1054.02 215.512 1053.92 209.526C1046.64 226.689 1025.04 234.293 1010.11 236.845M1037.32 144.328C1029.4 147.983 1018.17 151.059 1006.92 150.437M1037.32 144.328C1029.8 144.998 1017.22 146.93 1006.92 150.437M966.006 105.483C965.561 99.3948 964.39 81.3282 963.27 57.7664M966.006 105.483C971.795 99.7391 982.391 85.5059 978.466 74.5223M966.006 105.483C957.976 102.376 942.689 95.0505 945.787 90.6003M966.006 105.483C971.921 109.456 989.535 115.977 1012.68 110.274C1011.64 102.15 1006.52 85.0061 994.329 81.4217C1002.6 78.642 1018.48 67.7484 1015.81 46.4117C1005.25 43.661 983.667 40.8488 978.025 50.355M966.006 105.483C966.661 115.411 944.01 119.452 932.603 120.231C923.155 106.729 927.855 92.028 931.386 86.3649M966.006 105.483C970.558 138.812 988.775 149.435 1006.92 150.437M931.386 86.3649C928.385 78.3336 912.416 62.1697 904.807 55.0917C921.607 46.6295 941.099 48.2669 948.745 50.1434C941.964 42.7877 956.726 20.4719 964.955 10.2335C980.578 29.567 980.452 44.1433 978.025 50.355M931.386 86.3649C919.241 84.8074 896.783 85.156 877.843 93.5522M854.586 111.805C860.523 103.43 868.78 97.5697 877.843 93.5522M877.843 93.5522C885.766 98.29 900.973 114.502 898.414 141.45C887.903 141.709 864.931 138.974 857.131 125.957C854.47 133.738 843.386 147.604 820.336 140.824C824.729 124.618 836.242 94.3467 847.139 102.913C843.949 96.0179 838.356 79.5548 841.501 68.8634C852.791 68.4865 875.867 72.8966 877.843 93.5522ZM827.29 117.18C805.339 117.053 767.39 101.126 791.197 38.431C793.473 34.4138 799.431 28.8896 806.226 26.0971C815.624 22.2346 826.622 23.5983 831.69 41.4051C840.711 73.0988 786.057 55.9073 806.632 42.9709M1010.11 236.845C1007.07 237.365 1004.3 237.675 1001.99 237.814C997.284 189.964 1012.53 175.386 1020.74 174.077C1001.27 168.35 993.054 162.211 991.381 159.858C993.984 155.926 999.928 152.819 1006.92 150.437M1010.11 236.845C1080.73 221.879 1075.14 262.588 1092.13 274.457M1097.85 255.01C1106.01 246.274 1136.65 267.538 1116.55 275.03C1105.56 279.126 1097.65 278.315 1092.13 274.457M1092.13 274.457C1087.16 283.733 1075.75 296.301 1063.83 305.32C1045.96 318.846 1026.95 324.392 1026.8 298.895C1026.67 276.518 1052.63 290.855 1054.51 295.878M1469.48 168.499C1468.57 169.223 1467.69 169.767 1466.88 170.145C1467.69 169.526 1468.56 168.979 1469.48 168.499ZM1469.48 168.499C1476.79 162.672 1486.13 145.204 1479.27 109.007C1465.78 114.345 1437.6 129.812 1432.86 148.969C1428.63 104.524 1371.79 114.577 1366.83 98.7757M1366.83 98.7757C1366.73 98.2041 1366.63 97.6333 1366.51 97.0632C1366.55 97.6663 1366.66 98.2361 1366.83 98.7757ZM978.025 50.355C977.804 50.9221 977.563 51.4194 977.313 51.8444C977.51 51.3173 977.749 50.8213 978.025 50.355Z" stroke="#002137" stroke-width="2" stroke-linecap="round"/>
<path d="M1141.71 147.179C1147.16 152.149 1146.52 161.996 1139.93 169.211C1133.34 176.426 1123.59 177.95 1118.15 172.98C1112.71 168.01 1113.35 158.163 1119.93 150.949C1126.52 143.734 1136.27 142.209 1141.71 147.179Z" fill="#1C3753" stroke="#002137"/>
<path d="M1137.22 177.237C1143.58 183.042 1142.92 194.38 1135.41 202.596C1127.91 210.812 1116.68 212.494 1110.32 206.689C1103.97 200.884 1104.62 189.544 1112.13 181.329C1119.63 173.113 1130.86 171.432 1137.22 177.237Z" fill="#1C3753" stroke="#002137"/>
<path d="M1151.58 190.536C1159.77 193.188 1163.86 203.781 1160.44 214.367C1157.01 224.952 1147.48 231.134 1139.29 228.482C1131.1 225.831 1127 215.237 1130.43 204.651C1133.86 194.066 1143.39 187.885 1151.58 190.536Z" fill="#1C3753" stroke="#002137"/>
<path d="M1146.99 220.12C1155.18 222.772 1159.28 233.365 1155.85 243.951C1152.42 254.536 1142.9 260.718 1134.71 258.066C1126.52 255.415 1122.42 244.821 1125.85 234.235C1129.27 223.65 1138.8 217.468 1146.99 220.12Z" fill="#1C3753" stroke="#002137"/>
<path d="M1162.97 234.774C1167.6 234.439 1172.01 236.611 1175.39 240.465C1178.77 244.32 1181.1 249.837 1181.56 256.105C1182.01 262.373 1180.49 268.167 1177.7 272.468C1174.91 276.769 1170.86 279.553 1166.23 279.887C1161.6 280.222 1157.19 278.05 1153.81 274.196C1150.43 270.341 1148.1 264.825 1147.64 258.557C1147.19 252.289 1148.7 246.494 1151.5 242.193C1154.29 237.892 1158.34 235.108 1162.97 234.774Z" fill="#1C3753" stroke="#002137"/>
<path d="M1159.49 211.672C1162.98 208.616 1167.81 207.695 1172.83 208.735C1177.85 209.775 1183.04 212.774 1187.17 217.504C1191.31 222.235 1193.59 227.773 1193.95 232.888C1194.31 238.003 1192.76 242.664 1189.26 245.72C1185.77 248.776 1180.94 249.696 1175.92 248.657C1170.9 247.617 1165.72 244.618 1161.58 239.888C1157.44 235.157 1155.16 229.619 1154.8 224.503C1154.44 219.388 1155.99 214.728 1159.49 211.672Z" fill="#1C3753" stroke="#002137"/>
<path d="M1154.72 203.048C1153.61 198.54 1155.01 193.83 1158.24 189.849C1161.47 185.867 1166.52 182.64 1172.62 181.14C1178.72 179.64 1184.69 180.159 1189.4 182.189C1194.11 184.219 1197.53 187.743 1198.64 192.251C1199.75 196.759 1198.35 201.468 1195.12 205.45C1191.89 209.432 1186.84 212.658 1180.74 214.159C1174.64 215.659 1168.67 215.139 1163.96 213.109C1159.25 211.079 1155.83 207.556 1154.72 203.048Z" fill="#1C3753" stroke="#002137"/>
<path d="M1270.45 313.142C1266.89 310.157 1265.24 305.529 1265.5 300.408C1265.76 295.286 1267.93 289.702 1271.97 284.889C1276.01 280.076 1281.13 276.974 1286.13 275.832C1291.13 274.691 1295.98 275.515 1299.53 278.499C1303.09 281.484 1304.74 286.112 1304.48 291.234C1304.22 296.355 1302.05 301.938 1298.01 306.751C1293.97 311.565 1288.85 314.668 1283.85 315.809C1278.85 316.95 1274 316.127 1270.45 313.142Z" fill="#1C3753" stroke="#002137"/>
<path d="M1376.33 295.113C1372.77 292.128 1371.12 287.5 1371.38 282.378C1371.64 277.257 1373.81 271.673 1377.85 266.86C1381.89 262.047 1387.01 258.944 1392.01 257.803C1397.01 256.662 1401.85 257.485 1405.41 260.47C1408.97 263.455 1410.62 268.083 1410.36 273.204C1410.1 278.326 1407.93 283.909 1403.89 288.722C1399.85 293.535 1394.73 296.638 1389.73 297.779C1384.73 298.92 1379.88 298.097 1376.33 295.113Z" fill="#1C3753" stroke="#002137"/>
<path d="M1397.53 333.891C1393.09 332.557 1389.74 328.959 1387.95 324.154C1386.16 319.348 1385.94 313.362 1387.75 307.343C1389.55 301.324 1393.03 296.447 1397.17 293.42C1401.31 290.394 1406.08 289.233 1410.53 290.567C1414.98 291.901 1418.32 295.498 1420.11 300.303C1421.9 305.109 1422.12 311.094 1420.32 317.113C1418.51 323.133 1415.03 328.01 1410.89 331.037C1406.75 334.063 1401.98 335.225 1397.53 333.891Z" fill="#1C3753" stroke="#002137"/>
<path d="M1417.47 344.324C1414.57 343.456 1412.41 340.975 1411.28 337.571C1410.16 334.168 1410.11 329.887 1411.41 325.544C1412.71 321.201 1415.12 317.658 1417.93 315.435C1420.74 313.211 1423.91 312.333 1426.81 313.202C1429.7 314.07 1431.87 316.551 1432.99 319.955C1434.11 323.358 1434.17 327.638 1432.87 331.982C1431.57 336.325 1429.16 339.868 1426.35 342.091C1423.54 344.315 1420.37 345.193 1417.47 344.324Z" fill="#1C3753" stroke="#002137"/>
<path d="M1446.85 334.306C1442.98 336.223 1438.39 335.858 1434.07 333.644C1429.75 331.429 1425.73 327.377 1423.07 321.999C1420.41 316.621 1419.62 310.969 1420.48 306.191C1421.34 301.412 1423.83 297.541 1427.71 295.624C1431.58 293.707 1436.17 294.071 1440.49 296.286C1444.81 298.5 1448.83 302.553 1451.49 307.931C1454.15 313.309 1454.94 318.96 1454.08 323.739C1453.22 328.517 1450.73 332.389 1446.85 334.306Z" fill="#1C3753" stroke="#002137"/>
<path d="M1430.5 307.298C1426.63 309.215 1422.04 308.85 1417.72 306.636C1413.4 304.421 1409.38 300.369 1406.72 294.991C1404.06 289.613 1403.27 283.961 1404.13 279.183C1404.99 274.404 1407.49 270.533 1411.36 268.616C1415.23 266.699 1419.82 267.063 1424.14 269.278C1428.47 271.492 1432.48 275.545 1435.14 280.923C1437.81 286.301 1438.59 291.952 1437.73 296.731C1436.87 301.509 1434.38 305.381 1430.5 307.298Z" fill="#1C3753" stroke="#002137"/>
<path d="M1292.67 286.595C1285.11 280.244 1285.28 267.311 1293.38 257.662C1301.49 248.013 1314.19 245.602 1321.76 251.952C1329.32 258.302 1329.15 271.235 1321.05 280.884C1312.95 290.533 1300.24 292.945 1292.67 286.595Z" fill="#1C3753" stroke="#002137"/>
<path d="M1277.67 246.419C1270.1 240.069 1270.28 227.135 1278.38 217.486C1286.48 207.837 1299.18 205.426 1306.75 211.776C1314.31 218.127 1314.14 231.059 1306.04 240.708C1297.94 250.357 1285.23 252.769 1277.67 246.419Z" fill="#1C3753" stroke="#002137"/>
<path d="M1307.68 250.778C1300.11 244.428 1300.29 231.495 1308.39 221.846C1316.49 212.197 1329.2 209.786 1336.76 216.136C1344.32 222.486 1344.15 235.419 1336.05 245.068C1327.95 254.717 1315.24 257.128 1307.68 250.778Z" fill="#1C3753" stroke="#002137"/>
<path d="M1296.81 212.3C1292.06 203.641 1296.9 191.649 1307.95 185.588C1318.99 179.528 1331.71 181.882 1336.46 190.541C1341.21 199.199 1336.37 211.191 1325.32 217.252C1314.28 223.313 1301.56 220.959 1296.81 212.3Z" fill="#1C3753" stroke="#002137"/>
<path d="M1327.09 191.461C1325.2 188.009 1325.33 183.829 1327.13 179.832C1328.94 175.834 1332.42 172.051 1337.15 169.454C1341.88 166.857 1346.94 165.956 1351.28 166.579C1355.63 167.202 1359.22 169.34 1361.11 172.792C1363.01 176.244 1362.88 180.423 1361.07 184.42C1359.27 188.418 1355.79 192.202 1351.06 194.799C1346.32 197.396 1341.26 198.296 1336.92 197.673C1332.58 197.05 1328.99 194.913 1327.09 191.461Z" fill="#1C3753" stroke="#002137"/>
<path d="M1356.08 274.39C1348.91 281.18 1336.08 279.529 1327.42 270.379C1318.76 261.229 1317.81 248.33 1324.99 241.541C1332.16 234.751 1344.99 236.402 1353.65 245.551C1362.31 254.701 1363.25 267.601 1356.08 274.39Z" fill="#1C3753" stroke="#002137"/>
<path d="M1162.08 278.281C1165.62 279.18 1168.37 281.942 1169.93 285.757C1171.49 289.572 1171.84 294.408 1170.58 299.354C1169.33 304.301 1166.71 308.382 1163.52 310.99C1160.32 313.597 1156.59 314.711 1153.05 313.812C1149.51 312.912 1146.76 310.151 1145.2 306.336C1143.64 302.521 1143.29 297.685 1144.55 292.738C1145.81 287.792 1148.42 283.71 1151.62 281.103C1154.81 278.495 1158.54 277.382 1162.08 278.281Z" fill="#1C3753" stroke="#002137"/>
<path d="M1144.26 161.815C1153.35 155.81 1164.45 156.95 1169.14 164.048C1173.83 171.147 1170.53 181.809 1161.44 187.814C1152.36 193.819 1141.25 192.678 1136.56 185.58C1131.87 178.481 1135.17 167.821 1144.26 161.815Z" fill="#1C3753" stroke="#002137"/>
<path d="M1389.23 353.874C1387.57 341.478 1376.68 315.057 1346.38 308.533C1342.05 318.189 1336.56 337.948 1344.21 348.982C1346.08 350.388 1347.57 351.901 1348.67 353.349C1346.84 352.14 1345.37 350.662 1344.21 348.982C1334.68 341.81 1315.36 337.423 1288.64 358.75C1297.81 372.358 1320.06 398.779 1335.72 395.599C1329.07 405.628 1320.84 432.807 1341.1 461.294C1351.11 460.393 1374.49 450.662 1387.99 418.942C1388.73 424.452 1416.5 429.5 1416.5 429.5C1421.99 421.216 1415.29 394.287 1410.91 385.268C1418.81 379.036 1415.62 349.218 1424.83 351.211C1436.35 353.702 1408.87 340.536 1389.23 353.874Z" fill="#1C3753"/>
<path d="M1444.82 304.799C1418.86 309.166 1394.75 346.436 1389.23 353.874M1357.53 419.468C1353.17 409.669 1366.79 385.673 1381.88 364.067M1381.88 364.067C1369.95 363.688 1345.91 365.455 1345.24 375.553M1381.88 364.067C1386.93 369.295 1396.34 383.06 1393.59 396.297M1381.88 364.067C1384.32 360.584 1386.79 357.163 1389.23 353.874M1389.23 353.874C1387.57 341.478 1376.68 315.057 1346.38 308.533C1342.05 318.189 1336.56 337.948 1344.21 348.982M1389.23 353.874C1408.87 340.536 1436.35 353.702 1424.83 351.211C1415.62 349.218 1418.81 379.036 1410.91 385.268C1415.29 394.287 1421.99 421.216 1416.5 429.5C1416.5 429.5 1388.73 424.452 1387.99 418.942C1374.49 450.662 1351.11 460.393 1341.1 461.294C1320.84 432.807 1329.07 405.628 1335.72 395.599C1320.06 398.779 1297.81 372.358 1288.64 358.75C1315.36 337.423 1334.68 341.81 1344.21 348.982M1344.21 348.982C1346.08 350.388 1347.57 351.901 1348.67 353.349C1346.84 352.14 1345.37 350.662 1344.21 348.982Z" stroke="#002137" stroke-width="2" stroke-linecap="round"/>
<path d="M75.8446 537.032C70.0319 549.747 64.2 559.644 59.8926 565.795C34.2039 555.894 18.652 535.27 13.5567 524.594C17.1121 548.644 -23.2067 566.882 -43.8106 572.994C-48.6115 529.734 -29.9946 510.293 -20.0861 505.981C-66.4357 504.319 -86.4091 470.77 -90.6021 454.203C-54.7572 440.079 -22.7872 453.632 -11.2828 462.174C-26.4089 444.29 -9.13348 411.908 1.39499 397.953C27.8874 414.035 34.7842 439.38 34.921 450.042C43.2092 434.207 65.6787 426.297 75.8775 424.322C83.4836 467.234 61.3518 492.184 49.3351 499.295C65.2705 507.353 72.8086 522.266 75.8446 537.032Z" fill="#1C3753"/>
<path d="M280.238 74.3597C309.158 132.862 296.502 159.441 286.559 165.418C328.27 180.184 336.264 225.469 335.047 246.265C306.152 252.123 278.257 236.214 267.921 227.528C279.544 247.731 262.968 279.401 253.227 292.711C219.382 263.3 219.418 228.791 223.667 215.212C196.659 227.102 156.036 205.793 139.1 193.653C147.609 165.829 189.767 156.287 209.782 154.994C180.301 143.566 170.595 109.426 169.427 93.7842C219.673 101.361 237.292 112.867 241.115 121.951C240.36 125.185 239.867 128.558 239.692 132.066C241.788 129.544 242.813 125.986 241.115 121.951C247.001 96.7245 268.828 80.0072 280.238 74.3597Z" fill="#1C3753"/>
<path d="M386.334 290.803C380.163 279.824 372.926 251.966 393.352 228.362C402.684 233.509 419.065 246.083 419.594 259.593C418.942 261.857 418.658 263.978 418.652 265.808C419.387 263.73 419.675 261.651 419.594 259.593C422.918 248.051 435.807 232.815 470.22 233.789C471.082 250.294 469.176 285.035 454.655 291.96C466.075 296.004 489.154 312.889 490.106 348.083C481.511 353.419 456.805 359.754 426.737 342.407C429.479 347.289 430.26 362.76 411.448 385.594C402.013 382.254 383.397 367.284 384.408 334.125C374.283 333.892 352.48 335.223 346.271 342.409C338.511 351.393 362.451 291.972 386.334 290.803Z" fill="#1C3753"/>
<path d="M286.559 165.418C360.295 140.814 412.687 213.565 362.235 284.379C347.659 304.838 324.498 325.136 290.787 342.877C287.116 343.874 283.56 344.911 280.114 345.986C279.055 340.487 277.538 335.821 275.679 331.903C413.011 274.156 382.255 141.225 286.559 165.418Z" fill="#1C3753"/>
<path d="M-341.86 1281.98C-310.851 1271.73 1.94041 970.277 -45.6494 862.263C-45.4645 852.274 -39.7876 837.19 -18.5597 856.771C-32.3554 791.557 -86.2453 569.703 7.71932 569.452C22.0181 571.662 45.9166 574.299 55.3855 572.107C48.4169 582.211 42.9841 592.264 38.8424 602.255C-3.88658 573.722 -32.1939 620.678 -24.1759 673.792C-17.7614 716.283 4.5428 854.654 14.8931 918.528C0.801098 936.084 -196.698 1200.55 -304.67 1295.15L-341.86 1281.98Z" fill="#1C3753"/>
<path d="M97.2246 458.693C194.215 402.535 115.84 316.134 159.733 239.502C145.989 295.891 184.192 326.509 167.116 403.764C157.679 417.198 150.86 431.385 146.102 445.596C138.047 455.438 127.884 465.111 116.495 470.543C88.262 484.009 116.948 554.495 79.5904 574.786C42.2325 595.077 44.9538 691.563 73.2998 753.549C64.3585 669.944 161.129 570.806 141.586 546.459C135.416 522.072 133.33 483.747 146.102 445.596C154.022 435.919 159.903 426.078 162.908 419.941C164.58 414.325 165.972 408.94 167.116 403.764C185.887 377.045 215.017 353.306 258.886 338.287C264.742 336.282 270.338 334.149 275.679 331.903C277.538 335.821 279.055 340.487 280.114 345.986C125.11 394.375 193.837 521.203 161.032 576.804C176.288 571.592 207.777 567.88 211.68 594.735C83.7046 596.353 90.9804 798.352 89.3494 859.781C87.7184 921.209 -47.9253 1023.07 -275.675 1305.41L-304.67 1295.15C-196.698 1200.55 0.801098 936.084 14.8931 918.528C37.6877 890.131 63.3703 884.853 61.3892 858.261C74.3269 783.784 0.102476 695.71 38.8424 602.255C42.9841 592.264 48.4169 582.211 55.3855 572.107C58.8989 571.294 60.4257 569.815 58.7382 567.404C59.1092 566.9 59.4944 566.363 59.8926 565.795C64.2 559.644 70.0319 549.747 75.8446 537.032C82.1121 523.322 88.3572 506.335 92.645 487.236C94.683 478.157 96.2789 468.601 97.2246 458.693Z" fill="#1C3753"/>
<path d="M58.7382 567.404C59.1092 566.9 59.4944 566.363 59.8926 565.795M58.7382 567.404C60.4257 569.815 58.8989 571.294 55.3855 572.107M58.7382 567.404C57.5831 568.973 56.4658 570.541 55.3855 572.107M286.559 165.418C360.295 140.814 412.687 213.565 362.235 284.379M286.559 165.418C261.551 166.619 207.674 172.347 192.225 185.647M286.559 165.418C279.345 181.058 259.944 214.073 240.053 221.014M286.559 165.418C271.051 157.135 237.72 141.425 228.461 144.849M286.559 165.418C296.502 159.441 309.158 132.862 280.238 74.3597C268.828 80.0072 247.001 96.7245 241.115 121.951M286.559 165.418C328.27 180.184 336.264 225.469 335.047 246.265C306.152 252.123 278.257 236.214 267.921 227.528C279.544 247.731 262.968 279.401 253.227 292.711C219.382 263.3 219.418 228.791 223.667 215.212C196.659 227.102 156.036 205.793 139.1 193.653C147.609 165.829 189.767 156.287 209.782 154.994C180.301 143.566 170.595 109.426 169.427 93.7842C219.673 101.361 237.292 112.867 241.115 121.951M286.559 165.418C382.255 141.225 413.011 274.156 275.679 331.903M-304.67 1295.15L-275.675 1305.41C-47.9253 1023.07 87.7184 921.209 89.3494 859.781C90.9804 798.352 83.7046 596.353 211.68 594.735C207.777 567.88 176.288 571.592 161.032 576.804C193.837 521.203 125.11 394.375 280.114 345.986M-304.67 1295.15C-196.698 1200.55 0.801098 936.084 14.8931 918.528M-304.67 1295.15L-341.86 1281.98C-310.851 1271.73 1.94041 970.277 -45.6494 862.263C-45.4645 852.274 -39.7876 837.19 -18.5597 856.771C-32.3554 791.557 -86.2453 569.703 7.71932 569.452C22.0181 571.662 45.9166 574.299 55.3855 572.107M14.8931 918.528C37.6877 890.131 63.3703 884.853 61.3892 858.261C74.3269 783.784 0.102476 695.71 38.8424 602.255M14.8931 918.528C4.5428 854.654 -17.7614 716.283 -24.1759 673.792C-32.1939 620.678 -3.88658 573.722 38.8424 602.255M38.8424 602.255C42.9841 592.264 48.4169 582.211 55.3855 572.107M92.645 487.236C94.683 478.157 96.2789 468.601 97.2246 458.693C194.215 402.535 115.84 316.134 159.733 239.502C145.989 295.891 184.192 326.509 167.116 403.764M92.645 487.236C82.5686 491.384 64.0224 497.702 49.3351 499.295M92.645 487.236C88.3572 506.335 82.1121 523.322 75.8446 537.032M33.0257 497.97C20.349 492.142 11.5892 468.595 8.79385 457.551M33.0257 497.97L-31.0161 475.298M33.0257 497.97L8.21727 516.001M33.0257 497.97C36.9481 499.774 42.7542 500.008 49.3351 499.295M49.3351 499.295C61.3518 492.184 83.4836 467.234 75.8775 424.322C65.6787 426.297 43.2092 434.207 34.921 450.042C34.7842 439.38 27.8874 414.035 1.39499 397.953C-9.13348 411.908 -26.4089 444.29 -11.2828 462.174C-22.7872 453.632 -54.7572 440.079 -90.6021 454.203C-86.4091 470.77 -66.4357 504.319 -20.0861 505.981C-29.9946 510.293 -48.6115 529.734 -43.8106 572.994C-23.2067 566.882 17.1121 548.644 13.5567 524.594C18.652 535.27 34.2039 555.894 59.8926 565.795M49.3351 499.295C65.2705 507.353 72.8086 522.266 75.8446 537.032M362.235 284.379C347.659 304.838 324.498 325.136 290.787 342.877C287.116 343.874 283.56 344.911 280.114 345.986M362.235 284.379C368.98 285.966 377.39 288.162 386.334 290.803M451.559 324.381C449.132 313.856 423.643 302.797 398.416 294.556M398.416 294.556C407.789 287.02 428.199 273.88 434.854 281.599M398.416 294.556C397.521 301.82 398.288 318.595 408.518 327.579M398.416 294.556C394.349 293.227 390.289 291.971 386.334 290.803M386.334 290.803C380.163 279.824 372.926 251.966 393.352 228.362C402.684 233.509 419.065 246.083 419.594 259.593M386.334 290.803C362.451 291.972 338.511 351.393 346.271 342.409C352.48 335.223 374.283 333.892 384.408 334.125C383.397 367.284 402.013 382.254 411.448 385.594C430.26 362.76 429.479 347.289 426.737 342.407C456.805 359.754 481.511 353.419 490.106 348.083C489.154 312.889 466.075 296.004 454.655 291.96C469.176 285.035 471.082 250.294 470.22 233.789C435.807 232.815 422.918 248.051 419.594 259.593M75.8446 537.032C70.0319 549.747 64.2 559.644 59.8926 565.795M241.115 121.951C240.36 125.185 239.867 128.558 239.692 132.066C241.788 129.544 242.813 125.986 241.115 121.951ZM419.594 259.593C418.942 261.857 418.658 263.978 418.652 265.808C419.387 263.73 419.675 261.651 419.594 259.593ZM167.116 403.764C157.679 417.198 150.86 431.385 146.102 445.596M167.116 403.764C165.972 408.94 164.58 414.325 162.908 419.941C159.903 426.078 154.022 435.919 146.102 445.596M167.116 403.764C185.887 377.045 215.017 353.306 258.886 338.287C264.742 336.282 270.338 334.149 275.679 331.903M146.102 445.596C138.047 455.438 127.884 465.111 116.495 470.543C88.262 484.009 116.948 554.495 79.5904 574.786C42.2325 595.077 44.9538 691.563 73.2998 753.549C64.3585 669.944 161.129 570.806 141.586 546.459C135.416 522.072 133.33 483.747 146.102 445.596ZM275.679 331.903C277.538 335.821 279.055 340.487 280.114 345.986" stroke="#002137" stroke-width="2" stroke-linecap="round"/>
<path d="M247.036 617.378C238.889 618.574 233.314 627.658 234.811 637.853C236.308 648.049 244.259 655.146 252.406 653.95C260.553 652.754 266.127 643.67 264.63 633.475C263.133 623.279 255.183 616.181 247.036 617.378Z" fill="#1C3753" stroke="#002137"/>
<path d="M238.756 591.741C235.028 591.12 231.284 592.545 228.24 595.424C225.195 598.303 222.874 602.618 222.029 607.691C221.183 612.764 221.98 617.598 223.926 621.309C225.873 625.02 228.952 627.582 232.68 628.203C236.408 628.824 240.151 627.399 243.196 624.52C246.24 621.641 248.561 617.326 249.406 612.253C250.251 607.18 249.456 602.346 247.509 598.635C245.563 594.925 242.484 592.363 238.756 591.741Z" fill="#1C3753" stroke="#002137"/>
<path d="M209.533 596.875C201.411 595.522 193.324 602.465 191.63 612.629C189.937 622.794 195.334 631.984 203.457 633.337C211.579 634.691 219.665 627.748 221.359 617.583C223.053 607.419 217.655 598.229 209.533 596.875Z" fill="#1C3753" stroke="#002137"/>
<path d="M230.003 642.56C223.586 643.503 219.163 650.671 220.35 658.757C221.538 666.844 227.834 672.439 234.252 671.497C240.669 670.555 245.093 663.386 243.905 655.299C242.718 647.212 236.42 641.618 230.003 642.56Z" fill="#1C3753" stroke="#002137"/>
<path d="M211.788 639.833C210.529 631.71 200.922 626.251 190.09 627.93C179.258 629.608 171.754 637.718 173.013 645.841C174.272 653.963 183.878 659.421 194.71 657.743C205.542 656.064 213.046 647.955 211.788 639.833Z" fill="#1C3753" stroke="#002137"/>
<path d="M227.17 617.481C219.047 616.127 210.961 623.07 209.267 633.235C207.573 643.399 212.971 652.589 221.093 653.943C229.216 655.296 237.302 648.354 238.996 638.189C240.69 628.024 235.292 618.834 227.17 617.481Z" fill="#1C3753" stroke="#002137"/>
<path d="M224.425 667.529C217.333 665.151 209.069 670.218 206.084 679.115C203.1 688.014 206.637 697.04 213.728 699.419C220.82 701.798 229.085 696.73 232.07 687.832C235.054 678.934 231.517 669.908 224.425 667.529Z" fill="#1C3753" stroke="#002137"/>
<path d="M215.004 647.829C207.17 645.201 198.212 650.454 195.088 659.766C191.965 669.079 195.944 678.671 203.777 681.299C211.61 683.926 220.567 678.673 223.691 669.361C226.815 660.048 222.836 650.456 215.004 647.829Z" fill="#1C3753" stroke="#002137"/>
<path d="M392.453 143.813C405.018 164.285 456.627 149.202 461.123 198.371C488.659 190.323 510.858 218.222 518.516 233.177C491.798 240.986 476.016 236.818 471.465 233.759C481.733 244.805 473.806 271.851 468.559 283.993C436.374 270.114 430.401 254.755 431.506 247.202C431.725 246.575 431.887 245.94 431.986 245.297C431.774 245.859 431.609 246.496 431.506 247.202C427.025 260.014 398.351 269.342 383.919 272.514C378.704 237.489 388.894 222.287 397.8 217.222C399.637 216.821 401.515 216.171 403.427 215.232C401.743 215.456 399.804 216.082 397.8 217.222C382.651 220.53 370.333 206.929 365.679 198.828C388.42 181.888 402.166 179.521 409.172 181.393C410.748 182.472 412.44 183.552 414.256 184.631C413.384 183.322 411.726 182.076 409.172 181.393C385.831 165.423 388.053 149.897 392.453 143.813Z" fill="#1C3753"/>
<path d="M509.479 176.255C508.378 176.761 506.225 177.507 502.559 178.579C485.494 182.834 445.507 180.327 422.081 136.252C432.671 131.445 455.898 124.226 469.039 131.135C469.931 131.848 470.792 132.384 471.589 132.757C470.791 132.147 469.939 131.608 469.039 131.135C461.859 125.394 452.708 108.206 459.51 72.6354C472.767 77.9063 500.439 93.1584 505.066 111.999C509.294 68.315 565.154 78.2946 570.054 62.7696C564.589 95.0425 596.174 129.655 554.966 151.191C562.352 149.032 578.112 148.806 593.829 159.587C598.928 163.084 604.022 167.738 608.824 173.861C603.668 183.782 582.332 200.48 538.235 187.906C538.548 200.253 537.217 227.273 529.393 236.583C515.866 226.621 491.561 201.073 502.559 178.579C506.225 177.507 508.378 176.761 509.479 176.255C512.266 174.972 508.29 175.234 505.004 175.669C506.117 175.897 507.618 176.106 509.479 176.255Z" fill="#1C3753"/>
<path d="M674.362 187.631C655.09 160.779 659.772 143.973 664.522 138.927C646.537 140.533 621.992 124.96 611.967 116.973C624.41 105.435 638.741 105.856 644.352 107.508C636.35 86.142 644.213 66.9432 649.145 60.0145C677.724 73.6112 682.146 90.244 680.784 96.8608C682.65 88.6264 714.703 87.5733 731.777 88.0926C729.581 93.787 729.148 99.1565 729.89 104.087C724.429 116.356 713.422 123.839 707.026 126.505C716.742 123.665 725.731 155.425 729.011 171.66C704.114 173.668 693.949 160.689 691.979 153.949C688.675 169.702 678.857 182.967 674.362 187.631Z" fill="#1C3753"/>
<path d="M768.246 95.4437C768.472 101.231 765.241 116.734 750.503 132.455C742.883 127.912 731.932 117.663 729.89 104.087C731.952 99.4535 733.224 94.1369 733.157 88.1392C732.709 88.1225 732.249 88.107 731.777 88.0926C732.682 85.7442 733.887 83.3405 735.433 80.8896C724.834 84.7188 701.729 88.1056 694.102 71.0195C701.41 65.9572 719.501 55.6949 733.401 55.1446C725.135 53.1706 710.489 39.8917 718.035 2.56797C733.003 6.54242 764.021 19.2975 769.25 38.6923C769.286 38.8484 769.325 38.9996 769.368 39.1459C769.33 38.9943 769.291 38.8431 769.25 38.6923C767.819 32.3756 772.642 18.1942 803.225 8.39958C808.302 18.256 815.178 41.7807 802.058 57.0282C811.505 54.2675 831.57 51.2567 836.262 61.2988C810.711 75.351 799.224 123.264 768.246 95.4437Z" fill="#1C3753"/>
<path d="M461.123 198.371C456.627 149.202 405.018 164.285 392.453 143.813C388.053 149.897 385.831 165.423 409.172 181.393M461.123 198.371C488.659 190.323 510.858 218.222 518.516 233.177C491.798 240.986 476.016 236.818 471.465 233.759C481.733 244.805 473.806 271.851 468.559 283.993C436.374 270.114 430.401 254.755 431.506 247.202M461.123 198.371C458.395 199.935 454.565 202.546 450.195 206.126M461.123 198.371C469.537 193.351 489.605 182.364 502.559 178.579M417.942 246.109C426.842 228.139 439.989 214.488 450.195 206.126M450.195 206.126C442.331 201.782 425.198 195.042 419.575 202.831M450.195 206.126C453.12 213.628 458.938 233.03 458.808 250.627M502.559 178.579C485.494 182.834 445.507 180.327 422.081 136.252C432.671 131.445 455.898 124.226 469.039 131.135M502.559 178.579C491.561 201.073 515.866 226.621 529.393 236.583C537.217 227.273 538.548 200.253 538.235 187.906C582.332 200.48 603.668 183.782 608.824 173.861C604.022 167.738 598.928 163.084 593.829 159.587M502.559 178.579C506.225 177.507 508.378 176.761 509.479 176.255M505.004 175.669C512.995 155.409 532.107 115.071 544.623 115.803M505.004 175.669C500.911 169.183 491.974 151.382 488.966 132.069M505.004 175.669C508.29 175.234 512.266 174.972 509.479 176.255M505.004 175.669C506.117 175.897 507.618 176.106 509.479 176.255M560.285 169.39C536.713 176.279 518.685 176.991 509.479 176.255M593.829 159.587C578.112 148.806 562.352 149.032 554.966 151.191C596.174 129.655 564.589 95.0425 570.054 62.7696M593.829 159.587C605.673 162.71 636.392 162.951 664.522 138.927M664.522 138.927C664.913 131.496 666.615 115.269 670.291 109.805M664.522 138.927C674.57 131.966 695.266 116.333 697.659 109.488M664.522 138.927C669.653 141.451 683.56 145.435 698.133 141.176M664.522 138.927C659.772 143.973 655.09 160.779 674.362 187.631C678.857 182.967 688.675 169.702 691.979 153.949C693.949 160.689 704.114 173.668 729.011 171.66C725.731 155.425 716.742 123.665 707.026 126.505C713.422 123.839 724.429 116.356 729.89 104.087M664.522 138.927C646.537 140.533 621.992 124.96 611.967 116.973C624.41 105.435 638.741 105.856 644.352 107.508C636.35 86.142 644.213 66.9432 649.145 60.0145C677.724 73.6112 682.146 90.244 680.784 96.8608C682.65 88.6264 714.703 87.5733 731.777 88.0926M768.246 95.4437C768.472 101.231 765.241 116.734 750.503 132.455C742.883 127.912 731.932 117.663 729.89 104.087M768.246 95.4437C799.224 123.264 810.711 75.351 836.262 61.2988C831.57 51.2567 811.505 54.2675 802.058 57.0282C815.178 41.7807 808.302 18.256 803.225 8.39958C772.642 18.1942 767.819 32.3756 769.25 38.6923M768.246 95.4437L746.562 51.2982M768.246 95.4437C777.011 89.3701 782.268 65.7387 783.8 54.6822M768.246 95.4437L743.152 88.5106M431.506 247.202C431.725 246.575 431.887 245.94 431.986 245.297C431.774 245.859 431.609 246.496 431.506 247.202ZM431.506 247.202C427.025 260.014 398.351 269.342 383.919 272.514C378.704 237.489 388.894 222.287 397.8 217.222M397.8 217.222C399.637 216.821 401.515 216.171 403.427 215.232C401.743 215.456 399.804 216.082 397.8 217.222ZM397.8 217.222C382.651 220.53 370.333 206.929 365.679 198.828C388.42 181.888 402.166 179.521 409.172 181.393M409.172 181.393C410.748 182.472 412.44 183.552 414.256 184.631C413.384 183.322 411.726 182.076 409.172 181.393ZM469.039 131.135C469.931 131.848 470.792 132.384 471.589 132.757C470.791 132.147 469.939 131.608 469.039 131.135ZM469.039 131.135C461.859 125.394 452.708 108.206 459.51 72.6354C472.767 77.9063 500.439 93.1584 505.066 111.999C509.294 68.315 565.154 78.2946 570.054 62.7696M570.054 62.7696C570.149 62.2079 570.255 61.6469 570.374 61.0867C570.329 61.6795 570.221 62.2394 570.054 62.7696ZM731.777 88.0926C729.581 93.787 729.148 99.1565 729.89 104.087M731.777 88.0926C732.682 85.7442 733.887 83.3405 735.433 80.8896C724.834 84.7188 701.729 88.1056 694.102 71.0195C701.41 65.9572 719.501 55.6949 733.401 55.1446C725.135 53.1706 710.489 39.8917 718.035 2.56797C733.003 6.54242 764.021 19.2975 769.25 38.6923M731.777 88.0926C732.249 88.107 732.709 88.1225 733.157 88.1392C733.224 94.1369 731.952 99.4535 729.89 104.087M769.25 38.6923C769.286 38.8484 769.325 38.9996 769.368 39.1459C769.33 38.9943 769.291 38.8431 769.25 38.6923Z" stroke="#002137" stroke-width="2" stroke-linecap="round"/>
</g>
<defs>
<clipPath id="clip0_337_2552">
<rect width="1440" height="764" fill="white"/>
</clipPath>
</defs>
</svg>
