<svg width="1440" height="595" viewBox="0 0 1440 595" fill="none" xmlns="http://www.w3.org/2000/svg">
<g clip-path="url(#clip0_337_3339)">
<rect width="1440" height="595" fill="#FFF6E7"/>
<path d="M126.109 157.989C124.938 155.961 124.073 154.589 123.33 153.444C122.613 152.203 122.045 151.355 121.495 150.63C120.481 149.144 119.152 148.724 117.902 147.632C115.473 145.656 113.069 142.082 111.155 138.699C109.355 135.395 107.939 130.728 105.108 125.763C102.311 120.711 97.7751 116.385 93.029 113.649C83.3183 108.082 72.5492 106.965 62.6716 108.085C57.7065 108.61 52.8638 109.816 48.2308 111.513C43.6939 113.305 39.0784 115.683 36.0447 119.486C40.1883 117.108 44.7513 116.268 49.2793 115.796C53.8073 115.288 58.3614 115.349 62.8018 115.75C67.2423 116.1 71.5865 116.947 75.5723 118.275C79.6193 119.542 83.3603 121.36 86.402 123.755C89.5135 126.167 91.7422 128.798 93.2978 132.119C94.9582 135.458 96.0242 139.968 98.4624 145.082C99.7908 147.739 100.944 149.767 102.596 152.118C104.204 154.39 106.092 156.663 108.443 158.682C110.768 160.64 113.504 162.728 116.895 162.885C118.539 163.007 120.261 162.754 121.852 161.914C123.443 161.197 124.92 159.93 126.109 157.989Z" fill="#FEECD0"/>
<path d="M126.16 157.989C127.332 155.961 128.197 154.589 128.94 153.444C129.656 152.203 130.224 151.355 130.775 150.63C131.789 149.144 133.117 148.724 134.367 147.632C136.797 145.656 139.2 142.082 141.114 138.699C142.915 135.395 144.33 130.728 147.162 125.763C149.958 120.711 154.494 116.385 159.241 113.649C168.951 108.082 179.72 106.965 189.598 108.085C194.563 108.61 199.406 109.816 204.039 111.513C208.576 113.305 213.191 115.683 216.225 119.486C212.081 117.108 207.518 116.268 202.99 115.796C198.462 115.288 193.908 115.349 189.468 115.75C185.027 116.1 180.683 116.947 176.697 118.275C172.65 119.542 168.909 121.36 165.868 123.755C162.756 126.167 160.527 128.798 158.972 132.119C157.311 135.458 156.245 139.968 153.807 145.082C152.479 147.739 151.325 149.767 149.673 152.118C148.065 154.39 146.178 156.663 143.826 158.682C141.501 160.64 138.766 162.728 135.374 162.885C133.731 163.007 132.009 162.754 130.418 161.914C128.827 161.197 127.35 159.93 126.16 157.989Z" fill="#FEECD0"/>
<path d="M125.982 140.831C122.363 139.1 120.851 134.931 119.252 131.216C117.749 127.335 116.421 123.297 114.796 119.276C111.475 111.357 106.642 103.15 98.7319 97.6177C90.8917 92.1204 81.0232 89.8228 71.9761 90.427C67.4044 90.5761 62.9638 91.2583 58.6281 92.2728C56.4952 92.8849 54.4058 93.6457 52.3603 94.485C50.4721 95.779 47.9722 95.2023 47.3509 100.386C50.7857 104.398 52.3507 102.658 54.5272 102.789C56.5814 102.64 58.6182 102.456 60.6112 102.124C64.5797 101.634 68.5133 100.934 72.3944 100.846C80.1303 100.592 87.7263 101.177 94.308 104.699C100.916 108.142 106.037 114.452 110.119 121.593C112.251 125.142 114.191 128.9 116.358 132.624C118.57 136.164 121.008 140.56 125.658 141.818L125.982 140.831Z" fill="#FEECD0"/>
<path d="M126.288 140.831C129.906 139.1 131.418 134.931 133.018 131.216C134.521 127.335 135.849 123.297 137.474 119.276C140.795 111.357 145.628 103.15 153.538 97.6177C161.378 92.1204 171.246 89.8228 180.293 90.427C184.865 90.5761 189.306 91.2583 193.641 92.2728C195.774 92.8849 197.864 93.6457 199.909 94.485C201.797 95.779 204.297 95.2023 204.919 100.386C201.484 104.398 199.919 102.658 197.742 102.789C195.688 102.64 193.651 102.456 191.658 102.124C187.69 101.634 183.756 100.934 179.875 100.846C172.139 100.592 164.543 101.177 157.962 104.699C151.354 108.142 146.232 114.452 142.151 121.593C140.018 125.142 138.078 128.9 135.911 132.624C133.7 136.164 131.262 140.56 126.611 141.818L126.288 140.831Z" fill="#FEECD0"/>
<path d="M126.004 122.171C124.134 114.828 122.151 107.355 118.35 100.459C114.697 93.536 108.841 87.4878 101.805 83.5988C94.7597 79.7186 86.7705 77.639 78.65 77.404C70.5208 77.1951 62.6536 78.8396 55.2147 80.58C47.7583 82.3553 40.6078 84.1743 33.5624 84.717C26.6043 85.2773 19.6726 84.7972 14.2972 81.9569C11.5701 80.5587 9.16651 78.5574 7.7507 76.3897C6.24749 74.1522 6.08174 72.2902 6.66765 70.0961C7.29727 67.8933 9.18541 65.3756 11.6682 63.0502C13.9674 60.3664 17.6913 59.6317 18.6623 53.5915C12.9983 51.2495 10.1397 54.3179 6.41574 56.2764C2.95397 58.5844 -0.743999 61.6705 -2.76378 66.6444C-4.93216 71.5572 -3.80527 78.0344 -0.973604 82.0375C1.77937 86.2416 5.52022 89.1083 9.48845 91.2057C17.7046 95.4529 26.6906 95.5918 34.6626 94.4894C42.7221 93.3172 50.2134 90.825 57.3727 88.6302C64.5407 86.4266 71.5865 84.4852 78.6756 84.1785C85.7122 83.8892 92.9496 85.217 99.4177 88.2407C105.956 91.142 111.567 95.9314 115.587 102.12C119.669 108.247 122.36 115.379 124.999 122.477L126.004 122.171Z" fill="#FEECD0"/>
<path d="M126.269 122.171C128.139 114.828 130.122 107.355 133.924 100.459C137.577 93.536 143.433 87.4878 150.469 83.5988C157.514 79.7186 165.503 77.639 173.623 77.404C181.753 77.1951 189.62 78.8396 197.059 80.58C204.515 82.3553 211.666 84.1743 218.711 84.717C225.669 85.2773 232.601 84.7972 237.976 81.9569C240.703 80.5587 243.107 78.5574 244.523 76.3897C246.026 74.1522 246.192 72.2902 245.606 70.0961C244.976 67.8933 243.088 65.3756 240.605 63.0502C238.306 60.3664 234.582 59.6317 233.611 53.5915C239.275 51.2495 242.134 54.3179 245.858 56.2764C249.319 58.5844 253.017 61.6705 255.037 66.6444C257.206 71.5572 256.079 78.0344 253.247 82.0375C250.494 86.2416 246.753 89.1083 242.785 91.2057C234.569 95.4529 225.583 95.5918 217.611 94.4894C209.551 93.3172 202.06 90.825 194.901 88.6302C187.733 86.4266 180.687 84.4852 173.598 84.1785C166.561 83.8892 159.324 85.217 152.856 88.2407C146.318 91.142 140.706 95.9314 136.686 102.12C132.605 108.247 129.913 115.379 127.274 122.477L126.269 122.171Z" fill="#FEECD0"/>
<path d="M125.706 100.268C121.791 91.3873 115.175 83.7221 107.448 77.5867C99.5907 71.565 90.5178 67.0556 80.8679 64.2596C75.9818 62.8353 71.2093 62.0317 66.7602 60.9221C62.3373 59.8736 58.0979 58.729 55.0387 56.8588C51.8484 54.9099 50.4676 52.7249 50.3456 49.8753C50.302 48.4679 50.4421 46.8596 51.0892 45.3211C51.369 44.5168 51.7973 43.7562 52.2956 42.9956C52.6891 42.0778 52.8903 40.9677 52.7595 38.2142C50.5569 36.6411 48.7387 36.8337 47.3837 37.5419C46.0987 38.3549 44.971 39.4302 43.9394 40.6192C41.9024 43.0232 40.5996 46.1615 40.3195 49.5006C39.9957 52.8485 40.9918 56.3623 42.7747 59.2991C44.6974 62.2359 47.0747 64.2111 49.6531 65.7929C54.8188 68.8605 60.0721 69.8826 64.9583 70.6075C69.8795 71.28 74.5997 71.5942 78.9964 72.3891C87.8947 73.944 96.6443 77.116 104.511 81.8878C112.482 86.5196 119.544 92.8998 124.814 100.775L125.706 100.268Z" fill="#FEECD0"/>
<path d="M126.564 100.268C130.479 91.3873 137.095 83.7221 144.821 77.5867C152.679 71.565 161.752 67.0556 171.402 64.2596C176.288 62.8353 181.06 62.0317 185.509 60.9221C189.932 59.8736 194.172 58.729 197.231 56.8588C200.421 54.9099 201.802 52.7249 201.924 49.8753C201.968 48.4679 201.827 46.8596 201.18 45.3211C200.901 44.5168 200.472 43.7562 199.974 42.9956C199.58 42.0778 199.379 40.9677 199.51 38.2142C201.713 36.6411 203.531 36.8337 204.886 37.5419C206.171 38.3549 207.299 39.4302 208.33 40.6192C210.367 43.0232 211.67 46.1615 211.95 49.5006C212.274 52.8485 211.278 56.3623 209.495 59.2991C207.572 62.2359 205.195 64.2111 202.616 65.7929C197.451 68.8605 192.197 69.8826 187.311 70.6075C182.39 71.28 177.67 71.5942 173.273 72.3891C164.375 73.944 155.625 77.116 147.759 81.8878C139.787 86.5196 132.725 92.8998 127.455 100.775L126.564 100.268Z" fill="#FEECD0"/>
<path d="M98.0308 74.3524C93.8354 71.2061 89.5264 68.3133 85.2698 65.2806C81.022 62.3965 76.7304 59.4336 74.9913 56.1909C74.1436 54.5913 74.0039 52.8782 74.4236 52.039C74.7733 51.2348 75.2891 50.7715 76.5042 50.0109C77.7455 49.3464 79.1529 49.2499 80.5689 49.3022C81.2945 49.3283 82.0988 49.3459 82.9117 49.4769C83.34 49.5031 83.7419 49.6078 84.1702 49.6864C84.4412 49.6777 84.7385 49.6427 85.4028 49.3804L86.4167 49.0655C86.9063 48.8731 87.422 48.7071 87.9553 48.576C88.3049 48.1738 88.646 47.7455 88.952 47.2822C89.1968 46.8626 89.2404 46.574 89.3803 46.1894C89.6427 45.4201 89.5028 44.9132 89.3193 44.4499C88.8386 43.6195 88.2006 42.9291 87.5451 42.2561C86.1816 40.98 84.5473 40.01 82.7467 39.4858C79.1105 38.4023 75.0807 39.0233 71.7239 40.737C70.0193 41.62 68.3932 42.8266 67.0731 44.5312C65.7443 46.2621 64.9399 48.4126 64.6862 50.5367C64.3361 54.8723 66.0664 58.386 68.1727 60.9819C72.6476 66.1911 78.058 67.93 82.8392 69.8787C87.7428 71.6701 92.5765 73.5838 97.5413 75.2615L98.0308 74.3524Z" fill="#FEECD0"/>
<path d="M154.239 74.3524C158.434 71.2061 162.743 68.3133 167 65.2806C171.248 62.3965 175.539 59.4336 177.278 56.1909C178.126 54.5913 178.266 52.8782 177.846 52.039C177.496 51.2348 176.98 50.7715 175.765 50.0109C174.524 49.3464 173.117 49.2499 171.701 49.3022C170.975 49.3283 170.171 49.3459 169.358 49.4769C168.93 49.5031 168.528 49.6078 168.099 49.6864C167.828 49.6777 167.531 49.6427 166.867 49.3804L165.853 49.0655C165.363 48.8731 164.848 48.7071 164.314 48.576C163.965 48.1738 163.624 47.7455 163.318 47.2822C163.073 46.8626 163.029 46.574 162.889 46.1894C162.627 45.4201 162.767 44.9132 162.95 44.4499C163.431 43.6195 164.069 42.9291 164.724 42.2561C166.088 40.98 167.722 40.01 169.523 39.4858C173.159 38.4023 177.189 39.0233 180.546 40.737C182.25 41.62 183.876 42.8266 185.196 44.5312C186.525 46.2621 187.33 48.4126 187.583 50.5367C187.933 54.8723 186.203 58.386 184.097 60.9819C179.622 66.1911 174.211 67.93 169.43 69.8787C164.527 71.6701 159.693 73.5838 154.728 75.2615L154.239 74.3524Z" fill="#FEECD0"/>
<path d="M125.934 158.677C137.074 125.257 140.403 72.3297 142.644 47.4172C143.177 41.412 142.1 35.307 140.309 29.4419C138.518 23.5768 132.81 17.9047 125.932 14.8898C119.052 17.9063 113.352 23.571 111.559 29.4365C109.767 35.302 110.151 41.4034 110.692 47.4172C112.918 72.338 113.865 127.113 125.934 158.677Z" fill="#FEECD0"/>
<path d="M126.113 501.989C124.942 499.961 124.077 498.589 123.334 497.444C122.617 496.203 122.049 495.355 121.498 494.63C120.485 493.144 119.156 492.724 117.906 491.632C115.476 489.656 113.073 486.082 111.159 482.699C109.359 479.395 107.943 474.728 105.112 469.763C102.315 464.711 97.779 460.385 93.0329 457.649C83.3222 452.082 72.5531 450.965 62.6755 452.085C57.7104 452.61 52.8677 453.816 48.2347 455.513C43.6978 457.305 39.0823 459.683 36.0487 463.486C40.1922 461.108 44.7552 460.268 49.2832 459.796C53.8112 459.288 58.3653 459.349 62.8057 459.75C67.2462 460.1 71.5904 460.947 75.5762 462.275C79.6232 463.542 83.3642 465.36 86.4059 467.755C89.5175 470.167 91.7461 472.798 93.3017 476.119C94.9621 479.458 96.0281 483.968 98.4663 489.082C99.7947 491.739 100.948 493.767 102.6 496.118C104.208 498.39 106.096 500.663 108.447 502.682C110.772 504.64 113.508 506.728 116.899 506.885C118.543 507.007 120.265 506.754 121.856 505.914C123.447 505.197 124.924 503.93 126.113 501.989Z" fill="#FEECD0"/>
<path d="M126.164 501.989C127.335 499.961 128.201 498.589 128.943 497.444C129.66 496.203 130.228 495.355 130.779 494.63C131.793 493.144 133.121 492.724 134.371 491.632C136.801 489.656 139.204 486.082 141.118 482.699C142.919 479.395 144.334 474.728 147.166 469.763C149.962 464.711 154.498 460.385 159.244 457.649C168.955 452.082 179.724 450.965 189.602 452.085C194.567 452.61 199.41 453.816 204.043 455.513C208.58 457.305 213.195 459.683 216.229 463.486C212.085 461.108 207.522 460.268 202.994 459.796C198.466 459.288 193.912 459.349 189.472 459.75C185.031 460.1 180.687 460.947 176.701 462.275C172.654 463.542 168.913 465.36 165.871 467.755C162.76 470.167 160.531 472.798 158.976 476.119C157.315 479.458 156.249 483.968 153.811 489.082C152.483 491.739 151.329 493.767 149.677 496.118C148.069 498.39 146.181 500.663 143.83 502.682C141.505 504.64 138.77 506.728 135.378 506.885C133.735 507.007 132.013 506.754 130.422 505.914C128.831 505.197 127.353 503.93 126.164 501.989Z" fill="#FEECD0"/>
<path d="M125.986 484.831C122.367 483.1 120.855 478.931 119.256 475.216C117.753 471.335 116.425 467.297 114.799 463.276C111.479 455.357 106.646 447.15 98.7358 441.618C90.8956 436.12 81.0271 433.823 71.98 434.427C67.4083 434.576 62.9677 435.258 58.632 436.273C56.4991 436.885 54.4097 437.646 52.3642 438.485C50.476 439.779 47.9761 439.202 47.3549 444.386C50.7897 448.398 52.3546 446.658 54.5311 446.789C56.5853 446.64 58.6221 446.456 60.6151 446.124C64.5837 445.634 68.5172 444.934 72.3983 444.846C80.1343 444.592 87.7302 445.177 94.3119 448.699C100.92 452.142 106.041 458.452 110.123 465.593C112.255 469.142 114.195 472.9 116.362 476.624C118.573 480.164 121.012 484.56 125.662 485.818L125.986 484.831Z" fill="#FEECD0"/>
<path d="M126.292 484.831C129.91 483.1 131.422 478.931 133.021 475.216C134.524 471.335 135.852 467.297 137.478 463.276C140.799 455.357 145.631 447.15 153.542 441.618C161.382 436.12 171.25 433.823 180.297 434.427C184.869 434.576 189.31 435.258 193.645 436.273C195.778 436.885 197.868 437.646 199.913 438.485C201.801 439.779 204.301 439.202 204.922 444.386C201.488 448.398 199.923 446.658 197.746 446.789C195.692 446.64 193.655 446.456 191.662 446.124C187.694 445.634 183.76 444.934 179.879 444.846C172.143 444.592 164.547 445.177 157.965 448.699C151.358 452.142 146.236 458.452 142.155 465.593C140.022 469.142 138.082 472.9 135.915 476.624C133.704 480.164 131.265 484.56 126.615 485.818L126.292 484.831Z" fill="#FEECD0"/>
<path d="M126.004 466.171C124.134 458.828 122.151 451.355 118.35 444.459C114.697 437.536 108.841 431.488 101.805 427.599C94.7597 423.719 86.7705 421.639 78.65 421.404C70.5208 421.195 62.6536 422.84 55.2147 424.58C47.7583 426.355 40.6078 428.174 33.5624 428.717C26.6043 429.277 19.6726 428.797 14.2972 425.957C11.5701 424.559 9.16651 422.557 7.7507 420.39C6.24749 418.152 6.08174 416.29 6.66765 414.096C7.29727 411.893 9.18541 409.376 11.6682 407.05C13.9674 404.366 17.6913 403.632 18.6623 397.591C12.9983 395.249 10.1397 398.318 6.41574 400.276C2.95397 402.584 -0.743999 405.67 -2.76378 410.644C-4.93216 415.557 -3.80527 422.034 -0.973604 426.037C1.77937 430.242 5.52022 433.108 9.48845 435.206C17.7046 439.453 26.6906 439.592 34.6626 438.489C42.7221 437.317 50.2134 434.825 57.3727 432.63C64.5407 430.427 71.5865 428.485 78.6756 428.178C85.7122 427.889 92.9496 429.217 99.4177 432.241C105.956 435.142 111.567 439.931 115.587 446.12C119.669 452.247 122.36 459.379 124.999 466.477L126.004 466.171Z" fill="#FEECD0"/>
<path d="M126.269 466.171C128.139 458.828 130.122 451.355 133.924 444.459C137.577 437.536 143.433 431.488 150.469 427.599C157.514 423.719 165.503 421.639 173.623 421.404C181.753 421.195 189.62 422.84 197.059 424.58C204.515 426.355 211.666 428.174 218.711 428.717C225.669 429.277 232.601 428.797 237.976 425.957C240.703 424.559 243.107 422.557 244.523 420.39C246.026 418.152 246.192 416.29 245.606 414.096C244.976 411.893 243.088 409.376 240.605 407.05C238.306 404.366 234.582 403.632 233.611 397.591C239.275 395.249 242.134 398.318 245.858 400.276C249.319 402.584 253.017 405.67 255.037 410.644C257.206 415.557 256.079 422.034 253.247 426.037C250.494 430.242 246.753 433.108 242.785 435.206C234.569 439.453 225.583 439.592 217.611 438.489C209.551 437.317 202.06 434.825 194.901 432.63C187.733 430.427 180.687 428.485 173.598 428.178C166.561 427.889 159.324 429.217 152.856 432.241C146.318 435.142 140.706 439.931 136.686 446.12C132.605 452.247 129.913 459.379 127.274 466.477L126.269 466.171Z" fill="#FEECD0"/>
<path d="M125.71 444.268C121.795 435.387 115.179 427.722 107.452 421.587C99.5946 415.565 90.5217 411.056 80.8718 408.26C75.9857 406.835 71.2132 406.032 66.7641 404.922C62.3412 403.874 58.1018 402.729 55.0426 400.859C51.8523 398.91 50.4715 396.725 50.3495 393.875C50.3059 392.468 50.446 390.86 51.0931 389.321C51.3729 388.517 51.8012 387.756 52.2995 386.996C52.693 386.078 52.8942 384.968 52.7634 382.214C50.5608 380.641 48.7426 380.834 47.3876 381.542C46.1026 382.355 44.9749 383.43 43.9433 384.619C41.9063 387.023 40.6035 390.161 40.3234 393.501C39.9996 396.849 40.9958 400.362 42.7786 403.299C44.7013 406.236 47.0786 408.211 49.657 409.793C54.8227 412.86 60.076 413.883 64.9622 414.608C69.8834 415.28 74.6036 415.594 79.0003 416.389C87.8986 417.944 96.6482 421.116 104.515 425.888C112.486 430.52 119.548 436.9 124.818 444.775L125.71 444.268Z" fill="#FEECD0"/>
<path d="M126.564 444.268C130.479 435.387 137.095 427.722 144.821 421.587C152.679 415.565 161.752 411.056 171.402 408.26C176.288 406.835 181.06 406.032 185.509 404.922C189.932 403.874 194.172 402.729 197.231 400.859C200.421 398.91 201.802 396.725 201.924 393.875C201.968 392.468 201.827 390.86 201.18 389.321C200.901 388.517 200.472 387.756 199.974 386.996C199.58 386.078 199.379 384.968 199.51 382.214C201.713 380.641 203.531 380.834 204.886 381.542C206.171 382.355 207.299 383.43 208.33 384.619C210.367 387.023 211.67 390.161 211.95 393.501C212.274 396.849 211.278 400.362 209.495 403.299C207.572 406.236 205.195 408.211 202.616 409.793C197.451 412.86 192.197 413.883 187.311 414.608C182.39 415.28 177.67 415.594 173.273 416.389C164.375 417.944 155.625 421.116 147.759 425.888C139.787 430.52 132.725 436.9 127.455 444.775L126.564 444.268Z" fill="#FEECD0"/>
<path d="M98.0308 418.352C93.8354 415.206 89.5264 412.313 85.2698 409.281C81.022 406.397 76.7304 403.434 74.9913 400.191C74.1436 398.591 74.0039 396.878 74.4236 396.039C74.7733 395.235 75.2891 394.771 76.5042 394.011C77.7455 393.346 79.1529 393.25 80.5689 393.302C81.2945 393.328 82.0988 393.346 82.9117 393.477C83.34 393.503 83.7419 393.608 84.1702 393.686C84.4412 393.678 84.7385 393.643 85.4028 393.38L86.4167 393.065C86.9063 392.873 87.422 392.707 87.9553 392.576C88.3049 392.174 88.646 391.745 88.952 391.282C89.1968 390.863 89.2404 390.574 89.3803 390.189C89.6427 389.42 89.5028 388.913 89.3193 388.45C88.8386 387.62 88.2006 386.929 87.5451 386.256C86.1816 384.98 84.5473 384.01 82.7467 383.486C79.1105 382.402 75.0807 383.023 71.7239 384.737C70.0193 385.62 68.3932 386.827 67.0731 388.531C65.7443 390.262 64.9399 392.413 64.6862 394.537C64.3361 398.872 66.0664 402.386 68.1727 404.982C72.6476 410.191 78.058 411.93 82.8392 413.879C87.7428 415.67 92.5765 417.584 97.5413 419.261L98.0308 418.352Z" fill="#FEECD0"/>
<path d="M154.243 418.352C158.438 415.206 162.747 412.313 167.004 409.281C171.251 406.397 175.543 403.434 177.282 400.191C178.13 398.591 178.27 396.878 177.85 396.039C177.5 395.235 176.984 394.771 175.769 394.011C174.528 393.346 173.121 393.25 171.704 393.302C170.979 393.328 170.175 393.346 169.362 393.477C168.933 393.503 168.531 393.608 168.103 393.686C167.832 393.678 167.535 393.643 166.871 393.38L165.857 393.065C165.367 392.873 164.851 392.707 164.318 392.576C163.968 392.174 163.627 391.745 163.321 391.282C163.077 390.863 163.033 390.574 162.893 390.189C162.631 389.42 162.771 388.913 162.954 388.45C163.435 387.62 164.073 386.929 164.728 386.256C166.092 384.98 167.726 384.01 169.527 383.486C173.163 382.402 177.193 383.023 180.55 384.737C182.254 385.62 183.88 386.827 185.2 388.531C186.529 390.262 187.333 392.413 187.587 394.537C187.937 398.872 186.207 402.386 184.101 404.982C179.626 410.191 174.215 411.93 169.434 413.879C164.531 415.67 159.697 417.584 154.732 419.261L154.243 418.352Z" fill="#FEECD0"/>
<path d="M125.938 502.677C137.077 469.257 140.407 416.33 142.647 391.417C143.181 385.412 142.104 379.307 140.313 373.442C138.522 367.577 132.814 361.905 125.935 358.89C119.056 361.906 113.356 367.571 111.563 373.437C109.771 379.302 110.155 385.403 110.696 391.417C112.922 416.338 113.869 471.113 125.938 502.677Z" fill="#FEECD0"/>
<path d="M461.109 329.989C459.938 327.961 459.073 326.589 458.33 325.444C457.613 324.203 457.045 323.355 456.495 322.63C455.481 321.144 454.152 320.724 452.902 319.632C450.473 317.656 448.069 314.082 446.155 310.699C444.355 307.395 442.939 302.728 440.108 297.763C437.311 292.711 432.775 288.385 428.029 285.649C418.318 280.082 407.549 278.965 397.672 280.085C392.707 280.61 387.864 281.816 383.231 283.513C378.694 285.305 374.078 287.683 371.045 291.486C375.188 289.108 379.751 288.268 384.279 287.796C388.807 287.288 393.361 287.349 397.802 287.75C402.242 288.1 406.587 288.947 410.572 290.275C414.619 291.542 418.36 293.36 421.402 295.755C424.514 298.167 426.742 300.798 428.298 304.119C429.958 307.458 431.024 311.968 433.462 317.082C434.791 319.739 435.944 321.767 437.596 324.118C439.204 326.39 441.092 328.663 443.443 330.682C445.768 332.64 448.504 334.728 451.895 334.885C453.539 335.007 455.261 334.754 456.852 333.914C458.443 333.197 459.92 331.93 461.109 329.989Z" fill="#FEECD0"/>
<path d="M461.164 329.989C462.335 327.961 463.201 326.589 463.943 325.444C464.66 324.203 465.228 323.355 465.779 322.63C466.793 321.144 468.121 320.724 469.371 319.632C471.801 317.656 474.204 314.082 476.118 310.699C477.919 307.395 479.334 302.728 482.166 297.763C484.962 292.711 489.498 288.385 494.244 285.649C503.955 280.082 514.724 278.965 524.602 280.085C529.567 280.61 534.41 281.816 539.043 283.513C543.58 285.305 548.195 287.683 551.229 291.486C547.085 289.108 542.522 288.268 537.994 287.796C533.466 287.288 528.912 287.349 524.472 287.75C520.031 288.1 515.687 288.947 511.701 290.275C507.654 291.542 503.913 293.36 500.871 295.755C497.76 298.167 495.531 300.798 493.976 304.119C492.315 307.458 491.249 311.968 488.811 317.082C487.483 319.739 486.329 321.767 484.677 324.118C483.069 326.39 481.181 328.663 478.83 330.682C476.505 332.64 473.77 334.728 470.378 334.885C468.735 335.007 467.013 334.754 465.422 333.914C463.831 333.197 462.353 331.93 461.164 329.989Z" fill="#FEECD0"/>
<path d="M460.982 312.831C457.363 311.1 455.851 306.931 454.252 303.216C452.749 299.335 451.421 295.297 449.796 291.276C446.475 283.357 441.642 275.15 433.732 269.618C425.892 264.12 416.023 261.823 406.976 262.427C402.404 262.576 397.964 263.258 393.628 264.273C391.495 264.885 389.406 265.646 387.36 266.485C385.472 267.779 382.972 267.202 382.351 272.386C385.786 276.398 387.351 274.658 389.527 274.789C391.581 274.64 393.618 274.456 395.611 274.124C399.58 273.634 403.513 272.934 407.394 272.846C415.13 272.592 422.726 273.177 429.308 276.699C435.916 280.142 441.037 286.452 445.119 293.593C447.251 297.142 449.191 300.9 451.358 304.624C453.57 308.164 456.008 312.56 460.658 313.818L460.982 312.831Z" fill="#FEECD0"/>
<path d="M461.292 312.831C464.91 311.1 466.422 306.931 468.021 303.216C469.524 299.335 470.852 295.297 472.478 291.276C475.799 283.357 480.631 275.15 488.542 269.618C496.382 264.12 506.25 261.823 515.297 262.427C519.869 262.576 524.31 263.258 528.645 264.273C530.778 264.885 532.868 265.646 534.913 266.485C536.801 267.779 539.301 267.202 539.922 272.386C536.488 276.398 534.923 274.658 532.746 274.789C530.692 274.64 528.655 274.456 526.662 274.124C522.694 273.634 518.76 272.934 514.879 272.846C507.143 272.592 499.547 273.177 492.965 276.699C486.358 280.142 481.236 286.452 477.155 293.593C475.022 297.142 473.082 300.9 470.915 304.624C468.704 308.164 466.265 312.56 461.615 313.818L461.292 312.831Z" fill="#FEECD0"/>
<path d="M461.004 294.171C459.134 286.828 457.151 279.355 453.35 272.459C449.697 265.536 443.841 259.488 436.805 255.599C429.76 251.719 421.77 249.639 413.65 249.404C405.521 249.195 397.654 250.84 390.215 252.58C382.758 254.355 375.608 256.174 368.562 256.717C361.604 257.277 354.673 256.797 349.297 253.957C346.57 252.559 344.167 250.557 342.751 248.39C341.247 246.152 341.082 244.29 341.668 242.096C342.297 239.893 344.185 237.376 346.668 235.05C348.967 232.366 352.691 231.632 353.662 225.591C347.998 223.249 345.14 226.318 341.416 228.276C337.954 230.584 334.256 233.67 332.236 238.644C330.068 243.557 331.195 250.034 334.026 254.037C336.779 258.242 340.52 261.108 344.488 263.206C352.705 267.453 361.691 267.592 369.663 266.489C377.722 265.317 385.213 262.825 392.373 260.63C399.541 258.427 406.586 256.485 413.676 256.178C420.712 255.889 427.95 257.217 434.418 260.241C440.956 263.142 446.567 267.931 450.587 274.12C454.669 280.247 457.36 287.379 459.999 294.477L461.004 294.171Z" fill="#FEECD0"/>
<path d="M461.269 294.171C463.139 286.828 465.122 279.355 468.924 272.459C472.577 265.536 478.433 259.488 485.469 255.599C492.514 251.719 500.503 249.639 508.623 249.404C516.753 249.195 524.62 250.84 532.059 252.58C539.515 254.355 546.666 256.174 553.711 256.717C560.669 257.277 567.601 256.797 572.976 253.957C575.703 252.559 578.107 250.557 579.523 248.39C581.026 246.152 581.192 244.29 580.606 242.096C579.976 239.893 578.088 237.376 575.605 235.05C573.306 232.366 569.582 231.632 568.611 225.591C574.275 223.249 577.134 226.318 580.858 228.276C584.319 230.584 588.017 233.67 590.037 238.644C592.206 243.557 591.079 250.034 588.247 254.037C585.494 258.242 581.753 261.108 577.785 263.206C569.569 267.453 560.583 267.592 552.611 266.489C544.551 265.317 537.06 262.825 529.901 260.63C522.733 258.427 515.687 256.485 508.598 256.178C501.561 255.889 494.324 257.217 487.856 260.241C481.318 263.142 475.706 267.931 471.686 274.12C467.605 280.247 464.913 287.379 462.274 294.477L461.269 294.171Z" fill="#FEECD0"/>
<path d="M460.71 272.268C456.795 263.387 450.179 255.722 442.452 249.587C434.595 243.565 425.522 239.056 415.872 236.26C410.986 234.835 406.213 234.032 401.764 232.922C397.341 231.874 393.102 230.729 390.043 228.859C386.852 226.91 385.472 224.725 385.349 221.875C385.306 220.468 385.446 218.86 386.093 217.321C386.373 216.517 386.801 215.756 387.3 214.996C387.693 214.078 387.894 212.968 387.763 210.214C385.561 208.641 383.743 208.834 382.388 209.542C381.103 210.355 379.975 211.43 378.943 212.619C376.906 215.023 375.604 218.161 375.323 221.501C375 224.849 375.996 228.362 377.779 231.299C379.701 234.236 382.079 236.211 384.657 237.793C389.823 240.86 395.076 241.883 399.962 242.608C404.883 243.28 409.604 243.594 414 244.389C422.899 245.944 431.648 249.116 439.515 253.888C447.486 258.52 454.548 264.9 459.818 272.775L460.71 272.268Z" fill="#FEECD0"/>
<path d="M461.564 272.268C465.479 263.387 472.095 255.722 479.821 249.587C487.679 243.565 496.752 239.056 506.402 236.26C511.288 234.835 516.06 234.032 520.509 232.922C524.932 231.874 529.172 230.729 532.231 228.859C535.421 226.91 536.802 224.725 536.924 221.875C536.968 220.468 536.827 218.86 536.18 217.321C535.901 216.517 535.472 215.756 534.974 214.996C534.58 214.078 534.379 212.968 534.51 210.214C536.713 208.641 538.531 208.834 539.886 209.542C541.171 210.355 542.299 211.43 543.33 212.619C545.367 215.023 546.67 218.161 546.95 221.501C547.274 224.849 546.278 228.362 544.495 231.299C542.572 234.236 540.195 236.211 537.616 237.793C532.451 240.86 527.197 241.883 522.311 242.608C517.39 243.28 512.67 243.594 508.273 244.389C499.375 245.944 490.625 249.116 482.759 253.888C474.787 258.52 467.725 264.9 462.455 272.775L461.564 272.268Z" fill="#FEECD0"/>
<path d="M433.031 246.352C428.835 243.206 424.526 240.313 420.27 237.281C416.022 234.397 411.73 231.434 409.991 228.191C409.144 226.591 409.004 224.878 409.424 224.039C409.773 223.235 410.289 222.771 411.504 222.011C412.746 221.346 414.153 221.25 415.569 221.302C416.294 221.328 417.099 221.346 417.912 221.477C418.34 221.503 418.742 221.608 419.17 221.686C419.441 221.678 419.738 221.643 420.403 221.38L421.417 221.065C421.906 220.873 422.422 220.707 422.955 220.576C423.305 220.174 423.646 219.745 423.952 219.282C424.197 218.863 424.24 218.574 424.38 218.189C424.643 217.42 424.503 216.913 424.319 216.45C423.839 215.62 423.201 214.929 422.545 214.256C421.182 212.98 419.547 212.01 417.747 211.486C414.111 210.402 410.081 211.023 406.724 212.737C405.019 213.62 403.393 214.827 402.073 216.531C400.744 218.262 399.94 220.413 399.686 222.537C399.336 226.872 401.066 230.386 403.173 232.982C407.648 238.191 413.058 239.93 417.839 241.879C422.743 243.67 427.576 245.584 432.541 247.261L433.031 246.352Z" fill="#FEECD0"/>
<path d="M489.243 246.352C493.438 243.206 497.747 240.313 502.004 237.281C506.251 234.397 510.543 231.434 512.282 228.191C513.13 226.591 513.27 224.878 512.85 224.039C512.5 223.235 511.984 222.771 510.769 222.011C509.528 221.346 508.121 221.25 506.704 221.302C505.979 221.328 505.175 221.346 504.362 221.477C503.933 221.503 503.531 221.608 503.103 221.686C502.832 221.678 502.535 221.643 501.871 221.38L500.857 221.065C500.367 220.873 499.851 220.707 499.318 220.576C498.968 220.174 498.627 219.745 498.321 219.282C498.077 218.863 498.033 218.574 497.893 218.189C497.631 217.42 497.771 216.913 497.954 216.45C498.435 215.62 499.073 214.929 499.728 214.256C501.092 212.98 502.726 212.01 504.527 211.486C508.163 210.402 512.193 211.023 515.55 212.737C517.254 213.62 518.88 214.827 520.2 216.531C521.529 218.262 522.333 220.413 522.587 222.537C522.937 226.872 521.207 230.386 519.101 232.982C514.626 238.191 509.215 239.93 504.434 241.879C499.531 243.67 494.697 245.584 489.732 247.261L489.243 246.352Z" fill="#FEECD0"/>
<path d="M460.938 330.677C472.077 297.257 475.407 244.33 477.647 219.417C478.181 213.412 477.104 207.307 475.313 201.442C473.522 195.577 467.814 189.905 460.935 186.89C454.056 189.906 448.356 195.571 446.563 201.437C444.771 207.302 445.155 213.403 445.696 219.417C447.922 244.338 448.869 299.113 460.938 330.677Z" fill="#FEECD0"/>
<path d="M870.109 161.989C868.938 159.961 868.073 158.589 867.33 157.444C866.613 156.203 866.045 155.355 865.495 154.63C864.481 153.144 863.152 152.724 861.902 151.632C859.473 149.656 857.069 146.082 855.155 142.699C853.355 139.395 851.939 134.728 849.108 129.763C846.311 124.711 841.775 120.385 837.029 117.649C827.318 112.082 816.549 110.965 806.672 112.085C801.707 112.61 796.864 113.816 792.231 115.513C787.694 117.305 783.078 119.683 780.045 123.486C784.188 121.108 788.751 120.268 793.279 119.796C797.807 119.288 802.361 119.349 806.802 119.75C811.242 120.1 815.587 120.947 819.572 122.275C823.619 123.542 827.36 125.36 830.402 127.755C833.514 130.167 835.742 132.798 837.298 136.119C838.958 139.458 840.024 143.968 842.462 149.082C843.791 151.739 844.944 153.767 846.596 156.118C848.204 158.39 850.092 160.663 852.443 162.682C854.768 164.64 857.504 166.728 860.895 166.885C862.539 167.007 864.261 166.754 865.852 165.914C867.443 165.197 868.92 163.93 870.109 161.989Z" fill="#FEECD0"/>
<path d="M870.16 161.989C871.332 159.961 872.197 158.589 872.94 157.444C873.656 156.203 874.224 155.355 874.775 154.63C875.789 153.144 877.117 152.724 878.367 151.632C880.797 149.656 883.2 146.082 885.114 142.699C886.915 139.395 888.33 134.728 891.162 129.763C893.958 124.711 898.494 120.385 903.241 117.649C912.951 112.082 923.72 110.965 933.598 112.085C938.563 112.61 943.406 113.816 948.039 115.513C952.576 117.305 957.191 119.683 960.225 123.486C956.081 121.108 951.518 120.268 946.99 119.796C942.462 119.288 937.908 119.349 933.468 119.75C929.027 120.1 924.683 120.947 920.697 122.275C916.65 123.542 912.909 125.36 909.868 127.755C906.756 130.167 904.527 132.798 902.972 136.119C901.311 139.458 900.245 143.968 897.807 149.082C896.479 151.739 895.325 153.767 893.673 156.118C892.065 158.39 890.178 160.663 887.826 162.682C885.501 164.64 882.766 166.728 879.374 166.885C877.731 167.007 876.009 166.754 874.418 165.914C872.827 165.197 871.35 163.93 870.16 161.989Z" fill="#FEECD0"/>
<path d="M869.982 144.83C866.363 143.099 864.851 138.93 863.252 135.215C861.749 131.334 860.421 127.296 858.796 123.276C855.475 115.356 850.642 107.149 842.732 101.617C834.892 96.1194 825.023 93.8218 815.976 94.426C811.404 94.5751 806.964 95.2573 802.628 96.2718C800.495 96.8839 798.406 97.6447 796.36 98.4841C794.472 99.778 791.972 99.2014 791.351 104.385C794.786 108.397 796.351 106.657 798.527 106.788C800.581 106.639 802.618 106.455 804.611 106.123C808.58 105.633 812.513 104.933 816.394 104.845C824.13 104.591 831.726 105.176 838.308 108.698C844.916 112.141 850.037 118.451 854.119 125.592C856.251 129.141 858.191 132.899 860.358 136.623C862.57 140.163 865.008 144.559 869.658 145.817L869.982 144.83Z" fill="#FEECD0"/>
<path d="M870.288 144.83C873.906 143.099 875.418 138.93 877.018 135.215C878.521 131.334 879.849 127.296 881.474 123.276C884.795 115.356 889.628 107.149 897.538 101.617C905.378 96.1194 915.246 93.8218 924.293 94.426C928.865 94.5751 933.306 95.2573 937.641 96.2718C939.774 96.8839 941.864 97.6447 943.909 98.4841C945.797 99.778 948.297 99.2014 948.919 104.385C945.484 108.397 943.919 106.657 941.742 106.788C939.688 106.639 937.651 106.455 935.658 106.123C931.69 105.633 927.756 104.933 923.875 104.845C916.139 104.591 908.543 105.176 901.962 108.698C895.354 112.141 890.232 118.451 886.151 125.592C884.018 129.141 882.078 132.899 879.911 136.623C877.7 140.163 875.262 144.559 870.611 145.817L870.288 144.83Z" fill="#FEECD0"/>
<path d="M870 126.17C868.131 118.827 866.147 111.354 862.346 104.458C858.693 97.5351 852.837 91.4868 845.801 87.5978C838.756 83.7176 830.767 81.6381 822.646 81.403C814.517 81.1942 806.65 82.8386 799.211 84.579C791.754 86.3543 784.604 88.1733 777.558 88.7161C770.6 89.2763 763.669 88.7962 758.293 85.956C755.566 84.5577 753.163 82.5564 751.747 80.3887C750.244 78.1512 750.078 76.2893 750.664 74.0952C751.293 71.8923 753.182 69.3746 755.664 67.0492C757.963 64.3654 761.687 63.6307 762.658 57.5905C756.994 55.2485 754.136 58.3169 750.412 60.2754C746.95 62.5835 743.252 65.6695 741.232 70.6435C739.064 75.5562 740.191 82.0334 743.022 86.0365C745.775 90.2407 749.516 93.1073 753.485 95.2047C761.701 99.452 770.687 99.5908 778.659 98.4885C786.718 97.3162 794.21 94.8241 801.369 92.6292C808.537 90.4256 815.583 88.4843 822.672 88.1775C829.708 87.8882 836.946 89.216 843.414 92.2397C849.952 95.141 855.563 99.9304 859.583 106.119C863.665 112.246 866.356 119.378 868.995 126.476L870 126.17Z" fill="#FEECD0"/>
<path d="M870.265 126.17C872.135 118.827 874.118 111.354 877.92 104.458C881.573 97.5351 887.429 91.4868 894.465 87.5978C901.51 83.7176 909.499 81.6381 917.62 81.403C925.749 81.1942 933.616 82.8386 941.055 84.579C948.511 86.3543 955.662 88.1733 962.707 88.7161C969.665 89.2763 976.597 88.7962 981.972 85.956C984.699 84.5577 987.103 82.5564 988.519 80.3887C990.022 78.1512 990.188 76.2893 989.602 74.0952C988.972 71.8923 987.084 69.3746 984.601 67.0492C982.302 64.3654 978.578 63.6307 977.607 57.5905C983.271 55.2485 986.13 58.3169 989.854 60.2754C993.316 62.5835 997.014 65.6695 999.033 70.6435C1001.2 75.5562 1000.07 82.0334 997.243 86.0365C994.49 90.2407 990.749 93.1073 986.781 95.2047C978.565 99.452 969.579 99.5908 961.607 98.4885C953.547 97.3162 946.056 94.8241 938.897 92.6292C931.729 90.4256 924.683 88.4843 917.594 88.1775C910.557 87.8882 903.32 89.216 896.852 92.2397C890.314 95.141 884.703 99.9304 880.682 106.119C876.601 112.246 873.909 119.378 871.27 126.476L870.265 126.17Z" fill="#FEECD0"/>
<path d="M869.706 104.266C865.791 95.3853 859.175 87.7202 851.448 81.5848C843.591 75.563 834.518 71.0537 824.868 68.2576C819.982 66.8334 815.209 66.0297 810.76 64.9201C806.337 63.8717 802.098 62.7271 799.039 60.8568C795.848 58.9079 794.468 56.7229 794.346 53.8733C794.302 52.466 794.442 50.8576 795.089 49.3191C795.369 48.5149 795.797 47.7542 796.296 46.9937C796.689 46.0758 796.89 44.9657 796.759 42.2123C794.557 40.6391 792.739 40.8317 791.384 41.5399C790.099 42.353 788.971 43.4283 787.939 44.6172C785.902 47.0213 784.6 50.1595 784.32 53.4987C783.996 56.8466 784.992 60.3603 786.775 63.2972C788.697 66.234 791.075 68.2091 793.653 69.791C798.819 72.8585 804.072 73.8806 808.958 74.6056C813.879 75.2781 818.6 75.5922 822.996 76.3872C831.895 77.942 840.644 81.1141 848.511 85.8858C856.482 90.5177 863.544 96.8979 868.814 104.773L869.706 104.266Z" fill="#FEECD0"/>
<path d="M870.56 104.266C874.475 95.3853 881.091 87.7202 888.817 81.5848C896.675 75.563 905.748 71.0537 915.398 68.2576C920.284 66.8334 925.056 66.0297 929.505 64.9201C933.928 63.8717 938.168 62.7271 941.227 60.8568C944.417 58.9079 945.798 56.7229 945.92 53.8733C945.964 52.466 945.823 50.8576 945.176 49.3191C944.897 48.5149 944.468 47.7542 943.97 46.9937C943.577 46.0758 943.375 44.9657 943.506 42.2123C945.709 40.6391 947.527 40.8317 948.882 41.5399C950.167 42.353 951.295 43.4283 952.326 44.6172C954.363 47.0213 955.666 50.1595 955.946 53.4987C956.27 56.8466 955.274 60.3603 953.491 63.2972C951.568 66.234 949.191 68.2091 946.613 69.791C941.447 72.8585 936.194 73.8806 931.307 74.6056C926.386 75.2781 921.666 75.5922 917.269 76.3872C908.371 77.942 899.621 81.1141 891.755 85.8858C883.783 90.5177 876.721 96.8979 871.451 104.773L870.56 104.266Z" fill="#FEECD0"/>
<path d="M842.027 78.3505C837.832 75.2041 833.522 72.3113 829.266 69.2786C825.018 66.3946 820.726 63.4317 818.987 60.1889C818.14 58.5894 818 56.8762 818.42 56.0371C818.769 55.2328 819.285 54.7695 820.5 54.0089C821.742 53.3444 823.149 53.248 824.565 53.3002C825.291 53.3264 826.095 53.3439 826.908 53.475C827.336 53.5011 827.738 53.6059 828.166 53.6845C828.437 53.6757 828.735 53.6407 829.399 53.3784L830.413 53.0635C830.902 52.8712 831.418 52.7052 831.951 52.574C832.301 52.1719 832.642 51.7435 832.948 51.2802C833.193 50.8606 833.237 50.572 833.376 50.1874C833.639 49.4182 833.499 48.9112 833.315 48.4479C832.835 47.6176 832.197 46.9271 831.541 46.2541C830.178 44.9781 828.543 44.0081 826.743 43.4838C823.107 42.4003 819.077 43.0214 815.72 44.735C814.015 45.6181 812.389 46.8246 811.069 48.5293C809.74 50.2602 808.936 52.4106 808.682 54.5347C808.332 58.8704 810.062 62.3841 812.169 64.98C816.644 70.1892 822.054 71.9281 826.835 73.8768C831.739 75.6681 836.573 77.5818 841.537 79.2595L842.027 78.3505Z" fill="#FEECD0"/>
<path d="M898.239 78.3505C902.434 75.2041 906.743 72.3113 911 69.2786C915.248 66.3946 919.539 63.4317 921.278 60.1889C922.126 58.5894 922.266 56.8762 921.846 56.0371C921.496 55.2328 920.98 54.7695 919.765 54.0089C918.524 53.3444 917.117 53.248 915.701 53.3002C914.975 53.3264 914.171 53.3439 913.358 53.475C912.93 53.5011 912.528 53.6059 912.099 53.6845C911.828 53.6757 911.531 53.6407 910.867 53.3784L909.853 53.0635C909.363 52.8712 908.848 52.7052 908.314 52.574C907.965 52.1719 907.624 51.7435 907.318 51.2802C907.073 50.8606 907.029 50.572 906.889 50.1874C906.627 49.4182 906.767 48.9112 906.95 48.4479C907.431 47.6176 908.069 46.9271 908.724 46.2541C910.088 44.9781 911.722 44.0081 913.523 43.4838C917.159 42.4003 921.189 43.0214 924.546 44.735C926.25 45.6181 927.876 46.8246 929.196 48.5293C930.525 50.2602 931.33 52.4106 931.583 54.5347C931.933 58.8704 930.203 62.3841 928.097 64.98C923.622 70.1892 918.211 71.9281 913.43 73.8768C908.527 75.6681 903.693 77.5818 898.728 79.2595L898.239 78.3505Z" fill="#FEECD0"/>
<path d="M869.934 162.676C881.074 129.256 884.403 76.3288 886.644 51.4162C887.177 45.411 886.1 39.306 884.309 33.4409C882.518 27.5758 876.81 21.9037 869.932 18.8888C863.052 21.9053 857.352 27.57 855.559 33.4355C853.767 39.3011 854.151 45.4024 854.692 51.4162C856.918 76.337 857.865 131.113 869.934 162.676Z" fill="#FEECD0"/>
<path d="M870.105 503.988C868.934 501.96 868.069 500.588 867.326 499.443C866.609 498.202 866.041 497.354 865.491 496.629C864.477 495.143 863.148 494.723 861.898 493.631C859.469 491.655 857.065 488.081 855.151 484.698C853.351 481.394 851.936 476.727 849.104 471.762C846.307 466.71 841.771 462.384 837.025 459.648C827.314 454.081 816.545 452.964 806.668 454.084C801.703 454.609 796.86 455.815 792.227 457.512C787.69 459.304 783.074 461.682 780.041 465.485C784.184 463.107 788.747 462.267 793.275 461.795C797.803 461.287 802.357 461.348 806.798 461.749C811.238 462.099 815.583 462.946 819.568 464.274C823.615 465.541 827.356 467.359 830.398 469.754C833.51 472.166 835.738 474.797 837.294 478.118C838.954 481.457 840.02 485.967 842.459 491.081C843.787 493.738 844.94 495.766 846.592 498.117C848.2 500.389 850.088 502.662 852.439 504.681C854.764 506.639 857.5 508.727 860.891 508.884C862.535 509.006 864.257 508.753 865.848 507.913C867.439 507.197 868.916 505.929 870.105 503.988Z" fill="#FEECD0"/>
<path d="M870.157 503.988C871.328 501.96 872.193 500.588 872.936 499.443C873.652 498.202 874.22 497.354 874.771 496.629C875.785 495.143 877.113 494.723 878.363 493.631C880.793 491.655 883.196 488.081 885.11 484.698C886.911 481.394 888.326 476.727 891.158 471.762C893.954 466.71 898.49 462.384 903.237 459.648C912.947 454.081 923.716 452.964 933.594 454.084C938.559 454.609 943.402 455.815 948.035 457.512C952.572 459.304 957.187 461.682 960.221 465.485C956.077 463.107 951.514 462.267 946.986 461.795C942.458 461.287 937.904 461.348 933.464 461.749C929.023 462.099 924.679 462.946 920.693 464.274C916.646 465.541 912.905 467.359 909.864 469.754C906.752 472.166 904.523 474.797 902.968 478.118C901.307 481.457 900.241 485.967 897.803 491.081C896.475 493.738 895.321 495.766 893.67 498.117C892.061 500.389 890.174 502.662 887.822 504.681C885.498 506.639 882.762 508.727 879.37 508.884C877.727 509.006 876.005 508.753 874.414 507.913C872.823 507.197 871.346 505.929 870.157 503.988Z" fill="#FEECD0"/>
<path d="M869.978 486.83C866.359 485.099 864.847 480.93 863.248 477.215C861.745 473.334 860.417 469.296 858.792 465.276C855.471 457.356 850.638 449.149 842.728 443.617C834.888 438.119 825.019 435.822 815.972 436.426C811.401 436.575 806.96 437.257 802.624 438.272C800.491 438.884 798.402 439.645 796.356 440.484C794.468 441.778 791.968 441.201 791.347 446.385C794.782 450.397 796.347 448.657 798.523 448.788C800.578 448.639 802.614 448.455 804.607 448.123C808.576 447.633 812.509 446.933 816.39 446.845C824.126 446.591 831.722 447.176 838.304 450.698C844.912 454.141 850.033 460.451 854.115 467.592C856.247 471.141 858.187 474.899 860.355 478.623C862.566 482.163 865.004 486.559 869.654 487.817L869.978 486.83Z" fill="#FEECD0"/>
<path d="M870.284 486.83C873.903 485.099 875.414 480.93 877.014 477.215C878.517 473.334 879.845 469.296 881.47 465.276C884.791 457.356 889.624 449.149 897.534 443.617C905.374 438.119 915.242 435.822 924.29 436.426C928.861 436.575 933.302 437.257 937.638 438.272C939.77 438.884 941.86 439.645 943.905 440.484C945.794 441.778 948.293 441.201 948.915 446.385C945.48 450.397 943.915 448.657 941.738 448.788C939.684 448.639 937.647 448.455 935.654 448.123C931.686 447.633 927.752 446.933 923.871 446.845C916.135 446.591 908.539 447.176 901.958 450.698C895.35 454.141 890.228 460.451 886.147 467.592C884.015 471.141 882.075 474.899 879.907 478.623C877.696 482.163 875.258 486.559 870.608 487.817L870.284 486.83Z" fill="#FEECD0"/>
<path d="M870 468.17C868.131 460.827 866.147 453.354 862.346 446.458C858.693 439.535 852.837 433.487 845.801 429.598C838.756 425.718 830.767 423.638 822.646 423.403C814.517 423.194 806.65 424.839 799.211 426.579C791.754 428.354 784.604 430.173 777.558 430.716C770.6 431.276 763.669 430.796 758.293 427.956C755.566 426.558 753.163 424.556 751.747 422.389C750.244 420.151 750.078 418.289 750.664 416.095C751.293 413.892 753.182 411.375 755.664 409.049C757.963 406.365 761.687 405.631 762.658 399.59C756.994 397.249 754.136 400.317 750.412 402.275C746.95 404.583 743.252 407.67 741.232 412.643C739.064 417.556 740.191 424.033 743.022 428.037C745.775 432.241 749.516 435.107 753.485 437.205C761.701 441.452 770.687 441.591 778.659 440.488C786.718 439.316 794.21 436.824 801.369 434.629C808.537 432.426 815.583 430.484 822.672 430.177C829.708 429.888 836.946 431.216 843.414 434.24C849.952 437.141 855.563 441.93 859.583 448.119C863.665 454.246 866.356 461.378 868.995 468.476L870 468.17Z" fill="#FEECD0"/>
<path d="M870.265 468.17C872.135 460.827 874.118 453.354 877.92 446.458C881.573 439.535 887.429 433.487 894.465 429.598C901.51 425.718 909.499 423.638 917.62 423.403C925.749 423.194 933.616 424.839 941.055 426.579C948.511 428.354 955.662 430.173 962.707 430.716C969.665 431.276 976.597 430.796 981.972 427.956C984.699 426.558 987.103 424.556 988.519 422.389C990.022 420.151 990.188 418.289 989.602 416.095C988.972 413.892 987.084 411.375 984.601 409.049C982.302 406.365 978.578 405.631 977.607 399.59C983.271 397.249 986.13 400.317 989.854 402.275C993.316 404.583 997.014 407.67 999.033 412.643C1001.2 417.556 1000.07 424.033 997.243 428.037C994.49 432.241 990.749 435.107 986.781 437.205C978.565 441.452 969.579 441.591 961.607 440.488C953.547 439.316 946.056 436.824 938.897 434.629C931.729 432.426 924.683 430.484 917.594 430.177C910.557 429.888 903.32 431.216 896.852 434.24C890.314 437.141 884.703 441.93 880.682 448.119C876.601 454.246 873.909 461.378 871.27 468.476L870.265 468.17Z" fill="#FEECD0"/>
<path d="M869.706 446.266C865.791 437.385 859.175 429.72 851.448 423.585C843.591 417.563 834.518 413.054 824.868 410.258C819.982 408.833 815.209 408.03 810.76 406.92C806.337 405.872 802.098 404.727 799.039 402.857C795.848 400.908 794.468 398.723 794.346 395.873C794.302 394.466 794.442 392.858 795.089 391.319C795.369 390.515 795.797 389.754 796.296 388.994C796.689 388.076 796.89 386.966 796.759 384.212C794.557 382.639 792.739 382.832 791.384 383.54C790.099 384.353 788.971 385.428 787.939 386.617C785.902 389.021 784.6 392.16 784.32 395.499C783.996 398.847 784.992 402.36 786.775 405.297C788.697 408.234 791.075 410.209 793.653 411.791C798.819 414.859 804.072 415.881 808.958 416.606C813.879 417.278 818.6 417.592 822.996 418.387C831.895 419.942 840.644 423.114 848.511 427.886C856.482 432.518 863.544 438.898 868.814 446.773L869.706 446.266Z" fill="#FEECD0"/>
<path d="M870.56 446.266C874.475 437.385 881.091 429.72 888.817 423.585C896.675 417.563 905.748 413.054 915.398 410.258C920.284 408.833 925.056 408.03 929.505 406.92C933.928 405.872 938.168 404.727 941.227 402.857C944.417 400.908 945.798 398.723 945.92 395.873C945.964 394.466 945.823 392.858 945.176 391.319C944.897 390.515 944.468 389.754 943.97 388.994C943.577 388.076 943.375 386.966 943.506 384.212C945.709 382.639 947.527 382.832 948.882 383.54C950.167 384.353 951.295 385.428 952.326 386.617C954.363 389.021 955.666 392.16 955.946 395.499C956.27 398.847 955.274 402.36 953.491 405.297C951.568 408.234 949.191 410.209 946.613 411.791C941.447 414.859 936.194 415.881 931.307 416.606C926.386 417.278 921.666 417.592 917.269 418.387C908.371 419.942 899.621 423.114 891.755 427.886C883.783 432.518 876.721 438.898 871.451 446.773L870.56 446.266Z" fill="#FEECD0"/>
<path d="M842.027 420.35C837.832 417.204 833.522 414.311 829.266 411.279C825.018 408.395 820.726 405.432 818.987 402.189C818.14 400.589 818 398.876 818.42 398.037C818.769 397.233 819.285 396.77 820.5 396.009C821.742 395.344 823.149 395.248 824.565 395.3C825.291 395.326 826.095 395.344 826.908 395.475C827.336 395.501 827.738 395.606 828.166 395.684C828.437 395.676 828.735 395.641 829.399 395.378L830.413 395.064C830.902 394.871 831.418 394.705 831.951 394.574C832.301 394.172 832.642 393.744 832.948 393.28C833.193 392.861 833.237 392.572 833.376 392.187C833.639 391.418 833.499 390.911 833.315 390.448C832.835 389.618 832.197 388.927 831.541 388.254C830.178 386.978 828.543 386.008 826.743 385.484C823.107 384.4 819.077 385.021 815.72 386.735C814.015 387.618 812.389 388.825 811.069 390.529C809.74 392.26 808.936 394.411 808.682 396.535C808.332 400.87 810.062 404.384 812.169 406.98C816.644 412.189 822.054 413.928 826.835 415.877C831.739 417.668 836.573 419.582 841.537 421.26L842.027 420.35Z" fill="#FEECD0"/>
<path d="M898.239 420.35C902.434 417.204 906.743 414.311 911 411.279C915.248 408.395 919.539 405.432 921.278 402.189C922.126 400.589 922.266 398.876 921.846 398.037C921.496 397.233 920.98 396.77 919.765 396.009C918.524 395.344 917.117 395.248 915.701 395.3C914.975 395.326 914.171 395.344 913.358 395.475C912.93 395.501 912.528 395.606 912.099 395.684C911.828 395.676 911.531 395.641 910.867 395.378L909.853 395.064C909.363 394.871 908.848 394.705 908.314 394.574C907.965 394.172 907.624 393.744 907.318 393.28C907.073 392.861 907.029 392.572 906.889 392.187C906.627 391.418 906.767 390.911 906.95 390.448C907.431 389.618 908.069 388.927 908.724 388.254C910.088 386.978 911.722 386.008 913.523 385.484C917.159 384.4 921.189 385.021 924.546 386.735C926.25 387.618 927.876 388.825 929.196 390.529C930.525 392.26 931.33 394.411 931.583 396.535C931.933 400.87 930.203 404.384 928.097 406.98C923.622 412.189 918.211 413.928 913.43 415.877C908.527 417.668 903.693 419.582 898.728 421.26L898.239 420.35Z" fill="#FEECD0"/>
<path d="M869.934 504.676C881.074 471.256 884.403 418.329 886.644 393.416C887.177 387.411 886.1 381.306 884.309 375.441C882.518 369.576 876.81 363.904 869.932 360.889C863.052 363.905 857.352 369.57 855.559 375.436C853.767 381.301 854.151 387.402 854.692 393.416C856.918 418.337 857.865 473.113 869.934 504.676Z" fill="#FEECD0"/>
<path d="M1313.11 326.988C1311.93 324.96 1311.07 323.588 1310.33 322.443C1309.61 321.202 1309.04 320.354 1308.49 319.629C1307.48 318.143 1306.15 317.723 1304.9 316.631C1302.47 314.655 1300.07 311.081 1298.15 307.698C1296.35 304.394 1294.94 299.727 1292.1 294.762C1289.31 289.71 1284.77 285.384 1280.03 282.648C1270.31 277.081 1259.55 275.964 1249.67 277.084C1244.7 277.609 1239.86 278.815 1235.23 280.512C1230.69 282.304 1226.07 284.682 1223.04 288.485C1227.18 286.107 1231.75 285.267 1236.28 284.795C1240.8 284.287 1245.36 284.348 1249.8 284.749C1254.24 285.099 1258.58 285.946 1262.57 287.274C1266.62 288.541 1270.36 290.359 1273.4 292.754C1276.51 295.166 1278.74 297.797 1280.29 301.118C1281.95 304.457 1283.02 308.967 1285.46 314.081C1286.79 316.738 1287.94 318.766 1289.59 321.117C1291.2 323.389 1293.09 325.662 1295.44 327.681C1297.76 329.639 1300.5 331.727 1303.89 331.884C1305.53 332.006 1307.26 331.753 1308.85 330.913C1310.44 330.197 1311.92 328.929 1313.11 326.988Z" fill="#FEECD0"/>
<path d="M1313.16 326.988C1314.33 324.96 1315.19 323.588 1315.94 322.443C1316.65 321.202 1317.22 320.354 1317.77 319.629C1318.78 318.143 1320.11 317.723 1321.36 316.631C1323.79 314.655 1326.2 311.081 1328.11 307.698C1329.91 304.394 1331.33 299.727 1334.16 294.762C1336.95 289.71 1341.49 285.384 1346.24 282.648C1355.95 277.081 1366.72 275.964 1376.59 277.084C1381.56 277.609 1386.4 278.815 1391.03 280.512C1395.57 282.304 1400.19 284.682 1403.22 288.485C1399.08 286.107 1394.51 285.267 1389.99 284.795C1385.46 284.287 1380.9 284.348 1376.46 284.749C1372.02 285.099 1367.68 285.946 1363.69 287.274C1359.65 288.541 1355.91 290.359 1352.86 292.754C1349.75 295.166 1347.52 297.797 1345.97 301.118C1344.31 304.457 1343.24 308.967 1340.8 314.081C1339.47 316.738 1338.32 318.766 1336.67 321.117C1335.06 323.389 1333.17 325.662 1330.82 327.681C1328.5 329.639 1325.76 331.727 1322.37 331.884C1320.73 332.006 1319 331.753 1317.41 330.913C1315.82 330.197 1314.35 328.929 1313.16 326.988Z" fill="#FEECD0"/>
<path d="M1312.98 309.83C1309.36 308.099 1307.85 303.93 1306.25 300.215C1304.75 296.334 1303.42 292.296 1301.79 288.276C1298.47 280.356 1293.64 272.149 1285.73 266.617C1277.89 261.119 1268.02 258.822 1258.97 259.426C1254.4 259.575 1249.96 260.257 1245.62 261.272C1243.49 261.884 1241.4 262.645 1239.36 263.484C1237.47 264.778 1234.97 264.201 1234.35 269.385C1237.78 273.397 1239.35 271.657 1241.52 271.788C1243.58 271.639 1245.61 271.455 1247.61 271.123C1251.58 270.633 1255.51 269.933 1259.39 269.845C1267.13 269.591 1274.72 270.176 1281.3 273.698C1287.91 277.141 1293.03 283.451 1297.11 290.592C1299.25 294.141 1301.19 297.899 1303.35 301.623C1305.57 305.163 1308 309.559 1312.65 310.817L1312.98 309.83Z" fill="#FEECD0"/>
<path d="M1313.28 309.83C1316.9 308.099 1318.41 303.93 1320.01 300.215C1321.52 296.334 1322.84 292.296 1324.47 288.276C1327.79 280.356 1332.62 272.149 1340.53 266.617C1348.37 261.119 1358.24 258.822 1367.29 259.426C1371.86 259.575 1376.3 260.257 1380.64 261.272C1382.77 261.884 1384.86 262.645 1386.91 263.484C1388.79 264.778 1391.29 264.201 1391.91 269.385C1388.48 273.397 1386.91 271.657 1384.74 271.788C1382.68 271.639 1380.65 271.455 1378.65 271.123C1374.69 270.633 1370.75 269.933 1366.87 269.845C1359.14 269.591 1351.54 270.176 1344.96 273.698C1338.35 277.141 1333.23 283.451 1329.15 290.592C1327.01 294.141 1325.07 297.899 1322.91 301.623C1320.7 305.163 1318.26 309.559 1313.61 310.817L1313.28 309.83Z" fill="#FEECD0"/>
<path d="M1313 291.17C1311.13 283.827 1309.15 276.354 1305.35 269.458C1301.69 262.535 1295.84 256.487 1288.8 252.598C1281.76 248.718 1273.77 246.638 1265.65 246.403C1257.52 246.194 1249.65 247.839 1242.21 249.579C1234.75 251.354 1227.6 253.173 1220.56 253.716C1213.6 254.276 1206.67 253.796 1201.29 250.956C1198.57 249.558 1196.16 247.556 1194.75 245.389C1193.24 243.151 1193.08 241.289 1193.66 239.095C1194.29 236.892 1196.18 234.375 1198.66 232.049C1200.96 229.365 1204.69 228.631 1205.66 222.59C1199.99 220.249 1197.14 223.317 1193.41 225.275C1189.95 227.583 1186.25 230.67 1184.23 235.643C1182.06 240.556 1183.19 247.033 1186.02 251.037C1188.78 255.241 1192.52 258.107 1196.48 260.205C1204.7 264.452 1213.69 264.591 1221.66 263.488C1229.72 262.316 1237.21 259.824 1244.37 257.629C1251.54 255.426 1258.58 253.484 1265.67 253.177C1272.71 252.888 1279.95 254.216 1286.41 257.24C1292.95 260.141 1298.56 264.93 1302.58 271.119C1306.66 277.246 1309.36 284.378 1312 291.476L1313 291.17Z" fill="#FEECD0"/>
<path d="M1313.27 291.17C1315.14 283.827 1317.12 276.354 1320.92 269.458C1324.57 262.535 1330.43 256.487 1337.46 252.598C1344.51 248.718 1352.5 246.638 1360.62 246.403C1368.75 246.194 1376.62 247.839 1384.05 249.579C1391.51 251.354 1398.66 253.173 1405.71 253.716C1412.67 254.276 1419.6 253.796 1424.97 250.956C1427.7 249.558 1430.1 247.556 1431.52 245.389C1433.02 243.151 1433.19 241.289 1432.6 239.095C1431.97 236.892 1430.08 234.375 1427.6 232.049C1425.3 229.365 1421.58 228.631 1420.61 222.59C1426.27 220.249 1429.13 223.317 1432.85 225.275C1436.32 227.583 1440.01 230.67 1442.03 235.643C1444.2 240.556 1443.07 247.033 1440.24 251.037C1437.49 255.241 1433.75 258.107 1429.78 260.205C1421.56 264.452 1412.58 264.591 1404.61 263.488C1396.55 262.316 1389.06 259.824 1381.9 257.629C1374.73 255.426 1367.68 253.484 1360.59 253.177C1353.56 252.888 1346.32 254.216 1339.85 257.24C1333.31 260.141 1327.7 264.93 1323.68 271.119C1319.6 277.246 1316.91 284.378 1314.27 291.476L1313.27 291.17Z" fill="#FEECD0"/>
<path d="M1312.71 269.264C1308.79 260.383 1302.17 252.718 1294.45 246.583C1286.59 240.561 1277.52 236.052 1267.87 233.256C1262.98 231.831 1258.21 231.028 1253.76 229.918C1249.34 228.87 1245.1 227.725 1242.04 225.855C1238.85 223.906 1237.47 221.721 1237.35 218.871C1237.3 217.464 1237.44 215.856 1238.09 214.317C1238.37 213.513 1238.8 212.752 1239.3 211.992C1239.69 211.074 1239.89 209.964 1239.76 207.21C1237.56 205.637 1235.74 205.83 1234.38 206.538C1233.1 207.351 1231.97 208.426 1230.94 209.615C1228.9 212.019 1227.6 215.158 1227.32 218.497C1227 221.845 1227.99 225.358 1229.77 228.295C1231.7 231.232 1234.07 233.207 1236.65 234.789C1241.82 237.857 1247.07 238.879 1251.96 239.604C1256.88 240.276 1261.6 240.59 1266 241.385C1274.89 242.94 1283.64 246.112 1291.51 250.884C1299.48 255.516 1306.54 261.896 1311.81 269.771L1312.71 269.264Z" fill="#FEECD0"/>
<path d="M1313.56 269.264C1317.47 260.383 1324.09 252.718 1331.82 246.583C1339.67 240.561 1348.75 236.052 1358.4 233.256C1363.28 231.831 1368.06 231.028 1372.51 229.918C1376.93 228.87 1381.17 227.725 1384.23 225.855C1387.42 223.906 1388.8 221.721 1388.92 218.871C1388.96 217.464 1388.82 215.856 1388.18 214.317C1387.9 213.513 1387.47 212.752 1386.97 211.992C1386.58 211.074 1386.38 209.964 1386.51 207.21C1388.71 205.637 1390.53 205.83 1391.88 206.538C1393.17 207.351 1394.29 208.426 1395.33 209.615C1397.36 212.019 1398.67 215.158 1398.95 218.497C1399.27 221.845 1398.27 225.358 1396.49 228.295C1394.57 231.232 1392.19 233.207 1389.61 234.789C1384.45 237.857 1379.19 238.879 1374.31 239.604C1369.39 240.276 1364.67 240.59 1360.27 241.385C1351.37 242.94 1342.62 246.112 1334.75 250.884C1326.78 255.516 1319.72 261.896 1314.45 269.771L1313.56 269.264Z" fill="#FEECD0"/>
<path d="M1285.03 243.349C1280.83 240.203 1276.52 237.31 1272.27 234.278C1268.02 231.394 1263.73 228.431 1261.99 225.188C1261.14 223.588 1261 221.875 1261.42 221.036C1261.77 220.232 1262.29 219.769 1263.5 219.008C1264.74 218.343 1266.15 218.247 1267.57 218.299C1268.29 218.325 1269.09 218.343 1269.91 218.474C1270.34 218.5 1270.74 218.605 1271.17 218.684C1271.44 218.675 1271.73 218.64 1272.4 218.377L1273.41 218.063C1273.9 217.87 1274.42 217.704 1274.95 217.573C1275.3 217.171 1275.64 216.743 1275.95 216.279C1276.19 215.86 1276.24 215.571 1276.38 215.186C1276.64 214.417 1276.5 213.91 1276.32 213.447C1275.83 212.617 1275.2 211.926 1274.54 211.253C1273.18 209.977 1271.54 209.007 1269.74 208.483C1266.11 207.399 1262.08 208.02 1258.72 209.734C1257.02 210.617 1255.39 211.824 1254.07 213.528C1252.74 215.259 1251.94 217.41 1251.68 219.534C1251.33 223.869 1253.06 227.383 1255.17 229.979C1259.64 235.188 1265.05 236.927 1269.84 238.876C1274.74 240.667 1279.57 242.581 1284.54 244.259L1285.03 243.349Z" fill="#FEECD0"/>
<path d="M1341.24 243.349C1345.43 240.203 1349.74 237.31 1354 234.278C1358.25 231.394 1362.54 228.431 1364.28 225.188C1365.13 223.588 1365.27 221.875 1364.85 221.036C1364.5 220.232 1363.98 219.769 1362.77 219.008C1361.52 218.343 1360.12 218.247 1358.7 218.299C1357.98 218.325 1357.17 218.343 1356.36 218.474C1355.93 218.5 1355.53 218.605 1355.1 218.684C1354.83 218.675 1354.53 218.64 1353.87 218.377L1352.85 218.063C1352.36 217.87 1351.85 217.704 1351.31 217.573C1350.96 217.171 1350.62 216.743 1350.32 216.279C1350.07 215.86 1350.03 215.571 1349.89 215.186C1349.63 214.417 1349.77 213.91 1349.95 213.447C1350.43 212.617 1351.07 211.926 1351.72 211.253C1353.09 209.977 1354.72 209.007 1356.52 208.483C1360.16 207.399 1364.19 208.02 1367.55 209.734C1369.25 210.617 1370.88 211.824 1372.2 213.528C1373.53 215.259 1374.33 217.41 1374.58 219.534C1374.93 223.869 1373.2 227.383 1371.1 229.979C1366.62 235.188 1361.21 236.927 1356.43 238.876C1351.53 240.667 1346.69 242.581 1341.73 244.259L1341.24 243.349Z" fill="#FEECD0"/>
<path d="M1312.93 327.676C1324.07 294.256 1327.4 241.329 1329.64 216.416C1330.18 210.411 1329.1 204.306 1327.31 198.441C1325.52 192.576 1319.81 186.904 1312.93 183.889C1306.05 186.905 1300.35 192.57 1298.56 198.436C1296.77 204.301 1297.15 210.402 1297.69 216.416C1299.92 241.337 1300.87 296.113 1312.93 327.676Z" fill="#FEECD0"/>
<path fill-rule="evenodd" clip-rule="evenodd" d="M146.647 451.432C150.821 452.476 162.049 453.436 173.569 448.926C163.051 450.931 149.778 445.168 146.647 441.41C141.679 430.791 140.376 420.987 139.154 411.792C136.989 395.496 135.078 381.113 113.464 367.499C109.29 364.367 96.3095 356.224 77.7772 348.708C59.2449 341.191 58.7852 313.84 60.872 301.104L1316.18 314.186L1383.18 314.884C1383.18 316.209 1383.19 317.633 1383.21 319.131C1383.35 333.919 1383.56 355.946 1371.28 361.861C1367.91 364.36 1364.29 366.65 1360.67 368.945C1346.12 378.155 1331.44 387.452 1331.84 410.718C1331.84 411.184 1331.84 411.649 1331.84 412.112C1331.86 425.942 1331.88 438.263 1314.31 456.518C1322.1 459.91 1333.78 461.298 1343.11 450.805C1346.86 447.676 1347.64 437.044 1348.5 425.39C1349.37 413.715 1350.3 401.015 1354.38 393.806C1362.26 379.846 1372.69 374.07 1381.9 368.97C1390.97 363.949 1398.85 359.584 1401.96 348.707C1405.3 319.059 1406.97 257.634 1386.93 249.115V238.467C1368.06 233.168 1364.07 210.703 1360.52 190.709C1357.36 172.894 1354.54 157.04 1341.85 157.04V152.029C1337.89 152.864 1329.71 150.15 1328.71 132.612C1325.14 128.475 1316.22 123.153 1306.79 131.286C1305.75 132.184 1304.71 133.245 1303.66 134.491V165.809H1274.24C1233.8 214.492 1193.17 190.179 1152.77 165.999C1119.36 146.002 1086.1 126.096 1053.23 147.644C1051.35 135.117 1021.3 142.633 1036.32 161.424C1013.59 184.473 971.208 164.62 928.481 144.609C885.283 124.377 841.738 103.983 817.816 127.601C793.607 115.073 731.165 97.5352 675.067 127.601C662.639 103.061 609.72 123.815 559.239 143.614C513.082 161.716 468.962 179.019 459.692 160.172C472.214 150.776 450.927 126.974 437.779 143.886C407.616 124.813 371.633 144.555 336.179 164.008C293.625 187.355 251.832 210.285 221.777 165.183H191.099V128.854C190.016 127.815 188.529 126.687 186.717 125.673C180.147 121.997 169.301 119.82 157.916 128.854C155.006 140.915 142.71 145.52 133.676 148.903C129.105 150.615 125.369 152.014 124.107 153.908C119.82 160.342 115.999 168.934 112.029 177.864C102.472 199.359 92.0469 222.808 72.1416 222.808C68.3851 222.808 64.2529 226.191 65.2546 234.709C31.4464 239.094 17.6719 332.422 68.3851 354.971C117.588 371.736 120.092 395.001 122.262 415.165C123.903 430.409 125.353 443.881 146.647 451.432Z" fill="#F9DBB3"/>
<path d="M223.656 403.828C337.604 275.423 543.588 457.695 598.058 403.828C603.693 447.047 864.147 456.442 889.19 403.828C939.278 465.838 1135.24 278.554 1266.72 408.212H1308.67V453.31C1310.12 454.388 1312.05 455.537 1314.31 456.518C1331.88 438.263 1331.86 425.942 1331.84 412.112C1331.84 411.649 1331.84 411.184 1331.84 410.718C1331.44 387.452 1346.12 378.155 1360.67 368.945C1364.29 366.65 1367.91 364.36 1371.28 361.861C1383.56 355.946 1383.35 333.919 1383.21 319.131C1383.19 317.633 1383.18 316.209 1383.18 314.884L1316.18 314.186L60.872 301.104C58.7852 313.84 59.2449 341.191 77.7772 348.708C96.3095 356.224 109.29 364.367 113.464 367.499C135.078 381.113 136.989 395.496 139.154 411.792C140.376 420.987 141.679 430.791 146.647 441.41C149.778 445.168 163.051 450.931 173.569 448.926L175.447 403.828H223.656Z" fill="#E9D1AC"/>
<path d="M1308.67 408.212H1266.72C1135.24 278.554 939.278 465.838 889.19 403.828C864.147 456.442 603.693 447.047 598.058 403.828C543.588 457.695 337.604 275.423 223.656 403.828H175.447M1308.67 408.212H1316.18V333.049M1308.67 408.212V453.31C1310.12 454.388 1312.05 455.537 1314.31 456.518M174.194 278.555L177.325 165.183H191.099M174.194 278.555H60.872M174.194 278.555L1314.31 292.731M60.872 278.555C58.3676 282.939 54.8615 293.588 60.872 301.104M60.872 278.555C60.872 242.977 78.403 236.588 87.1686 237.841V225.94C112.713 231.953 133.291 182.512 140.386 157.04C180.456 147.645 163.552 131.985 186.717 125.673M191.099 165.183H221.777C251.832 210.285 293.625 187.355 336.179 164.008C371.633 144.555 407.616 124.813 437.779 143.886C450.927 126.974 472.214 150.776 459.692 160.172C468.962 179.019 513.082 161.716 559.239 143.614C609.72 123.815 662.639 103.061 675.067 127.601C731.165 97.5352 793.607 115.073 817.816 127.601C841.738 103.983 885.283 124.377 928.481 144.609C971.208 164.62 1013.59 184.473 1036.32 161.424C1021.3 142.633 1051.35 135.117 1053.23 147.644C1086.1 126.096 1119.36 146.002 1152.77 165.999C1193.17 190.179 1233.8 214.492 1274.24 165.809H1303.66M191.099 165.183V128.854C190.016 127.815 188.529 126.687 186.717 125.673M173.569 448.926C162.049 453.436 150.821 452.476 146.647 451.432C125.353 443.881 123.903 430.409 122.262 415.165C120.092 395.001 117.588 371.736 68.3851 354.971C17.6719 332.422 31.4464 239.094 65.2546 234.709C64.2529 226.191 68.3851 222.808 72.1416 222.808C92.0469 222.808 102.472 199.359 112.029 177.864C115.999 168.934 119.82 160.342 124.107 153.908C125.369 152.014 129.105 150.615 133.676 148.903C142.71 145.52 155.006 140.915 157.916 128.854C169.301 119.82 180.147 121.997 186.717 125.673M173.569 448.926L175.447 403.828M173.569 448.926C163.051 450.931 149.778 445.168 146.647 441.41C141.679 430.791 140.376 420.987 139.154 411.792C136.989 395.496 135.078 381.113 113.464 367.499C109.29 364.367 96.3095 356.224 77.7772 348.708C59.2449 341.191 58.7852 313.84 60.872 301.104M175.447 403.828H166.055V319.895M60.872 301.104L1316.18 314.186L1383.18 314.884M1383.18 314.884C1384.22 310.917 1385.68 301.104 1383.18 293.588M1383.18 314.884C1383.18 316.209 1383.19 317.633 1383.21 319.131C1383.35 333.919 1383.56 355.946 1371.28 361.861C1367.91 364.36 1364.29 366.65 1360.67 368.945C1346.12 378.155 1331.44 387.452 1331.84 410.718C1331.84 411.184 1331.84 411.649 1331.84 412.112C1331.86 425.942 1331.88 438.263 1314.31 456.518M1383.18 293.588L1314.31 292.731M1383.18 293.588C1380.17 251.997 1370.66 249.533 1366.27 253.5V238.467C1347.24 236.463 1341.85 192.116 1335.59 170.82C1316.73 160.798 1323.07 140.128 1306.79 131.286M1314.31 292.731V165.809H1303.66M1306.79 131.286C1316.22 123.153 1325.14 128.475 1328.71 132.612C1329.71 150.15 1337.89 152.864 1341.85 152.029V157.04C1354.54 157.04 1357.36 172.894 1360.52 190.709C1364.07 210.703 1368.06 233.168 1386.93 238.467V249.115C1406.97 257.634 1405.3 319.059 1401.96 348.707C1398.85 359.584 1390.97 363.949 1381.9 368.97C1372.69 374.07 1362.26 379.846 1354.38 393.806C1350.3 401.015 1349.37 413.715 1348.5 425.39C1347.64 437.044 1346.86 447.676 1343.11 450.805C1333.78 461.298 1322.1 459.91 1314.31 456.518M1306.79 131.286C1305.75 132.184 1304.71 133.245 1303.66 134.491V165.809" stroke="#002137" stroke-width="2"/>
<path d="M749.823 200.489L668.976 213.227L635.615 279.471L662.381 449.345L831.969 422.624L805.203 252.75L749.823 200.489Z" fill="#EFBD85"/>
<path d="M741.81 192.075L663.435 215.02L639 285.205L687.517 450.928L851.921 402.798L803.404 237.075L741.81 192.075Z" fill="#FFCC92"/>
<circle cx="709.096" cy="220.096" r="9.34886" transform="rotate(-21.1924 709.096 220.096)" fill="#FFF6E7"/>
<path fill-rule="evenodd" clip-rule="evenodd" d="M378.527 240.002C376.446 243.485 362.061 282.508 374.717 282.508C396.416 282.508 450.916 282.508 495.678 282.508C498.483 278.109 502.339 248.482 493.105 238.179C490.599 235.59 487.605 230.232 495.678 229.512C505.769 228.612 534.746 206.462 535.039 193.887C537.736 193.023 543.844 189.607 546.694 182.857C557.425 164.813 615.872 164.739 607.873 99.6372C607.787 97.3139 608.049 92.0196 609.782 89.4288C611.949 86.1903 571.706 66.3737 552.917 93.7839C550.305 94.8114 546.188 95.2712 550.621 88.8911C555.055 82.511 555.819 79.9356 555.647 79.4454C499.201 94.6385 420.864 97.1171 308.797 86.3301C324.349 101.395 338.038 127.271 333.48 197.094C333.013 203.92 340.608 220.641 374.717 232.915C377.194 233.697 381.424 236.209 378.527 240.002ZM532.429 169.282C534.29 146.824 529.78 126.686 537.957 113.986C541.859 111.36 545.841 113.778 547.344 115.315C551.459 126.094 555.002 121.519 556.258 117.885C561.158 103.61 567.092 96.5161 569.446 94.7534C588.225 85.3847 596.245 95.8059 597.908 102.188C602.743 142.778 551.809 163.552 542.309 170.604C534.708 176.246 532.555 172.074 532.429 169.282Z" fill="#002137"/>
<path d="M554 68.8736C542.88 67.0787 411.742 50.4335 308.581 72.7778C320.065 97.4882 552.788 85.6264 554 68.8736Z" fill="#002137"/>
<path d="M555.647 79.4454C558.805 76.5198 562.896 70.3095 554 68.8736C552.788 85.6264 320.065 97.4882 308.581 72.7778C304.818 73.7414 302.288 80.0255 308.797 86.3301C420.864 97.1171 499.201 94.6385 555.647 79.4454Z" fill="#1C3753"/>
<path d="M599.284 113.81C630.2 125.724 697.06 162.041 717.178 212C718.049 215.108 717.579 221.704 708.73 223.225C708.228 222.658 707.171 221.278 706.958 220.296C710.08 220.246 715.852 218.528 713.975 212.051C711.628 203.955 685.19 153.357 599.347 117.753C593.027 115.78 589.684 122.488 592.266 129.841C591.305 131.434 590.262 132.995 589.86 133.576C585.397 116.395 594.209 112.557 599.284 113.81Z" fill="#1C3753"/>
<path d="M675.027 211.685L680.425 210.12C626.634 175.287 604.598 151.088 600.116 143.025L597.702 146.268C612.638 167.917 654.603 198.208 675.027 211.685Z" fill="#1C3753"/>
<path d="M1095.66 289.503C1119.92 286.992 1104.86 273.801 1095.66 276.312L942.547 276.312C925.813 276.312 933.346 289.677 942.547 288.003L1095.66 289.503Z" fill="#002137"/>
<path d="M1129.96 236.139C1148.36 241.997 1140 218.563 1179.32 209.357C1183.78 209.078 1194.72 206.176 1202.75 196.802C1237.05 201.824 1298.96 132.358 1238.72 87.1631C1234.82 85.2102 1227.18 84.3175 1227.85 96.3694C1205.5 96.3694 1205 133.003 1172.29 135.503C1168.93 143.117 1165.82 152.565 1163.42 164.162C1179.43 164.162 1163.42 149.934 1188.52 142.401C1215.3 142.401 1214.46 108.087 1237.05 112.271C1263.01 122.315 1230.36 175.879 1216.97 175.879C1179.43 175.879 1186.85 203.498 1151.71 198.421C1143.51 218.095 1135.18 230.918 1129.96 236.139Z" fill="#002137"/>
<path d="M942.547 276.312L1095.66 276.312C1080.6 254.551 1117.41 258.736 1129.96 236.139C1135.18 230.918 1143.51 218.095 1151.71 198.421C1155.78 188.658 1159.82 177.208 1163.42 164.162C1165.82 152.565 1168.93 143.117 1172.29 135.503C1180.18 117.62 1189.49 109.848 1194.38 108.087H848.004C897.367 150.771 858.88 218.563 942.547 260.41C946.452 262.084 951.919 267.608 942.547 276.312Z" fill="#002137"/>
<path d="M1095.66 276.312C1104.86 273.801 1119.92 286.992 1095.66 289.503L942.547 288.003C933.346 289.677 925.813 276.312 942.547 276.312M1095.66 276.312L942.547 276.312M1095.66 276.312C1080.6 254.551 1117.41 258.736 1129.96 236.139M942.547 276.312C951.919 267.608 946.452 262.084 942.547 260.41C858.88 218.563 897.367 150.771 848.004 108.087H1194.38C1189.49 109.848 1180.18 117.62 1172.29 135.503M1129.96 236.139C1148.36 241.997 1140 218.563 1179.32 209.357C1183.78 209.078 1194.72 206.176 1202.75 196.802C1237.05 201.824 1298.96 132.358 1238.72 87.1631C1234.82 85.2102 1227.18 84.3175 1227.85 96.3694C1205.5 96.3694 1205 133.003 1172.29 135.503M1129.96 236.139C1135.18 230.918 1143.51 218.095 1151.71 198.421M1163.42 164.162C1159.82 177.208 1155.78 188.658 1151.71 198.421M1163.42 164.162C1179.43 164.162 1163.42 149.934 1188.52 142.401C1215.3 142.401 1214.46 108.087 1237.05 112.271C1263.01 122.315 1230.36 175.879 1216.97 175.879C1179.43 175.879 1186.85 203.498 1151.71 198.421M1163.42 164.162C1165.82 152.565 1168.93 143.117 1172.29 135.503" stroke="#002137"/>
<path d="M1018.16 254.996C1018.16 214.985 990.226 222.987 1018.16 181.237C1044.95 211.854 1018.16 220.204 1018.16 254.996ZM1018.16 254.996C1048.73 213.594 1069.86 214.637 1067.22 189.935C1067.22 185.601 1066.79 181.299 1066.23 177.063M1018.16 254.996C1031.5 248.153 1061.86 227.789 1076.66 201.069M1018.16 254.996C1004.19 235.165 973.367 217.421 970.599 189.935C970.128 185.256 970.734 181.051 971.701 177.063M1018.16 254.996C1002.3 246.298 968.987 223.335 962.669 201.069M1018.16 254.996C1036.27 250.852 1050.23 257.431 1038.53 268.912M1018.16 254.996C998.146 249.453 986.824 258.127 998.146 268.912M1018.16 254.996C1030.45 253.928 1041.23 249.549 1050.24 243.862M1018.16 254.996C1009.4 253.713 995.256 249.557 982.295 241.648M1078.92 214.638C1089.49 211.274 1114.7 206.566 1131 214.638C1112.88 222.64 1101.94 254.996 1074.39 250.473M1078.92 214.638C1074.66 222.215 1064.73 234.726 1050.24 243.862M1078.92 214.638C1091.17 191.026 1088.54 176.754 1082.71 166.277M956.635 214.638C945.436 215.913 921.831 217.699 917 214.638C930.21 226.467 938.916 253.256 962.669 250.473M956.635 214.638C962.106 226.404 971.815 235.253 982.295 241.648M956.635 214.638C944.965 189.542 952.573 175.568 960.376 163.494M1036.27 264.39C1032.75 260.91 1024.21 257.362 1018.16 271C1015.89 265.665 1009.17 256.875 1000.41 264.39M1074.39 250.473C1067.44 244.071 1055.4 243.399 1050.24 243.862M1074.39 250.473C1080.56 254.786 1078.39 260.895 1074.85 264.39M1067.22 262.302C1066.27 268.792 1071.26 267.942 1074.85 264.39M1050.24 243.862C1053.25 257.431 1074.39 252.908 1074.85 264.39M1050.24 243.862C1071.37 243.862 1088.35 232.381 1107.22 224.727M962.669 250.473C965.967 247.674 971.716 243.438 976.3 241.648M962.669 250.473C958.344 256.379 959.797 261.408 962.615 264.39M970.599 262.302C972.769 268.71 966.437 268.433 962.615 264.39M982.295 241.648C981.097 240.407 978.884 240.639 976.3 241.648M982.295 241.648C988.711 257.431 967.575 250.473 962.615 264.39M976.3 241.648C969.24 243.894 951.119 244.141 935.116 227.163M1082.71 166.277C1076.68 155.45 1067.22 148.676 1067.22 139.835C1061.48 150.841 1064.47 163.618 1066.23 177.063M1082.71 166.277C1078.92 131.833 1117.79 138.165 1107.22 120.352M1107.22 120.352C1104.95 116.525 1097.41 122.092 1104.2 126.267M1107.22 120.352C1109.99 122.904 1114.7 129.885 1111.37 137.4M960.376 163.494C965.446 155.648 970.599 148.605 970.599 139.835C978.06 150.92 976.754 159.275 974.374 167.669M960.376 163.494C965.31 130.442 920.774 137.052 930.21 118.961M930.21 118.961C932.75 114.09 943.797 118.961 937.004 126.267M930.21 118.961C928.449 120.584 925.228 126.128 926.436 135.313M971.701 177.063C978.143 170.452 987.201 182.282 990.598 170.452C990.598 163.494 1003.81 160.015 999.656 153.057C993.995 161.755 978.898 156.536 974.374 167.669M971.701 177.063C972.483 173.835 973.5 170.75 974.374 167.669M1066.23 177.063C1065.22 173.874 1063.44 171.528 1061.18 169.639M1028.72 144.011C1026.36 137.4 1024.19 123.484 1012.11 133.921M1028.72 144.011C1035.06 161.841 1052.06 162.047 1061.18 169.639M1028.72 144.011C1018.16 173.584 1046.98 185.132 1061.18 169.639M1061.18 169.639C1051.63 170.49 1032.07 169.13 1030.23 156.884" stroke="#1C3753" stroke-width="3" stroke-linecap="round"/>
<path d="M482.32 156.153C489.028 156.153 491.062 144.092 484.928 150.33C471.513 163.973 467.165 161.284 466.669 158.233C459.961 164.057 454.371 156.985 458.47 153.659C454.247 151.856 445.651 145.256 445.055 133.276C444.459 121.296 434.372 121.075 429.404 122.461C427.615 111.148 437.105 115.529 442.074 119.134C440.223 117.054 442.819 109.983 447.291 112.063C450.868 113.726 448.781 123.016 447.291 127.453C455.936 124.125 456.98 134.108 449.899 137.852C452.284 143.176 459.588 143.952 462.942 143.675C449.229 128.701 462.942 104.991 481.575 114.558C463.389 124.874 476.233 132.722 484.928 135.356C477.475 125.706 483.065 122.79 486.046 124.957C498.865 134.274 509.275 129.671 512.877 126.205C506.318 117.553 514.864 117.886 519.957 119.134C516.976 117.137 517.97 113.588 518.839 112.063C524.429 107.071 530.764 119.966 533 104.991C531.509 112.312 536.472 118.336 532 120C532 120 531 138.407 531 144.092C531 151.745 527.534 154.351 525.92 158.233C523.833 161.893 519.088 165.304 516.976 166.552C501.474 168.549 500.828 160.452 502.443 156.153C507.287 150.33 512.877 152.41 512.132 161.977C523.311 158.233 527.038 134.524 512.877 140.347C504.828 146.004 502.443 141.179 507.287 134.524C501.027 136.853 499.213 141.595 499.089 143.675C498.791 154.309 493.002 153.097 490.145 151.162C488.655 157.152 484.307 156.985 482.32 156.153ZM482.32 156.153C478.593 178.199 455.117 166.968 458.47 179.031C455.99 179.863 450.803 180.195 449.899 174.871C447.664 179.585 446.471 189.596 459.588 191.925C462.942 192.896 472.035 191.676 481.575 179.031C478.221 186.657 474.196 200.91 484.928 196.917C483.189 196.224 480.233 193.256 482.32 186.934C486.916 186.241 493.872 181.527 484.928 168.216C484.059 166.136 482.32 160.812 482.32 156.153ZM432.746 246C423.803 240.177 417.542 221.708 435.728 222.707C436.846 231.026 447.28 238.014 448.77 222.707C451.503 223.677 456.969 224.537 456.969 220.211C458.211 222.429 462.037 226.034 467.403 222.707C466.533 227.698 466.285 235.684 472.247 227.698C478.21 219.712 474.732 216.052 472.247 215.22C467.403 215.22 467.701 203.739 461.44 206.069C458.956 200.107 449.292 190.263 430.511 198.582C427.529 195.67 420.449 194.172 415.977 211.476C414.735 200.523 417.766 179.365 439.827 182.359C443.925 182.916 446.906 174.041 443.925 171.545C456.969 171.545 459.352 148.667 437.59 153.659C439.577 151.44 440.198 146.421 426.783 144.092C425.541 141.042 421.342 137.603 414.486 148.251C418.957 138.962 423.278 122.29 404.797 129.949C402.939 130.72 397.095 139.516 404.797 139.516C408.157 137.852 409.802 129.532 411.883 137.852C411.759 142.566 410.467 153.575 406.294 159.897C406.542 156.986 405.325 148.834 398.468 139.516C398.841 129.533 395.785 111.48 380.581 119.134C380.581 116.777 379.389 111.563 374.619 109.567C375.612 113.31 375.364 119.882 366.42 116.222C364.309 111.231 356.582 100.998 342.571 100C344.186 103.605 348.384 111.647 352.26 114.974C348.162 119.134 334.005 105.407 334 121.629C336.486 118.441 341.906 114.226 343.695 122.877C344.469 126.621 350.15 131.197 352.26 129.949C346.424 129.533 336.763 131.446 344.813 142.427C345.931 149.083 351.222 159.566 363.445 148.251C355.992 155.151 365.308 163.641 370.153 152.41C370.028 156.153 371.569 163.474 378.724 162.809C387.667 161.977 399.58 176.121 398.468 182.359C391.266 175.01 375.072 164.139 367.917 179.447C365.778 184.022 354.501 186.102 354.501 174.455C355.495 177.228 358.526 181.36 362.7 175.703C367.917 168.632 353.745 166.968 352.26 173.208C350.775 179.447 353.011 198.165 365.308 200.66C367.172 202.463 372.016 204.986 376.488 200.66C379.593 197.887 387.593 195.752 394.747 209.395C394.002 218.546 377.233 207.731 374.624 219.794C374.128 222.428 374.848 226.782 381.705 223.122C380.835 227.004 380.438 234.103 385.804 231.441C388.04 234.214 393.406 237.93 396.983 230.609C400.561 223.288 418.349 237.819 426.795 246H432.746Z" stroke="#1C3753" stroke-width="3" stroke-linecap="round"/>
</g>
<defs>
<clipPath id="clip0_337_3339">
<rect width="1440" height="595" fill="white"/>
</clipPath>
</defs>
</svg>
