<svg width="1440" height="595" viewBox="0 0 1440 595" fill="none" xmlns="http://www.w3.org/2000/svg">
<g clip-path="url(#clip0_423_12156)">
<rect width="1440" height="595" fill="#FFF6E7"/>
<path d="M126.105 157.989C124.934 155.961 124.069 154.589 123.326 153.444C122.609 152.203 122.041 151.355 121.491 150.63C120.477 149.144 119.148 148.724 117.898 147.632C115.469 145.656 113.065 142.082 111.151 138.699C109.351 135.395 107.936 130.728 105.104 125.763C102.307 120.711 97.7712 116.385 93.0251 113.649C83.3143 108.082 72.5453 106.965 62.6677 108.085C57.7026 108.61 52.8599 109.816 48.2269 111.513C43.69 113.305 39.0745 115.683 36.0408 119.486C40.1844 117.108 44.7474 116.268 49.2754 115.796C53.8034 115.288 58.3575 115.349 62.7979 115.75C67.2384 116.1 71.5826 116.947 75.5684 118.275C79.6154 119.542 83.3564 121.36 86.3981 123.755C89.5096 126.167 91.7383 128.798 93.2939 132.119C94.9543 135.458 96.0203 139.968 98.4585 145.082C99.7869 147.739 100.94 149.767 102.592 152.118C104.2 154.39 106.088 156.663 108.439 158.682C110.764 160.64 113.5 162.728 116.891 162.885C118.535 163.007 120.257 162.754 121.848 161.914C123.439 161.197 124.916 159.93 126.105 157.989Z" fill="#FEECD0"/>
<path d="M126.157 157.989C127.328 155.961 128.193 154.589 128.936 153.444C129.652 152.203 130.22 151.355 130.771 150.63C131.785 149.144 133.113 148.724 134.363 147.632C136.793 145.656 139.196 142.082 141.11 138.699C142.911 135.395 144.326 130.728 147.158 125.763C149.954 120.711 154.49 116.385 159.237 113.649C168.947 108.082 179.716 106.965 189.594 108.085C194.559 108.61 199.402 109.816 204.035 111.513C208.572 113.305 213.187 115.683 216.221 119.486C212.077 117.108 207.514 116.268 202.986 115.796C198.458 115.288 193.904 115.349 189.464 115.75C185.023 116.1 180.679 116.947 176.693 118.275C172.646 119.542 168.905 121.36 165.864 123.755C162.752 126.167 160.523 128.798 158.968 132.119C157.307 135.458 156.241 139.968 153.803 145.082C152.475 147.739 151.321 149.767 149.67 152.118C148.061 154.39 146.174 156.663 143.822 158.682C141.498 160.64 138.762 162.728 135.37 162.885C133.727 163.007 132.005 162.754 130.414 161.914C128.823 161.197 127.346 159.93 126.157 157.989Z" fill="#FEECD0"/>
<path d="M125.978 140.83C122.359 139.1 120.847 134.931 119.248 131.216C117.745 127.335 116.417 123.297 114.792 119.276C111.471 111.357 106.638 103.149 98.7279 97.6172C90.8878 92.1199 81.0193 89.8223 71.9722 90.4265C67.4005 90.5756 62.9599 91.2578 58.6242 92.2723C56.4913 92.8844 54.4019 93.6452 52.3564 94.4846C50.4682 95.7785 47.9683 95.2018 47.347 100.385C50.7818 104.397 52.3468 102.657 54.5233 102.788C56.5775 102.639 58.6143 102.456 60.6073 102.123C64.5758 101.633 68.5094 100.934 72.3905 100.846C80.1264 100.591 87.7224 101.176 94.3041 104.698C100.912 108.141 106.033 114.452 110.115 121.593C112.247 125.142 114.187 128.9 116.355 132.623C118.566 136.163 121.004 140.56 125.654 141.818L125.978 140.83Z" fill="#FEECD0"/>
<path d="M126.284 140.83C129.903 139.1 131.414 134.931 133.014 131.216C134.517 127.335 135.845 123.297 137.47 119.276C140.791 111.357 145.624 103.149 153.534 97.6172C161.374 92.1199 171.242 89.8223 180.29 90.4265C184.861 90.5756 189.302 91.2578 193.638 92.2723C195.77 92.8844 197.86 93.6452 199.905 94.4846C201.794 95.7785 204.293 95.2018 204.915 100.385C201.48 104.397 199.915 102.657 197.738 102.788C195.684 102.639 193.647 102.456 191.654 102.123C187.686 101.633 183.752 100.934 179.871 100.846C172.135 100.591 164.539 101.176 157.958 104.698C151.35 108.141 146.228 114.452 142.147 121.593C140.015 125.142 138.075 128.9 135.907 132.623C133.696 136.163 131.258 140.56 126.608 141.818L126.284 140.83Z" fill="#FEECD0"/>
<path d="M126 122.17C124.131 114.828 122.147 107.354 118.346 100.458C114.693 93.5355 108.837 87.4873 101.801 83.5983C94.7557 79.7181 86.7666 77.6385 78.6461 77.4035C70.5169 77.1946 62.6497 78.8391 55.2108 80.5795C47.7544 82.3548 40.6039 84.1738 33.5585 84.7165C26.6004 85.2768 19.6687 84.7967 14.2933 81.9565C11.5662 80.5582 9.16261 78.5569 7.7468 76.3892C6.24358 74.1517 6.07783 72.2898 6.66374 70.0957C7.29336 67.8928 9.18151 65.3751 11.6643 63.0497C13.9635 60.3659 17.6874 59.6312 18.6584 53.591C12.9944 51.249 10.1358 54.3174 6.41183 56.2759C2.95007 58.584 -0.747905 61.67 -2.76769 66.6439C-4.93607 71.5567 -3.80917 78.0339 -0.977511 82.037C1.77546 86.2412 5.51631 89.1078 9.48454 91.2052C17.7007 95.4525 26.6866 95.5913 34.6587 94.489C42.7182 93.3167 50.2095 90.8245 57.3688 88.6297C64.5368 86.4261 71.5826 84.4847 78.6717 84.178C85.7083 83.8887 92.9457 85.2165 99.4138 88.2402C105.952 91.1415 111.563 95.9309 115.583 102.119C119.665 108.246 122.356 115.379 124.995 122.476L126 122.17Z" fill="#FEECD0"/>
<path d="M126.265 122.17C128.135 114.828 130.118 107.354 133.92 100.458C137.573 93.5355 143.429 87.4873 150.465 83.5983C157.51 79.7181 165.499 77.6385 173.62 77.4035C181.749 77.1946 189.616 78.8391 197.055 80.5795C204.511 82.3548 211.662 84.1738 218.707 84.7165C225.665 85.2768 232.597 84.7967 237.972 81.9565C240.699 80.5582 243.103 78.5569 244.519 76.3892C246.022 74.1517 246.188 72.2898 245.602 70.0957C244.972 67.8928 243.084 65.3751 240.601 63.0497C238.302 60.3659 234.578 59.6312 233.607 53.591C239.271 51.249 242.13 54.3174 245.854 56.2759C249.316 58.584 253.014 61.67 255.033 66.6439C257.202 71.5567 256.075 78.0339 253.243 82.037C250.49 86.2412 246.749 89.1078 242.781 91.2052C234.565 95.4525 225.579 95.5913 217.607 94.489C209.547 93.3167 202.056 90.8245 194.897 88.6297C187.729 86.4261 180.683 84.4847 173.594 84.178C166.557 83.8887 159.32 85.2165 152.852 88.2402C146.314 91.1415 140.703 95.9309 136.682 102.119C132.601 108.246 129.909 115.379 127.27 122.476L126.265 122.17Z" fill="#FEECD0"/>
<path d="M125.702 100.267C121.787 91.3868 115.171 83.7216 107.444 77.5862C99.5868 71.5645 90.5139 67.0551 80.864 64.2591C75.9778 62.8349 71.2054 62.0312 66.7563 60.9216C62.3334 59.8731 58.094 58.7285 55.0348 56.8583C51.8445 54.9094 50.4637 52.7244 50.3416 49.8748C50.2981 48.4674 50.4382 46.8591 51.0853 45.3206C51.3651 44.5164 51.7934 43.7557 52.2917 42.9952C52.6852 42.0773 52.8864 40.9672 52.7556 38.2137C50.553 36.6406 48.7348 36.8332 47.3798 37.5414C46.0948 38.3544 44.9671 39.4298 43.9355 40.6187C41.8985 43.0227 40.5957 46.161 40.3156 49.5001C39.9918 52.848 40.9879 56.3618 42.7708 59.2986C44.6935 62.2354 47.0708 64.2106 49.6492 65.7924C54.8149 68.86 60.0682 69.8821 64.9544 70.607C69.8756 71.2795 74.5958 71.5937 78.9925 72.3886C87.8908 73.9435 96.6404 77.1155 104.507 81.8873C112.478 86.5191 119.54 92.8993 124.81 100.775L125.702 100.267Z" fill="#FEECD0"/>
<path d="M126.56 100.267C130.475 91.3868 137.091 83.7216 144.817 77.5862C152.675 71.5645 161.748 67.0551 171.398 64.2591C176.284 62.8349 181.056 62.0312 185.505 60.9216C189.928 59.8731 194.168 58.7285 197.227 56.8583C200.417 54.9094 201.798 52.7244 201.92 49.8748C201.964 48.4674 201.823 46.8591 201.176 45.3206C200.897 44.5164 200.468 43.7557 199.97 42.9952C199.577 42.0773 199.375 40.9672 199.506 38.2137C201.709 36.6406 203.527 36.8332 204.882 37.5414C206.167 38.3544 207.295 39.4298 208.326 40.6187C210.363 43.0227 211.666 46.161 211.946 49.5001C212.27 52.848 211.274 56.3618 209.491 59.2986C207.568 62.2354 205.191 64.2106 202.613 65.7924C197.447 68.86 192.194 69.8821 187.307 70.607C182.386 71.2795 177.666 71.5937 173.269 72.3886C164.371 73.9435 155.621 77.1155 147.755 81.8873C139.783 86.5191 132.721 92.8993 127.451 100.775L126.56 100.267Z" fill="#FEECD0"/>
<path d="M98.0269 74.3522C93.8315 71.2059 89.5225 68.313 85.2659 65.2803C81.0181 62.3963 76.7265 59.4334 74.9874 56.1906C74.1397 54.5911 74 52.878 74.4197 52.0388C74.7694 51.2345 75.2852 50.7712 76.5003 50.0106C77.7416 49.3461 79.149 49.2497 80.565 49.302C81.2905 49.3281 82.0949 49.3456 82.9078 49.4767C83.3361 49.5028 83.738 49.6076 84.1663 49.6862C84.4373 49.6774 84.7345 49.6424 85.3989 49.3801L86.4128 49.0652C86.9024 48.8729 87.4181 48.7069 87.9513 48.5757C88.301 48.1736 88.6421 47.7452 88.9481 47.2819C89.1929 46.8623 89.2365 46.5738 89.3764 46.1891C89.6388 45.4199 89.4989 44.9129 89.3154 44.4497C88.8347 43.6193 88.1967 42.9288 87.5412 42.2558C86.1777 40.9798 84.5434 40.0098 82.7428 39.4855C79.1066 38.402 75.0768 39.0231 71.72 40.7367C70.0154 41.6198 68.3893 42.8263 67.0692 44.531C65.7404 46.2619 64.936 48.4123 64.6823 50.5364C64.3321 54.8721 66.0625 58.3858 68.1688 60.9817C72.6436 66.1909 78.0541 67.9298 82.8353 69.8785C87.7389 71.6698 92.5726 73.5835 97.5373 75.2612L98.0269 74.3522Z" fill="#FEECD0"/>
<path d="M154.235 74.3522C158.43 71.2059 162.739 68.313 166.996 65.2803C171.244 62.3963 175.535 59.4334 177.274 56.1906C178.122 54.5911 178.262 52.878 177.842 52.0388C177.492 51.2345 176.977 50.7712 175.761 50.0106C174.52 49.3461 173.113 49.2497 171.697 49.302C170.971 49.3281 170.167 49.3456 169.354 49.4767C168.926 49.5028 168.524 49.6076 168.095 49.6862C167.824 49.6774 167.527 49.6424 166.863 49.3801L165.849 49.0652C165.359 48.8729 164.844 48.7069 164.31 48.5757C163.961 48.1736 163.62 47.7452 163.314 47.2819C163.069 46.8623 163.025 46.5738 162.885 46.1891C162.623 45.4199 162.763 44.9129 162.946 44.4497C163.427 43.6193 164.065 42.9288 164.721 42.2558C166.084 40.9798 167.718 40.0098 169.519 39.4855C173.155 38.402 177.185 39.0231 180.542 40.7367C182.246 41.6198 183.872 42.8263 185.193 44.531C186.521 46.2619 187.326 48.4123 187.579 50.5364C187.93 54.8721 186.199 58.3858 184.093 60.9817C179.618 66.1909 174.208 67.9298 169.426 69.8785C164.523 71.6698 159.689 73.5835 154.724 75.2612L154.235 74.3522Z" fill="#FEECD0"/>
<path d="M125.93 158.676C137.07 125.256 140.399 72.3293 142.64 47.4167C143.174 41.4115 142.096 35.3065 140.305 29.4414C138.514 23.5763 132.807 17.9042 125.928 14.8893C119.048 17.9058 113.348 23.5705 111.555 29.436C109.763 35.3015 110.147 41.4029 110.688 47.4167C112.914 72.3375 113.861 127.113 125.93 158.676Z" fill="#FEECD0"/>
<path d="M126.109 501.989C124.938 499.961 124.073 498.589 123.33 497.444C122.613 496.203 122.045 495.355 121.495 494.629C120.481 493.143 119.152 492.724 117.902 491.631C115.473 489.656 113.069 486.081 111.155 482.699C109.355 479.395 107.939 474.727 105.108 469.763C102.311 464.711 97.7751 460.384 93.029 457.649C83.3183 452.082 72.5492 450.964 62.6716 452.084C57.7065 452.609 52.8638 453.816 48.2308 455.512C43.6939 457.305 39.0784 459.683 36.0447 463.486C40.1883 461.108 44.7513 460.268 49.2793 459.796C53.8073 459.288 58.3614 459.349 62.8018 459.75C67.2423 460.099 71.5865 460.947 75.5723 462.275C79.6193 463.542 83.3603 465.36 86.402 467.754C89.5135 470.167 91.7422 472.797 93.2978 476.119C94.9582 479.458 96.0242 483.968 98.4624 489.081C99.7908 491.739 100.944 493.766 102.596 496.118C104.204 498.39 106.092 500.663 108.443 502.682C110.768 504.639 113.504 506.728 116.895 506.885C118.539 507.007 120.261 506.754 121.852 505.914C123.443 505.197 124.92 503.93 126.109 501.989Z" fill="#FEECD0"/>
<path d="M126.16 501.989C127.332 499.961 128.197 498.589 128.94 497.444C129.656 496.203 130.224 495.355 130.775 494.629C131.789 493.143 133.117 492.724 134.367 491.631C136.797 489.656 139.2 486.081 141.114 482.699C142.915 479.395 144.33 474.727 147.162 469.763C149.958 464.711 154.494 460.384 159.241 457.649C168.951 452.082 179.72 450.964 189.598 452.084C194.563 452.609 199.406 453.816 204.039 455.512C208.576 457.305 213.191 459.683 216.225 463.486C212.081 461.108 207.518 460.268 202.99 459.796C198.462 459.288 193.908 459.349 189.468 459.75C185.027 460.099 180.683 460.947 176.697 462.275C172.65 463.542 168.909 465.36 165.868 467.754C162.756 470.167 160.527 472.797 158.972 476.119C157.311 479.458 156.245 483.968 153.807 489.081C152.479 491.739 151.325 493.766 149.673 496.118C148.065 498.39 146.178 500.663 143.826 502.682C141.501 504.639 138.766 506.728 135.374 506.885C133.731 507.007 132.009 506.754 130.418 505.914C128.827 505.197 127.35 503.93 126.16 501.989Z" fill="#FEECD0"/>
<path d="M125.982 484.83C122.363 483.1 120.851 478.93 119.252 475.216C117.749 471.335 116.421 467.296 114.796 463.276C111.475 455.357 106.642 447.149 98.7319 441.617C90.8917 436.12 81.0232 433.822 71.9761 434.426C67.4044 434.575 62.9638 435.258 58.6281 436.272C56.4952 436.884 54.4058 437.645 52.3603 438.484C50.4721 439.778 47.9722 439.202 47.3509 444.385C50.7857 448.397 52.3507 446.657 54.5272 446.788C56.5814 446.639 58.6182 446.455 60.6112 446.123C64.5797 445.633 68.5133 444.933 72.3944 444.846C80.1303 444.591 87.7263 445.176 94.308 448.698C100.916 452.141 106.037 458.452 110.119 465.593C112.251 469.141 114.191 472.9 116.358 476.623C118.57 480.163 121.008 484.56 125.658 485.818L125.982 484.83Z" fill="#FEECD0"/>
<path d="M126.288 484.83C129.906 483.1 131.418 478.93 133.018 475.216C134.521 471.335 135.849 467.296 137.474 463.276C140.795 455.357 145.628 447.149 153.538 441.617C161.378 436.12 171.246 433.822 180.293 434.426C184.865 434.575 189.306 435.258 193.641 436.272C195.774 436.884 197.864 437.645 199.909 438.484C201.797 439.778 204.297 439.202 204.919 444.385C201.484 448.397 199.919 446.657 197.742 446.788C195.688 446.639 193.651 446.455 191.658 446.123C187.69 445.633 183.756 444.933 179.875 444.846C172.139 444.591 164.543 445.176 157.962 448.698C151.354 452.141 146.232 458.452 142.151 465.593C140.018 469.141 138.078 472.9 135.911 476.623C133.7 480.163 131.262 484.56 126.611 485.818L126.288 484.83Z" fill="#FEECD0"/>
<path d="M126 466.17C124.131 458.827 122.147 451.354 118.346 444.458C114.693 437.535 108.837 431.487 101.801 427.598C94.7557 423.718 86.7666 421.638 78.6461 421.403C70.5169 421.194 62.6497 422.839 55.2108 424.579C47.7544 426.355 40.6039 428.174 33.5585 428.716C26.6004 429.277 19.6687 428.796 14.2933 425.956C11.5662 424.558 9.16261 422.557 7.7468 420.389C6.24358 418.151 6.07783 416.29 6.66374 414.095C7.29336 411.893 9.18151 409.375 11.6643 407.049C13.9635 404.366 17.6874 403.631 18.6584 397.591C12.9944 395.249 10.1358 398.317 6.41183 400.276C2.95007 402.584 -0.747905 405.67 -2.76769 410.644C-4.93607 415.556 -3.80917 422.034 -0.977511 426.037C1.77546 430.241 5.51631 433.108 9.48454 435.205C17.7007 439.452 26.6866 439.591 34.6587 438.489C42.7182 437.316 50.2095 434.824 57.3688 432.629C64.5368 430.426 71.5826 428.484 78.6717 428.178C85.7083 427.888 92.9457 429.216 99.4138 432.24C105.952 435.141 111.563 439.931 115.583 446.119C119.665 452.246 122.356 459.378 124.995 466.476L126 466.17Z" fill="#FEECD0"/>
<path d="M126.265 466.17C128.135 458.827 130.118 451.354 133.92 444.458C137.573 437.535 143.429 431.487 150.465 427.598C157.51 423.718 165.499 421.638 173.62 421.403C181.749 421.194 189.616 422.839 197.055 424.579C204.511 426.355 211.662 428.174 218.707 428.716C225.665 429.277 232.597 428.796 237.972 425.956C240.699 424.558 243.103 422.557 244.519 420.389C246.022 418.151 246.188 416.29 245.602 414.095C244.972 411.893 243.084 409.375 240.601 407.049C238.302 404.366 234.578 403.631 233.607 397.591C239.271 395.249 242.13 398.317 245.854 400.276C249.316 402.584 253.014 405.67 255.033 410.644C257.202 415.556 256.075 422.034 253.243 426.037C250.49 430.241 246.749 433.108 242.781 435.205C234.565 439.452 225.579 439.591 217.607 438.489C209.547 437.316 202.056 434.824 194.897 432.629C187.729 430.426 180.683 428.484 173.594 428.178C166.557 427.888 159.32 429.216 152.852 432.24C146.314 435.141 140.703 439.931 136.682 446.119C132.601 452.246 129.909 459.378 127.27 466.476L126.265 466.17Z" fill="#FEECD0"/>
<path d="M125.706 444.267C121.791 435.386 115.175 427.721 107.448 421.586C99.5907 415.564 90.5178 411.055 80.8679 408.259C75.9818 406.834 71.2093 406.031 66.7602 404.921C62.3373 403.873 58.0979 402.728 55.0387 400.858C51.8484 398.909 50.4676 396.724 50.3456 393.874C50.302 392.467 50.4421 390.859 51.0892 389.32C51.369 388.516 51.7973 387.755 52.2956 386.995C52.6891 386.077 52.8903 384.967 52.7595 382.213C50.5569 380.64 48.7387 380.833 47.3837 381.541C46.0987 382.354 44.971 383.429 43.9394 384.618C41.9024 387.022 40.5996 390.16 40.3195 393.5C39.9957 396.848 40.9918 400.361 42.7747 403.298C44.6974 406.235 47.0747 408.21 49.6531 409.792C54.8188 412.859 60.0721 413.882 64.9583 414.607C69.8795 415.279 74.5997 415.593 78.9964 416.388C87.8947 417.943 96.6443 421.115 104.511 425.887C112.482 430.519 119.544 436.899 124.814 444.774L125.706 444.267Z" fill="#FEECD0"/>
<path d="M126.56 444.267C130.475 435.386 137.091 427.721 144.817 421.586C152.675 415.564 161.748 411.055 171.398 408.259C176.284 406.834 181.056 406.031 185.505 404.921C189.928 403.873 194.168 402.728 197.227 400.858C200.417 398.909 201.798 396.724 201.92 393.874C201.964 392.467 201.823 390.859 201.176 389.32C200.897 388.516 200.468 387.755 199.97 386.995C199.577 386.077 199.375 384.967 199.506 382.213C201.709 380.64 203.527 380.833 204.882 381.541C206.167 382.354 207.295 383.429 208.326 384.618C210.363 387.022 211.666 390.16 211.946 393.5C212.27 396.848 211.274 400.361 209.491 403.298C207.568 406.235 205.191 408.21 202.613 409.792C197.447 412.859 192.194 413.882 187.307 414.607C182.386 415.279 177.666 415.593 173.269 416.388C164.371 417.943 155.621 421.115 147.755 425.887C139.783 430.519 132.721 436.899 127.451 444.774L126.56 444.267Z" fill="#FEECD0"/>
<path d="M98.0269 418.352C93.8315 415.205 89.5225 412.313 85.2659 409.28C81.0181 406.396 76.7265 403.433 74.9874 400.19C74.1397 398.591 74 396.877 74.4197 396.038C74.7694 395.234 75.2852 394.771 76.5003 394.01C77.7416 393.346 79.149 393.249 80.565 393.301C81.2905 393.328 82.0949 393.345 82.9078 393.476C83.3361 393.502 83.738 393.607 84.1663 393.686C84.4373 393.677 84.7345 393.642 85.3989 393.38L86.4128 393.065C86.9024 392.872 87.4181 392.706 87.9513 392.575C88.301 392.173 88.6421 391.745 88.9481 391.281C89.1929 390.862 89.2365 390.573 89.3764 390.189C89.6388 389.419 89.4989 388.912 89.3154 388.449C88.8347 387.619 88.1967 386.928 87.5412 386.255C86.1777 384.979 84.5434 384.009 82.7428 383.485C79.1066 382.402 75.0768 383.023 71.72 384.736C70.0154 385.619 68.3893 386.826 67.0692 388.531C65.7404 390.261 64.936 392.412 64.6823 394.536C64.3321 398.872 66.0625 402.385 68.1688 404.981C72.6436 410.19 78.0541 411.929 82.8353 413.878C87.7389 415.669 92.5726 417.583 97.5373 419.261L98.0269 418.352Z" fill="#FEECD0"/>
<path d="M154.239 418.352C158.434 415.205 162.743 412.313 167 409.28C171.248 406.396 175.539 403.433 177.278 400.19C178.126 398.591 178.266 396.877 177.846 396.038C177.496 395.234 176.98 394.771 175.765 394.01C174.524 393.346 173.117 393.249 171.701 393.301C170.975 393.328 170.171 393.345 169.358 393.476C168.93 393.502 168.528 393.607 168.099 393.686C167.828 393.677 167.531 393.642 166.867 393.38L165.853 393.065C165.363 392.872 164.848 392.706 164.314 392.575C163.965 392.173 163.624 391.745 163.318 391.281C163.073 390.862 163.029 390.573 162.889 390.189C162.627 389.419 162.767 388.912 162.95 388.449C163.431 387.619 164.069 386.928 164.724 386.255C166.088 384.979 167.722 384.009 169.523 383.485C173.159 382.402 177.189 383.023 180.546 384.736C182.25 385.619 183.876 386.826 185.196 388.531C186.525 390.261 187.33 392.412 187.583 394.536C187.933 398.872 186.203 402.385 184.097 404.981C179.622 410.19 174.211 411.929 169.43 413.878C164.527 415.669 159.693 417.583 154.728 419.261L154.239 418.352Z" fill="#FEECD0"/>
<path d="M125.934 502.676C137.074 469.256 140.403 416.329 142.644 391.416C143.177 385.411 142.1 379.306 140.309 373.441C138.518 367.576 132.81 361.904 125.932 358.889C119.052 361.906 113.352 367.57 111.559 373.436C109.767 379.301 110.151 385.403 110.692 391.416C112.918 416.337 113.865 471.113 125.934 502.676Z" fill="#FEECD0"/>
<path d="M461.105 329.989C459.934 327.961 459.069 326.589 458.326 325.444C457.609 324.203 457.041 323.355 456.491 322.629C455.477 321.143 454.148 320.724 452.898 319.631C450.469 317.656 448.065 314.081 446.151 310.699C444.351 307.395 442.936 302.727 440.104 297.763C437.307 292.711 432.771 288.384 428.025 285.649C418.314 280.082 407.545 278.964 397.668 280.084C392.703 280.609 387.86 281.816 383.227 283.512C378.69 285.305 374.074 287.683 371.041 291.486C375.184 289.108 379.747 288.268 384.275 287.796C388.803 287.288 393.357 287.349 397.798 287.75C402.238 288.099 406.583 288.947 410.568 290.275C414.615 291.542 418.356 293.36 421.398 295.754C424.51 298.167 426.738 300.797 428.294 304.119C429.954 307.458 431.02 311.968 433.459 317.081C434.787 319.739 435.94 321.766 437.592 324.118C439.2 326.39 441.088 328.663 443.439 330.682C445.764 332.639 448.5 334.728 451.891 334.885C453.535 335.007 455.257 334.754 456.848 333.914C458.439 333.197 459.916 331.93 461.105 329.989Z" fill="#FEECD0"/>
<path d="M461.16 329.989C462.332 327.961 463.197 326.589 463.94 325.444C464.656 324.203 465.224 323.355 465.775 322.629C466.789 321.143 468.117 320.724 469.367 319.631C471.797 317.656 474.2 314.081 476.114 310.699C477.915 307.395 479.33 302.727 482.162 297.763C484.958 292.711 489.494 288.384 494.241 285.649C503.951 280.082 514.72 278.964 524.598 280.084C529.563 280.609 534.406 281.816 539.039 283.512C543.576 285.305 548.191 287.683 551.225 291.486C547.081 289.108 542.518 288.268 537.99 287.796C533.462 287.288 528.908 287.349 524.468 287.75C520.027 288.099 515.683 288.947 511.697 290.275C507.65 291.542 503.909 293.36 500.868 295.754C497.756 298.167 495.527 300.797 493.972 304.119C492.311 307.458 491.245 311.968 488.807 317.081C487.479 319.739 486.325 321.766 484.673 324.118C483.065 326.39 481.178 328.663 478.826 330.682C476.501 332.639 473.766 334.728 470.374 334.885C468.731 335.007 467.009 334.754 465.418 333.914C463.827 333.197 462.35 331.93 461.16 329.989Z" fill="#FEECD0"/>
<path d="M460.978 312.83C457.359 311.1 455.847 306.93 454.248 303.216C452.745 299.335 451.417 295.296 449.792 291.276C446.471 283.357 441.638 275.149 433.728 269.617C425.888 264.12 416.019 261.822 406.972 262.426C402.401 262.575 397.96 263.258 393.624 264.272C391.491 264.884 389.402 265.645 387.356 266.484C385.468 267.778 382.968 267.202 382.347 272.385C385.782 276.397 387.347 274.657 389.523 274.788C391.578 274.639 393.614 274.455 395.607 274.123C399.576 273.633 403.509 272.933 407.39 272.846C415.126 272.591 422.722 273.176 429.304 276.698C435.912 280.141 441.033 286.452 445.115 293.593C447.247 297.141 449.187 300.9 451.355 304.623C453.566 308.163 456.004 312.56 460.654 313.818L460.978 312.83Z" fill="#FEECD0"/>
<path d="M461.288 312.83C464.906 311.1 466.418 306.93 468.018 303.216C469.521 299.335 470.849 295.296 472.474 291.276C475.795 283.357 480.628 275.149 488.538 269.617C496.378 264.12 506.246 261.822 515.293 262.426C519.865 262.575 524.306 263.258 528.641 264.272C530.774 264.884 532.864 265.645 534.909 266.484C536.797 267.778 539.297 267.202 539.919 272.385C536.484 276.397 534.919 274.657 532.742 274.788C530.688 274.639 528.651 274.455 526.658 274.123C522.69 273.633 518.756 272.933 514.875 272.846C507.139 272.591 499.543 273.176 492.962 276.698C486.354 280.141 481.232 286.452 477.151 293.593C475.018 297.141 473.078 300.9 470.911 304.623C468.7 308.163 466.262 312.56 461.611 313.818L461.288 312.83Z" fill="#FEECD0"/>
<path d="M461 294.17C459.131 286.827 457.147 279.354 453.346 272.458C449.693 265.535 443.837 259.487 436.801 255.598C429.756 251.718 421.767 249.638 413.646 249.403C405.517 249.194 397.65 250.839 390.211 252.579C382.754 254.355 375.604 256.174 368.558 256.716C361.6 257.277 354.669 256.796 349.293 253.956C346.566 252.558 344.163 250.557 342.747 248.389C341.244 246.151 341.078 244.29 341.664 242.095C342.293 239.893 344.182 237.375 346.664 235.049C348.963 232.366 352.687 231.631 353.658 225.591C347.994 223.249 345.136 226.317 341.412 228.276C337.95 230.584 334.252 233.67 332.232 238.644C330.064 243.556 331.191 250.034 334.022 254.037C336.775 258.241 340.516 261.108 344.485 263.205C352.701 267.452 361.687 267.591 369.659 266.489C377.718 265.316 385.21 262.824 392.369 260.629C399.537 258.426 406.583 256.484 413.672 256.178C420.708 255.888 427.946 257.216 434.414 260.24C440.952 263.141 446.563 267.931 450.583 274.119C454.665 280.246 457.356 287.378 459.995 294.476L461 294.17Z" fill="#FEECD0"/>
<path d="M461.265 294.17C463.135 286.827 465.118 279.354 468.92 272.458C472.573 265.535 478.429 259.487 485.465 255.598C492.51 251.718 500.499 249.638 508.62 249.403C516.749 249.194 524.616 250.839 532.055 252.579C539.511 254.355 546.662 256.174 553.707 256.716C560.665 257.277 567.597 256.796 572.972 253.956C575.699 252.558 578.103 250.557 579.519 248.389C581.022 246.151 581.188 244.29 580.602 242.095C579.972 239.893 578.084 237.375 575.601 235.049C573.302 232.366 569.578 231.631 568.607 225.591C574.271 223.249 577.13 226.317 580.854 228.276C584.316 230.584 588.014 233.67 590.033 238.644C592.202 243.556 591.075 250.034 588.243 254.037C585.49 258.241 581.749 261.108 577.781 263.205C569.565 267.452 560.579 267.591 552.607 266.489C544.547 265.316 537.056 262.824 529.897 260.629C522.729 258.426 515.683 256.484 508.594 256.178C501.557 255.888 494.32 257.216 487.852 260.24C481.314 263.141 475.703 267.931 471.682 274.119C467.601 280.246 464.909 287.378 462.27 294.476L461.265 294.17Z" fill="#FEECD0"/>
<path d="M460.706 272.267C456.791 263.386 450.175 255.721 442.448 249.586C434.591 243.564 425.518 239.055 415.868 236.259C410.982 234.834 406.209 234.031 401.76 232.921C397.337 231.873 393.098 230.728 390.039 228.858C386.848 226.909 385.468 224.724 385.346 221.874C385.302 220.467 385.442 218.859 386.089 217.32C386.369 216.516 386.797 215.755 387.296 214.995C387.689 214.077 387.89 212.967 387.759 210.213C385.557 208.64 383.739 208.833 382.384 209.541C381.099 210.354 379.971 211.429 378.939 212.618C376.902 215.022 375.6 218.16 375.32 221.5C374.996 224.848 375.992 228.361 377.775 231.298C379.697 234.235 382.075 236.21 384.653 237.792C389.819 240.859 395.072 241.882 399.958 242.607C404.879 243.279 409.6 243.593 413.996 244.388C422.895 245.943 431.644 249.115 439.511 253.887C447.482 258.519 454.544 264.899 459.814 272.774L460.706 272.267Z" fill="#FEECD0"/>
<path d="M461.56 272.267C465.475 263.386 472.091 255.721 479.817 249.586C487.675 243.564 496.748 239.055 506.398 236.259C511.284 234.834 516.056 234.031 520.505 232.921C524.928 231.873 529.168 230.728 532.227 228.858C535.417 226.909 536.798 224.724 536.92 221.874C536.964 220.467 536.823 218.859 536.176 217.32C535.897 216.516 535.468 215.755 534.97 214.995C534.577 214.077 534.375 212.967 534.506 210.213C536.709 208.64 538.527 208.833 539.882 209.541C541.167 210.354 542.295 211.429 543.326 212.618C545.363 215.022 546.666 218.16 546.946 221.5C547.27 224.848 546.274 228.361 544.491 231.298C542.568 234.235 540.191 236.21 537.613 237.792C532.447 240.859 527.194 241.882 522.307 242.607C517.386 243.279 512.666 243.593 508.269 244.388C499.371 245.943 490.621 249.115 482.755 253.887C474.783 258.519 467.721 264.899 462.451 272.774L461.56 272.267Z" fill="#FEECD0"/>
<path d="M433.027 246.351C428.832 243.205 424.522 240.312 420.266 237.28C416.018 234.396 411.726 231.433 409.987 228.19C409.14 226.59 409 224.877 409.42 224.038C409.769 223.234 410.285 222.771 411.5 222.01C412.742 221.345 414.149 221.249 415.565 221.301C416.291 221.327 417.095 221.345 417.908 221.476C418.336 221.502 418.738 221.607 419.166 221.685C419.437 221.677 419.735 221.642 420.399 221.379L421.413 221.065C421.902 220.872 422.418 220.706 422.951 220.575C423.301 220.173 423.642 219.745 423.948 219.281C424.193 218.862 424.237 218.573 424.376 218.188C424.639 217.419 424.499 216.912 424.315 216.449C423.835 215.619 423.197 214.928 422.541 214.255C421.178 212.979 419.543 212.009 417.743 211.485C414.107 210.401 410.077 211.022 406.72 212.736C405.015 213.619 403.389 214.826 402.069 216.53C400.74 218.261 399.936 220.412 399.682 222.536C399.332 226.871 401.062 230.385 403.169 232.981C407.644 238.19 413.054 239.929 417.835 241.878C422.739 243.669 427.573 245.583 432.537 247.261L433.027 246.351Z" fill="#FEECD0"/>
<path d="M489.239 246.351C493.434 243.205 497.743 240.312 502 237.28C506.248 234.396 510.539 231.433 512.278 228.19C513.126 226.59 513.266 224.877 512.846 224.038C512.496 223.234 511.98 222.771 510.765 222.01C509.524 221.345 508.117 221.249 506.701 221.301C505.975 221.327 505.171 221.345 504.358 221.476C503.93 221.502 503.528 221.607 503.099 221.685C502.828 221.677 502.531 221.642 501.867 221.379L500.853 221.065C500.363 220.872 499.848 220.706 499.314 220.575C498.965 220.173 498.624 219.745 498.318 219.281C498.073 218.862 498.029 218.573 497.889 218.188C497.627 217.419 497.767 216.912 497.95 216.449C498.431 215.619 499.069 214.928 499.724 214.255C501.088 212.979 502.722 212.009 504.523 211.485C508.159 210.401 512.189 211.022 515.546 212.736C517.25 213.619 518.876 214.826 520.196 216.53C521.525 218.261 522.33 220.412 522.583 222.536C522.933 226.871 521.203 230.385 519.097 232.981C514.622 238.19 509.211 239.929 504.43 241.878C499.527 243.669 494.693 245.583 489.728 247.261L489.239 246.351Z" fill="#FEECD0"/>
<path d="M460.934 330.676C472.074 297.256 475.403 244.329 477.644 219.416C478.177 213.411 477.1 207.306 475.309 201.441C473.518 195.576 467.81 189.904 460.932 186.889C454.052 189.906 448.352 195.57 446.559 201.436C444.767 207.301 445.151 213.403 445.692 219.416C447.918 244.337 448.865 299.113 460.934 330.676Z" fill="#FEECD0"/>
<path d="M870.105 161.989C868.934 159.961 868.069 158.589 867.326 157.444C866.609 156.203 866.041 155.355 865.491 154.629C864.477 153.143 863.148 152.724 861.898 151.631C859.469 149.656 857.065 146.081 855.151 142.699C853.351 139.395 851.936 134.727 849.104 129.763C846.307 124.711 841.771 120.384 837.025 117.649C827.314 112.082 816.545 110.964 806.668 112.084C801.703 112.609 796.86 113.816 792.227 115.512C787.69 117.305 783.074 119.683 780.041 123.486C784.184 121.108 788.747 120.268 793.275 119.796C797.803 119.288 802.357 119.349 806.798 119.75C811.238 120.099 815.583 120.947 819.568 122.275C823.615 123.542 827.356 125.36 830.398 127.754C833.51 130.167 835.738 132.797 837.294 136.119C838.954 139.458 840.02 143.968 842.459 149.081C843.787 151.739 844.94 153.766 846.592 156.118C848.2 158.39 850.088 160.663 852.439 162.682C854.764 164.639 857.5 166.728 860.891 166.885C862.535 167.007 864.257 166.754 865.848 165.914C867.439 165.197 868.916 163.93 870.105 161.989Z" fill="#FEECD0"/>
<path d="M870.157 161.989C871.328 159.961 872.193 158.589 872.936 157.444C873.652 156.203 874.22 155.355 874.771 154.629C875.785 153.143 877.113 152.724 878.363 151.631C880.793 149.656 883.196 146.081 885.11 142.699C886.911 139.395 888.326 134.727 891.158 129.763C893.954 124.711 898.49 120.384 903.237 117.649C912.947 112.082 923.716 110.964 933.594 112.084C938.559 112.609 943.402 113.816 948.035 115.512C952.572 117.305 957.187 119.683 960.221 123.486C956.077 121.108 951.514 120.268 946.986 119.796C942.458 119.288 937.904 119.349 933.464 119.75C929.023 120.099 924.679 120.947 920.693 122.275C916.646 123.542 912.905 125.36 909.864 127.754C906.752 130.167 904.523 132.797 902.968 136.119C901.307 139.458 900.241 143.968 897.803 149.081C896.475 151.739 895.321 153.766 893.67 156.118C892.061 158.39 890.174 160.663 887.822 162.682C885.498 164.639 882.762 166.728 879.37 166.885C877.727 167.007 876.005 166.754 874.414 165.914C872.823 165.197 871.346 163.93 870.157 161.989Z" fill="#FEECD0"/>
<path d="M869.978 144.83C866.359 143.1 864.847 138.93 863.248 135.216C861.745 131.335 860.417 127.296 858.792 123.276C855.471 115.357 850.638 107.149 842.728 101.617C834.888 96.1197 825.019 93.822 815.972 94.4262C811.401 94.5754 806.96 95.2576 802.624 96.272C800.491 96.8842 798.402 97.6449 796.356 98.4843C794.468 99.7782 791.968 99.2016 791.347 104.385C794.782 108.397 796.347 106.657 798.523 106.788C800.578 106.639 802.614 106.455 804.607 106.123C808.576 105.633 812.509 104.933 816.39 104.846C824.126 104.591 831.722 105.176 838.304 108.698C844.912 112.141 850.033 118.452 854.115 125.593C856.247 129.141 858.187 132.9 860.355 136.623C862.566 140.163 865.004 144.56 869.654 145.818L869.978 144.83Z" fill="#FEECD0"/>
<path d="M870.284 144.83C873.903 143.1 875.414 138.93 877.014 135.216C878.517 131.335 879.845 127.296 881.47 123.276C884.791 115.357 889.624 107.149 897.534 101.617C905.374 96.1197 915.242 93.822 924.29 94.4262C928.861 94.5754 933.302 95.2576 937.638 96.272C939.77 96.8842 941.86 97.6449 943.905 98.4843C945.794 99.7782 948.293 99.2016 948.915 104.385C945.48 108.397 943.915 106.657 941.738 106.788C939.684 106.639 937.647 106.455 935.654 106.123C931.686 105.633 927.752 104.933 923.871 104.846C916.135 104.591 908.539 105.176 901.958 108.698C895.35 112.141 890.228 118.452 886.147 125.593C884.015 129.141 882.075 132.9 879.907 136.623C877.696 140.163 875.258 144.56 870.608 145.818L870.284 144.83Z" fill="#FEECD0"/>
<path d="M869.996 126.17C868.127 118.827 866.144 111.354 862.342 104.458C858.689 97.5353 852.833 91.4871 845.797 87.5981C838.752 83.7178 830.763 81.6383 822.642 81.4032C814.513 81.1944 806.646 82.8389 799.207 84.5792C791.75 86.3546 784.6 88.1735 777.555 88.7163C770.597 89.2765 763.665 88.7965 758.289 85.9562C755.562 84.5579 753.159 82.5566 751.743 80.389C750.24 78.1514 750.074 76.2895 750.66 74.0954C751.289 71.8926 753.178 69.3749 755.66 67.0494C757.96 64.3656 761.684 63.631 762.654 57.5907C756.99 55.2488 754.132 58.3172 750.408 60.2756C746.946 62.5837 743.248 65.6698 741.228 70.6437C739.06 75.5565 740.187 82.0336 743.019 86.0367C745.772 90.2409 749.512 93.1076 753.481 95.205C761.697 99.4522 770.683 99.591 778.655 98.4887C786.714 97.3165 794.206 94.8243 801.365 92.6294C808.533 90.4258 815.579 88.4845 822.668 88.1777C829.704 87.8885 836.942 89.2163 843.41 92.24C849.948 95.1413 855.559 99.9307 859.579 106.119C863.661 112.246 866.352 119.378 868.991 126.476L869.996 126.17Z" fill="#FEECD0"/>
<path d="M870.261 126.17C872.131 118.827 874.114 111.354 877.916 104.458C881.569 97.5353 887.425 91.4871 894.461 87.5981C901.506 83.7178 909.495 81.6383 917.616 81.4032C925.745 81.1944 933.612 82.8389 941.051 84.5792C948.507 86.3546 955.658 88.1735 962.703 88.7163C969.661 89.2765 976.593 88.7965 981.968 85.9562C984.696 84.5579 987.099 82.5566 988.515 80.389C990.018 78.1514 990.184 76.2895 989.598 74.0954C988.968 71.8926 987.08 69.3749 984.597 67.0494C982.298 64.3656 978.574 63.631 977.603 57.5907C983.267 55.2488 986.126 58.3172 989.85 60.2756C993.312 62.5837 997.01 65.6698 999.029 70.6437C1001.2 75.5565 1000.07 82.0336 997.239 86.0367C994.486 90.2409 990.745 93.1076 986.777 95.205C978.561 99.4522 969.575 99.591 961.603 98.4887C953.544 97.3165 946.052 94.8243 938.893 92.6294C931.725 90.4258 924.679 88.4845 917.59 88.1777C910.553 87.8885 903.316 89.2163 896.848 92.24C890.31 95.1413 884.699 99.9307 880.678 106.119C876.597 112.246 873.906 119.378 871.267 126.476L870.261 126.17Z" fill="#FEECD0"/>
<path d="M869.702 104.266C865.787 95.3858 859.171 87.7206 851.444 81.5853C843.587 75.5635 834.514 71.0542 824.864 68.2581C819.978 66.8339 815.205 66.0302 810.756 64.9206C806.333 63.8722 802.094 62.7275 799.035 60.8573C795.845 58.9084 794.464 56.7234 794.342 53.8738C794.298 52.4665 794.438 50.8581 795.085 49.3196C795.365 48.5154 795.793 47.7547 796.292 46.9942C796.685 46.0763 796.886 44.9662 796.756 42.2127C794.553 40.6396 792.735 40.8322 791.38 41.5404C790.095 42.3535 788.967 43.4288 787.936 44.6177C785.899 47.0217 784.596 50.16 784.316 53.4991C783.992 56.847 784.988 60.3608 786.771 63.2977C788.694 66.2345 791.071 68.2096 793.649 69.7915C798.815 72.859 804.068 73.8811 808.954 74.6061C813.876 75.2785 818.596 75.5927 822.993 76.3876C831.891 77.9425 840.64 81.1145 848.507 85.8863C856.478 90.5182 863.54 96.8984 868.81 104.774L869.702 104.266Z" fill="#FEECD0"/>
<path d="M870.556 104.266C874.471 95.3858 881.087 87.7206 888.813 81.5853C896.671 75.5635 905.744 71.0542 915.394 68.2581C920.28 66.8339 925.052 66.0302 929.502 64.9206C933.924 63.8722 938.164 62.7275 941.223 60.8573C944.413 58.9084 945.794 56.7234 945.916 53.8738C945.96 52.4665 945.82 50.8581 945.173 49.3196C944.893 48.5154 944.464 47.7547 943.966 46.9942C943.573 46.0763 943.371 44.9662 943.502 42.2127C945.705 40.6396 947.523 40.8322 948.878 41.5404C950.163 42.3535 951.291 43.4288 952.322 44.6177C954.359 47.0217 955.662 50.16 955.942 53.4991C956.266 56.847 955.27 60.3608 953.487 63.2977C951.564 66.2345 949.187 68.2096 946.609 69.7915C941.443 72.859 936.19 73.8811 931.303 74.6061C926.382 75.2785 921.662 75.5927 917.265 76.3876C908.367 77.9425 899.617 81.1145 891.751 85.8863C883.78 90.5182 876.718 96.8984 871.448 104.774L870.556 104.266Z" fill="#FEECD0"/>
<path d="M842.023 78.351C837.828 75.2046 833.519 72.3118 829.262 69.2791C825.014 66.395 820.723 63.4322 818.983 60.1894C818.136 58.5899 817.996 56.8767 818.416 56.0375C818.765 55.2333 819.281 54.77 820.496 54.0094C821.738 53.3449 823.145 53.2484 824.561 53.3007C825.287 53.3269 826.091 53.3444 826.904 53.4755C827.332 53.5016 827.734 53.6064 828.162 53.685C828.433 53.6762 828.731 53.6412 829.395 53.3789L830.409 53.064C830.898 52.8717 831.414 52.7057 831.947 52.5745C832.297 52.1724 832.638 51.744 832.944 51.2807C833.189 50.8611 833.233 50.5725 833.373 50.1879C833.635 49.4187 833.495 48.9117 833.311 48.4484C832.831 47.6181 832.193 46.9276 831.537 46.2546C830.174 44.9786 828.54 44.0086 826.739 43.4843C823.103 42.4008 819.073 43.0218 815.716 44.7355C814.011 45.6186 812.385 46.8251 811.065 48.5298C809.736 50.2607 808.932 52.4111 808.678 54.5352C808.328 58.8709 810.059 62.3846 812.165 64.9804C816.64 70.1896 822.05 71.9285 826.831 73.8773C831.735 75.6686 836.569 77.5823 841.533 79.26L842.023 78.351Z" fill="#FEECD0"/>
<path d="M898.235 78.351C902.43 75.2046 906.739 72.3118 910.996 69.2791C915.244 66.395 919.535 63.4322 921.274 60.1894C922.122 58.5899 922.262 56.8767 921.842 56.0375C921.492 55.2333 920.977 54.77 919.761 54.0094C918.52 53.3449 917.113 53.2484 915.697 53.3007C914.971 53.3269 914.167 53.3444 913.354 53.4755C912.926 53.5016 912.524 53.6064 912.095 53.685C911.824 53.6762 911.527 53.6412 910.863 53.3789L909.849 53.064C909.359 52.8717 908.844 52.7057 908.31 52.5745C907.961 52.1724 907.62 51.744 907.314 51.2807C907.069 50.8611 907.025 50.5725 906.885 50.1879C906.623 49.4187 906.763 48.9117 906.946 48.4484C907.427 47.6181 908.065 46.9276 908.721 46.2546C910.084 44.9786 911.718 44.0086 913.519 43.4843C917.155 42.4008 921.185 43.0218 924.542 44.7355C926.246 45.6186 927.872 46.8251 929.193 48.5298C930.521 50.2607 931.326 52.4111 931.579 54.5352C931.93 58.8709 930.199 62.3846 928.093 64.9804C923.618 70.1896 918.208 71.9285 913.426 73.8773C908.523 75.6686 903.689 77.5823 898.724 79.26L898.235 78.351Z" fill="#FEECD0"/>
<path d="M869.93 162.676C881.07 129.256 884.399 76.3288 886.64 51.4162C887.174 45.411 886.096 39.306 884.305 33.4409C882.514 27.5758 876.807 21.9037 869.928 18.8888C863.048 21.9053 857.348 27.57 855.555 33.4355C853.763 39.3011 854.147 45.4024 854.688 51.4162C856.914 76.337 857.861 131.113 869.93 162.676Z" fill="#FEECD0"/>
<path d="M870.101 503.989C868.93 501.961 868.065 500.589 867.322 499.444C866.606 498.203 866.037 497.354 865.487 496.629C864.473 495.143 863.144 494.724 861.894 493.631C859.465 491.656 857.061 488.081 855.147 484.699C853.347 481.395 851.932 476.727 849.1 471.763C846.304 466.71 841.767 462.384 837.021 459.649C827.31 454.082 816.541 452.964 806.664 454.084C801.699 454.609 796.856 455.816 792.223 457.512C787.686 459.305 783.071 461.683 780.037 465.486C784.181 463.108 788.744 462.268 793.271 461.795C797.799 461.288 802.354 461.348 806.794 461.75C811.234 462.099 815.579 462.946 819.565 464.275C823.612 465.542 827.353 467.36 830.394 469.754C833.506 472.166 835.734 474.797 837.29 478.119C838.95 481.458 840.016 485.968 842.455 491.081C843.783 493.738 844.936 495.766 846.588 498.117C848.196 500.39 850.084 502.662 852.435 504.681C854.76 506.639 857.496 508.728 860.888 508.885C862.531 509.007 864.253 508.753 865.844 507.914C867.435 507.197 868.912 505.929 870.101 503.989Z" fill="#FEECD0"/>
<path d="M870.153 503.989C871.324 501.961 872.189 500.589 872.932 499.444C873.648 498.203 874.217 497.354 874.767 496.629C875.781 495.143 877.11 494.724 878.359 493.631C880.789 491.656 883.193 488.081 885.107 484.699C886.907 481.395 888.322 476.727 891.154 471.763C893.95 466.71 898.487 462.384 903.233 459.649C912.943 454.082 923.713 452.964 933.59 454.084C938.555 454.609 943.398 455.816 948.031 457.512C952.568 459.305 957.183 461.683 960.217 465.486C956.073 463.108 951.51 462.268 946.982 461.795C942.454 461.288 937.9 461.348 933.46 461.75C929.019 462.099 924.675 462.946 920.689 464.275C916.642 465.542 912.901 467.36 909.86 469.754C906.748 472.166 904.519 474.797 902.964 478.119C901.304 481.458 900.237 485.968 897.799 491.081C896.471 493.738 895.317 495.766 893.666 498.117C892.058 500.39 890.17 502.662 887.819 504.681C885.494 506.639 882.758 508.728 879.366 508.885C877.723 509.007 876.001 508.753 874.41 507.914C872.819 507.197 871.342 505.929 870.153 503.989Z" fill="#FEECD0"/>
<path d="M869.974 486.83C866.355 485.099 864.843 480.93 863.244 477.215C861.741 473.334 860.413 469.296 858.788 465.276C855.467 457.356 850.634 449.149 842.724 443.617C834.884 438.119 825.015 435.822 815.968 436.426C811.397 436.575 806.956 437.257 802.62 438.272C800.487 438.884 798.398 439.645 796.352 440.484C794.464 441.778 791.964 441.201 791.343 446.385C794.778 450.397 796.343 448.657 798.519 448.788C800.574 448.639 802.61 448.455 804.603 448.123C808.572 447.633 812.506 446.933 816.387 446.845C824.123 446.591 831.718 447.176 838.3 450.698C844.908 454.141 850.03 460.451 854.111 467.592C856.243 471.141 858.183 474.899 860.351 478.623C862.562 482.163 865 486.559 869.65 487.817L869.974 486.83Z" fill="#FEECD0"/>
<path d="M870.28 486.83C873.899 485.099 875.411 480.93 877.01 477.215C878.513 473.334 879.841 469.296 881.466 465.276C884.787 457.356 889.62 449.149 897.53 443.617C905.37 438.119 915.239 435.822 924.286 436.426C928.857 436.575 933.298 437.257 937.634 438.272C939.767 438.884 941.856 439.645 943.901 440.484C945.79 441.778 948.29 441.201 948.911 446.385C945.476 450.397 943.911 448.657 941.734 448.788C939.68 448.639 937.644 448.455 935.651 448.123C931.682 447.633 927.748 446.933 923.867 446.845C916.131 446.591 908.535 447.176 901.954 450.698C895.346 454.141 890.224 460.451 886.143 467.592C884.011 471.141 882.071 474.899 879.903 478.623C877.692 482.163 875.254 486.559 870.604 487.817L870.28 486.83Z" fill="#FEECD0"/>
<path d="M869.996 468.17C868.127 460.827 866.144 453.354 862.342 446.458C858.689 439.535 852.833 433.487 845.797 429.598C838.752 425.718 830.763 423.638 822.642 423.403C814.513 423.194 806.646 424.839 799.207 426.579C791.75 428.354 784.6 430.173 777.555 430.716C770.597 431.276 763.665 430.796 758.289 427.956C755.562 426.558 753.159 424.556 751.743 422.389C750.24 420.151 750.074 418.289 750.66 416.095C751.289 413.892 753.178 411.375 755.66 409.049C757.96 406.365 761.684 405.631 762.654 399.59C756.99 397.249 754.132 400.317 750.408 402.275C746.946 404.583 743.248 407.67 741.228 412.643C739.06 417.556 740.187 424.033 743.019 428.037C745.772 432.241 749.512 435.107 753.481 437.205C761.697 441.452 770.683 441.591 778.655 440.488C786.714 439.316 794.206 436.824 801.365 434.629C808.533 432.426 815.579 430.484 822.668 430.177C829.704 429.888 836.942 431.216 843.41 434.24C849.948 437.141 855.559 441.93 859.579 448.119C863.661 454.246 866.352 461.378 868.991 468.476L869.996 468.17Z" fill="#FEECD0"/>
<path d="M870.261 468.17C872.131 460.827 874.114 453.354 877.916 446.458C881.569 439.535 887.425 433.487 894.461 429.598C901.506 425.718 909.495 423.638 917.616 423.403C925.745 423.194 933.612 424.839 941.051 426.579C948.507 428.354 955.658 430.173 962.703 430.716C969.661 431.276 976.593 430.796 981.968 427.956C984.696 426.558 987.099 424.556 988.515 422.389C990.018 420.151 990.184 418.289 989.598 416.095C988.968 413.892 987.08 411.375 984.597 409.049C982.298 406.365 978.574 405.631 977.603 399.59C983.267 397.249 986.126 400.317 989.85 402.275C993.312 404.583 997.01 407.67 999.029 412.643C1001.2 417.556 1000.07 424.033 997.239 428.037C994.486 432.241 990.745 435.107 986.777 437.205C978.561 441.452 969.575 441.591 961.603 440.488C953.544 439.316 946.052 436.824 938.893 434.629C931.725 432.426 924.679 430.484 917.59 430.177C910.553 429.888 903.316 431.216 896.848 434.24C890.31 437.141 884.699 441.93 880.678 448.119C876.597 454.246 873.906 461.378 871.267 468.476L870.261 468.17Z" fill="#FEECD0"/>
<path d="M869.702 446.266C865.787 437.385 859.171 429.72 851.444 423.585C843.587 417.563 834.514 413.054 824.864 410.258C819.978 408.833 815.205 408.03 810.756 406.92C806.333 405.872 802.094 404.727 799.035 402.857C795.845 400.908 794.464 398.723 794.342 395.873C794.298 394.466 794.438 392.858 795.085 391.319C795.365 390.515 795.793 389.754 796.292 388.994C796.685 388.076 796.886 386.966 796.756 384.212C794.553 382.639 792.735 382.832 791.38 383.54C790.095 384.353 788.967 385.428 787.936 386.617C785.899 389.021 784.596 392.16 784.316 395.499C783.992 398.847 784.988 402.36 786.771 405.297C788.694 408.234 791.071 410.209 793.649 411.791C798.815 414.859 804.068 415.881 808.954 416.606C813.876 417.278 818.596 417.592 822.993 418.387C831.891 419.942 840.64 423.114 848.507 427.886C856.478 432.518 863.54 438.898 868.81 446.773L869.702 446.266Z" fill="#FEECD0"/>
<path d="M870.556 446.266C874.471 437.385 881.087 429.72 888.813 423.585C896.671 417.563 905.744 413.054 915.394 410.258C920.28 408.833 925.052 408.03 929.502 406.92C933.924 405.872 938.164 404.727 941.223 402.857C944.413 400.908 945.794 398.723 945.916 395.873C945.96 394.466 945.82 392.858 945.173 391.319C944.893 390.515 944.464 389.754 943.966 388.994C943.573 388.076 943.371 386.966 943.502 384.212C945.705 382.639 947.523 382.832 948.878 383.54C950.163 384.353 951.291 385.428 952.322 386.617C954.359 389.021 955.662 392.16 955.942 395.499C956.266 398.847 955.27 402.36 953.487 405.297C951.564 408.234 949.187 410.209 946.609 411.791C941.443 414.859 936.19 415.881 931.303 416.606C926.382 417.278 921.662 417.592 917.265 418.387C908.367 419.942 899.617 423.114 891.751 427.886C883.78 432.518 876.718 438.898 871.448 446.773L870.556 446.266Z" fill="#FEECD0"/>
<path d="M842.023 420.35C837.828 417.204 833.519 414.311 829.262 411.279C825.014 408.395 820.723 405.432 818.983 402.189C818.136 400.589 817.996 398.876 818.416 398.037C818.765 397.233 819.281 396.77 820.496 396.009C821.738 395.344 823.145 395.248 824.561 395.3C825.287 395.326 826.091 395.344 826.904 395.475C827.332 395.501 827.734 395.606 828.162 395.684C828.433 395.676 828.731 395.641 829.395 395.378L830.409 395.064C830.898 394.871 831.414 394.705 831.947 394.574C832.297 394.172 832.638 393.744 832.944 393.28C833.189 392.861 833.233 392.572 833.373 392.187C833.635 391.418 833.495 390.911 833.311 390.448C832.831 389.618 832.193 388.927 831.537 388.254C830.174 386.978 828.54 386.008 826.739 385.484C823.103 384.4 819.073 385.021 815.716 386.735C814.011 387.618 812.385 388.825 811.065 390.529C809.736 392.26 808.932 394.411 808.678 396.535C808.328 400.87 810.059 404.384 812.165 406.98C816.64 412.189 822.05 413.928 826.831 415.877C831.735 417.668 836.569 419.582 841.533 421.26L842.023 420.35Z" fill="#FEECD0"/>
<path d="M898.235 420.35C902.43 417.204 906.739 414.311 910.996 411.279C915.244 408.395 919.535 405.432 921.274 402.189C922.122 400.589 922.262 398.876 921.842 398.037C921.492 397.233 920.977 396.77 919.761 396.009C918.52 395.344 917.113 395.248 915.697 395.3C914.971 395.326 914.167 395.344 913.354 395.475C912.926 395.501 912.524 395.606 912.095 395.684C911.824 395.676 911.527 395.641 910.863 395.378L909.849 395.064C909.359 394.871 908.844 394.705 908.31 394.574C907.961 394.172 907.62 393.744 907.314 393.28C907.069 392.861 907.025 392.572 906.885 392.187C906.623 391.418 906.763 390.911 906.946 390.448C907.427 389.618 908.065 388.927 908.721 388.254C910.084 386.978 911.718 386.008 913.519 385.484C917.155 384.4 921.185 385.021 924.542 386.735C926.246 387.618 927.872 388.825 929.193 390.529C930.521 392.26 931.326 394.411 931.579 396.535C931.93 400.87 930.199 404.384 928.093 406.98C923.618 412.189 918.208 413.928 913.426 415.877C908.523 417.668 903.689 419.582 898.724 421.26L898.235 420.35Z" fill="#FEECD0"/>
<path d="M869.93 504.676C881.07 471.256 884.399 418.329 886.64 393.416C887.174 387.411 886.096 381.306 884.305 375.441C882.514 369.576 876.807 363.904 869.928 360.889C863.048 363.905 857.348 369.57 855.555 375.436C853.763 381.301 854.147 387.402 854.688 393.416C856.914 418.337 857.861 473.113 869.93 504.676Z" fill="#FEECD0"/>
<path d="M1313.11 326.988C1311.93 324.961 1311.07 323.588 1310.33 322.443C1309.61 321.202 1309.04 320.354 1308.49 319.629C1307.48 318.143 1306.15 317.723 1304.9 316.631C1302.47 314.656 1300.07 311.081 1298.15 307.698C1296.35 304.394 1294.94 299.727 1292.1 294.762C1289.31 289.71 1284.77 285.384 1280.03 282.648C1270.31 277.081 1259.55 275.964 1249.67 277.084C1244.7 277.609 1239.86 278.816 1235.23 280.512C1230.69 282.304 1226.07 284.683 1223.04 288.485C1227.18 286.107 1231.75 285.268 1236.28 284.795C1240.8 284.288 1245.36 284.348 1249.8 284.75C1254.24 285.099 1258.58 285.946 1262.57 287.274C1266.62 288.541 1270.36 290.359 1273.4 292.754C1276.51 295.166 1278.74 297.797 1280.29 301.118C1281.95 304.457 1283.02 308.968 1285.46 314.081C1286.79 316.738 1287.94 318.766 1289.59 321.117C1291.2 323.39 1293.09 325.662 1295.44 327.681C1297.76 329.639 1300.5 331.728 1303.89 331.885C1305.53 332.007 1307.26 331.753 1308.85 330.914C1310.44 330.197 1311.92 328.929 1313.11 326.988Z" fill="#FEECD0"/>
<path d="M1313.16 326.988C1314.33 324.961 1315.19 323.588 1315.94 322.443C1316.65 321.202 1317.22 320.354 1317.77 319.629C1318.78 318.143 1320.11 317.723 1321.36 316.631C1323.79 314.656 1326.2 311.081 1328.11 307.698C1329.91 304.394 1331.33 299.727 1334.16 294.762C1336.95 289.71 1341.49 285.384 1346.24 282.648C1355.95 277.081 1366.72 275.964 1376.59 277.084C1381.56 277.609 1386.4 278.816 1391.03 280.512C1395.57 282.304 1400.19 284.683 1403.22 288.485C1399.08 286.107 1394.51 285.268 1389.99 284.795C1385.46 284.288 1380.9 284.348 1376.46 284.75C1372.02 285.099 1367.68 285.946 1363.69 287.274C1359.65 288.541 1355.91 290.359 1352.86 292.754C1349.75 295.166 1347.52 297.797 1345.97 301.118C1344.31 304.457 1343.24 308.968 1340.8 314.081C1339.47 316.738 1338.32 318.766 1336.67 321.117C1335.06 323.39 1333.17 325.662 1330.82 327.681C1328.5 329.639 1325.76 331.728 1322.37 331.885C1320.73 332.007 1319 331.753 1317.41 330.914C1315.82 330.197 1314.35 328.929 1313.16 326.988Z" fill="#FEECD0"/>
<path d="M1312.98 309.83C1309.36 308.099 1307.85 303.93 1306.25 300.215C1304.75 296.334 1303.42 292.296 1301.79 288.275C1298.47 280.356 1293.64 272.149 1285.73 266.616C1277.89 261.119 1268.02 258.822 1258.97 259.426C1254.4 259.575 1249.96 260.257 1245.62 261.272C1243.49 261.884 1241.4 262.644 1239.36 263.484C1237.47 264.778 1234.97 264.201 1234.35 269.385C1237.78 273.396 1239.35 271.657 1241.52 271.788C1243.58 271.639 1245.61 271.455 1247.61 271.123C1251.58 270.633 1255.51 269.933 1259.39 269.845C1267.13 269.591 1274.72 270.175 1281.3 273.697C1287.91 277.141 1293.03 283.451 1297.11 290.592C1299.25 294.141 1301.19 297.899 1303.35 301.623C1305.57 305.163 1308 309.559 1312.65 310.817L1312.98 309.83Z" fill="#FEECD0"/>
<path d="M1313.28 309.83C1316.9 308.099 1318.41 303.93 1320.01 300.215C1321.52 296.334 1322.84 292.296 1324.47 288.275C1327.79 280.356 1332.62 272.149 1340.53 266.616C1348.37 261.119 1358.24 258.822 1367.29 259.426C1371.86 259.575 1376.3 260.257 1380.64 261.272C1382.77 261.884 1384.86 262.644 1386.91 263.484C1388.79 264.778 1391.29 264.201 1391.91 269.385C1388.48 273.396 1386.91 271.657 1384.74 271.788C1382.68 271.639 1380.65 271.455 1378.65 271.123C1374.69 270.633 1370.75 269.933 1366.87 269.845C1359.14 269.591 1351.54 270.175 1344.96 273.697C1338.35 277.141 1333.23 283.451 1329.15 290.592C1327.01 294.141 1325.07 297.899 1322.91 301.623C1320.7 305.163 1318.26 309.559 1313.61 310.817L1313.28 309.83Z" fill="#FEECD0"/>
<path d="M1313 291.169C1311.13 283.827 1309.15 276.354 1305.35 269.457C1301.69 262.535 1295.84 256.487 1288.8 252.598C1281.76 248.717 1273.77 246.638 1265.65 246.403C1257.52 246.194 1249.65 247.838 1242.21 249.579C1234.75 251.354 1227.6 253.173 1220.56 253.716C1213.6 254.276 1206.67 253.796 1201.29 250.956C1198.57 249.557 1196.16 247.556 1194.75 245.388C1193.24 243.151 1193.08 241.289 1193.66 239.095C1194.29 236.892 1196.18 234.374 1198.66 232.049C1200.96 229.365 1204.69 228.63 1205.66 222.59C1199.99 220.248 1197.14 223.317 1193.41 225.275C1189.95 227.583 1186.25 230.669 1184.23 235.643C1182.06 240.556 1183.19 247.033 1186.02 251.036C1188.78 255.24 1192.52 258.107 1196.48 260.204C1204.7 264.452 1213.69 264.591 1221.66 263.488C1229.72 262.316 1237.21 259.824 1244.37 257.629C1251.54 255.425 1258.58 253.484 1265.67 253.177C1272.71 252.888 1279.95 254.216 1286.41 257.239C1292.95 260.141 1298.56 264.93 1302.58 271.118C1306.66 277.245 1309.36 284.378 1312 291.475L1313 291.169Z" fill="#FEECD0"/>
<path d="M1313.27 291.169C1315.14 283.827 1317.12 276.354 1320.92 269.457C1324.57 262.535 1330.43 256.487 1337.46 252.598C1344.51 248.717 1352.5 246.638 1360.62 246.403C1368.75 246.194 1376.62 247.838 1384.05 249.579C1391.51 251.354 1398.66 253.173 1405.71 253.716C1412.67 254.276 1419.6 253.796 1424.97 250.956C1427.7 249.557 1430.1 247.556 1431.52 245.388C1433.02 243.151 1433.19 241.289 1432.6 239.095C1431.97 236.892 1430.08 234.374 1427.6 232.049C1425.3 229.365 1421.58 228.63 1420.61 222.59C1426.27 220.248 1429.13 223.317 1432.85 225.275C1436.32 227.583 1440.01 230.669 1442.03 235.643C1444.2 240.556 1443.07 247.033 1440.24 251.036C1437.49 255.24 1433.75 258.107 1429.78 260.204C1421.56 264.452 1412.58 264.591 1404.61 263.488C1396.55 262.316 1389.06 259.824 1381.9 257.629C1374.73 255.425 1367.68 253.484 1360.59 253.177C1353.56 252.888 1346.32 254.216 1339.85 257.239C1333.31 260.141 1327.7 264.93 1323.68 271.118C1319.6 277.245 1316.91 284.378 1314.27 291.475L1313.27 291.169Z" fill="#FEECD0"/>
<path d="M1312.71 269.264C1308.79 260.384 1302.17 252.718 1294.45 246.583C1286.59 240.561 1277.52 236.052 1267.87 233.256C1262.98 231.832 1258.21 231.028 1253.76 229.918C1249.34 228.87 1245.1 227.725 1242.04 225.855C1238.85 223.906 1237.47 221.721 1237.35 218.872C1237.3 217.464 1237.44 215.856 1238.09 214.317C1238.37 213.513 1238.8 212.753 1239.3 211.992C1239.69 211.074 1239.89 209.964 1239.76 207.211C1237.56 205.637 1235.74 205.83 1234.38 206.538C1233.1 207.351 1231.97 208.427 1230.94 209.615C1228.9 212.02 1227.6 215.158 1227.32 218.497C1227 221.845 1227.99 225.359 1229.77 228.295C1231.7 231.232 1234.07 233.207 1236.65 234.789C1241.82 237.857 1247.07 238.879 1251.96 239.604C1256.88 240.276 1261.6 240.591 1266 241.385C1274.89 242.94 1283.64 246.112 1291.51 250.884C1299.48 255.516 1306.54 261.896 1311.81 269.771L1312.71 269.264Z" fill="#FEECD0"/>
<path d="M1313.56 269.264C1317.47 260.384 1324.09 252.718 1331.82 246.583C1339.67 240.561 1348.75 236.052 1358.4 233.256C1363.28 231.832 1368.06 231.028 1372.51 229.918C1376.93 228.87 1381.17 227.725 1384.23 225.855C1387.42 223.906 1388.8 221.721 1388.92 218.872C1388.96 217.464 1388.82 215.856 1388.18 214.317C1387.9 213.513 1387.47 212.753 1386.97 211.992C1386.58 211.074 1386.38 209.964 1386.51 207.211C1388.71 205.637 1390.53 205.83 1391.88 206.538C1393.17 207.351 1394.29 208.427 1395.33 209.615C1397.36 212.02 1398.67 215.158 1398.95 218.497C1399.27 221.845 1398.27 225.359 1396.49 228.295C1394.57 231.232 1392.19 233.207 1389.61 234.789C1384.45 237.857 1379.19 238.879 1374.31 239.604C1369.39 240.276 1364.67 240.591 1360.27 241.385C1351.37 242.94 1342.62 246.112 1334.75 250.884C1326.78 255.516 1319.72 261.896 1314.45 269.771L1313.56 269.264Z" fill="#FEECD0"/>
<path d="M1285.03 243.349C1280.83 240.203 1276.52 237.31 1272.27 234.277C1268.02 231.393 1263.73 228.43 1261.99 225.187C1261.14 223.588 1261 221.875 1261.42 221.036C1261.77 220.231 1262.29 219.768 1263.5 219.007C1264.74 218.343 1266.15 218.246 1267.57 218.299C1268.29 218.325 1269.09 218.342 1269.91 218.473C1270.34 218.5 1270.74 218.604 1271.17 218.683C1271.44 218.674 1271.73 218.639 1272.4 218.377L1273.41 218.062C1273.9 217.87 1274.42 217.704 1274.95 217.573C1275.3 217.17 1275.64 216.742 1275.95 216.279C1276.19 215.859 1276.24 215.571 1276.38 215.186C1276.64 214.417 1276.5 213.91 1276.32 213.446C1275.83 212.616 1275.2 211.926 1274.54 211.253C1273.18 209.977 1271.54 209.007 1269.74 208.482C1266.11 207.399 1262.08 208.02 1258.72 209.734C1257.02 210.617 1255.39 211.823 1254.07 213.528C1252.74 215.259 1251.94 217.409 1251.68 219.533C1251.33 223.869 1253.06 227.383 1255.17 229.978C1259.64 235.188 1265.05 236.927 1269.84 238.875C1274.74 240.667 1279.57 242.58 1284.54 244.258L1285.03 243.349Z" fill="#FEECD0"/>
<path d="M1341.24 243.349C1345.43 240.203 1349.74 237.31 1354 234.277C1358.25 231.393 1362.54 228.43 1364.28 225.187C1365.13 223.588 1365.27 221.875 1364.85 221.036C1364.5 220.231 1363.98 219.768 1362.77 219.007C1361.52 218.343 1360.12 218.246 1358.7 218.299C1357.98 218.325 1357.17 218.342 1356.36 218.473C1355.93 218.5 1355.53 218.604 1355.1 218.683C1354.83 218.674 1354.53 218.639 1353.87 218.377L1352.85 218.062C1352.36 217.87 1351.85 217.704 1351.31 217.573C1350.96 217.17 1350.62 216.742 1350.32 216.279C1350.07 215.859 1350.03 215.571 1349.89 215.186C1349.63 214.417 1349.77 213.91 1349.95 213.446C1350.43 212.616 1351.07 211.926 1351.72 211.253C1353.09 209.977 1354.72 209.007 1356.52 208.482C1360.16 207.399 1364.19 208.02 1367.55 209.734C1369.25 210.617 1370.88 211.823 1372.2 213.528C1373.53 215.259 1374.33 217.409 1374.58 219.533C1374.93 223.869 1373.2 227.383 1371.1 229.978C1366.62 235.188 1361.21 236.927 1356.43 238.875C1351.53 240.667 1346.69 242.58 1341.73 244.258L1341.24 243.349Z" fill="#FEECD0"/>
<path d="M1312.93 327.676C1324.07 294.256 1327.4 241.329 1329.64 216.416C1330.18 210.411 1329.1 204.306 1327.31 198.441C1325.52 192.576 1319.81 186.903 1312.93 183.889C1306.05 186.905 1300.35 192.57 1298.56 198.435C1296.77 204.301 1297.15 210.402 1297.69 216.416C1299.92 241.337 1300.87 296.112 1312.93 327.676Z" fill="#FEECD0"/>
<path fill-rule="evenodd" clip-rule="evenodd" d="M146.647 451.432C150.821 452.476 162.049 453.436 173.569 448.926C163.051 450.931 149.778 445.168 146.647 441.41C141.679 430.791 140.376 420.987 139.154 411.792C136.989 395.496 135.078 381.113 113.464 367.499C109.29 364.367 96.3095 356.224 77.7772 348.708C59.2449 341.191 58.7852 313.84 60.872 301.104L1316.18 314.186L1383.18 314.884C1383.18 316.209 1383.19 317.633 1383.21 319.131C1383.35 333.919 1383.56 355.946 1371.28 361.861C1367.91 364.36 1364.29 366.65 1360.67 368.945C1346.12 378.155 1331.44 387.452 1331.84 410.718C1331.84 411.184 1331.84 411.649 1331.84 412.112C1331.86 425.942 1331.88 438.263 1314.31 456.518C1322.1 459.91 1333.78 461.298 1343.11 450.805C1346.86 447.676 1347.64 437.044 1348.5 425.39C1349.37 413.715 1350.3 401.015 1354.38 393.806C1362.26 379.846 1372.69 374.07 1381.9 368.97C1390.97 363.949 1398.85 359.584 1401.96 348.707C1405.3 319.059 1406.97 257.634 1386.93 249.115V238.467C1368.06 233.168 1364.07 210.703 1360.52 190.709C1357.36 172.894 1354.54 157.04 1341.85 157.04V152.029C1337.89 152.864 1329.71 150.15 1328.71 132.612C1325.14 128.475 1316.22 123.153 1306.79 131.286C1305.75 132.184 1304.71 133.245 1303.66 134.491V165.809H1274.24C1233.8 214.492 1193.17 190.179 1152.77 165.999C1119.36 146.002 1086.1 126.096 1053.23 147.644C1051.35 135.117 1021.3 142.633 1036.32 161.424C1013.59 184.473 971.208 164.62 928.481 144.609C885.283 124.377 841.738 103.983 817.816 127.601C793.607 115.073 731.165 97.5352 675.067 127.601C662.639 103.061 609.72 123.815 559.239 143.614C513.082 161.716 468.962 179.019 459.692 160.172C472.214 150.776 450.927 126.974 437.779 143.886C407.616 124.813 371.633 144.555 336.179 164.008C293.625 187.355 251.832 210.285 221.777 165.183H191.099V128.854C190.016 127.815 188.529 126.687 186.717 125.673C180.147 121.997 169.301 119.82 157.916 128.854C155.006 140.915 142.71 145.52 133.676 148.903C129.105 150.615 125.369 152.014 124.107 153.908C119.82 160.342 115.999 168.934 112.029 177.864C102.472 199.359 92.0469 222.808 72.1416 222.808C68.3851 222.808 64.2529 226.191 65.2546 234.709C31.4464 239.094 17.6719 332.422 68.3851 354.971C117.588 371.736 120.092 395.001 122.262 415.165C123.903 430.409 125.353 443.881 146.647 451.432Z" fill="#F9DBB3"/>
<path d="M223.656 403.828C337.604 275.423 543.588 457.695 598.058 403.828C603.693 447.047 864.147 456.442 889.19 403.828C939.278 465.838 1135.24 278.554 1266.72 408.212H1308.67V453.31C1310.12 454.388 1312.05 455.537 1314.31 456.518C1331.88 438.263 1331.86 425.942 1331.84 412.112C1331.84 411.649 1331.84 411.184 1331.84 410.718C1331.44 387.452 1346.12 378.155 1360.67 368.945C1364.29 366.65 1367.91 364.36 1371.28 361.861C1383.56 355.946 1383.35 333.919 1383.21 319.131C1383.19 317.633 1383.18 316.209 1383.18 314.884L1316.18 314.186L60.872 301.104C58.7852 313.84 59.2449 341.191 77.7772 348.708C96.3095 356.224 109.29 364.367 113.464 367.499C135.078 381.113 136.989 395.496 139.154 411.792C140.376 420.987 141.679 430.791 146.647 441.41C149.778 445.168 163.051 450.931 173.569 448.926L175.447 403.828H223.656Z" fill="#E9D1AC"/>
<path d="M1308.67 408.212H1266.72C1135.24 278.554 939.278 465.838 889.19 403.828C864.147 456.442 603.693 447.047 598.058 403.828C543.588 457.695 337.604 275.423 223.656 403.828H175.447M1308.67 408.212H1316.18V333.049M1308.67 408.212V453.31C1310.12 454.388 1312.05 455.537 1314.31 456.518M174.194 278.555L177.325 165.183H191.099M174.194 278.555H60.872M174.194 278.555L1314.31 292.731M60.872 278.555C58.3676 282.939 54.8615 293.588 60.872 301.104M60.872 278.555C60.872 242.977 78.403 236.588 87.1686 237.841V225.94C112.713 231.953 133.291 182.512 140.386 157.04C180.456 147.645 163.552 131.985 186.717 125.673M191.099 165.183H221.777C251.832 210.285 293.625 187.355 336.179 164.008C371.633 144.555 407.616 124.813 437.779 143.886C450.927 126.974 472.214 150.776 459.692 160.172C468.962 179.019 513.082 161.716 559.239 143.614C609.72 123.815 662.639 103.061 675.067 127.601C731.165 97.5352 793.607 115.073 817.816 127.601C841.738 103.983 885.283 124.377 928.481 144.609C971.208 164.62 1013.59 184.473 1036.32 161.424C1021.3 142.633 1051.35 135.117 1053.23 147.644C1086.1 126.096 1119.36 146.002 1152.77 165.999C1193.17 190.179 1233.8 214.492 1274.24 165.809H1303.66M191.099 165.183V128.854C190.016 127.815 188.529 126.687 186.717 125.673M173.569 448.926C162.049 453.436 150.821 452.476 146.647 451.432C125.353 443.881 123.903 430.409 122.262 415.165C120.092 395.001 117.588 371.736 68.3851 354.971C17.6719 332.422 31.4464 239.094 65.2546 234.709C64.2529 226.191 68.3851 222.808 72.1416 222.808C92.0469 222.808 102.472 199.359 112.029 177.864C115.999 168.934 119.82 160.342 124.107 153.908C125.369 152.014 129.105 150.615 133.676 148.903C142.71 145.52 155.006 140.915 157.916 128.854C169.301 119.82 180.147 121.997 186.717 125.673M173.569 448.926L175.447 403.828M173.569 448.926C163.051 450.931 149.778 445.168 146.647 441.41C141.679 430.791 140.376 420.987 139.154 411.792C136.989 395.496 135.078 381.113 113.464 367.499C109.29 364.367 96.3095 356.224 77.7772 348.708C59.2449 341.191 58.7852 313.84 60.872 301.104M175.447 403.828H166.055V319.895M60.872 301.104L1316.18 314.186L1383.18 314.884M1383.18 314.884C1384.22 310.917 1385.68 301.104 1383.18 293.588M1383.18 314.884C1383.18 316.209 1383.19 317.633 1383.21 319.131C1383.35 333.919 1383.56 355.946 1371.28 361.861C1367.91 364.36 1364.29 366.65 1360.67 368.945C1346.12 378.155 1331.44 387.452 1331.84 410.718C1331.84 411.184 1331.84 411.649 1331.84 412.112C1331.86 425.942 1331.88 438.263 1314.31 456.518M1383.18 293.588L1314.31 292.731M1383.18 293.588C1380.17 251.997 1370.66 249.533 1366.27 253.5V238.467C1347.24 236.463 1341.85 192.116 1335.59 170.82C1316.73 160.798 1323.07 140.128 1306.79 131.286M1314.31 292.731V165.809H1303.66M1306.79 131.286C1316.22 123.153 1325.14 128.475 1328.71 132.612C1329.71 150.15 1337.89 152.864 1341.85 152.029V157.04C1354.54 157.04 1357.36 172.894 1360.52 190.709C1364.07 210.703 1368.06 233.168 1386.93 238.467V249.115C1406.97 257.634 1405.3 319.059 1401.96 348.707C1398.85 359.584 1390.97 363.949 1381.9 368.97C1372.69 374.07 1362.26 379.846 1354.38 393.806C1350.3 401.015 1349.37 413.715 1348.5 425.39C1347.64 437.044 1346.86 447.676 1343.11 450.805C1333.78 461.298 1322.1 459.91 1314.31 456.518M1306.79 131.286C1305.75 132.184 1304.71 133.245 1303.66 134.491V165.809" stroke="#002137" stroke-width="2"/>
<path d="M749.823 200.489L668.976 213.228L635.615 279.472L662.381 449.346L831.969 422.625L805.203 252.751L749.823 200.489Z" fill="#EFBD85"/>
<path d="M741.81 192.075L663.435 215.021L639 285.206L687.517 450.929L851.921 402.798L803.404 237.075L741.81 192.075Z" fill="#FFCC92"/>
<circle cx="709.096" cy="220.096" r="9.34886" transform="rotate(-21.1924 709.096 220.096)" fill="#F9DBB3"/>
<path fill-rule="evenodd" clip-rule="evenodd" d="M378.527 240.002C376.446 243.486 362.061 282.509 374.717 282.509C396.416 282.509 450.916 282.509 495.678 282.509C498.483 278.11 502.339 248.483 493.105 238.179C490.599 235.59 487.605 230.232 495.678 229.512C505.769 228.612 534.746 206.462 535.039 193.888C537.736 193.023 543.844 189.607 546.694 182.858C557.425 164.814 615.872 164.739 607.873 99.6377C607.787 97.3144 608.049 92.0201 609.782 89.4293C611.949 86.1908 571.706 66.3742 552.917 93.7844C550.305 94.8119 546.188 95.2717 550.621 88.8916C555.055 82.5115 555.819 79.9361 555.647 79.4459C499.201 94.639 420.864 97.1176 308.797 86.3306C324.349 101.396 338.038 127.272 333.48 197.094C333.013 203.921 340.608 220.642 374.717 232.915C377.194 233.697 381.424 236.21 378.527 240.002ZM532.429 169.283C534.29 146.825 529.78 126.686 537.957 113.986C541.859 111.361 545.841 113.779 547.344 115.316C551.459 126.095 555.002 121.52 556.258 117.885C561.158 103.611 567.092 96.5166 569.446 94.7539C588.225 85.3852 596.245 95.8064 597.908 102.188C602.743 142.778 551.809 163.552 542.309 170.604C534.708 176.246 532.555 172.074 532.429 169.283Z" fill="#002137"/>
<path d="M554 68.8741C542.88 67.0792 411.742 50.434 308.581 72.7783C320.065 97.4887 552.788 85.6268 554 68.8741Z" fill="#002137"/>
<path d="M555.647 79.4459C558.805 76.5203 562.896 70.3099 554 68.8741C552.788 85.6268 320.065 97.4887 308.581 72.7783C304.818 73.7419 302.288 80.026 308.797 86.3306C420.864 97.1176 499.201 94.639 555.647 79.4459Z" fill="#1C3753"/>
<path d="M599.284 113.811C630.2 125.725 697.06 162.042 717.178 212.001C718.049 215.109 717.579 221.705 708.73 223.226C708.228 222.659 707.171 221.279 706.958 220.297C710.08 220.247 715.852 218.529 713.975 212.052C711.628 203.956 685.19 153.358 599.347 117.754C593.027 115.781 589.684 122.489 592.266 129.842C591.305 131.434 590.262 132.996 589.86 133.577C585.397 116.396 594.209 112.558 599.284 113.811Z" fill="#1C3753"/>
<path d="M675.027 211.686L680.425 210.121C626.634 175.288 604.598 151.088 600.116 143.026L597.702 146.269C612.638 167.917 654.603 198.209 675.027 211.686Z" fill="#1C3753"/>
<path d="M1095.66 289.503C1119.92 286.993 1104.86 273.802 1095.66 276.312L942.547 276.312C925.813 276.312 933.346 289.677 942.547 288.003L1095.66 289.503Z" fill="#002137"/>
<path d="M1129.96 236.139C1148.36 241.998 1140 218.563 1179.32 209.357C1183.78 209.078 1194.72 206.177 1202.75 196.803C1237.05 201.825 1298.96 132.358 1238.72 87.1636C1234.82 85.2107 1227.18 84.318 1227.85 96.3699C1205.5 96.3699 1205 133.003 1172.29 135.503C1168.93 143.118 1165.82 152.565 1163.42 164.162C1179.43 164.162 1163.42 149.934 1188.52 142.402C1215.3 142.402 1214.46 108.087 1237.05 112.272C1263.01 122.315 1230.36 175.879 1216.97 175.879C1179.43 175.879 1186.85 203.499 1151.71 198.421C1143.51 218.096 1135.18 230.918 1129.96 236.139Z" fill="#002137"/>
<path d="M942.547 276.312L1095.66 276.312C1080.6 254.552 1117.41 258.737 1129.96 236.139C1135.18 230.918 1143.51 218.096 1151.71 198.421C1155.78 188.658 1159.82 177.208 1163.42 164.162C1165.82 152.565 1168.93 143.118 1172.29 135.503C1180.18 117.62 1189.49 109.848 1194.38 108.087H848.004C897.367 150.771 858.88 218.563 942.547 260.411C946.452 262.084 951.919 267.608 942.547 276.312Z" fill="#002137"/>
<path d="M1095.66 276.312C1104.86 273.802 1119.92 286.993 1095.66 289.503L942.547 288.003C933.346 289.677 925.813 276.312 942.547 276.312M1095.66 276.312L942.547 276.312M1095.66 276.312C1080.6 254.552 1117.41 258.737 1129.96 236.139M942.547 276.312C951.919 267.608 946.452 262.084 942.547 260.411C858.88 218.563 897.367 150.771 848.004 108.087H1194.38C1189.49 109.848 1180.18 117.62 1172.29 135.503M1129.96 236.139C1148.36 241.998 1140 218.563 1179.32 209.357C1183.78 209.078 1194.72 206.177 1202.75 196.803C1237.05 201.825 1298.96 132.358 1238.72 87.1636C1234.82 85.2107 1227.18 84.318 1227.85 96.3699C1205.5 96.3699 1205 133.003 1172.29 135.503M1129.96 236.139C1135.18 230.918 1143.51 218.096 1151.71 198.421M1163.42 164.162C1159.82 177.208 1155.78 188.658 1151.71 198.421M1163.42 164.162C1179.43 164.162 1163.42 149.934 1188.52 142.402C1215.3 142.402 1214.46 108.087 1237.05 112.272C1263.01 122.315 1230.36 175.879 1216.97 175.879C1179.43 175.879 1186.85 203.499 1151.71 198.421M1163.42 164.162C1165.82 152.565 1168.93 143.118 1172.29 135.503" stroke="#002137"/>
<path d="M1018.16 254.996C1018.16 214.985 990.226 222.987 1018.16 181.237C1044.95 211.854 1018.16 220.204 1018.16 254.996ZM1018.16 254.996C1048.73 213.594 1069.86 214.637 1067.22 189.935C1067.22 185.601 1066.79 181.299 1066.23 177.063M1018.16 254.996C1031.5 248.153 1061.86 227.789 1076.66 201.069M1018.16 254.996C1004.19 235.165 973.367 217.421 970.599 189.935C970.128 185.256 970.734 181.051 971.701 177.063M1018.16 254.996C1002.3 246.298 968.987 223.335 962.669 201.069M1018.16 254.996C1036.27 250.852 1050.23 257.431 1038.53 268.912M1018.16 254.996C998.146 249.453 986.824 258.127 998.146 268.912M1018.16 254.996C1030.45 253.928 1041.23 249.549 1050.24 243.862M1018.16 254.996C1009.4 253.713 995.256 249.557 982.295 241.648M1078.92 214.638C1089.49 211.274 1114.7 206.566 1131 214.638C1112.88 222.64 1101.94 254.996 1074.39 250.473M1078.92 214.638C1074.66 222.215 1064.73 234.726 1050.24 243.862M1078.92 214.638C1091.17 191.026 1088.54 176.754 1082.71 166.277M956.635 214.638C945.436 215.913 921.831 217.699 917 214.638C930.21 226.467 938.916 253.256 962.669 250.473M956.635 214.638C962.106 226.404 971.815 235.253 982.295 241.648M956.635 214.638C944.965 189.542 952.573 175.568 960.376 163.494M1036.27 264.39C1032.75 260.91 1024.21 257.362 1018.16 271C1015.89 265.665 1009.17 256.875 1000.41 264.39M1074.39 250.473C1067.44 244.071 1055.4 243.399 1050.24 243.862M1074.39 250.473C1080.56 254.786 1078.39 260.895 1074.85 264.39M1067.22 262.302C1066.27 268.792 1071.26 267.942 1074.85 264.39M1050.24 243.862C1053.25 257.431 1074.39 252.908 1074.85 264.39M1050.24 243.862C1071.37 243.862 1088.35 232.381 1107.22 224.727M962.669 250.473C965.967 247.674 971.716 243.438 976.3 241.648M962.669 250.473C958.344 256.379 959.797 261.408 962.615 264.39M970.599 262.302C972.769 268.71 966.437 268.433 962.615 264.39M982.295 241.648C981.097 240.407 978.884 240.639 976.3 241.648M982.295 241.648C988.711 257.431 967.575 250.473 962.615 264.39M976.3 241.648C969.24 243.894 951.119 244.141 935.116 227.163M1082.71 166.277C1076.68 155.45 1067.22 148.676 1067.22 139.835C1061.48 150.841 1064.47 163.618 1066.23 177.063M1082.71 166.277C1078.92 131.833 1117.79 138.165 1107.22 120.352M1107.22 120.352C1104.95 116.525 1097.41 122.092 1104.2 126.267M1107.22 120.352C1109.99 122.904 1114.7 129.885 1111.37 137.4M960.376 163.494C965.446 155.648 970.599 148.605 970.599 139.835C978.06 150.92 976.754 159.275 974.374 167.669M960.376 163.494C965.31 130.442 920.774 137.052 930.21 118.961M930.21 118.961C932.75 114.09 943.797 118.961 937.004 126.267M930.21 118.961C928.449 120.584 925.228 126.128 926.436 135.313M971.701 177.063C978.143 170.452 987.201 182.282 990.598 170.452C990.598 163.494 1003.81 160.015 999.656 153.057C993.995 161.755 978.898 156.536 974.374 167.669M971.701 177.063C972.483 173.835 973.5 170.75 974.374 167.669M1066.23 177.063C1065.22 173.874 1063.44 171.528 1061.18 169.639M1028.72 144.011C1026.36 137.4 1024.19 123.484 1012.11 133.921M1028.72 144.011C1035.06 161.841 1052.06 162.047 1061.18 169.639M1028.72 144.011C1018.16 173.584 1046.98 185.132 1061.18 169.639M1061.18 169.639C1051.63 170.49 1032.07 169.13 1030.23 156.884" stroke="#1C3753" stroke-width="3" stroke-linecap="round"/>
<path d="M482.32 156.153C489.028 156.153 491.062 144.092 484.928 150.33C471.513 163.973 467.165 161.284 466.669 158.233C459.961 164.057 454.371 156.985 458.47 153.659C454.247 151.856 445.651 145.256 445.055 133.276C444.459 121.296 434.372 121.075 429.404 122.461C427.615 111.148 437.105 115.529 442.074 119.134C440.223 117.054 442.819 109.983 447.291 112.063C450.868 113.726 448.781 123.016 447.291 127.453C455.936 124.125 456.98 134.108 449.899 137.852C452.284 143.176 459.588 143.952 462.942 143.675C449.229 128.701 462.942 104.991 481.575 114.558C463.389 124.874 476.233 132.722 484.928 135.356C477.475 125.706 483.065 122.79 486.046 124.957C498.865 134.274 509.275 129.671 512.877 126.205C506.318 117.553 514.864 117.886 519.957 119.134C516.976 117.137 517.97 113.588 518.839 112.063C524.429 107.071 530.764 119.966 533 104.991C531.509 112.312 536.472 118.336 532 120C532 120 531 138.407 531 144.092C531 151.745 527.534 154.351 525.92 158.233C523.833 161.893 519.088 165.304 516.976 166.552C501.474 168.549 500.828 160.452 502.443 156.153C507.287 150.33 512.877 152.41 512.132 161.977C523.311 158.233 527.038 134.524 512.877 140.347C504.828 146.004 502.443 141.179 507.287 134.524C501.027 136.853 499.213 141.595 499.089 143.675C498.791 154.309 493.002 153.097 490.145 151.162C488.655 157.152 484.307 156.985 482.32 156.153ZM482.32 156.153C478.593 178.199 455.117 166.968 458.47 179.031C455.99 179.863 450.803 180.195 449.899 174.871C447.664 179.585 446.471 189.596 459.588 191.925C462.942 192.896 472.035 191.676 481.575 179.031C478.221 186.657 474.196 200.91 484.928 196.917C483.189 196.224 480.233 193.256 482.32 186.934C486.916 186.241 493.872 181.527 484.928 168.216C484.059 166.136 482.32 160.812 482.32 156.153ZM432.746 246C423.803 240.177 417.542 221.708 435.728 222.707C436.846 231.026 447.28 238.014 448.77 222.707C451.503 223.677 456.969 224.537 456.969 220.211C458.211 222.429 462.037 226.034 467.403 222.707C466.533 227.698 466.285 235.684 472.247 227.698C478.21 219.712 474.732 216.052 472.247 215.22C467.403 215.22 467.701 203.739 461.44 206.069C458.956 200.107 449.292 190.263 430.511 198.582C427.529 195.67 420.449 194.172 415.977 211.476C414.735 200.523 417.766 179.365 439.827 182.359C443.925 182.916 446.906 174.041 443.925 171.545C456.969 171.545 459.352 148.667 437.59 153.659C439.577 151.44 440.198 146.421 426.783 144.092C425.541 141.042 421.342 137.603 414.486 148.251C418.957 138.962 423.278 122.29 404.797 129.949C402.939 130.72 397.095 139.516 404.797 139.516C408.157 137.852 409.802 129.532 411.883 137.852C411.759 142.566 410.467 153.575 406.294 159.897C406.542 156.986 405.325 148.834 398.468 139.516C398.841 129.533 395.785 111.48 380.581 119.134C380.581 116.777 379.389 111.563 374.619 109.567C375.612 113.31 375.364 119.882 366.42 116.222C364.309 111.231 356.582 100.998 342.571 100C344.186 103.605 348.384 111.647 352.26 114.974C348.162 119.134 334.005 105.407 334 121.629C336.486 118.441 341.906 114.226 343.695 122.877C344.469 126.621 350.15 131.197 352.26 129.949C346.424 129.533 336.763 131.446 344.813 142.427C345.931 149.083 351.222 159.566 363.445 148.251C355.992 155.151 365.308 163.641 370.153 152.41C370.028 156.153 371.569 163.474 378.724 162.809C387.667 161.977 399.58 176.121 398.468 182.359C391.266 175.01 375.072 164.139 367.917 179.447C365.778 184.022 354.501 186.102 354.501 174.455C355.495 177.228 358.526 181.36 362.7 175.703C367.917 168.632 353.745 166.968 352.26 173.208C350.775 179.447 353.011 198.165 365.308 200.66C367.172 202.463 372.016 204.986 376.488 200.66C379.593 197.887 387.593 195.752 394.747 209.395C394.002 218.546 377.233 207.731 374.624 219.794C374.128 222.428 374.848 226.782 381.705 223.122C380.835 227.004 380.438 234.103 385.804 231.441C388.04 234.214 393.406 237.93 396.983 230.609C400.561 223.288 418.349 237.819 426.795 246H432.746Z" stroke="#1C3753" stroke-width="3" stroke-linecap="round"/>
</g>
<defs>
<clipPath id="clip0_423_12156">
<rect width="1440" height="595" fill="white"/>
</clipPath>
</defs>
</svg>
