<svg width="1440" height="1185" viewBox="0 0 1440 1185" fill="none" xmlns="http://www.w3.org/2000/svg">
<g clip-path="url(#clip0_294_2036)">
<rect width="1440" height="1185" fill="#FFF6E7"/>
<path d="M813 1186.47C815.16 1180.82 824.098 1168.61 842.567 1164.99" stroke="#FFCC92" stroke-width="3"/>
<path d="M834.875 1173.28C844.056 1174.28 863.632 1172.22 868.493 1155.94" stroke="#FFCC92" stroke-width="3"/>
<path d="M1331.86 941.159C1340.86 939.208 1358.53 931.095 1357.17 914.245" stroke="#FFCC92" stroke-width="3"/>
<path d="M832.844 1162.35C834.059 1154.69 842.889 1139.89 868.487 1142" stroke="#FFCC92" stroke-width="3"/>
<path d="M1325.97 931.516C1324.32 923.924 1327.24 907.216 1352.09 901.127" stroke="#FFCC92" stroke-width="3"/>
<path d="M860.793 1152.17C866.328 1145.39 881.207 1133.86 896.436 1142" stroke="#FFCC92" stroke-width="3"/>
<path d="M1348.56 913.127C1351.29 904.999 1361.09 889.456 1378.38 892.31" stroke="#FFCC92" stroke-width="3"/>
<path d="M1059.93 1193.7C1063.2 1185.74 1074 1170.79 1091.08 1174.63" stroke="#FFCC92" stroke-width="3"/>
<path d="M888.336 1144.64C894.681 1145.64 908.75 1144.86 914.258 1133.71" stroke="#FFCC92" stroke-width="3"/>
<path d="M1371.72 897.347C1378.05 896.291 1391 891.121 1392.12 878.888" stroke="#FFCC92" stroke-width="3"/>
<path d="M1084.1 1179.28C1090.49 1178.58 1103.76 1174.16 1105.68 1162.02" stroke="#FFCC92" stroke-width="3"/>
<path d="M890.359 1134.46C892.115 1128.68 900.161 1117.65 918.307 1119.76" stroke="#FFCC92" stroke-width="3"/>
<path d="M1369.92 887.136C1369.46 881.146 1373.01 868.231 1390.85 864.492" stroke="#FFCC92" stroke-width="3"/>
<path d="M1082.97 1168.98C1082.91 1162.98 1087.31 1150.29 1105.37 1147.58" stroke="#FFCC92" stroke-width="3"/>
<path d="M909.398 1129.18C912.909 1123.53 924.142 1111.32 940.991 1107.7" stroke="#FFCC92" stroke-width="3"/>
<path d="M1385.91 876.167C1387.15 869.742 1393.27 854.711 1407.8 845.992" stroke="#FFCC92" stroke-width="3"/>
<path d="M1099.66 1158.95C1101.32 1152.61 1108.42 1137.95 1123.5 1130.08" stroke="#FFCC92" stroke-width="3"/>
<path d="M934.105 1117.13C942.881 1120.14 962.782 1121.2 972.179 1101.3" stroke="#FFCC92" stroke-width="3"/>
<path d="M1404.75 857.028C1414.11 857.096 1433.21 851.811 1434.8 830.126" stroke="#FFCC92" stroke-width="3"/>
<path d="M1119.73 1140.92C1129.06 1141.53 1148.48 1137.35 1151.51 1115.79" stroke="#FFCC92" stroke-width="3"/>
<path d="M929.246 1103.93C934.782 1096.65 950.065 1084.26 966.914 1093.01" stroke="#FFCC92" stroke-width="3"/>
<path d="M1395.37 846.151C1397.93 837.55 1407.79 821.076 1426.83 823.987" stroke="#FFCC92" stroke-width="3"/>
<path d="M1111.09 1129.53C1114.21 1121.09 1125.14 1105.21 1143.95 1109.21" stroke="#FFCC92" stroke-width="3"/>
<path d="M962.863 1099.41C970.424 1093.13 988.785 1082.45 1001.75 1089.99" stroke="#FFCC92" stroke-width="3"/>
<path d="M1425.35 831.292C1430.18 822.998 1443.56 807.16 1458.5 810.162" stroke="#FFCC92" stroke-width="3"/>
<path d="M1142 1116.42C1147.36 1108.41 1161.77 1093.37 1176.48 1097.22" stroke="#FFCC92" stroke-width="3"/>
<path d="M992.836 1096.77C998.506 1101.67 1013.82 1107.02 1029.69 1089.24" stroke="#FFCC92" stroke-width="3"/>
<path d="M1169.97 1106.06C1176.89 1109.28 1193.2 1110.42 1203.07 1089.21" stroke="#FFCC92" stroke-width="3"/>
<path d="M995.672 1082.83C1001.07 1079.06 1014.06 1072.65 1022.81 1077.18" stroke="#FFCC92" stroke-width="3"/>
<path d="M1168.49 1091.94C1172.54 1086.91 1183.07 1077.37 1192.83 1079.43" stroke="#FFCC92" stroke-width="3"/>
<path d="M1022.8 1085.47C1026.86 1078.68 1039.09 1066.4 1055.61 1071.52" stroke="#FFCC92" stroke-width="3"/>
<path d="M1195.33 1087.39C1197.17 1079.82 1205.21 1064.83 1222.62 1065.44" stroke="#FFCC92" stroke-width="3"/>
<path d="M1044.68 1074.54C1049 1078.56 1062.42 1084.19 1081.54 1074.54" stroke="#FFCC92" stroke-width="3"/>
<path d="M1213.03 1071.19C1218.39 1073.92 1232.97 1075.82 1248.41 1061.57" stroke="#FFCC92" stroke-width="3"/>
<path d="M1046.7 1063.23C1053.99 1057.96 1071.17 1050.57 1081.54 1063.23" stroke="#FFCC92" stroke-width="3"/>
<path d="M1211.56 1059.81C1216.97 1052.84 1231.23 1041.27 1245 1050.71" stroke="#FFCC92" stroke-width="3"/>
<path d="M1073.43 1073.41C1078.16 1067.75 1091.74 1057.05 1108.27 1059.46" stroke="#FFCC92" stroke-width="3"/>
<path d="M1240.29 1062.6C1243.12 1055.94 1252.93 1042.12 1269.52 1040.12" stroke="#FFCC92" stroke-width="3"/>
<path d="M1102.2 1065.12C1112.05 1068.13 1133.79 1070.32 1141.89 1054.94" stroke="#FFCC92" stroke-width="3"/>
<path d="M1265.4 1047.13C1275.76 1047.45 1297.29 1043.88 1300.43 1027.01" stroke="#FFCC92" stroke-width="3"/>
<path d="M1099.36 1053.06C1105.97 1045.02 1123.18 1031.35 1139.05 1041" stroke="#FFCC92" stroke-width="3"/>
<path d="M1259.04 1036.3C1262.96 1026.85 1275.35 1009.24 1293.5 1014.36" stroke="#FFCC92" stroke-width="3"/>
<path d="M1134.19 1054.19C1139.73 1048.03 1154.2 1036.62 1167.81 1040.24" stroke="#FFCC92" stroke-width="3"/>
<path d="M1292.81 1028.29C1296.27 1020.94 1306.72 1006.21 1320.88 1006.13" stroke="#FFCC92" stroke-width="3"/>
<path d="M1160.11 1045.9C1166.05 1050.92 1181.5 1057.96 1195.76 1045.9" stroke="#FFCC92" stroke-width="3"/>
<path d="M1315.2 1013.57C1322.41 1016.84 1339.36 1019.56 1349.41 1004.26" stroke="#FFCC92" stroke-width="3"/>
<path d="M1163.76 1033.84C1173.21 1026.17 1194.46 1015.45 1203.86 1033.84" stroke="#FFCC92" stroke-width="3"/>
<path d="M1315.06 1001.04C1321.82 991.217 1338.98 975.373 1353.55 990.574" stroke="#FFCC92" stroke-width="3"/>
<path d="M1190.89 1042.88C1198.32 1038.11 1216.01 1029.99 1227.35 1035.72" stroke="#FFCC92" stroke-width="3"/>
<path d="M1343.83 1002.64C1349.52 996.118 1364.05 983.713 1376.66 986.251" stroke="#FFCC92" stroke-width="3"/>
<path d="M1219.65 1037.23C1226.13 1042.88 1241.93 1048.99 1253.27 1028.18" stroke="#FFCC92" stroke-width="3"/>
<path d="M1369.73 989.707C1377.66 993.442 1394.66 995.179 1399.27 972.251" stroke="#FFCC92" stroke-width="3"/>
<path d="M1224.51 1027.05C1228.43 1023.28 1239.25 1015.97 1251.24 1016.88" stroke="#FFCC92" stroke-width="3"/>
<path d="M1371.33 978.671C1373.95 974.032 1382.14 964.188 1393.92 961.927" stroke="#FFCC92" stroke-width="3"/>
<path d="M1387.33 971.334C1394.62 967.719 1407.73 956.719 1401.9 941.64" stroke="#FFCC92" stroke-width="3"/>
<path d="M1410.01 928.37C1417.3 924.755 1430.41 913.755 1424.58 898.676" stroke="#FFCC92" stroke-width="3"/>
<path d="M1397.77 947.031C1393.55 937.977 1390.69 920.01 1412.95 920.579" stroke="#FFCC92" stroke-width="3"/>
<path d="M1420.45 904.067C1416.23 895.013 1413.36 877.046 1435.62 877.615" stroke="#FFCC92" stroke-width="3"/>
<path d="M1418.96 929.731C1419.43 935.373 1418.35 947.348 1410.23 950.116" stroke="#FFCC92" stroke-width="3"/>
<path d="M1441.64 886.767C1442.11 892.409 1441.03 904.384 1432.91 907.152" stroke="#FFCC92" stroke-width="3"/>
<path d="M1243.8 1029.11C1250.3 1022.96 1263.02 1008.86 1261.88 1001.63" stroke="#FFCC92" stroke-width="3"/>
<path d="M1262.8 1011.59C1271.07 1010.53 1286.55 1004.16 1282.32 987.183" stroke="#FFCC92" stroke-width="3"/>
<path d="M1252.95 1002.64C1253.38 997.719 1257.79 986.897 1271.84 981.873M1271.84 981.873C1272.29 981.712 1272.75 981.556 1273.22 981.407C1288.37 976.619 1278.61 979.723 1271.84 981.873Z" stroke="#FFCC92" stroke-width="3"/>
<path d="M1275.23 990.073C1276.35 982.463 1282.88 967.207 1300.1 967.058" stroke="#FFCC92" stroke-width="3"/>
<path d="M1296.1 972.536C1306.69 973.074 1325.8 969.343 1317.5 950.115" stroke="#FFCC92" stroke-width="3"/>
<path d="M1306.19 948.043C1300.34 949.588 1288.64 954.689 1288.67 962.736" stroke="#FFCC92" stroke-width="3"/>
<path d="M1309.51 954.262C1312.77 947.864 1322.37 935.077 1334.68 935.11" stroke="#FFCC92" stroke-width="3"/>
<path d="M58.3359 156.396H99.6723C242.053 11.7491 421.178 82.7574 483.642 150.259H522.222C506.606 169.545 506.606 191.462 485.479 193.215V446.566C481.192 452.118 472.435 466.378 471.7 479.002C456.084 485.431 424.668 503.899 423.933 526.341H421.178L425.074 705.164H427.829V731.463H440.69V741.106H431.504L433.341 855.071C438.546 862.961 449.141 879.792 449.875 884H145.823C148.579 877.279 155.56 863.136 161.439 860.331V745.49H155.009V735.847H164.195V706.917H169.706L167.648 542.997H162.136C164.28 529.555 156.257 499.34 107.021 486.015C107.021 479.294 105.551 463.398 99.6723 453.579L95.0794 223.021C62.0103 203.735 76.7077 186.202 58.3359 156.396Z" fill="#002137" stroke="#002137" stroke-width="1.07825"/>
<path d="M399.834 629.225C355.033 639.865 256.47 646.959 191.508 629.225V650H183.668V872.001H409.914L409.914 645.439H399.834V629.225Z" fill="#1C3753" stroke="#1C3753" stroke-width="1.07825"/>
<path d="M282.919 639L287.538 750.746C233.656 760.305 233.656 834.568 292.156 839.715V858.572H299.084V839.715C347.578 832.362 362.203 767.658 302.163 750.746V639H282.919Z" fill="#FFE6C0"/>
<path d="M148.92 180.458C144.558 175.311 135.834 162.664 135.834 153.253C180.479 95.9016 342.896 32.6678 443.732 153.253C442.706 157.91 439.576 168.106 435.265 171.635C316.724 52.5203 181.249 123.842 148.92 180.458Z" fill="#1C3753"/>
<path d="M100.426 156.194C103.505 165.017 112.896 183.399 125.827 186.34L148.92 180.458M148.92 180.458C144.558 175.311 135.834 162.664 135.834 153.253C180.479 95.9016 342.896 32.6678 443.732 153.253C442.706 157.91 439.576 168.106 435.265 171.635M148.92 180.458C181.249 123.842 316.724 52.5203 435.265 171.635M435.265 171.635C444.502 172.615 463.9 173.253 467.594 167.959M282.919 639L287.538 750.746C233.656 760.305 233.656 834.568 292.156 839.715V858.572H299.084V839.715C347.578 832.362 362.203 767.658 302.163 750.746V639H282.919Z" stroke="#002137" stroke-width="1.07825"/>
<path d="M290.737 169.208C382.288 169.208 456.462 240.031 456.462 327.342C456.462 414.653 382.289 485.476 290.737 485.477C199.186 485.477 125.012 414.653 125.012 327.342C125.012 240.03 199.186 169.208 290.737 169.208Z" fill="#FFF6E7" stroke="#002137" stroke-width="1.07825"/>
<path d="M289.818 246.892C335.944 246.892 373.25 282.565 373.25 326.465C373.25 370.365 335.944 406.038 289.818 406.038C243.692 406.038 206.387 370.365 206.387 326.465C206.387 282.565 243.692 246.892 289.818 246.892Z" fill="#FFF6E7" stroke="#002137" stroke-width="2.15651"/>
<path d="M233.418 274.735C251.954 296.903 276.297 316 286.151 322.777L287.631 321.297C266.541 295.953 250.338 284.492 234.899 273.255L233.418 274.735Z" fill="#002137"/>
<path d="M220.153 269.722C224.975 268.457 228.421 270.182 229.541 271.203L231.022 269.723C228.361 268.431 228.59 263.263 229.036 260.841C221.394 262.554 210.612 251.6 203.14 245.735C220.975 261.985 220.599 267.3 220.153 269.722Z" fill="#002137"/>
<path d="M233.418 274.735C251.954 296.903 276.297 316 286.151 322.777L287.631 321.297C266.541 295.953 250.338 284.492 234.899 273.255L233.418 274.735Z" stroke="#002137" stroke-width="1.07825"/>
<path d="M220.153 269.722C224.975 268.457 228.421 270.182 229.541 271.203L231.022 269.723C228.361 268.431 228.59 263.263 229.036 260.841C221.394 262.554 210.612 251.6 203.14 245.735C220.975 261.985 220.599 267.3 220.153 269.722Z" stroke="#002137" stroke-width="1.07825"/>
<path d="M287.261 331.546C284.483 329.015 284.382 324.815 287.032 322.165C289.683 319.515 294.084 319.416 296.863 321.947C299.642 324.479 299.743 328.68 297.092 331.33C294.441 333.979 290.04 334.078 287.261 331.546Z" fill="#002137" stroke="#002137" stroke-width="1.07825"/>
<path d="M290.223 328.585C289.157 327.614 289.12 326.005 290.135 324.99C291.15 323.975 292.836 323.937 293.902 324.907C294.967 325.878 295.006 327.488 293.991 328.502C292.975 329.517 291.288 329.556 290.223 328.585Z" fill="white" stroke="#002137" stroke-width="1.07825"/>
<ellipse cx="3.14715" cy="3.14034" rx="3.14715" ry="3.14034" transform="matrix(-0.739218 -0.673466 0.707215 -0.706998 232.195 276.45)" fill="#002137"/>
<path d="M354.219 325.989C332.042 321.108 308.377 323.955 299.316 325.989V328.604C324.615 334.269 339.686 331.218 354.219 328.604V325.989Z" fill="#002137"/>
<path d="M364.176 319.452C362.239 324.682 359.422 325.989 358.256 325.989V328.604C360.409 327.558 363.1 332.526 364.176 335.141C367.406 327.122 379.248 328.168 386.514 327.296C367.944 327.296 365.253 322.067 364.176 319.452Z" fill="#002137"/>
<path d="M354.219 325.989C332.042 321.108 308.377 323.955 299.316 325.989V328.604C324.615 334.269 339.686 331.218 354.219 328.604V325.989Z" stroke="#002137" stroke-width="1.07825"/>
<path d="M364.176 319.452C362.239 324.682 359.422 325.989 358.256 325.989V328.604C360.409 327.558 363.1 332.526 364.176 335.141C367.406 327.122 379.248 328.168 386.514 327.296C367.944 327.296 365.253 322.067 364.176 319.452Z" stroke="#002137" stroke-width="1.07825"/>
<ellipse cx="356.138" cy="327.296" rx="3.21631" ry="3.06947" fill="#002137"/>
<path d="M613 596L584 602.5C587.634 607.672 592.026 610.959 596.5 612.955L587 622.315C624.5 637 638.5 622.315 627 604.5C630.121 604.561 632.592 604.182 634.5 603.473C637.329 602.422 638.922 600.645 639.567 598.5C641.331 592.638 636.011 584.031 629.5 580L613 596Z" fill="#FFE6C0"/>
<path d="M643.5 608L639.567 598.5C638.922 600.645 637.329 602.422 634.5 603.473L643.5 608Z" fill="#FFE6C0"/>
<path d="M562 637C568.976 641.796 571.01 638.227 587 622.315M618 614.5C613.446 615.91 604.829 616.67 596.5 612.955M587 622.315C624.5 637 638.5 622.315 627 604.5C630.121 604.561 632.592 604.182 634.5 603.473M587 622.315L596.5 612.955M596.5 612.955C592.026 610.959 587.634 607.672 584 602.5L613 596L629.5 580C636.011 584.031 641.331 592.638 639.567 598.5M639.567 598.5L643.5 608L634.5 603.473M639.567 598.5C638.922 600.645 637.329 602.422 634.5 603.473" stroke="black" stroke-width="2"/>
<path d="M326.274 601V556.314C306.014 509.533 261.301 522.799 249.425 556.314V601H326.274Z" fill="#001320"/>
<path d="M364 601V528.385C354.918 527.919 334.658 532.853 326.274 556.314V601H364Z" fill="#1C3753"/>
<path d="M211 528.385V601H249.425V556.314C237.688 529.502 218.918 526.523 211 528.385Z" fill="#1C3753"/>
<path d="M326.274 556.314C334.658 532.853 354.918 527.919 364 528.385V601H326.274M326.274 556.314V601M326.274 556.314C306.014 509.533 261.301 522.799 249.425 556.314M326.274 601H249.425M249.425 556.314C237.688 529.502 218.918 526.523 211 528.385V601H249.425M249.425 556.314V601" stroke="black"/>
<path d="M294 561.294L321.745 584.235L352.09 559L378.101 584.235L410.181 561.294L433.59 588.824L468.271 568.941L489.08 602.588L522.027 585.765L540.234 617.882L560.176 611.765M560.176 611.765L620 637M560.176 611.765L548.904 595.706L515.957 607.941L496.016 577.353L462.202 593.412L437.926 564.353L407.58 584.235L381.569 559L352.09 584.235L321.745 559L294 588.824" stroke="#001320" stroke-width="2"/>
<circle cx="632.5" cy="596.5" r="2.5" fill="#002137"/>
<path d="M1233.03 865.795L795.876 857.795C782.874 856.554 777.784 845.771 777.06 829.795C774.21 845.129 774.811 875.995 800.018 876.795C825.224 877.595 1099.19 882.129 1233.03 884.295C1256.03 884.295 1263.75 879.295 1263.75 840.295C1262.69 858.638 1254.57 865.795 1233.03 865.795Z" fill="#002137"/>
<path d="M1236.02 840.295L812.024 833.795C810.529 841.295 798.818 844.995 800.018 833.795C798.331 801.386 796.548 756.043 795.876 712.295C790.077 750.301 775.682 799.428 777.06 829.795C777.784 845.771 782.874 856.554 795.876 857.795L1233.03 865.795C1254.57 865.795 1262.69 858.638 1263.75 840.295C1264.8 822.036 1258.86 792.694 1252.22 748.295C1249.96 782.285 1247.06 815.304 1244.52 840.295C1244.52 849.495 1236.02 844.295 1236.02 840.295Z" fill="#1C3753"/>
<path fill-rule="evenodd" clip-rule="evenodd" d="M812.024 833.795L1236.02 840.295C1243.19 758.295 1253.22 592.795 1236.02 586.795L815.524 580.295C799.016 586.795 812.02 804.795 812.024 833.795ZM839.523 686.295V646.295H938.523V686.295H839.523ZM968.023 692.795V646.295H1015.02V692.795H968.023ZM1039.52 692.795V646.295H1085.52V692.795H1039.52ZM1117.02 692.795V652.295H1213.52V692.795H1117.02Z" fill="#1C3753"/>
<path d="M812.024 833.795C812.02 804.795 799.016 586.795 815.524 580.295C818.359 574.962 812.025 570.782 805.529 574.295C800.588 576.967 797.85 597.513 796.555 626.795C795.627 647.767 795.44 673.219 795.715 699.795C795.758 703.939 795.812 708.11 795.876 712.295C796.548 756.043 798.331 801.386 800.018 833.795C798.818 844.995 810.529 841.295 812.024 833.795Z" fill="#002137"/>
<path d="M1236.02 586.795C1253.22 592.795 1243.19 758.295 1236.02 840.295C1236.02 844.295 1244.52 849.495 1244.52 840.295C1247.06 815.304 1249.96 782.285 1252.22 748.295C1253.03 736.145 1253.76 723.871 1254.36 711.795C1255.8 683.056 1256.52 655.44 1255.9 633.295C1255.17 606.929 1252.56 588.317 1247.02 584.795C1238.52 579.386 1232.36 581.462 1236.02 586.795Z" fill="#002137"/>
<path d="M796.555 626.795H790.025C789.525 622.795 782.85 610.389 777.525 617.795C775.094 621.177 773.579 627.083 772.725 634.295C770.869 649.961 772.133 671.789 773.902 687.295C775.172 698.424 776.702 706.295 777.525 706.295C777.525 712.295 787.228 716.195 790.025 699.795H795.715C795.44 673.219 795.627 647.767 796.555 626.795Z" fill="#1C3753"/>
<path d="M772.725 634.295H746.522C742.355 642.462 736.522 664.495 746.522 687.295H773.902C772.133 671.789 770.869 649.961 772.725 634.295Z" fill="#1C3753"/>
<path d="M1261.02 633.295H1255.9C1256.52 655.44 1255.8 683.056 1254.36 711.795H1261.02C1261.02 718.595 1269.32 715.903 1271.52 712.795C1273.51 709.987 1275 704.605 1276.02 697.848C1278.21 683.383 1278.24 662.615 1276.43 647.295C1275.46 639.189 1273.98 632.609 1272.02 629.295C1266.82 620.495 1262.52 628.295 1261.02 633.295Z" fill="#1C3753"/>
<path d="M1276.02 697.848H1301.52C1305.69 689.164 1311.52 666.895 1301.52 647.295H1276.43C1278.24 662.615 1278.21 683.383 1276.02 697.848Z" fill="#1C3753"/>
<path d="M812.024 833.795L1236.02 840.295M812.024 833.795C812.02 804.795 799.016 586.795 815.524 580.295M812.024 833.795C810.529 841.295 798.818 844.995 800.018 833.795C798.331 801.386 796.548 756.043 795.876 712.295M1236.02 840.295C1243.19 758.295 1253.22 592.795 1236.02 586.795M1236.02 840.295C1236.02 844.295 1244.52 849.495 1244.52 840.295C1247.06 815.304 1249.96 782.285 1252.22 748.295M1236.02 586.795L815.524 580.295M1236.02 586.795C1232.36 581.462 1238.52 579.386 1247.02 584.795C1252.56 588.317 1255.17 606.929 1255.9 633.295M815.524 580.295C818.359 574.962 812.025 570.782 805.529 574.295C800.588 576.967 797.85 597.513 796.555 626.795M795.876 712.295C790.077 750.301 775.682 799.428 777.06 829.795M795.876 712.295C795.812 708.11 795.758 703.939 795.715 699.795M1252.22 748.295C1258.86 792.694 1264.8 822.036 1263.75 840.295M1252.22 748.295C1253.03 736.145 1253.76 723.871 1254.36 711.795M777.06 829.795C777.784 845.771 782.874 856.554 795.876 857.795L1233.03 865.795C1254.57 865.795 1262.69 858.638 1263.75 840.295M777.06 829.795C774.21 845.129 774.811 875.995 800.018 876.795C825.224 877.595 1099.19 882.129 1233.03 884.295C1256.03 884.295 1263.75 879.295 1263.75 840.295M796.555 626.795H790.025C789.525 622.795 782.85 610.389 777.525 617.795C775.094 621.177 773.579 627.083 772.725 634.295M796.555 626.795C795.627 647.767 795.44 673.219 795.715 699.795M795.715 699.795H790.025C787.228 716.195 777.525 712.295 777.525 706.295C776.702 706.295 775.172 698.424 773.902 687.295M772.725 634.295H746.522C742.355 642.462 736.522 664.495 746.522 687.295H773.902M772.725 634.295C770.869 649.961 772.133 671.789 773.902 687.295M1255.9 633.295H1261.02C1262.52 628.295 1266.82 620.495 1272.02 629.295C1273.98 632.609 1275.46 639.189 1276.43 647.295M1255.9 633.295C1256.52 655.44 1255.8 683.056 1254.36 711.795M1254.36 711.795H1261.02C1261.02 718.595 1269.32 715.903 1271.52 712.795C1273.51 709.987 1275 704.605 1276.02 697.848M1276.02 697.848H1301.52C1305.69 689.164 1311.52 666.895 1301.52 647.295H1276.43M1276.02 697.848C1278.21 683.383 1278.24 662.615 1276.43 647.295M839.523 646.295V686.295H938.523V646.295H839.523ZM968.023 646.295V692.795H1015.02V646.295H968.023ZM1039.52 646.295V692.795H1085.52V646.295H1039.52ZM1117.02 652.295V692.795H1213.52V652.295H1117.02Z" stroke="#002137" stroke-width="3" stroke-linecap="round"/>
</g>
<defs>
<clipPath id="clip0_294_2036">
<rect width="1440" height="1185" fill="white"/>
</clipPath>
</defs>
</svg>
