<svg width="1440" height="928" viewBox="0 0 1440 928" fill="none" xmlns="http://www.w3.org/2000/svg">
<g clip-path="url(#clip0_337_2929)">
<rect width="1440" height="928" fill="#FFF6E7"/>
<path d="M1044.98 777.285C1330.82 447.447 1128.44 210.871 956.777 342.382C949.827 343.248 944.179 342.733 953.704 320.443C965.24 293.447 928.839 269.187 915.79 274.858C917.87 285.592 917.671 307.142 900.236 307.48C896.659 308.173 887.784 307.98 880.9 301.662C876.661 304.797 869.233 315.268 873.43 332.062C878.677 353.056 900.33 355.281 884.823 367.194C750.655 373.794 740.647 474.69 748.194 528.733L776.465 516.444L805.775 583.871L777.504 596.16C829.354 674.994 977.429 749.758 1044.98 777.285Z" fill="#F9DBB3"/>
<path d="M777.504 596.16L805.775 583.871L776.465 516.444L748.194 528.733C728.623 537.24 749.143 509.708 702.905 472.131C674.918 449.385 572.188 453.956 541.647 538.348C277.709 528.947 315.757 869.283 743.316 907.123C768.878 852.911 811.501 714.822 777.504 596.16Z" fill="#F9DBB3"/>
<path d="M777.504 596.16C829.354 674.994 977.429 749.758 1044.98 777.285C1330.82 447.447 1128.44 210.871 956.777 342.382C949.827 343.248 944.179 342.733 953.704 320.443C965.24 293.447 928.839 269.187 915.79 274.858C917.87 285.592 917.671 307.142 900.236 307.48C896.659 308.173 887.784 307.98 880.9 301.662C876.661 304.797 869.233 315.268 873.43 332.062C878.677 353.056 900.33 355.281 884.823 367.194C750.655 373.794 740.647 474.69 748.194 528.733M777.504 596.16L805.775 583.871L776.465 516.444L748.194 528.733M777.504 596.16C811.501 714.822 768.878 852.911 743.316 907.123C315.757 869.283 277.709 528.947 541.647 538.348C572.188 453.956 674.918 449.385 702.905 472.131C749.143 509.708 728.623 537.24 748.194 528.733" stroke="#FFCC92" stroke-width="5"/>
<path d="M962.08 473.515C987.443 342.048 1230.78 370.962 1027.64 701.443C722.446 577.68 828.152 358.191 962.08 473.515Z" fill="#FFDAA9" stroke="#FFCC92" stroke-width="5"/>
<path d="M576.709 614.962C435.498 520.5 304.998 764.5 706.218 831.293C830.316 504.723 583.845 427.355 576.709 614.962Z" fill="#FFDAA9" stroke="#FFCC92" stroke-width="5"/>
<path d="M903.219 295.056C914.017 290.363 926.824 295.59 931.75 306.923C936.677 318.257 931.762 331.187 920.965 335.881C910.167 340.574 897.36 335.347 892.434 324.013C887.508 312.68 892.422 299.75 903.219 295.056Z" fill="#FFF6E7" stroke="#FFCC92" stroke-width="4"/>
<path d="M905.139 144.988C897.004 138.218 842.139 154.337 815.724 163.243C829.578 159.282 864.912 253.508 880.847 301.117C914.739 319.363 918.658 291.551 916.381 275.365C916.023 234.726 913.274 151.758 905.139 144.988Z" fill="#F9DBB3"/>
<path d="M880.847 301.117C864.912 253.508 829.578 159.282 815.724 163.243C812.342 185.325 829.748 216.406 880.847 301.117Z" fill="#9E7D50"/>
<path d="M815.724 163.243C842.139 154.337 897.004 138.218 905.139 144.988C913.274 151.758 916.023 234.726 916.381 275.365C918.658 291.551 914.739 319.363 880.847 301.117M815.724 163.243C829.578 159.282 864.912 253.508 880.847 301.117M815.724 163.243C812.342 185.325 829.748 216.406 880.847 301.117" stroke="#FFCC92" stroke-width="4"/>
<path d="M833.805 224.024C838.178 222.394 848.275 220.154 853.675 224.242" stroke="#FFCC92" stroke-width="3"/>
<path d="M933.742 210.762C929.075 210.763 918.832 212.196 915.203 217.915" stroke="#FFCC92" stroke-width="3"/>
<path d="M834.359 235.464C837.296 240.759 846.811 250.641 861.379 247.805" stroke="#FFCC92" stroke-width="3"/>
<path d="M937.219 221.673C936.32 227.661 930.861 240.246 916.222 242.685" stroke="#FFCC92" stroke-width="3"/>
<path d="M838.963 231.635C832.633 225.441 818.12 213.332 810.703 214.448" stroke="#FFCC92" stroke-width="3"/>
<path d="M931.568 219.695C935.331 211.678 944.692 195.258 952.031 193.71" stroke="#FFCC92" stroke-width="3"/>
<path d="M820.917 213.533C819.805 205.635 813.224 190.863 795.805 194.957" stroke="#FFCC92" stroke-width="3"/>
<path d="M942.142 196.426C940.423 188.638 941.42 172.497 959.172 170.24" stroke="#FFCC92" stroke-width="3"/>
<path d="M811.761 222.967C806.703 222.571 795.58 218.397 790.383 204.989M790.383 204.989C790.216 204.558 790.055 204.118 789.901 203.668C784.942 189.211 788.156 198.525 790.383 204.989Z" stroke="#FFCC92" stroke-width="3"/>
<path d="M954.015 202.063C958.615 199.922 967.576 192.122 967.756 177.743M967.756 177.743C967.761 177.281 967.758 176.812 967.745 176.337C967.334 161.059 967.581 170.908 967.756 177.743Z" stroke="#FFCC92" stroke-width="3"/>
<path d="M798.793 201.728C790.977 200.684 775.295 194.483 775.095 178.033" stroke="#FFCC92" stroke-width="3"/>
<path d="M768.209 86.4894C766.873 81.9602 766.44 71.8717 775.388 67.7503" stroke="#FFCC92" stroke-width="3"/>
<path d="M958.741 177.629C965.698 173.917 978.221 162.623 972.656 147.142" stroke="#FFCC92" stroke-width="3"/>
<path d="M780.731 181.838C781.253 171.72 777.369 153.481 757.652 161.465" stroke="#FFCC92" stroke-width="3"/>
<path d="M968.707 152.677C964.679 143.381 961.939 124.935 983.203 125.52" stroke="#FFCC92" stroke-width="3"/>
<path d="M755.559 172.276C757.161 177.861 762.431 189.017 770.693 188.966" stroke="#FFCC92" stroke-width="3"/>
<path d="M988.948 134.915C989.4 140.708 988.365 153.002 980.607 155.844" stroke="#FFCC92" stroke-width="3"/>
<path d="M981.177 131.99C987.926 129.639 1000.67 120.774 997.681 104.126" stroke="#FFCC92" stroke-width="3"/>
<path d="M1007.62 88.2331C1014.26 85.8755 1026.62 77.318 1022.97 61.9487" stroke="#FFCC92" stroke-width="3"/>
<path d="M1018.18 66.6115C1017.64 57.2991 1020.75 39.4101 1037.48 42.3537" stroke="#FFCC92" stroke-width="3"/>
<path d="M1030.02 71.422C1033.43 69.4249 1040.57 62.8136 1041.84 52.3447" stroke="#FFCC92" stroke-width="3"/>
<path d="M1034.02 45.2977C1041.32 44.352 1054.91 37.9528 1050.81 19.9214" stroke="#FFCC92" stroke-width="3"/>
<path d="M1047.28 26.3048C1046.11 17.7252 1047.78 0.635067 1063.79 0.912109" stroke="#FFCC92" stroke-width="3"/>
<path d="M1057.09 30.9964C1061.62 28.5153 1070.63 21.4093 1070.47 12.8339" stroke="#FFCC92" stroke-width="3"/>
<path d="M761.932 169.087C755.355 165.992 742.199 156.86 742.199 145.098" stroke="#FFCC92" stroke-width="3"/>
<path d="M737.942 154.771C734.073 147.806 729.739 132.174 743.359 125.364" stroke="#FFCC92" stroke-width="3"/>
<path d="M764.847 76.5088C761.549 69.256 758.484 53.3267 772.607 47.6321" stroke="#FFCC92" stroke-width="3"/>
<path d="M747.227 150.902C752.257 146.387 760.459 134.186 753.03 121.495" stroke="#FFCC92" stroke-width="3"/>
<path d="M774.413 73.3975C779.789 69.3016 788.945 57.7984 782.559 44.5518" stroke="#FFCC92" stroke-width="3"/>
<path d="M747.227 128.847C746.324 120.721 747.846 102.845 761.156 96.3447" stroke="#FFCC92" stroke-width="3"/>
<path d="M776.184 51.4139C775.936 43.2422 778.888 25.546 792.677 20.1351" stroke="#FFCC92" stroke-width="3"/>
<path d="M991.653 113.987C988.712 108.568 986.312 95.094 1000.24 84.5451" stroke="#FFCC92" stroke-width="3"/>
<path d="M798.004 14.3008C801.596 7.26385 812.988 -5.8051 829.816 -1.78501" stroke="#FFCC92" stroke-width="3"/>
<path d="M757 105.169C763.333 104.341 776 98.7818 776 83.1689" stroke="#FFCC92" stroke-width="3"/>
<path d="M791 26.929C797.379 26.6121 810.451 22.0877 811.704 6.52514" stroke="#FFCC92" stroke-width="3"/>
<path d="M749.195 104.181C747.831 98.7147 748.629 86.2253 762.734 80.0002" stroke="#FFCC92" stroke-width="3"/>
<path d="M784.646 21.0163C783.726 15.4578 785.524 3.07268 800.083 -2.00005" stroke="#FFCC92" stroke-width="3"/>
<mask id="mask0_337_2929" style="mask-type:alpha" maskUnits="userSpaceOnUse" x="830" y="400" width="276" height="299">
<path d="M964.501 480.5C988.001 343 1222.5 370 1026 696.5C727.001 572 829.502 359.5 964.501 480.5Z" fill="#FFD5A6" stroke="#FFCC92" stroke-width="3"/>
</mask>
<g mask="url(#mask0_337_2929)">
<path d="M966.135 562.874C1012.4 515.715 874.567 508.817 938.216 465.487C910.452 472.666 866.497 495.815 912.785 530.974M1081.56 630.242C1117.2 591.027 1042.22 596.284 1059.16 556.056C1079.03 508.831 1044 443.829 960.033 456.829C947.184 457.527 925.076 461.136 948.225 484.817C974.964 510.709 995.021 528.138 974.629 561.827C954.236 595.517 1015.83 581.294 1035.74 637.878C1051.66 683.145 1015.53 706.259 995.473 712.158C1019.32 709.219 1090.83 654.307 1029.58 587.892C990.154 555.934 1017.29 544.631 1011.38 510.202C1008.96 495.907 993.228 466.204 949.695 461.751" stroke="#002137" stroke-width="2" stroke-miterlimit="3.99393" stroke-linecap="round" stroke-linejoin="round"/>
<path d="M957.818 624.594C999.293 605.885 1005.53 702.295 999.312 711.021" stroke="#002137" stroke-width="2" stroke-miterlimit="3.99393" stroke-linejoin="round"/>
<path d="M934.139 553.548C933.967 553.588 933.796 553.63 933.624 553.675C933.792 553.613 933.964 553.569 934.139 553.548Z" fill="#002137"/>
<path d="M922.808 542.342C929.458 545.171 937.013 544.572 941.984 549.929C937.513 548.092 934.488 548.31 933.535 548.648C933.951 550.234 934.19 553.424 931.811 553.504C929.433 553.584 928.431 550.294 928.227 548.639L924.146 547.815L925.372 547.001C923.771 546.933 922.121 545.743 921.496 545.157C922.441 545.175 923.888 545.213 924.699 545.262C923.764 544.846 922.251 543.335 921.501 542.503L922.808 542.342Z" fill="#002137"/>
<path d="M928.935 540.924C931.44 540.615 937.94 541.87 943.904 549.361M938.672 552.659C937.893 552.889 936.052 553.098 934.139 553.548M928.374 557.908C928.378 555.384 931.336 554.207 934.139 553.548M930.334 557.666C930.84 556.387 932.309 553.773 934.139 553.548M941.984 549.929C937.013 544.572 929.458 545.171 922.808 542.342L921.501 542.503C922.397 543.498 924.386 545.464 925.171 545.367C925.955 545.271 923.048 545.187 921.496 545.157C922.121 545.743 923.771 546.933 925.372 547.001L924.146 547.815L928.227 548.639C928.431 550.294 929.433 553.584 931.811 553.504C934.19 553.424 933.951 550.234 933.535 548.648C934.488 548.31 937.513 548.092 941.984 549.929Z" stroke="#002137" stroke-width="2" stroke-miterlimit="3.99393" stroke-linecap="round" stroke-linejoin="round"/>
<path d="M919.361 600.476C915.609 598.02 914.946 596.045 915.083 595.365C921.581 591.579 928.097 601.39 932.344 600.867C929.178 607.172 925.034 607.303 922.601 607.38L922.533 607.382C916.49 607.862 917.9 602.978 919.361 600.476Z" fill="#002137"/>
<path d="M916.814 581.379C915.395 580.627 911.229 580.722 911.311 580.905C911.59 581.528 913.082 582.494 916.814 581.379Z" fill="#002137"/>
<path d="M920.041 492.932C905.306 513.321 916.794 528.489 918.551 550.826C913.008 567.761 898.74 578.474 908.532 582.574C913.307 583.644 917.961 583.734 915.083 595.365M915.083 595.365C914.946 596.045 915.609 598.02 919.361 600.476M915.083 595.365C921.581 591.579 928.097 601.39 932.344 600.867M919.361 600.476C917.9 602.978 916.49 607.862 922.533 607.382M919.361 600.476C925 597.792 929.565 602.536 932.344 600.867M922.533 607.382C930.199 613.071 922.841 617.958 925.728 625.23C926.852 628.077 932.028 633.966 942.255 630.159C955.574 625.201 988.908 615.788 994.539 594.199M922.533 607.382C924.956 607.305 929.148 607.231 932.344 600.867M918.861 582.96C918.453 582.485 917.743 581.871 916.814 581.379M916.814 581.379C915.395 580.627 911.229 580.722 911.311 580.905C911.59 581.528 913.082 582.494 916.814 581.379ZM925.033 579.214C926.01 580.863 926.665 584.386 921.47 585.292" stroke="#002137" stroke-width="2" stroke-miterlimit="3.99393" stroke-linecap="round" stroke-linejoin="round"/>
<path d="M947.728 534.628C932.105 526.271 923.646 530.298 924.004 535.892L925.637 535.691C929.039 528.307 939.206 530.069 947.728 534.628Z" fill="#002137" stroke="#002137" stroke-width="2" stroke-miterlimit="3.99393" stroke-linejoin="round"/>
</g>
</g>
<defs>
<clipPath id="clip0_337_2929">
<rect width="1440" height="928" fill="white"/>
</clipPath>
</defs>
</svg>
