<svg width="1440" height="1589" viewBox="0 0 1440 1589" fill="none" xmlns="http://www.w3.org/2000/svg">
<g clip-path="url(#clip0_402_281)">
<rect width="1440" height="1589" fill="#FFF6E7"/>
<path d="M71 236.904H120.912C292.829 62.2502 509.113 147.989 584.535 229.494H631.119C612.263 252.781 612.264 279.244 586.753 281.361V587.27C581.577 593.973 571.003 611.192 570.116 626.434C551.26 634.197 513.328 656.496 512.44 683.594H509.113L513.817 899.513H517.144V931.268H532.673V942.912H521.581L523.799 1080.52C530.084 1090.04 542.877 1110.37 543.764 1115.45H176.636C179.964 1107.33 188.393 1090.26 195.492 1086.87V948.204H187.728V936.561H198.819V901.63H205.474L202.988 703.705H196.334C198.922 687.475 189.235 650.992 129.785 634.902C129.785 626.787 128.01 607.593 120.912 595.738L115.366 317.35C75.4366 294.063 93.1829 272.893 71 236.904Z" fill="#002137" stroke="#002137" stroke-width="1.30194"/>
<path d="M483.341 807.821C429.246 820.669 310.237 829.235 231.799 807.821V832.906H222.332V1100.96H495.513V827.399H483.341V807.821Z" fill="#1C3753" stroke="#1C3753" stroke-width="1.30194"/>
<path d="M342.176 819.624L347.752 954.552C282.693 966.094 282.693 1055.76 353.329 1061.98V1084.75H361.694V1061.98C420.248 1053.1 437.907 974.972 365.412 954.552V819.624H342.176Z" fill="#F9DBB3"/>
<path d="M180.378 265.958C175.111 259.743 164.578 244.473 164.578 233.109C218.485 163.86 414.594 87.5088 536.349 233.109C535.11 238.732 531.33 251.043 526.126 255.305C382.994 111.48 219.414 197.597 180.378 265.958Z" fill="#1C3753"/>
<path d="M121.824 236.66C125.542 247.314 136.881 269.509 152.495 273.061L180.378 265.958M180.378 265.958C175.111 259.743 164.578 244.473 164.578 233.109C218.485 163.86 414.594 87.5088 536.349 233.109C535.11 238.732 531.33 251.043 526.126 255.305M180.378 265.958C219.414 197.597 382.994 111.48 526.126 255.305M526.126 255.305C537.279 256.488 560.7 257.258 565.162 250.865M342.176 819.624L347.752 954.552C282.693 966.094 282.693 1055.76 353.329 1061.98V1084.75H361.694V1061.98C420.248 1053.1 437.907 974.972 365.412 954.552V819.624H342.176Z" stroke="#002137" stroke-width="1.30194"/>
<path d="M351.615 252.374C462.159 252.374 551.72 337.888 551.72 443.312C551.72 548.737 462.159 634.252 351.615 634.252C241.072 634.252 151.511 548.737 151.511 443.312C151.511 337.888 241.072 252.374 351.615 252.374Z" fill="#FFF6E7" stroke="#002137" stroke-width="1.30194"/>
<path d="M350.502 346.173C406.197 346.173 451.242 389.247 451.242 442.254C451.242 495.261 406.197 538.335 350.502 538.335C294.807 538.335 249.763 495.261 249.763 442.254C249.763 389.247 294.807 346.173 350.502 346.173Z" fill="#FFF6E7" stroke="#002137" stroke-width="2.60387"/>
<path d="M282.403 379.792C304.784 406.559 334.176 429.617 346.075 437.8L347.863 436.013C322.397 405.411 302.833 391.573 284.191 378.005L282.403 379.792Z" fill="#002137"/>
<path d="M266.385 373.739C272.208 372.212 276.369 374.294 277.721 375.527L279.509 373.739C276.297 372.18 276.573 365.94 277.112 363.016C267.884 365.084 254.866 351.858 245.843 344.776C267.379 364.396 266.925 370.814 266.385 373.739Z" fill="#002137"/>
<path d="M282.403 379.792C304.784 406.559 334.176 429.617 346.075 437.8L347.863 436.013C322.397 405.411 302.833 391.573 284.191 378.005L282.403 379.792Z" stroke="#002137" stroke-width="1.30194"/>
<path d="M266.385 373.739C272.208 372.212 276.369 374.294 277.721 375.527L279.509 373.739C276.297 372.18 276.573 365.94 277.112 363.016C267.884 365.084 254.866 351.858 245.843 344.776C267.379 364.396 266.925 370.814 266.385 373.739Z" stroke="#002137" stroke-width="1.30194"/>
<path d="M347.418 448.388C344.063 445.331 343.941 440.26 347.142 437.061C350.342 433.862 355.656 433.742 359.011 436.799C362.366 439.855 362.488 444.927 359.287 448.126C356.087 451.326 350.773 451.445 347.418 448.388Z" fill="#002137" stroke="#002137" stroke-width="1.30194"/>
<path d="M350.992 444.814C349.705 443.642 349.659 441.698 350.885 440.472C352.11 439.247 354.147 439.201 355.434 440.373C356.72 441.545 356.766 443.488 355.54 444.714C354.314 445.939 352.278 445.986 350.992 444.814Z" fill="white" stroke="#002137" stroke-width="1.30194"/>
<ellipse cx="3.80002" cy="3.7918" rx="3.80002" ry="3.7918" transform="matrix(-0.739218 -0.673466 0.707215 -0.706998 280.93 381.864)" fill="#002137"/>
<path d="M428.26 441.679C401.484 435.786 372.909 439.223 361.969 441.679V444.836C392.515 451.677 410.713 447.993 428.26 444.836V441.679Z" fill="#002137"/>
<path d="M440.284 433.786C437.944 440.1 434.543 441.679 433.135 441.679V444.836C435.735 443.573 438.984 449.572 440.284 452.729C444.184 443.047 458.482 444.31 467.256 443.258C444.833 443.258 441.584 436.943 440.284 433.786Z" fill="#002137"/>
<path d="M428.26 441.679C401.484 435.786 372.909 439.223 361.969 441.679V444.836C392.515 451.677 410.713 447.993 428.26 444.836V441.679Z" stroke="#002137" stroke-width="1.30194"/>
<path d="M440.284 433.786C437.944 440.1 434.543 441.679 433.135 441.679V444.836C435.735 443.573 438.984 449.572 440.284 452.729C444.184 443.047 458.482 444.31 467.256 443.258C444.833 443.258 441.584 436.943 440.284 433.786Z" stroke="#002137" stroke-width="1.30194"/>
<ellipse cx="430.579" cy="443.257" rx="3.88353" ry="3.70623" fill="#002137"/>
<path d="M715.974 678.363L684.075 694.799C689.898 699.734 696.031 702.235 701.867 703.203L693.622 717.034C741.912 722.757 753.79 701.331 734.923 684.025C738.588 683.144 741.359 681.948 743.372 680.538C746.357 678.447 747.676 675.885 747.776 673.183C748.048 665.796 739.209 657.362 730.373 654.639L715.974 678.363Z" fill="#F9DBB3"/>
<path d="M755.267 683.083L747.776 673.183C747.676 675.885 746.357 678.447 743.372 680.538L755.267 683.083Z" fill="#F9DBB3"/>
<path d="M668.892 741.815C678.505 745.291 679.792 740.501 693.622 717.034M727.457 698.452C722.566 701.487 712.731 705.003 701.867 703.203M693.622 717.034C741.912 722.757 753.79 701.331 734.923 684.025C738.588 683.144 741.359 681.948 743.372 680.538M693.622 717.034L701.867 703.203M701.867 703.203C696.031 702.235 689.898 699.734 684.075 694.799L715.974 678.363L730.373 654.639C739.209 657.362 748.048 665.796 747.776 673.183M747.776 673.183L755.267 683.083L743.372 680.538M747.776 673.183C747.676 675.885 746.357 678.447 743.372 680.538" stroke="#001320" stroke-width="2.4149"/>
<path d="M394.519 773.741V719.784C370.056 663.298 316.068 679.317 301.728 719.784V773.741H394.519Z" fill="#001320"/>
<path d="M440.072 773.741V686.061C429.105 685.499 404.642 691.457 394.519 719.784V773.741H440.072Z" fill="#1C3753"/>
<path d="M255.332 686.061V773.741H301.728V719.784C287.556 687.41 264.892 683.813 255.332 686.061Z" fill="#1C3753"/>
<path d="M394.519 719.784C404.642 691.457 429.105 685.499 440.072 686.061V773.741H394.519M394.519 719.784V773.741M394.519 719.784C370.056 663.298 316.068 679.317 301.728 719.784M394.519 773.741H301.728M301.728 719.784C287.556 687.41 264.892 683.813 255.332 686.061V773.741H301.728M301.728 719.784V773.741" stroke="#001320" stroke-width="1.20745"/>
<path d="M332.7 735.083L372.109 753.426L399.868 714.69L437.951 736.242L468.435 699.658L504.179 724.683L538.635 690.879L573.205 723.845L606.568 694.143L637.633 726.115L659.066 712.887M659.066 712.887L736.654 724.129M659.066 712.887L641.001 697.562L606.239 721.903L573.614 692.247L539.006 721.319L501.782 694.772L472.392 727.253L434.308 705.702L407.563 744.173L364.415 723.943L341.094 767.246" stroke="#001320" stroke-width="2.4149"/>
<circle cx="738.906" cy="673" r="3.01862" transform="rotate(-14.6273 738.906 673)" fill="#002137"/>
<path d="M1269.03 833.795L831.876 825.795C818.874 824.554 813.784 813.771 813.06 797.795C810.21 813.129 810.811 843.995 836.018 844.795C861.224 845.595 1135.19 850.129 1269.03 852.295C1292.03 852.295 1299.75 847.295 1299.75 808.295C1298.69 826.638 1290.57 833.795 1269.03 833.795Z" fill="#002137"/>
<path d="M1272.02 808.295L848.024 801.795C846.529 809.295 834.818 812.995 836.018 801.795C834.331 769.386 832.548 724.043 831.876 680.295C826.077 718.301 811.682 767.428 813.06 797.795C813.784 813.771 818.874 824.554 831.876 825.795L1269.03 833.795C1290.57 833.795 1298.69 826.638 1299.75 808.295C1300.8 790.036 1294.86 760.694 1288.22 716.295C1285.96 750.285 1283.06 783.304 1280.52 808.295C1280.52 817.495 1272.02 812.295 1272.02 808.295Z" fill="#1C3753"/>
<path fill-rule="evenodd" clip-rule="evenodd" d="M848.024 801.795L1272.02 808.295C1279.19 726.295 1289.22 560.795 1272.02 554.795L851.524 548.295C835.016 554.795 848.02 772.795 848.024 801.795ZM875.523 654.295V614.295H974.523V654.295H875.523ZM1004.02 660.795V614.295H1051.02V660.795H1004.02ZM1075.52 660.795V614.295H1121.52V660.795H1075.52ZM1153.02 660.795V620.295H1249.52V660.795H1153.02Z" fill="#1C3753"/>
<path d="M848.024 801.795C848.02 772.795 835.016 554.795 851.524 548.295C854.359 542.962 848.025 538.782 841.529 542.295C836.588 544.967 833.85 565.513 832.555 594.795C831.627 615.767 831.44 641.219 831.715 667.795C831.758 671.939 831.812 676.11 831.876 680.295C832.548 724.043 834.331 769.386 836.018 801.795C834.818 812.995 846.529 809.295 848.024 801.795Z" fill="#002137"/>
<path d="M1272.02 554.795C1289.22 560.795 1279.19 726.295 1272.02 808.295C1272.02 812.295 1280.52 817.495 1280.52 808.295C1283.06 783.304 1285.96 750.285 1288.22 716.295C1289.03 704.145 1289.76 691.871 1290.36 679.795C1291.8 651.056 1292.52 623.44 1291.9 601.295C1291.17 574.929 1288.56 556.317 1283.02 552.795C1274.52 547.386 1268.36 549.462 1272.02 554.795Z" fill="#002137"/>
<path d="M832.555 594.795H826.025C825.525 590.795 818.85 578.389 813.525 585.795C811.094 589.177 809.579 595.083 808.725 602.295C806.869 617.961 808.133 639.789 809.902 655.295C811.172 666.424 812.702 674.295 813.525 674.295C813.525 680.295 823.228 684.195 826.025 667.795H831.715C831.44 641.219 831.627 615.767 832.555 594.795Z" fill="#1C3753"/>
<path d="M808.725 602.295H782.522C778.355 610.462 772.522 632.495 782.522 655.295H809.902C808.133 639.789 806.869 617.961 808.725 602.295Z" fill="#1C3753"/>
<path d="M1297.02 601.295H1291.9C1292.52 623.44 1291.8 651.056 1290.36 679.795H1297.02C1297.02 686.595 1305.32 683.903 1307.52 680.795C1309.51 677.987 1311 672.605 1312.02 665.848C1314.21 651.383 1314.24 630.615 1312.43 615.295C1311.46 607.189 1309.98 600.609 1308.02 597.295C1302.82 588.495 1298.52 596.295 1297.02 601.295Z" fill="#1C3753"/>
<path d="M1312.02 665.848H1337.52C1341.69 657.164 1347.52 634.895 1337.52 615.295H1312.43C1314.24 630.615 1314.21 651.383 1312.02 665.848Z" fill="#1C3753"/>
<path d="M848.024 801.795L1272.02 808.295M848.024 801.795C848.02 772.795 835.016 554.795 851.524 548.295M848.024 801.795C846.529 809.295 834.818 812.995 836.018 801.795C834.331 769.386 832.548 724.043 831.876 680.295M1272.02 808.295C1279.19 726.295 1289.22 560.795 1272.02 554.795M1272.02 808.295C1272.02 812.295 1280.52 817.495 1280.52 808.295C1283.06 783.304 1285.96 750.285 1288.22 716.295M1272.02 554.795L851.524 548.295M1272.02 554.795C1268.36 549.462 1274.52 547.386 1283.02 552.795C1288.56 556.317 1291.17 574.929 1291.9 601.295M851.524 548.295C854.359 542.962 848.025 538.782 841.529 542.295C836.588 544.967 833.85 565.513 832.555 594.795M831.876 680.295C826.077 718.301 811.682 767.428 813.06 797.795M831.876 680.295C831.812 676.11 831.758 671.939 831.715 667.795M1288.22 716.295C1294.86 760.694 1300.8 790.036 1299.75 808.295M1288.22 716.295C1289.03 704.145 1289.76 691.871 1290.36 679.795M813.06 797.795C813.784 813.771 818.874 824.554 831.876 825.795L1269.03 833.795C1290.57 833.795 1298.69 826.638 1299.75 808.295M813.06 797.795C810.21 813.129 810.811 843.995 836.018 844.795C861.224 845.595 1135.19 850.129 1269.03 852.295C1292.03 852.295 1299.75 847.295 1299.75 808.295M832.555 594.795H826.025C825.525 590.795 818.85 578.389 813.525 585.795C811.094 589.177 809.579 595.083 808.725 602.295M832.555 594.795C831.627 615.767 831.44 641.219 831.715 667.795M831.715 667.795H826.025C823.228 684.195 813.525 680.295 813.525 674.295C812.702 674.295 811.172 666.424 809.902 655.295M808.725 602.295H782.522C778.355 610.462 772.522 632.495 782.522 655.295H809.902M808.725 602.295C806.869 617.961 808.133 639.789 809.902 655.295M1291.9 601.295H1297.02C1298.52 596.295 1302.82 588.495 1308.02 597.295C1309.98 600.609 1311.46 607.189 1312.43 615.295M1291.9 601.295C1292.52 623.44 1291.8 651.056 1290.36 679.795M1290.36 679.795H1297.02C1297.02 686.595 1305.32 683.903 1307.52 680.795C1309.51 677.987 1311 672.605 1312.02 665.848M1312.02 665.848H1337.52C1341.69 657.164 1347.52 634.895 1337.52 615.295H1312.43M1312.02 665.848C1314.21 651.383 1314.24 630.615 1312.43 615.295M875.523 614.295V654.295H974.523V614.295H875.523ZM1004.02 614.295V660.795H1051.02V614.295H1004.02ZM1075.52 614.295V660.795H1121.52V614.295H1075.52ZM1153.02 620.295V660.795H1249.52V620.295H1153.02Z" stroke="#002137" stroke-width="3" stroke-linecap="round"/>
<path d="M813 1590.47C815.16 1584.82 824.098 1572.61 842.567 1568.99" stroke="#FFCC92" stroke-width="3"/>
<path d="M834.875 1577.28C844.056 1578.28 863.632 1576.22 868.493 1559.94" stroke="#FFCC92" stroke-width="3"/>
<path d="M1331.86 1345.16C1340.86 1343.21 1358.53 1335.1 1357.17 1318.25" stroke="#FFCC92" stroke-width="3"/>
<path d="M832.844 1566.35C834.059 1558.69 842.889 1543.89 868.487 1546" stroke="#FFCC92" stroke-width="3"/>
<path d="M1325.97 1335.52C1324.32 1327.92 1327.24 1311.22 1352.09 1305.13" stroke="#FFCC92" stroke-width="3"/>
<path d="M860.793 1556.17C866.328 1549.39 881.207 1537.86 896.436 1546" stroke="#FFCC92" stroke-width="3"/>
<path d="M1348.56 1317.13C1351.29 1309 1361.09 1293.46 1378.38 1296.31" stroke="#FFCC92" stroke-width="3"/>
<path d="M1059.93 1597.7C1063.2 1589.74 1074 1574.79 1091.08 1578.63" stroke="#FFCC92" stroke-width="3"/>
<path d="M888.336 1548.64C894.681 1549.64 908.75 1548.86 914.258 1537.71" stroke="#FFCC92" stroke-width="3"/>
<path d="M1371.72 1301.35C1378.05 1300.29 1391 1295.12 1392.12 1282.89" stroke="#FFCC92" stroke-width="3"/>
<path d="M1084.1 1583.28C1090.49 1582.58 1103.76 1578.16 1105.68 1566.02" stroke="#FFCC92" stroke-width="3"/>
<path d="M890.359 1538.46C892.115 1532.68 900.161 1521.65 918.307 1523.76" stroke="#FFCC92" stroke-width="3"/>
<path d="M1369.92 1291.14C1369.46 1285.15 1373.01 1272.23 1390.85 1268.49" stroke="#FFCC92" stroke-width="3"/>
<path d="M1082.97 1572.98C1082.91 1566.98 1087.31 1554.29 1105.37 1551.58" stroke="#FFCC92" stroke-width="3"/>
<path d="M909.398 1533.19C912.909 1527.53 924.142 1515.32 940.991 1511.7" stroke="#FFCC92" stroke-width="3"/>
<path d="M1385.91 1280.17C1387.15 1273.74 1393.27 1258.71 1407.8 1249.99" stroke="#FFCC92" stroke-width="3"/>
<path d="M1099.66 1562.95C1101.32 1556.6 1108.42 1541.95 1123.5 1534.08" stroke="#FFCC92" stroke-width="3"/>
<path d="M934.105 1521.13C942.881 1524.14 962.782 1525.2 972.179 1505.3" stroke="#FFCC92" stroke-width="3"/>
<path d="M1404.75 1261.03C1414.11 1261.1 1433.21 1255.81 1434.8 1234.13" stroke="#FFCC92" stroke-width="3"/>
<path d="M1119.73 1544.92C1129.06 1545.53 1148.48 1541.35 1151.51 1519.79" stroke="#FFCC92" stroke-width="3"/>
<path d="M929.246 1507.93C934.782 1500.65 950.065 1488.26 966.914 1497.01" stroke="#FFCC92" stroke-width="3"/>
<path d="M1395.37 1250.15C1397.93 1241.55 1407.79 1225.08 1426.83 1227.99" stroke="#FFCC92" stroke-width="3"/>
<path d="M1111.09 1533.53C1114.21 1525.09 1125.14 1509.21 1143.95 1513.21" stroke="#FFCC92" stroke-width="3"/>
<path d="M962.863 1503.41C970.424 1497.13 988.785 1486.45 1001.75 1493.99" stroke="#FFCC92" stroke-width="3"/>
<path d="M1425.35 1235.29C1430.18 1227 1443.56 1211.16 1458.5 1214.16" stroke="#FFCC92" stroke-width="3"/>
<path d="M1142 1520.42C1147.36 1512.41 1161.77 1497.37 1176.48 1501.22" stroke="#FFCC92" stroke-width="3"/>
<path d="M992.836 1500.77C998.506 1505.67 1013.82 1511.02 1029.69 1493.24" stroke="#FFCC92" stroke-width="3"/>
<path d="M1169.97 1510.06C1176.89 1513.28 1193.2 1514.42 1203.07 1493.21" stroke="#FFCC92" stroke-width="3"/>
<path d="M995.672 1486.83C1001.07 1483.06 1014.06 1476.65 1022.81 1481.18" stroke="#FFCC92" stroke-width="3"/>
<path d="M1168.49 1495.94C1172.54 1490.91 1183.07 1481.37 1192.83 1483.43" stroke="#FFCC92" stroke-width="3"/>
<path d="M1022.8 1489.47C1026.86 1482.68 1039.09 1470.4 1055.61 1475.52" stroke="#FFCC92" stroke-width="3"/>
<path d="M1195.33 1491.39C1197.17 1483.82 1205.21 1468.83 1222.62 1469.44" stroke="#FFCC92" stroke-width="3"/>
<path d="M1044.68 1478.54C1049 1482.56 1062.42 1488.19 1081.54 1478.54" stroke="#FFCC92" stroke-width="3"/>
<path d="M1213.03 1475.19C1218.39 1477.92 1232.97 1479.82 1248.41 1465.57" stroke="#FFCC92" stroke-width="3"/>
<path d="M1046.7 1467.23C1053.99 1461.96 1071.17 1454.57 1081.54 1467.23" stroke="#FFCC92" stroke-width="3"/>
<path d="M1211.56 1463.81C1216.97 1456.84 1231.23 1445.27 1245 1454.71" stroke="#FFCC92" stroke-width="3"/>
<path d="M1073.43 1477.41C1078.16 1471.75 1091.74 1461.05 1108.27 1463.46" stroke="#FFCC92" stroke-width="3"/>
<path d="M1240.29 1466.6C1243.12 1459.94 1252.93 1446.12 1269.52 1444.12" stroke="#FFCC92" stroke-width="3"/>
<path d="M1102.2 1469.12C1112.05 1472.13 1133.79 1474.32 1141.89 1458.94" stroke="#FFCC92" stroke-width="3"/>
<path d="M1265.4 1451.13C1275.76 1451.45 1297.29 1447.88 1300.43 1431.01" stroke="#FFCC92" stroke-width="3"/>
<path d="M1099.36 1457.06C1105.97 1449.02 1123.18 1435.35 1139.05 1445" stroke="#FFCC92" stroke-width="3"/>
<path d="M1259.04 1440.3C1262.96 1430.85 1275.35 1413.24 1293.5 1418.36" stroke="#FFCC92" stroke-width="3"/>
<path d="M1134.19 1458.19C1139.73 1452.03 1154.2 1440.63 1167.81 1444.24" stroke="#FFCC92" stroke-width="3"/>
<path d="M1292.81 1432.29C1296.27 1424.94 1306.72 1410.21 1320.88 1410.13" stroke="#FFCC92" stroke-width="3"/>
<path d="M1160.11 1449.9C1166.05 1454.92 1181.5 1461.96 1195.76 1449.9" stroke="#FFCC92" stroke-width="3"/>
<path d="M1315.2 1417.57C1322.41 1420.84 1339.36 1423.56 1349.41 1408.26" stroke="#FFCC92" stroke-width="3"/>
<path d="M1163.76 1437.84C1173.21 1430.17 1194.46 1419.44 1203.86 1437.84" stroke="#FFCC92" stroke-width="3"/>
<path d="M1315.06 1405.04C1321.82 1395.22 1338.98 1379.37 1353.55 1394.57" stroke="#FFCC92" stroke-width="3"/>
<path d="M1190.89 1446.88C1198.32 1442.11 1216.01 1433.99 1227.35 1439.72" stroke="#FFCC92" stroke-width="3"/>
<path d="M1343.83 1406.64C1349.52 1400.12 1364.05 1387.71 1376.66 1390.25" stroke="#FFCC92" stroke-width="3"/>
<path d="M1219.65 1441.23C1226.13 1446.88 1241.93 1452.99 1253.27 1432.18" stroke="#FFCC92" stroke-width="3"/>
<path d="M1369.73 1393.71C1377.66 1397.44 1394.66 1399.18 1399.27 1376.25" stroke="#FFCC92" stroke-width="3"/>
<path d="M1224.51 1431.05C1228.43 1427.28 1239.25 1419.97 1251.24 1420.88" stroke="#FFCC92" stroke-width="3"/>
<path d="M1371.33 1382.67C1373.95 1378.03 1382.14 1368.19 1393.92 1365.93" stroke="#FFCC92" stroke-width="3"/>
<path d="M1387.33 1375.33C1394.62 1371.72 1407.73 1360.72 1401.9 1345.64" stroke="#FFCC92" stroke-width="3"/>
<path d="M1410.01 1332.37C1417.3 1328.76 1430.41 1317.76 1424.58 1302.68" stroke="#FFCC92" stroke-width="3"/>
<path d="M1397.77 1351.03C1393.55 1341.98 1390.69 1324.01 1412.95 1324.58" stroke="#FFCC92" stroke-width="3"/>
<path d="M1420.45 1308.07C1416.23 1299.01 1413.36 1281.05 1435.62 1281.62" stroke="#FFCC92" stroke-width="3"/>
<path d="M1418.96 1333.73C1419.43 1339.37 1418.35 1351.35 1410.23 1354.12" stroke="#FFCC92" stroke-width="3"/>
<path d="M1441.64 1290.77C1442.11 1296.41 1441.03 1308.38 1432.91 1311.15" stroke="#FFCC92" stroke-width="3"/>
<path d="M1243.8 1433.11C1250.3 1426.96 1263.02 1412.86 1261.88 1405.63" stroke="#FFCC92" stroke-width="3"/>
<path d="M1262.8 1415.59C1271.07 1414.53 1286.55 1408.16 1282.32 1391.18" stroke="#FFCC92" stroke-width="3"/>
<path d="M1252.95 1406.64C1253.38 1401.72 1257.79 1390.9 1271.84 1385.87M1271.84 1385.87C1272.29 1385.71 1272.75 1385.56 1273.22 1385.41C1288.37 1380.62 1278.61 1383.72 1271.84 1385.87Z" stroke="#FFCC92" stroke-width="3"/>
<path d="M1275.23 1394.07C1276.35 1386.46 1282.88 1371.21 1300.1 1371.06" stroke="#FFCC92" stroke-width="3"/>
<path d="M1296.1 1376.54C1306.69 1377.07 1325.8 1373.34 1317.5 1354.12" stroke="#FFCC92" stroke-width="3"/>
<path d="M1306.19 1352.04C1300.34 1353.59 1288.64 1358.69 1288.67 1366.74" stroke="#FFCC92" stroke-width="3"/>
<path d="M1309.51 1358.26C1312.77 1351.86 1322.37 1339.08 1334.68 1339.11" stroke="#FFCC92" stroke-width="3"/>
<path d="M687.476 1040.38C724.992 1040.94 713.373 1006.08 704.274 966.889C781.267 944.491 877.156 934.692 975.845 966.888C977.528 967.438 970.479 989.986 968.846 1001.18C964.646 1036.88 977.945 1040.38 991.943 1040.38H1079.43C1106.03 1038.98 1102.21 1015.18 1100.43 1002.58C1092.59 947.151 1085.73 951.491 1064.73 951.491C917.051 814.305 655.281 888.497 615.385 951.491C588.088 947.991 583.889 970.85 581.788 985.087C575.488 1027.78 578.987 1040.38 601.386 1040.38H687.476Z" fill="#002137"/>
<path d="M698.678 1044.58H718.276L718.977 1004.68C717.297 991.246 729.942 987.419 736.475 987.186H763.772V962.689C763.212 958.209 766.338 957.09 767.971 957.09H791.769C795.688 957.649 796.668 961.056 796.668 962.689V987.186H884.158V962.689C884.158 958.209 888.358 957.09 890.458 957.09H912.155C916.075 957.649 917.055 961.522 917.055 963.389V987.186L945.751 987.886C958.63 988.446 961.383 998.852 961.15 1003.98V1043.18H986.347C997.546 1043.18 1002.21 1055.78 1003.15 1062.08C1012.24 1104.77 1030.44 1195.34 1030.44 1216.06C1030.44 1236.78 1016.91 1241.96 1010.14 1241.96H969.549V1250.36H935.953V1241.96H743.474V1250.36H709.878V1241.96H678.381C652.063 1241.96 649.217 1217.69 651.084 1205.56L676.281 1066.98C679.081 1043.88 688.179 1044.58 698.678 1044.58Z" fill="#1C3753" stroke="#002137" stroke-width="3" stroke-miterlimit="3.99393"/>
<path d="M1127.03 994.185C1127.03 1003.28 1115.83 1005.38 1115.13 994.185L1114.43 975.987C1114.43 968.988 1127.03 968.988 1127.03 975.987V994.185Z" fill="#002137"/>
<path d="M1113.43 994.998C1114.72 1004 1103.94 1007.67 1101.65 996.687L1098.38 978.773C1097.38 971.844 1109.86 970.056 1110.85 976.984L1113.43 994.998Z" fill="#002137"/>
<path d="M1142.92 997.451C1142.29 1006.53 1130.98 1007.85 1131.05 996.627L1131.62 978.424C1132.1 971.442 1144.67 972.315 1144.19 979.297L1142.92 997.451Z" fill="#002137"/>
<path d="M1155.81 1004.92C1154.78 1013.96 1143.41 1014.77 1143.99 1003.56L1145.37 985.402C1146.17 978.448 1158.68 979.884 1157.89 986.838L1155.81 1004.92Z" fill="#002137"/>
<path d="M1162.69 1022.18C1158.72 1030.37 1147.73 1027.38 1151.98 1016.99L1159.29 1000.31C1162.34 994.01 1173.68 999.503 1170.62 1005.8L1162.69 1022.18Z" fill="#002137"/>
<path d="M1166.36 1038.91C1159.65 1045.05 1150.54 1038.21 1158.33 1030.13L1171.28 1017.33C1176.44 1012.6 1184.95 1021.9 1179.78 1026.62L1166.36 1038.91Z" fill="#002137"/>
<path d="M1165.03 1057.21C1157.09 1061.64 1149.8 1052.89 1159.23 1046.82L1174.78 1037.34C1180.9 1033.93 1187.03 1044.93 1180.92 1048.34L1165.03 1057.21Z" fill="#002137"/>
<path d="M1161.89 1070.77C1152.92 1072.32 1148.95 1061.64 1159.87 1059.05L1177.68 1055.27C1184.58 1054.08 1186.72 1066.5 1179.82 1067.69L1161.89 1070.77Z" fill="#002137"/>
<path d="M1157.06 1086.71C1147.96 1086.55 1146.06 1075.31 1157.27 1074.82L1175.48 1074.45C1182.48 1074.58 1182.25 1087.18 1175.25 1087.05L1157.06 1086.71Z" fill="#002137"/>
<path d="M1144.18 1097.96C1135.42 1095.52 1136.4 1084.17 1147.37 1086.5L1165.09 1090.7C1171.83 1092.58 1168.46 1104.72 1161.71 1102.84L1144.18 1097.96Z" fill="#002137"/>
<path d="M1136.75 1111.01C1128.49 1107.19 1131.29 1096.15 1141.75 1100.22L1158.56 1107.23C1164.91 1110.17 1159.61 1121.6 1153.26 1118.66L1136.75 1111.01Z" fill="#002137"/>
<path d="M1123.34 1119.43C1116.06 1113.98 1121.09 1103.76 1130.47 1109.91L1145.46 1120.25C1151.06 1124.45 1143.51 1134.53 1137.91 1130.34L1123.34 1119.43Z" fill="#002137"/>
<path d="M1109.3 1128.32C1103.74 1121.12 1111.31 1112.61 1118.71 1121.04L1130.4 1135C1134.68 1140.54 1124.72 1148.25 1120.44 1142.71L1109.3 1128.32Z" fill="#002137"/>
<path d="M1095.14 1135.07C1091.44 1126.76 1100.81 1120.28 1106.01 1130.23L1114.06 1146.56C1116.92 1152.95 1105.41 1158.08 1102.56 1151.69L1095.14 1135.07Z" fill="#002137"/>
<path d="M1082.14 1141.57C1078.92 1133.06 1088.65 1127.13 1093.27 1137.36L1100.36 1154.13C1102.84 1160.67 1091.06 1165.13 1088.58 1158.59L1082.14 1141.57Z" fill="#002137"/>
<path d="M1068.78 1148.97C1066.46 1140.17 1076.75 1135.28 1080.29 1145.93L1085.61 1163.34C1087.4 1170.11 1075.22 1173.33 1073.43 1166.56L1068.78 1148.97Z" fill="#002137"/>
<path d="M1054.7 1151.65C1052.48 1142.82 1062.83 1138.05 1066.24 1148.74L1071.36 1166.22C1073.07 1173.01 1060.85 1176.08 1059.15 1169.29L1054.7 1151.65Z" fill="#002137"/>
<path d="M1039.3 1154.44C1037.08 1145.62 1047.43 1140.85 1050.84 1151.54L1055.96 1169.02C1057.67 1175.8 1045.45 1178.88 1043.74 1172.09L1039.3 1154.44Z" fill="#002137"/>
<path d="M1022.97 1150.28C1021.86 1141.25 1032.72 1137.8 1034.78 1148.83L1037.7 1166.8C1038.56 1173.75 1026.05 1175.29 1025.2 1168.35L1022.97 1150.28Z" fill="#002137"/>
<circle cx="839.359" cy="1112.47" r="97.2892" fill="#FFF6E7"/>
<circle cx="840.06" cy="1111.77" r="90.9899" fill="#002137"/>
<circle cx="840.057" cy="1111.77" r="37.7958" fill="#FFF6E7"/>
<path d="M873.646 1147.3C872.558 1144.11 875.654 1141.09 878.814 1142.25L920.652 1157.65C923.411 1158.67 924.168 1162.22 922.064 1164.27L894.63 1191.06C892.526 1193.11 889 1192.27 888.05 1189.49L873.646 1147.3Z" fill="#FFF6E7"/>
<circle cx="840.057" cy="1178.96" r="13.9984" fill="#FFF6E7"/>
<circle cx="806.467" cy="1170.57" r="13.9984" fill="#FFF6E7"/>
<circle cx="781.264" cy="1145.37" r="13.9984" fill="#FFF6E7"/>
<circle cx="772.866" cy="1111.77" r="13.9984" fill="#FFF6E7"/>
<circle cx="781.264" cy="1078.18" r="13.9984" fill="#FFF6E7"/>
<circle cx="806.467" cy="1052.98" r="13.9984" fill="#FFF6E7"/>
<circle cx="840.057" cy="1044.58" r="13.9984" fill="#FFF6E7"/>
<circle cx="873.659" cy="1052.98" r="13.9984" fill="#FFF6E7"/>
<circle cx="898.85" cy="1078.18" r="13.9984" fill="#FFF6E7"/>
<circle cx="906.588" cy="1112.14" r="13.9984" fill="#FFF6E7"/>
</g>
<defs>
<clipPath id="clip0_402_281">
<rect width="1440" height="1589" fill="white"/>
</clipPath>
</defs>
</svg>
