<svg width="1440" height="346" viewBox="0 0 1440 346" fill="none" xmlns="http://www.w3.org/2000/svg">
<g clip-path="url(#clip0_337_2905)">
<rect width="1440" height="346" fill="#FFF6E7"/>
<path d="M39.2371 192.696C33.7777 191.503 28.1608 193.337 23.4836 197.337C18.8061 201.339 15.0943 207.49 13.4857 214.851C11.8772 222.211 12.6845 229.351 15.2665 234.938C17.8484 240.526 22.1882 244.536 27.6476 245.729C33.1071 246.922 38.724 245.088 43.4013 241.087C48.0789 237.086 51.7907 230.934 53.3992 223.573C55.0077 216.213 54.2005 209.073 51.6184 203.486C49.0365 197.899 44.6964 193.889 39.2371 192.696Z" fill="#1C3753" stroke="#002137"/>
<path d="M49.3015 206.79C43.9945 208.54 40.0915 212.976 38.1002 218.8C36.1089 224.624 36.0431 231.809 38.4029 238.964C40.7627 246.119 45.0898 251.854 50.1554 255.351C55.2207 258.848 60.9971 260.092 66.3042 258.342C71.6114 256.592 75.5139 252.155 77.5052 246.331C79.4966 240.507 79.5624 233.322 77.2025 226.167C74.8426 219.012 70.5156 213.276 65.4499 209.779C60.3847 206.283 54.6085 205.039 49.3015 206.79Z" fill="#1C3753" stroke="#002137"/>
<path d="M38.3947 234.595C34.1268 233.508 29.6279 234.851 25.7921 237.982C21.9566 241.112 18.8147 246.011 17.3039 251.943C15.7932 257.875 16.2093 263.68 18.0804 268.264C19.9516 272.848 23.26 276.18 27.5279 277.267C31.7957 278.354 36.2939 277.01 40.1296 273.879C43.9653 270.749 47.1082 265.85 48.6189 259.918C50.1296 253.985 49.7124 248.181 47.8413 243.597C45.9701 239.013 42.6626 235.681 38.3947 234.595Z" fill="#1C3753" stroke="#002137"/>
<path d="M136.131 155.295C135.099 139.781 144.432 107.013 190.015 100.054C194.451 113.978 198.232 144.744 177.873 156.423C184.106 164.789 194.137 174.434 206.311 180.21C212.296 186.707 216.764 193.368 217.252 198.985C214.15 200.501 202.015 202.256 178.287 197.145C186.164 203.211 193.847 227.236 161.557 274.808C159.21 273.342 156.485 271.437 153.589 269.154C139.361 257.939 121.014 237.608 123.179 215.421C119.653 221.653 105.544 231.546 77.3112 221.27C77.5864 213.902 85.4664 196.812 114.785 187.398C107.5 186.703 90.6422 180.1 81.4863 159.253C95.3665 153.505 125.728 144.666 136.131 155.295Z" fill="#1C3753"/>
<path d="M325.425 232.773C338.135 203.004 363.374 194.664 374.404 194.215C388.283 173.647 415.042 182.201 426.686 189.049C423.88 202.076 408.598 216.173 401.307 221.593C417.649 218.822 412.443 257.198 407.798 276.732C379.712 270.682 375.992 249.783 377.642 240.089C362.012 249.305 336.318 239.052 325.425 232.773Z" fill="#1C3753"/>
<path d="M274.977 156.368C266.494 157.162 244.266 153.947 223.217 134.732C228.949 126.792 244.126 111.711 258.976 114.909C251.876 107.263 241.425 86.7489 256.421 65.8613C269.084 69.0057 293.36 78.3834 293.854 91.5926C293.763 92.3149 293.731 92.9749 293.751 93.564C293.845 92.8978 293.878 92.2406 293.854 91.5926C294.854 83.6809 303.051 68.2976 330.51 56.9168C333.303 72.3737 336.058 104.25 324.732 108.102C333.836 110.5 355.246 119.918 368.057 138.407C356.02 141.494 330.01 149.348 322.267 156.069C322.741 164.036 319.277 182.164 301.638 190.948C290.1 183.611 268.616 166.423 274.977 156.368Z" fill="#1C3753"/>
<path d="M84.3895 115.313C94.8119 113.626 119.751 119.26 136.131 155.295M136.131 155.295C152.51 191.33 153.663 218.056 152.192 226.914M136.131 155.295C137.612 168.722 139.158 196.057 133.495 197.982M136.131 155.295C140.813 161.984 154.691 176.333 172.746 180.223M136.131 155.295C135.099 139.781 144.432 107.013 190.015 100.054C194.451 113.978 198.232 144.744 177.873 156.423M136.131 155.295C125.728 144.666 95.3665 153.505 81.4863 159.253C90.6422 180.1 107.5 186.703 114.785 187.398C85.4664 196.812 77.5864 213.902 77.3112 221.27C105.544 231.546 119.653 221.653 123.179 215.421C121.014 237.608 139.361 257.939 153.589 269.154M177.873 156.423C184.106 164.789 194.137 174.434 206.311 180.21M177.873 156.423C185.392 161.425 197.496 170.64 206.311 180.21M274.977 156.368C278.924 150.228 290.478 131.919 305.118 107.809M274.977 156.368C272.179 147.027 269.181 126.021 279.581 116.727M274.977 156.368C285.188 157.694 305.432 158.734 304.721 152.289M274.977 156.368C266.494 157.162 244.266 153.947 223.217 134.732C228.949 126.792 244.126 111.711 258.976 114.909C251.876 107.263 241.425 86.7489 256.421 65.8613C269.084 69.0057 293.36 78.3834 293.854 91.5926M274.977 156.368C268.616 166.423 290.1 183.611 301.638 190.948C319.277 182.164 322.741 164.036 322.267 156.069M274.977 156.368C251.151 188.777 225.945 189.525 206.311 180.21M322.267 156.069C330.01 149.348 356.02 141.494 368.057 138.407C355.246 119.918 333.836 110.5 324.732 108.102C336.058 104.25 333.303 72.3737 330.51 56.9168C303.051 68.2976 294.854 83.6809 293.854 91.5926M322.267 156.069C335.915 161.373 359.306 174.573 374.404 194.215M388.404 226.678C386.953 214.488 381.628 203.614 374.404 194.215M374.404 194.215C363.374 194.664 338.135 203.004 325.425 232.773C336.318 239.052 362.012 249.305 377.642 240.089C375.992 249.783 379.712 270.682 407.798 276.732C412.443 257.198 417.649 218.822 401.307 221.593C408.598 216.173 423.88 202.076 426.686 189.049C415.042 182.201 388.283 173.647 374.404 194.215ZM414.004 247.922C437.134 260.332 486.097 265.287 496.917 185.827C496.821 180.306 493.719 171.099 488.178 164.283C480.513 154.855 468.182 150.003 452.682 165.812C425.096 193.949 492.329 207.121 478.109 181.775M153.589 269.154C156.485 271.437 159.21 273.342 161.557 274.808C193.847 227.236 186.164 203.211 178.287 197.145C202.015 202.256 214.15 200.501 217.252 198.985C216.764 193.368 212.296 186.707 206.311 180.21M153.589 269.154C87.9575 213.077 70.5685 259.035 45.9388 261.793M51.0434 238.096C47.4641 224.258 3.12705 229.085 19.9603 248.44C29.1636 259.022 37.9336 262.689 45.9388 261.793M45.9388 261.793C45.8547 274.375 50.6579 294.096 58.0231 310.38C69.0679 334.801 85.8738 351.493 100.599 324.795C113.523 301.364 78.0593 301.589 73.2089 305.787M293.854 91.5926C293.763 92.3149 293.731 92.9749 293.751 93.564C293.845 92.8978 293.878 92.2406 293.854 91.5926Z" stroke="#002137" stroke-width="2" stroke-linecap="round"/>
<path d="M1024.16 275.803C1020.95 249.015 1076.89 226.326 1046.58 179.889C1076.42 167.783 1076.52 127.739 1072.83 109.23C1043.87 120.976 1032.89 135.647 1031.01 141.514C1032.35 124.628 1006.52 106.334 993.437 99.2976C974.782 133.955 980.231 151.645 986.469 157.527C987.099 157.926 987.684 158.373 988.219 158.871C987.642 158.523 987.052 158.077 986.469 157.527C973.594 149.367 941.853 161.138 926.938 168.404C946.763 202.886 966.33 209.172 977.699 207.425C979.596 206.498 981.702 205.76 984.039 205.255C982.401 206.232 980.258 207.032 977.699 207.425C962.059 215.07 960.697 235.635 962.249 246.013C994.074 245.082 1007.82 237.585 1012.68 231.052C1013.32 229.004 1014.06 226.873 1014.9 224.657C1015.05 226.417 1014.46 228.671 1012.68 231.052C1003.27 261.387 1016.05 273.512 1024.16 275.803Z" fill="#1C3753"/>
<path d="M1104.56 165.661C1103.24 165.982 1100.82 166.826 1096.85 168.438C1078.86 176.585 1045.41 206.665 1055.51 261.811C1068.19 258.663 1093.66 248.83 1100.41 233.585C1100.7 232.336 1101.09 231.264 1101.53 230.38C1101.25 231.474 1100.88 232.542 1100.41 233.585C1098.1 243.647 1102.02 265.162 1132.81 291.749C1140.8 277.866 1154.52 245.146 1145.46 225.327C1179.64 260.853 1221.85 213.128 1236.98 223.385C1209.68 198.772 1213.35 146.272 1162.07 156.029C1170.07 152.782 1184.1 141.996 1190.42 121.546C1192.47 114.912 1193.71 107.262 1193.67 98.5223C1182.22 93.379 1151.8 93.5452 1121.75 135.356C1113.41 124.264 1093.41 101.395 1080.03 98.6487C1075.07 116.851 1071.49 156.293 1096.85 168.438C1100.82 166.826 1103.24 165.982 1104.56 165.661C1107.9 164.848 1104.22 167.389 1101.03 169.296C1101.85 168.319 1103.02 167.09 1104.56 165.661Z" fill="#1C3753"/>
<path d="M1388.66 56.4633C1384.82 51.2089 1371.17 39.8069 1347.24 36.2346C1343.7 45.5469 1341.2 62.2066 1348.87 75.5862C1353.92 78.2295 1358.74 82.0255 1362.86 87.354C1362.48 87.6811 1362.09 88.0159 1361.68 88.3576C1364.11 89.7948 1366.85 91.0719 1369.92 92.153C1357.92 96.1683 1335.22 109.29 1340.42 129.654C1350.38 129.018 1373.46 125.446 1386.08 116.243C1380.18 123.743 1376.54 145.646 1409.2 173.258C1419.61 159.324 1438.02 126.471 1429.1 105.744C1429.02 105.582 1428.95 105.422 1428.89 105.263C1428.96 105.423 1429.03 105.583 1429.1 105.744C1432.24 112.305 1446.38 121.433 1480.12 108.742C1477.72 96.5222 1467.37 71.0117 1445.2 66.7275C1455.44 62.5746 1475.2 51.24 1472.33 39.1252C1440.04 44.5595 1396.53 10.3686 1388.66 56.4633Z" fill="#1C3753"/>
<path d="M1241.76 40.7135C1243.51 77.7953 1259.35 89.3328 1267.05 90.4664C1250.1 101.587 1239.35 132.412 1236.09 146.434C1255.09 147.922 1267.41 137.562 1271.19 132.196C1279.05 156.591 1299.35 168.018 1308.52 170.683C1324.2 138.788 1316.5 121.057 1310.68 116.179C1318.07 122.13 1347.01 100.716 1361.68 88.3576C1362.09 88.0159 1362.48 87.6811 1362.86 87.354C1358.74 82.0255 1353.92 78.2295 1348.87 75.5862C1335.51 68.5874 1320.61 69.6693 1313.12 71.7796C1323.65 67.5084 1309.42 33.272 1300.99 16.6877C1277.68 32.2728 1277.78 50.7882 1280.74 58.0978C1266.85 46.5272 1248.97 41.6872 1241.76 40.7135Z" fill="#1C3753"/>
<path d="M1046.58 179.889C1076.89 226.326 1020.95 249.015 1024.16 275.803C1016.05 273.512 1003.27 261.387 1012.68 231.052M1046.58 179.889C1076.42 167.783 1076.52 127.739 1072.83 109.23C1043.87 120.976 1032.89 135.647 1031.01 141.514C1032.35 124.628 1006.52 106.334 993.437 99.2976C974.782 133.955 980.231 151.645 986.469 157.527M1046.58 179.889C1043.09 180.412 1037.89 180.783 1031.55 180.676M1046.58 179.889C1057.48 178.445 1082.81 174.133 1096.85 168.438M975.292 167.944C995.652 177.567 1016.74 180.425 1031.55 180.676M1031.55 180.676C1027.66 189.983 1017.28 207.861 1006.9 204.921M1031.55 180.676C1028.9 172.03 1020.49 150.887 1008.11 135.48M1096.85 168.438C1078.86 176.585 1045.41 206.665 1055.51 261.811C1068.19 258.663 1093.66 248.83 1100.41 233.585M1096.85 168.438C1071.49 156.293 1075.07 116.851 1080.03 98.6487C1093.41 101.395 1113.41 124.264 1121.75 135.356C1151.8 93.5452 1182.22 93.379 1193.67 98.5223C1193.71 107.262 1192.47 114.912 1190.42 121.546M1096.85 168.438C1100.82 166.826 1103.24 165.982 1104.56 165.661M1101.03 169.296C1122.18 181.569 1167.12 203.774 1177.63 194.405M1101.03 169.296C1101.95 177.861 1106.49 199.767 1117.3 218.874M1101.03 169.296C1104.22 167.389 1107.9 164.848 1104.56 165.661M1101.03 169.296C1101.85 168.319 1103.02 167.09 1104.56 165.661M1154.06 136.293C1128.51 146.657 1112.15 158.595 1104.56 165.661M1190.42 121.546C1184.1 141.996 1170.07 152.782 1162.07 156.029C1213.35 146.272 1209.68 198.772 1236.98 223.385M1190.42 121.546C1198.67 110.54 1225.54 88.9152 1267.05 90.4664M1267.05 90.4664C1272.57 96.7378 1285.38 109.843 1292.43 112.093M1267.05 90.4664C1280.74 89.5925 1309.86 88.9349 1316.74 93.2952M1267.05 90.4664C1269.8 84.6664 1279.27 71.4648 1295.06 65.0579M1267.05 90.4664C1259.35 89.3328 1243.51 77.7953 1241.76 40.7135C1248.97 41.6872 1266.85 46.5272 1280.74 58.0978C1277.78 50.7882 1277.68 32.2728 1300.99 16.6877C1309.42 33.272 1323.65 67.5084 1313.12 71.7796C1320.61 69.6693 1335.51 68.5874 1348.87 75.5862M1267.05 90.4664C1250.1 101.587 1239.35 132.412 1236.09 146.434C1255.09 147.922 1267.41 137.562 1271.19 132.196C1279.05 156.591 1299.35 168.018 1308.52 170.683C1324.2 138.788 1316.5 121.057 1310.68 116.179C1318.07 122.13 1347.01 100.716 1361.68 88.3576M1388.66 56.4633C1384.82 51.2089 1371.17 39.8069 1347.24 36.2346C1343.7 45.5469 1341.2 62.2066 1348.87 75.5862M1388.66 56.4633C1396.53 10.3686 1440.04 44.5595 1472.33 39.1252C1475.2 51.24 1455.44 62.5746 1445.2 66.7275C1467.37 71.0117 1477.72 96.5222 1480.12 108.742C1446.38 121.433 1432.24 112.305 1429.1 105.744M1388.66 56.4633L1400.34 110.457M1388.66 56.4633C1400.61 55.7025 1421.71 72.851 1430.76 81.5204M1388.66 56.4633L1371.4 80.0604M986.469 157.527C987.099 157.926 987.684 158.373 988.219 158.871C987.642 158.523 987.052 158.077 986.469 157.527ZM986.469 157.527C973.594 149.367 941.853 161.138 926.938 168.404C946.763 202.886 966.33 209.172 977.699 207.425M977.699 207.425C979.596 206.498 981.702 205.76 984.039 205.255C982.401 206.232 980.258 207.032 977.699 207.425ZM977.699 207.425C962.059 215.07 960.697 235.635 962.249 246.013C994.074 245.082 1007.82 237.585 1012.68 231.052M1012.68 231.052C1013.32 229.004 1014.06 226.873 1014.9 224.657C1015.05 226.417 1014.46 228.671 1012.68 231.052ZM1100.41 233.585C1100.7 232.336 1101.09 231.264 1101.53 230.38C1101.25 231.474 1100.88 232.542 1100.41 233.585ZM1100.41 233.585C1098.1 243.647 1102.02 265.162 1132.81 291.749C1140.8 277.866 1154.52 245.146 1145.46 225.327C1179.64 260.853 1221.85 213.128 1236.98 223.385M1236.98 223.385C1237.46 223.814 1237.94 224.233 1238.44 224.645C1237.99 224.153 1237.5 223.735 1236.98 223.385ZM1361.68 88.3576C1364.11 89.7948 1366.85 91.0719 1369.92 92.153C1357.92 96.1683 1335.22 109.29 1340.42 129.654C1350.38 129.018 1373.46 125.446 1386.08 116.243C1380.18 123.743 1376.54 145.646 1409.2 173.258C1419.61 159.324 1438.02 126.471 1429.1 105.744M1361.68 88.3576C1362.09 88.0159 1362.48 87.6811 1362.86 87.354C1358.74 82.0255 1353.92 78.2295 1348.87 75.5862M1429.1 105.744C1429.02 105.582 1428.95 105.422 1428.89 105.263C1428.96 105.423 1429.03 105.583 1429.1 105.744Z" stroke="#002137" stroke-width="2" stroke-linecap="round"/>
<path d="M1316.26 252.394C1318.68 256.516 1318.64 261.612 1316.54 266.551C1314.44 271.491 1310.29 276.24 1304.57 279.603C1298.85 282.965 1292.68 284.284 1287.34 283.719C1282 283.155 1277.53 280.716 1275.11 276.593C1272.68 272.47 1272.72 267.375 1274.83 262.435C1276.93 257.496 1281.08 252.746 1286.8 249.384C1292.52 246.021 1298.68 244.703 1304.02 245.267C1309.36 245.832 1313.83 248.271 1316.26 252.394Z" fill="#1C3753" stroke="#002137"/>
<path d="M1400.96 131.059C1401.35 140.703 1391.62 149.122 1378.94 149.634C1366.26 150.146 1355.87 142.539 1355.49 132.896C1355.1 123.252 1364.83 114.833 1377.51 114.321C1390.19 113.809 1400.57 121.415 1400.96 131.059Z" fill="#1C3753" stroke="#002137"/>
<path d="M1372.73 144.068C1373.18 155.311 1362.05 165.072 1347.62 165.655C1333.18 166.238 1321.31 157.406 1320.85 146.163C1320.4 134.92 1331.52 125.16 1345.96 124.577C1360.4 123.994 1372.27 132.825 1372.73 144.068Z" fill="#1C3753" stroke="#002137"/>
<path d="M1373.55 169.324C1378.62 179.37 1372.54 192.861 1359.64 199.369C1346.74 205.878 1332.27 202.756 1327.2 192.71C1322.13 182.665 1328.22 169.174 1341.12 162.665C1354.02 156.157 1368.48 159.279 1373.55 169.324Z" fill="#1C3753" stroke="#002137"/>
<path d="M1342.17 192.043C1347.24 202.089 1341.15 215.579 1328.25 222.088C1315.35 228.596 1300.89 225.475 1295.82 215.429C1290.75 205.383 1296.83 191.893 1309.73 185.384C1322.63 178.876 1337.1 181.997 1342.17 192.043Z" fill="#1C3753" stroke="#002137"/>
<path d="M1343.21 220.036C1347.77 224.026 1349.8 230.106 1349.33 236.761C1348.86 243.417 1345.9 250.616 1340.53 256.762C1335.16 262.909 1328.42 266.81 1321.89 268.166C1315.36 269.521 1309.06 268.329 1304.49 264.339C1299.93 260.348 1297.9 254.268 1298.37 247.613C1298.84 240.958 1301.8 233.759 1307.17 227.613C1312.54 221.466 1319.28 217.564 1325.81 216.209C1332.34 214.853 1338.64 216.046 1343.21 220.036Z" fill="#1C3753" stroke="#002137"/>
<path d="M1361.2 195.764C1367.25 196.199 1372.53 199.832 1376.16 205.426C1379.8 211.02 1381.77 218.552 1381.18 226.693C1380.6 234.835 1377.57 242.007 1373.17 247.024C1368.77 252.04 1363.03 254.881 1356.98 254.446C1350.93 254.011 1345.65 250.378 1342.02 244.784C1338.38 239.189 1336.41 231.658 1337 223.516C1337.58 215.375 1340.61 208.203 1345.01 203.186C1349.41 198.17 1355.15 195.329 1361.2 195.764Z" fill="#1C3753" stroke="#002137"/>
<path d="M1364.65 183.598C1367.82 178.426 1373.47 175.407 1380.11 174.75C1386.75 174.092 1394.34 175.803 1401.3 180.065C1408.27 184.327 1413.24 190.312 1415.68 196.524C1418.11 202.736 1417.99 209.144 1414.83 214.315C1411.66 219.487 1406.01 222.506 1399.37 223.164C1392.73 223.821 1385.14 222.109 1378.18 217.848C1371.21 213.586 1366.24 207.601 1363.8 201.389C1361.37 195.178 1361.48 188.77 1364.65 183.598Z" fill="#1C3753" stroke="#002137"/>
<path d="M1390.76 142.235C1404.6 145.133 1413.75 156.439 1411.47 167.325C1409.19 178.21 1396.28 184.897 1382.43 181.998C1368.59 179.1 1359.44 167.795 1361.72 156.909C1364 146.023 1376.91 139.337 1390.76 142.235Z" fill="#1C3753" stroke="#002137"/>
<path d="M66.5733 99.659C57.9435 101.788 52.9789 112.566 55.7846 123.939C58.5902 135.312 67.9979 142.545 76.6276 140.416C85.2572 138.287 90.2209 127.509 87.4154 116.136C84.6098 104.763 75.203 97.5303 66.5733 99.659Z" fill="#1C3753" stroke="#002137"/>
<path d="M54.1177 133.801C44.0518 136.285 38.2561 148.641 41.4505 161.59C44.6448 174.538 55.5221 182.781 65.5881 180.298C75.6542 177.815 81.4506 165.459 78.2562 152.51C75.0618 139.561 64.1838 131.318 54.1177 133.801Z" fill="#1C3753" stroke="#002137"/>
<path d="M31.4766 139.566C21.2858 137.658 10.894 146.505 8.43972 159.614C5.98552 172.723 12.4731 184.73 22.6637 186.638C32.8545 188.546 43.2472 179.699 45.7015 166.59C48.1558 153.481 41.6674 141.474 31.4766 139.566Z" fill="#1C3753" stroke="#002137"/>
<path d="M19.3906 173.263C9.19988 171.355 -1.19195 180.202 -3.64621 193.311C-6.10042 206.42 0.387154 218.428 10.5778 220.336C20.7686 222.244 31.1612 213.397 33.6156 200.287C36.0699 187.178 29.5815 175.171 19.3906 173.263Z" fill="#1C3753" stroke="#002137"/>
<path d="M76.8515 207.376C80.6164 203.246 81.84 197.466 80.7169 191.414C79.5937 185.362 76.1251 179.07 70.5576 173.994C64.9901 168.918 58.405 166.044 52.2753 165.483C46.1459 164.923 40.5022 166.673 36.7371 170.803C32.972 174.932 31.7492 180.713 32.8724 186.765C33.9956 192.817 37.4641 199.109 43.0317 204.185C48.5992 209.261 55.1843 212.135 61.314 212.696C67.4433 213.256 73.0865 211.505 76.8515 207.376Z" fill="#1C3753" stroke="#002137"/>
<path d="M55.6469 113.629C49.5183 102.1 37.1515 96.9077 28.1029 101.718C19.0545 106.528 16.4412 119.683 22.5697 131.212C28.6983 142.741 41.0644 147.933 50.1129 143.124C59.1615 138.314 61.7754 125.159 55.6469 113.629Z" fill="#1C3753" stroke="#002137"/>
</g>
<defs>
<clipPath id="clip0_337_2905">
<rect width="1440" height="346" fill="white"/>
</clipPath>
</defs>
</svg>
