<svg width="1440" height="1073" viewBox="0 0 1440 1073" fill="none" xmlns="http://www.w3.org/2000/svg">
<g clip-path="url(#clip0_337_2731)">
<rect width="1440" height="1073" fill="#FFF6E7"/>
<path d="M268.136 220V240.825C263.976 250.08 294.458 370.247 310.636 422.5C317.569 401.213 353.136 271.654 353.136 240.246V220C349.669 205.539 271.025 205.539 268.136 220Z" fill="#002137"/>
<path d="M257.866 943.658C269.513 921.574 257.866 894.259 289.896 859.971V836.143H294.555C289.43 825.45 294.749 815.803 298.049 812.316V800.693C288.265 789.069 297.078 779.577 302.708 776.284V769.31C288.265 762.801 290.866 721.655 293.972 701.896C298.631 700.966 307.949 682.911 312.026 674C316.637 683 321.642 692.657 325.137 697.5C329.796 737.019 327.75 762.336 315.52 769.31V776.284C330.429 787.442 323.285 797.206 317.849 800.693V812.316C326.701 818.36 324.644 830.719 322.508 836.143H326.003V853.578C353.374 872.756 354.539 882.055 364.439 911.113C374.339 940.171 412.776 959.349 417.435 963.417C422.094 967.485 416.853 980.271 405.788 975.621C394.722 970.972 355.704 950.632 346.386 921.574C338.931 898.327 329.691 887.092 326.003 884.379C317.617 893.213 304.261 892.709 298.631 891.353C289.896 900.071 279.995 938.427 275.919 950.632C272.657 960.395 250.877 991.894 240.394 1006.42C232.241 1012.23 217.682 1000.72 225.253 992.475C235.503 981.317 251.265 955.281 257.866 943.658Z" fill="#002137"/>
<path fill-rule="evenodd" clip-rule="evenodd" d="M369.504 259.183C368.111 259.183 358.091 246.394 353.255 240C355.576 257.206 326.753 362.654 312.051 413.227C295.608 358.972 263.999 248.371 269.106 240C262.142 247.751 247.633 263.368 245.312 263.833C244.236 264.049 237.574 266.902 229.32 270.437C215.317 276.435 196.733 284.394 193.082 284.76C189.6 285.922 182.371 289.004 180.314 291.154C179.363 292.148 178.442 293.513 177.549 295.223C153.375 341.527 150.136 640.553 150.137 657.371C159.161 655.275 176.039 652.612 190.76 653.407L187.859 684.111C193.082 693.993 257.731 714.338 293.48 702.712C301.024 698.062 308.336 684.083 312.051 672.728C315.148 682.563 318.802 691.669 323.077 699.806C334.684 721.895 410.708 699.806 428.118 679.461V648.652H430.44C439.725 652.372 456.748 656.015 464.099 657.371C471.479 587.672 465.452 340.027 445.582 295.223C443.577 290.703 441.432 288.248 439.145 288.248H431.02C411.677 282.351 388.982 269.74 377.286 263.241C372.84 260.77 369.984 259.183 369.504 259.183ZM207.913 544.6C208.193 504.918 209.633 471.414 213.393 466.706C216.875 485.307 214.671 537.159 207.913 544.6ZM414.049 544.018C413.599 510.933 411.627 481.136 408.967 466.706C404.905 481.82 404.187 533.322 414.049 544.018ZM405.485 363.816H360.799V357.422H405.485V363.816Z" fill="#1C3753"/>
<path d="M360.799 363.816H405.485V357.422H360.799V363.816Z" fill="#FFCC92"/>
<path d="M369.504 259.183C368.111 259.183 358.091 246.394 353.255 240C355.576 257.206 326.753 362.654 312.051 413.227M369.504 259.183L388.075 277.203L369.504 280.109L395.039 295.223C366.022 335.333 341.067 378.93 304.679 448.686M369.504 259.183C369.984 259.183 372.84 260.77 377.286 263.241C388.982 269.74 411.677 282.351 431.02 288.248M431.02 288.248C433.148 288.248 437.752 288.248 439.145 288.248M431.02 288.248H439.145M439.145 288.248C441.432 288.248 443.577 290.703 445.582 295.223M430.44 648.652C439.725 652.372 456.748 656.015 464.099 657.371C471.479 587.672 465.452 340.027 445.582 295.223M430.44 648.652C425.797 648.652 415.003 648.652 408.967 648.652C413.213 620.399 414.543 580.238 414.049 544.018M430.44 648.652H428.118V679.461C410.708 699.806 334.684 721.895 323.077 699.806C318.802 691.669 315.148 682.563 312.051 672.728M408.967 466.706C411.627 481.136 413.599 510.933 414.049 544.018M408.967 466.706C404.905 481.82 404.187 533.322 414.049 544.018M408.967 466.706C414.226 409.545 428.911 295.223 445.582 295.223M312.051 413.227C295.608 358.972 263.999 248.371 269.106 240C262.142 247.751 247.633 263.368 245.312 263.833M312.051 413.227C310.76 417.621 309.47 422.899 308.219 428.922M245.312 263.833L237.187 272.553L247.633 276.622L230.804 288.248C253.784 330.295 301.439 417.296 308.219 428.922M245.312 263.833C244.236 264.049 237.574 266.902 229.32 270.437C215.317 276.435 196.733 284.394 193.082 284.76C189.6 285.922 182.371 289.004 180.314 291.154C179.363 292.148 178.442 293.513 177.549 295.223M150.137 657.371C163.484 654.271 194.01 649.931 209.331 657.371C208.471 627.901 207.64 583.311 207.913 544.6M150.137 657.371C150.136 640.553 153.375 341.527 177.549 295.223M150.137 657.371C159.161 655.275 176.039 652.612 190.76 653.407L187.859 684.111C193.082 693.993 257.731 714.338 293.48 702.712C301.024 698.062 308.336 684.083 312.051 672.728M213.393 466.706C209.633 471.414 208.193 504.918 207.913 544.6M213.393 466.706C216.875 485.307 214.671 537.159 207.913 544.6M213.393 466.706C208.262 415.552 193.908 309.639 177.549 295.223M312.051 672.728C291.269 606.745 295.499 507.937 304.679 448.686M304.679 448.686C305.798 441.467 306.989 434.835 308.219 428.922M382.852 437.06C379.757 456.824 374.495 503.676 378.209 532.974M235.446 437.06C240.476 457.986 248.678 506.467 241.25 532.974M360.799 363.816H405.485V357.422H360.799V363.816Z" stroke="#002137" stroke-width="2"/>
<path d="M605.779 321.097C605.816 320.963 605.955 320.884 606.089 320.921C606.499 321.035 607.098 321.311 607.586 321.778C608.08 322.25 608.468 322.927 608.412 323.823C608.404 323.962 608.284 324.067 608.145 324.058C608.007 324.05 607.901 323.93 607.91 323.791C607.955 323.076 607.651 322.537 607.238 322.142C606.82 321.743 606.299 321.502 605.954 321.407C605.82 321.369 605.742 321.231 605.779 321.097Z" fill="#FFF6E7"/>
<path d="M606.615 322.928C606.752 322.909 606.88 323.004 606.9 323.142C606.931 323.363 607.172 323.975 607.896 324.337C608.02 324.399 608.07 324.55 608.008 324.675C607.946 324.799 607.795 324.85 607.671 324.787C606.783 324.344 606.453 323.579 606.401 323.213C606.381 323.076 606.477 322.948 606.615 322.928Z" fill="#FFF6E7"/>
<path d="M607.437 323.807C607.507 323.687 607.661 323.646 607.781 323.716C608.056 323.876 608.441 324.177 608.706 324.57C608.975 324.967 609.14 325.49 608.891 326.05C608.835 326.177 608.686 326.234 608.559 326.177C608.432 326.121 608.375 325.972 608.431 325.845C608.585 325.498 608.499 325.162 608.289 324.852C608.076 324.537 607.756 324.284 607.527 324.151C607.407 324.081 607.367 323.927 607.437 323.807Z" fill="#FFF6E7"/>
<path d="M599.325 343.412C599.411 343.303 599.57 343.285 599.678 343.372C599.927 343.57 600.265 343.923 600.471 344.35C600.679 344.781 600.767 345.323 600.441 345.841C600.366 345.959 600.211 345.994 600.093 345.92C599.976 345.846 599.941 345.69 600.015 345.572C600.217 345.252 600.18 344.906 600.017 344.569C599.852 344.227 599.571 343.931 599.365 343.766C599.256 343.679 599.238 343.521 599.325 343.412Z" fill="#FFF6E7"/>
<path d="M607.796 325.355C607.845 325.225 607.99 325.159 608.12 325.207C608.25 325.256 608.316 325.402 608.268 325.532C608.212 325.68 608.143 325.939 608.122 326.217C608.102 326.499 608.136 326.763 608.248 326.95C608.319 327.069 608.281 327.224 608.161 327.295C608.042 327.367 607.887 327.328 607.816 327.209C607.626 326.893 607.597 326.506 607.62 326.18C607.644 325.849 607.726 325.543 607.796 325.355Z" fill="#FFF6E7"/>
<path d="M599.458 344.997C599.525 344.875 599.678 344.831 599.8 344.898C599.922 344.965 599.966 345.118 599.899 345.24C599.823 345.378 599.717 345.625 599.657 345.897C599.596 346.173 599.591 346.439 599.675 346.64C599.729 346.769 599.668 346.916 599.54 346.97C599.412 347.023 599.264 346.963 599.211 346.834C599.068 346.494 599.095 346.107 599.165 345.788C599.237 345.464 599.362 345.172 599.458 344.997Z" fill="#FFF6E7"/>
<path d="M608.592 326.334C608.726 326.296 608.865 326.373 608.904 326.507C609.008 326.873 609.014 327.726 608.349 328.502C608.258 328.608 608.1 328.62 607.994 328.529C607.889 328.439 607.876 328.28 607.967 328.175C608.51 327.541 608.483 326.867 608.419 326.645C608.381 326.512 608.459 326.372 608.592 326.334Z" fill="#FFF6E7"/>
<path d="M600.103 346.079C600.241 346.061 600.368 346.158 600.386 346.295C600.437 346.672 600.32 347.517 599.55 348.19C599.445 348.281 599.286 348.27 599.195 348.165C599.104 348.061 599.114 347.902 599.219 347.81C599.848 347.262 599.918 346.591 599.887 346.362C599.869 346.224 599.965 346.098 600.103 346.079Z" fill="#FFF6E7"/>
<path d="M606.777 329.093C606.777 328.175 607.352 327.644 607.672 327.484C607.796 327.421 607.947 327.472 608.009 327.596C608.072 327.721 608.021 327.872 607.897 327.934C607.713 328.026 607.281 328.401 607.281 329.093C607.281 329.232 607.168 329.345 607.029 329.345C606.89 329.345 606.777 329.232 606.777 329.093Z" fill="#FFF6E7"/>
<path d="M597.909 348.549C598.041 347.64 598.686 347.197 599.026 347.085C599.158 347.041 599.3 347.113 599.344 347.245C599.387 347.377 599.316 347.519 599.184 347.563C598.989 347.627 598.507 347.936 598.407 348.622C598.387 348.759 598.259 348.854 598.121 348.834C597.984 348.814 597.889 348.687 597.909 348.549Z" fill="#FFF6E7"/>
<path d="M607.53 328.717C607.53 328.578 607.643 328.465 607.782 328.465C607.921 328.465 608.034 328.578 608.034 328.717C608.034 328.942 607.975 329.28 607.801 329.596C607.623 329.919 607.319 330.224 606.836 330.345C606.701 330.379 606.565 330.297 606.531 330.162C606.497 330.027 606.579 329.891 606.714 329.857C607.036 329.776 607.236 329.578 607.36 329.353C607.488 329.122 607.53 328.869 607.53 328.717Z" fill="#FFF6E7"/>
<path d="M598.71 348.283C598.73 348.145 598.858 348.05 598.995 348.07C599.133 348.09 599.228 348.218 599.208 348.355C599.176 348.578 599.069 348.905 598.851 349.193C598.629 349.486 598.284 349.745 597.788 349.795C597.65 349.808 597.527 349.708 597.513 349.569C597.499 349.431 597.6 349.308 597.738 349.294C598.069 349.261 598.295 349.093 598.45 348.888C598.61 348.678 598.688 348.434 598.71 348.283Z" fill="#FFF6E7"/>
<path d="M606.039 329.486C606.393 329.342 606.789 329.323 607.047 329.346C607.185 329.359 607.287 329.481 607.275 329.62C607.262 329.758 607.139 329.86 607.001 329.848C606.798 329.829 606.488 329.847 606.228 329.953C605.977 330.055 605.799 330.224 605.763 330.509C605.746 330.647 605.62 330.745 605.482 330.728C605.344 330.711 605.246 330.585 605.264 330.447C605.329 329.927 605.675 329.634 606.039 329.486Z" fill="#FFF6E7"/>
<path d="M596.534 348.593C596.818 348.336 597.182 348.181 597.433 348.114C597.567 348.079 597.705 348.159 597.741 348.293C597.777 348.427 597.697 348.565 597.562 348.601C597.365 348.654 597.081 348.777 596.873 348.966C596.672 349.148 596.563 349.368 596.628 349.648C596.659 349.784 596.575 349.919 596.439 349.95C596.304 349.981 596.169 349.897 596.137 349.761C596.019 349.251 596.244 348.857 596.534 348.593Z" fill="#FFF6E7"/>
<path d="M606.025 330.297C606.055 330.161 606.19 330.076 606.325 330.106C606.461 330.136 606.547 330.27 606.517 330.406C606.415 330.864 605.904 331.761 604.679 331.984C604.543 332.008 604.412 331.918 604.387 331.781C604.362 331.644 604.453 331.513 604.589 331.488C605.58 331.308 605.959 330.594 606.025 330.297Z" fill="#FFF6E7"/>
<path d="M597.17 350.365C597.17 350.226 597.283 350.113 597.422 350.114C597.561 350.114 597.674 350.227 597.673 350.366C597.672 350.836 597.365 351.821 596.216 352.3C596.088 352.354 595.941 352.293 595.887 352.165C595.834 352.037 595.894 351.889 596.022 351.836C596.952 351.448 597.169 350.669 597.17 350.365Z" fill="#FFF6E7"/>
<path d="M604.866 330.731C605.005 330.721 605.126 330.824 605.136 330.963C605.147 331.102 605.043 331.223 604.904 331.233C604.709 331.248 604.383 331.323 604.074 331.497C603.768 331.671 603.493 331.934 603.361 332.322C603.317 332.453 603.174 332.524 603.042 332.479C602.91 332.435 602.84 332.292 602.884 332.16C603.066 331.625 603.443 331.276 603.826 331.059C604.206 330.845 604.604 330.751 604.866 330.731Z" fill="#FFF6E7"/>
<path d="M595.902 350.876C596.036 350.842 596.173 350.924 596.208 351.058C596.242 351.193 596.16 351.33 596.026 351.364C595.84 351.412 595.542 351.527 595.276 351.715C595.008 351.903 594.801 352.143 594.739 352.432C594.71 352.568 594.576 352.654 594.44 352.625C594.304 352.596 594.218 352.462 594.247 352.326C594.346 351.865 594.664 351.53 594.985 351.303C595.309 351.075 595.665 350.937 595.902 350.876Z" fill="#FFF6E7"/>
<path d="M603.945 332.248C604.08 332.214 604.217 332.296 604.25 332.431C604.34 332.79 604.414 333.363 604.344 333.932C604.275 334.498 604.058 335.11 603.516 335.47C603.401 335.548 603.244 335.516 603.167 335.401C603.09 335.285 603.121 335.129 603.237 335.052C603.602 334.808 603.783 334.371 603.844 333.871C603.905 333.375 603.84 332.865 603.762 332.553C603.728 332.418 603.81 332.282 603.945 332.248Z" fill="#FFF6E7"/>
<path d="M595.424 351.959C595.548 351.897 595.699 351.948 595.761 352.073C595.926 352.404 596.12 352.948 596.174 353.519C596.228 354.086 596.146 354.73 595.695 355.199C595.598 355.299 595.439 355.302 595.339 355.205C595.239 355.109 595.236 354.949 595.332 354.849C595.637 354.534 595.72 354.068 595.673 353.566C595.626 353.068 595.453 352.584 595.31 352.296C595.248 352.172 595.299 352.021 595.424 351.959Z" fill="#FFF6E7"/>
<path d="M601.992 336.017C601.992 334.896 602.734 334.155 603.117 333.915C603.235 333.842 603.391 333.877 603.464 333.995C603.538 334.113 603.502 334.268 603.384 334.342C603.097 334.522 602.496 335.123 602.496 336.017C602.496 336.156 602.383 336.268 602.244 336.268C602.105 336.268 601.992 336.156 601.992 336.017Z" fill="#FFF6E7"/>
<path d="M594.325 356.059C594.085 354.965 594.651 354.082 594.975 353.765C595.074 353.668 595.233 353.67 595.33 353.769C595.428 353.869 595.426 354.028 595.327 354.125C595.084 354.363 594.626 355.078 594.817 355.951C594.847 356.087 594.761 356.221 594.625 356.251C594.489 356.281 594.355 356.195 594.325 356.059Z" fill="#FFF6E7"/>
<path d="M602.947 335.52C603.082 335.49 603.217 335.575 603.247 335.711C603.295 335.928 603.323 336.272 603.255 336.623C603.186 336.975 603.014 337.36 602.637 337.611C602.522 337.688 602.366 337.657 602.288 337.541C602.211 337.426 602.243 337.269 602.358 337.192C602.586 337.041 602.708 336.797 602.761 336.526C602.814 336.253 602.791 335.98 602.755 335.82C602.725 335.684 602.811 335.55 602.947 335.52Z" fill="#FFF6E7"/>
<path d="M595.147 355.37C595.273 355.311 595.423 355.366 595.481 355.492C595.575 355.694 595.675 356.024 595.684 356.381C595.692 356.74 595.606 357.153 595.292 357.479C595.196 357.579 595.036 357.582 594.936 357.485C594.836 357.389 594.833 357.23 594.93 357.13C595.12 356.932 595.186 356.668 595.18 356.392C595.174 356.115 595.093 355.853 595.024 355.704C594.966 355.578 595.021 355.428 595.147 355.37Z" fill="#FFF6E7"/>
<path d="M602.332 336.583C602.435 336.491 602.594 336.5 602.687 336.604C602.779 336.708 602.77 336.867 602.666 336.959C602.49 337.115 602.214 337.403 601.971 337.747C601.725 338.095 601.533 338.474 601.49 338.816C601.473 338.954 601.347 339.052 601.209 339.035C601.071 339.018 600.973 338.892 600.99 338.754C601.048 338.29 601.296 337.83 601.56 337.457C601.827 337.079 602.13 336.763 602.332 336.583Z" fill="#FFF6E7"/>
<path d="M594.775 356.54C594.857 356.428 595.014 356.403 595.126 356.485C595.239 356.567 595.264 356.724 595.182 356.836C595.044 357.026 594.836 357.367 594.672 357.755C594.506 358.147 594.399 358.559 594.431 358.902C594.443 359.04 594.341 359.163 594.203 359.176C594.064 359.188 593.942 359.086 593.929 358.948C593.887 358.483 594.03 357.98 594.208 357.559C594.388 357.133 594.616 356.759 594.775 356.54Z" fill="#FFF6E7"/>
<path d="M602.095 338.282C602.234 338.27 602.356 338.372 602.369 338.51C602.416 339.029 602.259 340.258 601.289 341.228C601.191 341.327 601.031 341.327 600.933 341.228C600.835 341.13 600.835 340.971 600.933 340.872C601.776 340.03 601.904 338.96 601.867 338.556C601.855 338.417 601.957 338.295 602.095 338.282Z" fill="#FFF6E7"/>
<path d="M594.907 358.25C595.039 358.208 595.181 358.282 595.223 358.414C595.38 358.911 595.49 360.146 594.75 361.301C594.675 361.418 594.519 361.452 594.402 361.377C594.285 361.302 594.251 361.146 594.326 361.029C594.968 360.026 594.865 358.953 594.743 358.566C594.701 358.434 594.774 358.292 594.907 358.25Z" fill="#FFF6E7"/>
<path d="M601.091 339.711C601.205 339.632 601.361 339.66 601.441 339.773C601.521 339.887 601.493 340.044 601.379 340.124C601.182 340.262 600.868 340.516 600.581 340.818C600.288 341.126 600.05 341.457 599.967 341.749C599.928 341.883 599.789 341.96 599.655 341.922C599.522 341.884 599.444 341.744 599.482 341.611C599.6 341.198 599.908 340.795 600.215 340.471C600.528 340.142 600.869 339.867 601.091 339.711Z" fill="#FFF6E7"/>
<path d="M594.235 359.862C594.329 359.76 594.488 359.754 594.59 359.848C594.693 359.942 594.699 360.101 594.605 360.204C594.442 360.381 594.189 360.696 593.973 361.052C593.753 361.415 593.592 361.79 593.573 362.093C593.564 362.232 593.444 362.337 593.306 362.329C593.167 362.32 593.061 362.2 593.07 362.062C593.097 361.634 593.311 361.174 593.542 360.792C593.778 360.403 594.051 360.062 594.235 359.862Z" fill="#FFF6E7"/>
<path d="M600.276 341.064C600.408 341.02 600.551 341.091 600.595 341.223C600.702 341.545 600.739 342.294 600.172 342.974C600.083 343.081 599.924 343.095 599.817 343.006C599.71 342.917 599.696 342.758 599.785 342.652C600.225 342.124 600.178 341.564 600.117 341.382C600.073 341.25 600.144 341.108 600.276 341.064Z" fill="#FFF6E7"/>
<path d="M593.723 361.356C593.843 361.285 593.997 361.324 594.068 361.443C594.242 361.735 594.438 362.458 594.03 363.245C593.966 363.368 593.814 363.416 593.69 363.352C593.567 363.288 593.519 363.136 593.583 363.012C593.9 362.403 593.734 361.865 593.636 361.701C593.565 361.582 593.604 361.427 593.723 361.356Z" fill="#FFF6E7"/>
<path d="M599.15 342.153C599.237 342.045 599.396 342.027 599.504 342.114C599.613 342.201 599.631 342.359 599.544 342.468C599.39 342.66 599.164 343.01 599.002 343.417C598.839 343.827 598.753 344.265 598.838 344.647C598.868 344.783 598.782 344.918 598.647 344.948C598.511 344.978 598.376 344.892 598.346 344.757C598.23 344.233 598.353 343.685 598.534 343.231C598.716 342.773 598.969 342.38 599.15 342.153Z" fill="#FFF6E7"/>
<path d="M593.354 362.553C593.416 362.428 593.567 362.377 593.692 362.439C593.816 362.501 593.867 362.652 593.806 362.776C593.697 362.997 593.551 363.387 593.479 363.819C593.408 364.255 593.417 364.701 593.582 365.057C593.641 365.183 593.586 365.332 593.46 365.391C593.334 365.449 593.184 365.394 593.125 365.268C592.9 364.782 592.903 364.22 592.983 363.738C593.063 363.252 593.225 362.814 593.354 362.553Z" fill="#FFF6E7"/>
<path d="M579.213 363.958C579.003 364.252 578.508 365.091 578.206 366.098C578.248 365.846 578.206 365.066 577.702 363.958C576.569 363.329 576.192 360.812 578.206 360.308C578.639 359.708 579.417 358.282 579.718 356.61C579.764 356.102 579.811 355.633 579.842 355.273C579.842 355.729 579.796 356.177 579.718 356.61C579.576 358.177 579.445 360.11 579.842 360.308C581.101 360.938 581.101 363.958 579.213 363.958Z" fill="#FFF6E7"/>
<path d="M579.965 355.274C579.965 355.736 579.918 356.19 579.84 356.627C579.769 357.409 579.702 358.277 579.701 358.973C579.701 359.323 579.717 359.623 579.756 359.846C579.776 359.958 579.801 360.044 579.829 360.105C579.857 360.169 579.883 360.19 579.895 360.197C580.246 360.372 580.499 360.708 580.654 361.099C580.809 361.49 580.871 361.947 580.83 362.382C580.789 362.817 580.644 363.241 580.378 363.558C580.121 363.865 579.754 364.066 579.278 364.083C579.058 364.406 578.605 365.197 578.323 366.135L578.079 366.079C578.115 365.862 578.082 365.122 577.6 364.047C577.004 363.691 576.629 362.872 576.645 362.085C576.653 361.678 576.765 361.27 577.013 360.929C577.255 360.597 577.62 360.336 578.125 360.2C578.554 359.593 579.298 358.209 579.59 356.593C579.636 356.085 579.683 355.622 579.714 355.264L579.965 355.274ZM579.482 358C579.115 359.078 578.622 359.944 578.305 360.383L578.278 360.42L578.233 360.431C577.756 360.551 577.428 360.787 577.217 361.077C577.004 361.37 576.904 361.725 576.897 362.09C576.882 362.804 577.223 363.517 577.712 363.821L577.76 363.849L577.797 363.869L577.814 363.907C578.095 364.526 578.236 365.049 578.299 365.441C578.588 364.706 578.936 364.125 579.107 363.886L579.145 363.834H579.21C579.644 363.834 579.963 363.662 580.185 363.397C580.41 363.128 580.541 362.757 580.579 362.359C580.616 361.96 580.56 361.544 580.42 361.192C580.28 360.838 580.061 360.561 579.783 360.422C579.696 360.378 579.639 360.296 579.599 360.21C579.559 360.122 579.53 360.012 579.508 359.89C579.465 359.646 579.449 359.327 579.449 358.973C579.45 358.672 579.462 358.341 579.482 358Z" fill="#FFF6E7"/>
<path d="M579.709 363.743C579.829 363.671 579.983 363.71 580.055 363.829C580.126 363.948 580.088 364.103 579.968 364.175C579.915 364.207 579.885 364.251 579.873 364.325C579.859 364.409 579.869 364.524 579.908 364.665C579.987 364.947 580.159 365.254 580.297 365.451C580.377 365.565 580.349 365.722 580.235 365.801C580.121 365.881 579.964 365.853 579.884 365.739C579.728 365.516 579.523 365.157 579.423 364.801C579.374 364.623 579.345 364.427 579.376 364.241C579.41 364.045 579.511 363.862 579.709 363.743Z" fill="#FFF6E7"/>
<path d="M593.757 364.285C593.856 364.186 594.015 364.186 594.113 364.285C594.341 364.513 594.656 364.915 594.876 365.397C595.095 365.877 595.233 366.468 595.058 367.052C595.018 367.185 594.877 367.261 594.744 367.221C594.611 367.181 594.535 367.041 594.575 366.908C594.702 366.485 594.61 366.027 594.417 365.606C594.226 365.185 593.949 364.832 593.757 364.641C593.659 364.542 593.659 364.383 593.757 364.285Z" fill="#FFF6E7"/>
<path d="M593.955 366.125C594.01 365.998 594.158 365.938 594.286 365.993C594.414 366.048 594.473 366.196 594.418 366.323C594.302 366.593 594.174 367.045 594.168 367.505C594.162 367.966 594.279 368.393 594.604 368.678C594.709 368.77 594.719 368.929 594.628 369.033C594.536 369.138 594.377 369.149 594.273 369.057C593.792 368.637 593.658 368.036 593.664 367.499C593.671 366.96 593.819 366.443 593.955 366.125Z" fill="#FFF6E7"/>
<path d="M595.057 367.777C595.173 367.7 595.329 367.731 595.407 367.846C595.624 368.173 595.862 369.016 595.431 370.093C595.379 370.223 595.233 370.285 595.104 370.234C594.975 370.182 594.912 370.036 594.963 369.907C595.338 368.97 595.106 368.303 594.988 368.126C594.911 368.01 594.942 367.854 595.057 367.777Z" fill="#FFF6E7"/>
<path d="M594.335 369.656C594.386 369.527 594.533 369.464 594.662 369.516C594.791 369.568 594.854 369.714 594.802 369.843C594.73 370.023 594.649 370.355 594.656 370.733C594.664 371.109 594.759 371.515 595.021 371.865C595.105 371.976 595.082 372.133 594.971 372.217C594.86 372.3 594.702 372.278 594.619 372.166C594.277 371.711 594.162 371.194 594.153 370.743C594.144 370.295 594.239 369.896 594.335 369.656Z" fill="#FFF6E7"/>
<path d="M594.75 370.973C594.839 370.867 594.998 370.852 595.105 370.941C595.397 371.185 595.918 371.892 595.552 372.744C595.497 372.872 595.35 372.931 595.222 372.876C595.094 372.822 595.035 372.674 595.09 372.546C595.328 371.989 594.993 371.504 594.782 371.328C594.675 371.239 594.661 371.08 594.75 370.973Z" fill="#FFF6E7"/>
<path d="M594.866 372.121C594.946 372.008 595.103 371.982 595.217 372.063C595.33 372.143 595.356 372.3 595.275 372.414C595.116 372.637 594.906 373.257 595.5 373.851C595.598 373.95 595.598 374.109 595.5 374.207C595.402 374.306 595.242 374.306 595.144 374.207C594.329 373.392 594.605 372.485 594.866 372.121Z" fill="#FFF6E7"/>
<path d="M595.386 373.234C595.478 373.13 595.637 373.119 595.742 373.211C595.928 373.374 596.193 373.666 596.399 374.028C596.604 374.387 596.766 374.842 596.707 375.319C596.69 375.457 596.564 375.555 596.426 375.538C596.288 375.521 596.19 375.395 596.207 375.257C596.248 374.929 596.138 374.587 595.961 374.277C595.786 373.969 595.559 373.72 595.41 373.59C595.306 373.498 595.295 373.339 595.386 373.234Z" fill="#FFF6E7"/>
<path d="M595.586 374.714C595.624 374.58 595.763 374.503 595.897 374.541C596.031 374.579 596.108 374.719 596.07 374.852C596.033 374.982 595.986 375.215 595.972 375.473C595.958 375.734 595.98 375.997 596.061 376.2C596.113 376.329 596.05 376.476 595.921 376.527C595.792 376.579 595.646 376.516 595.594 376.387C595.474 376.087 595.454 375.741 595.469 375.446C595.485 375.149 595.539 374.878 595.586 374.714Z" fill="#FFF6E7"/>
<path d="M596.032 375.73C596.135 375.636 596.294 375.644 596.387 375.746C596.615 375.996 596.922 376.431 597.121 376.941C597.32 377.449 597.424 378.066 597.19 378.653C597.138 378.782 596.992 378.844 596.863 378.793C596.734 378.741 596.671 378.595 596.722 378.466C596.891 378.045 596.827 377.571 596.653 377.125C596.479 376.68 596.207 376.297 596.015 376.085C595.921 375.982 595.929 375.823 596.032 375.73Z" fill="#FFF6E7"/>
<path d="M596.231 377.307C596.297 377.185 596.45 377.14 596.572 377.207C596.694 377.273 596.739 377.426 596.673 377.548C596.556 377.761 596.403 378.122 596.327 378.494C596.249 378.877 596.265 379.212 596.409 379.428C596.487 379.543 596.455 379.7 596.34 379.777C596.224 379.854 596.068 379.823 595.991 379.707C595.732 379.319 595.748 378.814 595.834 378.394C595.921 377.963 596.095 377.555 596.231 377.307Z" fill="#FFF6E7"/>
<path d="M596.383 378.571C596.516 378.531 596.656 378.607 596.696 378.74C596.764 378.967 596.843 379.338 596.867 379.735C596.89 380.126 596.861 380.578 596.68 380.939C596.618 381.063 596.467 381.114 596.342 381.051C596.218 380.989 596.168 380.838 596.23 380.714C596.351 380.471 596.385 380.125 596.364 379.765C596.343 379.411 596.272 379.078 596.214 378.885C596.174 378.751 596.25 378.611 596.383 378.571Z" fill="#FFF6E7"/>
<path d="M595.863 380.193C595.934 380.073 596.089 380.035 596.208 380.106C596.327 380.178 596.366 380.332 596.295 380.452C596.207 380.597 596.042 381.108 596.31 381.733C596.365 381.861 596.306 382.009 596.178 382.064C596.05 382.119 595.902 382.059 595.847 381.932C595.511 381.147 595.698 380.466 595.863 380.193Z" fill="#FFF6E7"/>
<path d="M596.18 381.25C596.293 381.169 596.45 381.195 596.531 381.309C596.656 381.484 596.804 381.783 596.867 382.138C596.93 382.497 596.907 382.927 596.67 383.342C596.601 383.463 596.448 383.505 596.327 383.436C596.206 383.367 596.164 383.213 596.233 383.092C596.399 382.802 596.419 382.498 596.371 382.225C596.322 381.949 596.206 381.72 596.121 381.601C596.04 381.488 596.067 381.331 596.18 381.25Z" fill="#FFF6E7"/>
<path d="M595.895 382.285C595.994 382.186 596.153 382.186 596.251 382.285C596.349 382.383 596.349 382.542 596.251 382.641C596.141 382.751 595.992 382.939 595.908 383.135C595.821 383.337 595.827 383.477 595.897 383.57C595.98 383.682 595.958 383.839 595.847 383.923C595.735 384.006 595.577 383.983 595.494 383.872C595.262 383.563 595.331 383.199 595.446 382.935C595.562 382.665 595.754 382.426 595.895 382.285Z" fill="#FFF6E7"/>
<path d="M596.032 382.968C596.169 382.945 596.299 383.038 596.322 383.175C596.367 383.445 596.386 383.859 596.266 384.195C596.205 384.366 596.099 384.541 595.917 384.65C595.731 384.762 595.506 384.782 595.257 384.719C595.122 384.686 595.04 384.549 595.074 384.414C595.108 384.279 595.244 384.197 595.379 384.231C595.533 384.27 595.614 384.245 595.658 384.219C595.707 384.189 595.755 384.131 595.792 384.026C595.87 383.807 595.864 383.492 595.825 383.258C595.802 383.121 595.895 382.991 596.032 382.968Z" fill="#FFF6E7"/>
<path d="M594.289 383.692C594.645 383.646 595.074 383.68 595.358 383.724C595.495 383.745 595.589 383.874 595.568 384.011C595.547 384.149 595.419 384.243 595.281 384.222C595.019 384.182 594.643 384.154 594.355 384.191C594.206 384.21 594.114 384.243 594.07 384.274C594.061 384.28 594.057 384.284 594.054 384.287C594.054 384.289 594.055 384.294 594.056 384.301C594.083 384.438 593.995 384.57 593.859 384.598C593.722 384.625 593.59 384.536 593.562 384.4C593.541 384.293 593.548 384.186 593.592 384.085C593.636 383.986 593.706 383.913 593.782 383.861C593.927 383.76 594.116 383.714 594.289 383.692Z" fill="#FFF6E7"/>
<path d="M594.186 384.476C594.186 384.337 594.299 384.225 594.438 384.225C594.577 384.225 594.689 384.337 594.689 384.476C594.689 384.643 594.622 384.869 594.424 385.036C594.222 385.208 593.922 385.286 593.521 385.229C593.383 385.209 593.288 385.082 593.307 384.944C593.327 384.807 593.455 384.711 593.592 384.731C593.896 384.774 594.037 384.705 594.098 384.653C594.165 384.596 594.186 384.52 594.186 384.476Z" fill="#FFF6E7"/>
<path d="M592.234 384.108C593.035 383.88 593.713 384.2 593.97 384.406C594.079 384.492 594.096 384.651 594.01 384.759C593.923 384.868 593.764 384.886 593.656 384.799C593.494 384.669 592.98 384.419 592.372 384.592C592.238 384.631 592.099 384.553 592.061 384.42C592.022 384.286 592.1 384.147 592.234 384.108Z" fill="#FFF6E7"/>
<path d="M592.713 384.495C592.842 384.443 592.989 384.506 593.041 384.635C593.092 384.764 593.029 384.911 592.9 384.962C592.673 385.053 592.309 385.161 591.941 385.193C591.589 385.224 591.152 385.192 590.867 384.906C590.768 384.808 590.768 384.649 590.867 384.55C590.965 384.452 591.124 384.452 591.223 384.55C591.34 384.668 591.574 384.72 591.898 384.692C592.205 384.665 592.521 384.572 592.713 384.495Z" fill="#FFF6E7"/>
<path d="M590.601 383.602C590.922 383.521 591.195 383.68 591.375 383.841C591.558 384.006 591.695 384.216 591.768 384.363C591.83 384.487 591.78 384.638 591.656 384.7C591.531 384.763 591.38 384.712 591.318 384.588C591.265 384.482 591.163 384.328 591.038 384.216C590.909 384.1 590.805 384.07 590.723 384.09C590.588 384.124 590.451 384.042 590.418 383.907C590.384 383.772 590.466 383.635 590.601 383.602Z" fill="#FFF6E7"/>
<path d="M589.436 382.983C589.565 382.931 589.711 382.994 589.763 383.123C589.84 383.315 590.01 383.502 590.216 383.663C590.419 383.822 590.633 383.937 590.761 383.992C590.889 384.047 590.948 384.195 590.893 384.323C590.839 384.45 590.691 384.51 590.563 384.455C590.398 384.384 590.146 384.248 589.906 384.06C589.669 383.875 589.42 383.621 589.295 383.31C589.244 383.181 589.307 383.034 589.436 382.983Z" fill="#FFF6E7"/>
<path d="M590.163 383.469C590.163 383.086 589.907 382.217 588.843 381.951C588.708 381.917 588.626 381.781 588.66 381.646C588.694 381.511 588.83 381.429 588.965 381.463C590.317 381.801 590.666 382.929 590.666 383.469C590.666 383.608 590.553 383.721 590.414 383.721C590.275 383.721 590.163 383.608 590.163 383.469Z" fill="#FFF6E7"/>
<path d="M586.784 380.974C586.911 380.916 587.06 380.972 587.118 381.099C587.339 381.585 587.739 381.916 588.167 382.133C588.596 382.351 589.035 382.444 589.298 382.462C589.437 382.472 589.541 382.593 589.531 382.731C589.521 382.87 589.401 382.974 589.262 382.964C588.938 382.941 588.433 382.833 587.939 382.582C587.444 382.331 586.942 381.928 586.659 381.307C586.602 381.181 586.658 381.031 586.784 380.974Z" fill="#FFF6E7"/>
<path d="M587.641 381.454C587.641 381.103 587.42 380.171 586.49 379.52C586.376 379.441 586.349 379.284 586.428 379.17C586.508 379.056 586.665 379.028 586.779 379.108C587.863 379.867 588.145 380.965 588.145 381.454C588.145 381.593 588.032 381.706 587.893 381.706C587.754 381.706 587.641 381.593 587.641 381.454Z" fill="#FFF6E7"/>
<path d="M584.957 378.06C585.094 378.037 585.223 378.13 585.246 378.267C585.334 378.796 585.628 379.186 585.971 379.462C586.317 379.741 586.703 379.896 586.942 379.951C587.078 379.982 587.162 380.118 587.131 380.253C587.1 380.388 586.965 380.473 586.829 380.442C586.523 380.371 586.066 380.185 585.655 379.854C585.241 379.52 584.863 379.029 584.75 378.35C584.727 378.213 584.819 378.083 584.957 378.06Z" fill="#FFF6E7"/>
<path d="M584.913 377.419C584.987 377.301 585.142 377.265 585.26 377.339C585.699 377.614 585.935 377.919 586.03 378.215C586.124 378.508 586.073 378.772 585.972 378.941C585.9 379.06 585.746 379.099 585.626 379.027C585.507 378.955 585.469 378.801 585.54 378.682C585.565 378.64 585.602 378.527 585.551 378.369C585.501 378.214 585.36 377.995 584.993 377.766C584.875 377.692 584.84 377.537 584.913 377.419Z" fill="#FFF6E7"/>
<path d="M583.613 375.791C583.613 375.652 583.726 375.539 583.865 375.539C584.004 375.539 584.117 375.652 584.117 375.791C584.117 376.779 584.795 377.404 585.12 377.585C585.242 377.652 585.285 377.805 585.218 377.927C585.15 378.048 584.997 378.092 584.876 378.025C584.446 377.786 583.613 377.018 583.613 375.791Z" fill="#FFF6E7"/>
<path d="M583.852 373.732C583.863 373.737 583.878 373.746 583.883 373.749C583.886 373.751 583.891 373.754 583.893 373.756C583.899 373.76 583.904 373.763 583.904 373.764C583.911 373.769 583.929 373.784 583.952 373.804C584.004 373.848 584.108 373.937 584.284 374.088C584.304 374.106 584.324 374.124 584.343 374.143C584.345 374.144 584.346 374.145 584.347 374.146H584.347C584.351 374.149 584.354 374.152 584.358 374.156C584.732 374.516 584.888 374.987 584.938 375.411C584.988 375.834 584.935 376.234 584.866 376.486C584.83 376.62 584.691 376.699 584.557 376.662C584.423 376.626 584.344 376.487 584.381 376.353C584.434 376.157 584.479 375.822 584.438 375.47C584.397 375.119 584.272 374.774 584.011 374.521C583.856 374.387 583.668 374.226 583.604 374.17C583.596 374.163 583.59 374.158 583.585 374.154C583.584 374.152 583.58 374.15 583.578 374.147C583.577 374.146 583.575 374.145 583.573 374.143C583.572 374.142 583.57 374.139 583.567 374.137C583.565 374.135 583.562 374.131 583.56 374.129C583.556 374.125 583.547 374.114 583.541 374.106C583.528 374.085 583.495 373.955 583.522 373.848C583.632 373.737 583.82 373.72 583.852 373.732Z" fill="#FFF6E7"/>
<path d="M582.486 372.724C582.511 372.587 582.642 372.497 582.778 372.522C582.915 372.547 583.006 372.677 582.981 372.814C582.893 373.296 583.019 373.728 583.222 374.082C583.427 374.439 583.703 374.701 583.885 374.829C583.999 374.908 584.026 375.065 583.946 375.179C583.867 375.293 583.71 375.321 583.596 375.241C583.358 375.075 583.03 374.758 582.786 374.333C582.54 373.904 582.372 373.351 582.486 372.724Z" fill="#FFF6E7"/>
<path d="M582.683 371.585C582.781 371.487 582.941 371.487 583.039 371.585C583.702 372.249 583.726 372.923 583.598 373.241C583.547 373.37 583.4 373.433 583.271 373.382C583.142 373.33 583.079 373.184 583.131 373.055C583.171 372.953 583.228 372.487 582.683 371.941C582.585 371.843 582.585 371.684 582.683 371.585Z" fill="#FFF6E7"/>
<path d="M582.125 370.657C582.18 370.529 582.328 370.47 582.456 370.524C582.584 370.579 582.643 370.727 582.588 370.855C582.352 371.406 582.68 371.801 582.874 371.931C582.99 372.008 583.021 372.164 582.944 372.28C582.867 372.396 582.711 372.427 582.595 372.35C582.286 372.144 581.758 371.515 582.125 370.657Z" fill="#FFF6E7"/>
<path d="M581.66 368.329C581.749 368.222 581.908 368.208 582.015 368.297C583.33 369.392 583.129 370.704 582.83 371.254C582.763 371.376 582.61 371.421 582.488 371.354C582.366 371.288 582.321 371.135 582.388 371.013C582.591 370.64 582.794 369.602 581.692 368.684C581.585 368.595 581.571 368.436 581.66 368.329Z" fill="#FFF6E7"/>
<path d="M579.965 366.853C579.965 366.714 580.078 366.602 580.217 366.602C580.356 366.602 580.468 366.714 580.468 366.853C580.468 367.324 580.721 367.824 581.076 368.278C581.426 368.726 581.848 369.094 582.125 369.292C582.238 369.373 582.264 369.53 582.184 369.643C582.103 369.756 581.946 369.782 581.832 369.701C581.522 369.48 581.063 369.079 580.679 368.588C580.299 368.102 579.965 367.491 579.965 366.853Z" fill="#FFF6E7"/>
<path d="M579.96 364.373C580.078 364.3 580.233 364.337 580.306 364.456C581.139 365.809 581.193 366.958 581.093 367.411C581.062 367.547 580.928 367.633 580.792 367.603C580.657 367.572 580.571 367.438 580.601 367.302C580.668 367.001 580.655 365.984 579.877 364.72C579.804 364.601 579.841 364.446 579.96 364.373Z" fill="#FFF6E7"/>
<path d="M374.271 322.185C374.308 322.051 374.447 321.972 374.581 322.009C374.991 322.123 375.59 322.399 376.078 322.866C376.572 323.338 376.961 324.015 376.905 324.911C376.896 325.05 376.776 325.155 376.638 325.146C376.499 325.138 376.393 325.018 376.402 324.879C376.447 324.164 376.143 323.625 375.73 323.23C375.313 322.83 374.791 322.59 374.446 322.495C374.312 322.457 374.234 322.318 374.271 322.185Z" fill="#FFF6E7"/>
<path d="M375.107 324.016C375.244 323.997 375.372 324.092 375.392 324.23C375.423 324.451 375.664 325.063 376.388 325.425C376.512 325.487 376.563 325.638 376.5 325.763C376.438 325.887 376.287 325.937 376.163 325.875C375.275 325.431 374.945 324.667 374.893 324.301C374.874 324.164 374.969 324.036 375.107 324.016Z" fill="#FFF6E7"/>
<path d="M375.929 324.895C375.999 324.774 376.153 324.734 376.273 324.804C376.548 324.964 376.933 325.265 377.198 325.658C377.467 326.054 377.632 326.578 377.383 327.138C377.327 327.265 377.178 327.322 377.051 327.265C376.924 327.209 376.867 327.06 376.923 326.933C377.077 326.586 376.991 326.25 376.781 325.94C376.568 325.625 376.248 325.372 376.02 325.239C375.899 325.169 375.859 325.015 375.929 324.895Z" fill="#FFF6E7"/>
<path d="M367.817 344.5C367.903 344.391 368.062 344.373 368.171 344.46C368.42 344.658 368.757 345.011 368.963 345.438C369.171 345.869 369.26 346.411 368.933 346.929C368.859 347.047 368.703 347.082 368.585 347.008C368.468 346.933 368.433 346.778 368.507 346.66C368.709 346.339 368.672 345.994 368.509 345.657C368.344 345.315 368.064 345.018 367.857 344.854C367.748 344.767 367.73 344.608 367.817 344.5Z" fill="#FFF6E7"/>
<path d="M376.288 326.443C376.337 326.313 376.482 326.247 376.612 326.295C376.743 326.344 376.809 326.489 376.76 326.62C376.704 326.768 376.635 327.027 376.615 327.305C376.594 327.587 376.628 327.851 376.74 328.038C376.812 328.157 376.773 328.312 376.654 328.383C376.534 328.455 376.38 328.416 376.308 328.297C376.118 327.981 376.089 327.594 376.112 327.268C376.136 326.937 376.218 326.63 376.288 326.443Z" fill="#FFF6E7"/>
<path d="M367.951 346.084C368.018 345.963 368.171 345.918 368.292 345.985C368.414 346.053 368.458 346.206 368.391 346.328C368.315 346.466 368.209 346.713 368.149 346.984C368.088 347.261 368.083 347.527 368.167 347.728C368.221 347.856 368.16 348.004 368.032 348.057C367.904 348.111 367.756 348.051 367.703 347.922C367.56 347.582 367.587 347.195 367.657 346.876C367.729 346.552 367.854 346.26 367.951 346.084Z" fill="#FFF6E7"/>
<path d="M377.084 327.422C377.218 327.384 377.358 327.461 377.396 327.595C377.5 327.961 377.506 328.814 376.841 329.59C376.751 329.695 376.592 329.708 376.486 329.617C376.381 329.527 376.369 329.368 376.459 329.262C377.002 328.629 376.975 327.955 376.911 327.733C376.873 327.599 376.951 327.46 377.084 327.422Z" fill="#FFF6E7"/>
<path d="M368.595 347.167C368.733 347.149 368.86 347.245 368.878 347.383C368.929 347.76 368.812 348.605 368.042 349.277C367.937 349.369 367.779 349.358 367.687 349.253C367.596 349.149 367.607 348.99 367.711 348.898C368.34 348.35 368.41 347.679 368.379 347.45C368.361 347.312 368.458 347.186 368.595 347.167Z" fill="#FFF6E7"/>
<path d="M375.27 330.181C375.27 329.263 375.844 328.731 376.164 328.572C376.288 328.509 376.439 328.56 376.502 328.684C376.564 328.808 376.513 328.96 376.389 329.022C376.205 329.114 375.773 329.489 375.773 330.181C375.773 330.32 375.66 330.433 375.521 330.433C375.382 330.433 375.27 330.32 375.27 330.181Z" fill="#FFF6E7"/>
<path d="M366.401 349.637C366.533 348.728 367.178 348.285 367.518 348.173C367.65 348.129 367.792 348.201 367.836 348.333C367.88 348.465 367.808 348.607 367.676 348.651C367.481 348.715 366.999 349.024 366.899 349.709C366.879 349.847 366.751 349.942 366.614 349.922C366.476 349.902 366.381 349.774 366.401 349.637Z" fill="#FFF6E7"/>
<path d="M376.023 329.804C376.023 329.665 376.135 329.553 376.274 329.553C376.413 329.553 376.526 329.665 376.526 329.804C376.526 330.029 376.468 330.368 376.293 330.684C376.115 331.007 375.812 331.312 375.328 331.433C375.193 331.467 375.057 331.385 375.023 331.25C374.99 331.115 375.071 330.979 375.206 330.945C375.529 330.864 375.728 330.666 375.852 330.441C375.98 330.21 376.023 329.957 376.023 329.804Z" fill="#FFF6E7"/>
<path d="M367.202 349.371C367.222 349.233 367.35 349.138 367.488 349.158C367.625 349.178 367.721 349.306 367.7 349.443C367.668 349.666 367.561 349.993 367.343 350.28C367.121 350.574 366.776 350.833 366.281 350.882C366.142 350.896 366.019 350.796 366.005 350.657C365.991 350.519 366.092 350.396 366.23 350.382C366.561 350.348 366.787 350.181 366.942 349.976C367.102 349.766 367.18 349.522 367.202 349.371Z" fill="#FFF6E7"/>
<path d="M374.531 330.574C374.885 330.43 375.281 330.411 375.539 330.434C375.677 330.447 375.779 330.569 375.767 330.708C375.754 330.846 375.632 330.948 375.493 330.936C375.29 330.917 374.98 330.935 374.72 331.041C374.469 331.143 374.291 331.311 374.255 331.597C374.238 331.735 374.112 331.833 373.974 331.816C373.836 331.799 373.739 331.673 373.756 331.535C373.821 331.015 374.167 330.722 374.531 330.574Z" fill="#FFF6E7"/>
<path d="M365.027 349.681C365.31 349.423 365.675 349.269 365.925 349.202C366.059 349.167 366.197 349.247 366.233 349.381C366.269 349.515 366.189 349.653 366.055 349.689C365.857 349.742 365.573 349.865 365.365 350.054C365.164 350.236 365.055 350.455 365.12 350.736C365.151 350.871 365.067 351.007 364.931 351.038C364.796 351.069 364.661 350.985 364.629 350.849C364.512 350.339 364.736 349.945 365.027 349.681Z" fill="#FFF6E7"/>
<path d="M374.517 331.385C374.547 331.249 374.682 331.163 374.818 331.194C374.953 331.224 375.039 331.358 375.009 331.494C374.907 331.952 374.396 332.849 373.172 333.071C373.035 333.096 372.904 333.006 372.879 332.869C372.854 332.732 372.945 332.601 373.082 332.576C374.072 332.396 374.451 331.682 374.517 331.385Z" fill="#FFF6E7"/>
<path d="M365.662 351.453C365.662 351.314 365.775 351.201 365.914 351.202C366.053 351.202 366.166 351.315 366.166 351.454C366.164 351.924 365.857 352.909 364.708 353.388C364.58 353.442 364.433 353.381 364.379 353.253C364.326 353.125 364.386 352.977 364.515 352.924C365.444 352.536 365.661 351.757 365.662 351.453Z" fill="#FFF6E7"/>
<path d="M373.358 331.819C373.497 331.809 373.618 331.912 373.628 332.051C373.639 332.19 373.535 332.31 373.396 332.321C373.201 332.336 372.875 332.41 372.566 332.585C372.26 332.759 371.985 333.022 371.854 333.41C371.809 333.541 371.666 333.612 371.534 333.567C371.403 333.523 371.332 333.38 371.377 333.248C371.558 332.713 371.936 332.364 372.318 332.147C372.698 331.932 373.097 331.839 373.358 331.819Z" fill="#FFF6E7"/>
<path d="M364.394 351.964C364.529 351.93 364.666 352.012 364.7 352.146C364.734 352.281 364.653 352.418 364.518 352.452C364.332 352.499 364.034 352.615 363.768 352.803C363.5 352.991 363.294 353.231 363.231 353.52C363.202 353.656 363.068 353.742 362.932 353.713C362.796 353.684 362.71 353.55 362.739 353.414C362.839 352.953 363.156 352.618 363.478 352.391C363.801 352.163 364.157 352.024 364.394 351.964Z" fill="#FFF6E7"/>
<path d="M372.437 333.336C372.572 333.302 372.709 333.384 372.742 333.519C372.832 333.878 372.906 334.451 372.836 335.02C372.767 335.585 372.55 336.197 372.009 336.558C371.893 336.635 371.737 336.604 371.659 336.489C371.582 336.373 371.614 336.217 371.729 336.139C372.094 335.896 372.275 335.459 372.337 334.959C372.397 334.463 372.332 333.953 372.254 333.641C372.22 333.506 372.302 333.369 372.437 333.336Z" fill="#FFF6E7"/>
<path d="M363.916 353.047C364.041 352.985 364.191 353.036 364.253 353.16C364.418 353.492 364.612 354.036 364.666 354.607C364.72 355.174 364.638 355.818 364.187 356.287C364.09 356.387 363.931 356.39 363.831 356.293C363.731 356.197 363.728 356.037 363.824 355.937C364.129 355.621 364.212 355.156 364.165 354.654C364.118 354.156 363.945 353.672 363.802 353.384C363.741 353.259 363.792 353.109 363.916 353.047Z" fill="#FFF6E7"/>
<path d="M370.484 337.105C370.484 335.984 371.226 335.243 371.61 335.003C371.727 334.929 371.883 334.965 371.956 335.083C372.03 335.201 371.994 335.356 371.877 335.43C371.589 335.61 370.988 336.211 370.988 337.105C370.988 337.244 370.875 337.356 370.736 337.356C370.597 337.356 370.484 337.244 370.484 337.105Z" fill="#FFF6E7"/>
<path d="M362.817 357.147C362.577 356.053 363.143 355.17 363.467 354.853C363.566 354.756 363.725 354.758 363.823 354.857C363.92 354.957 363.918 355.116 363.819 355.213C363.576 355.45 363.118 356.166 363.309 357.039C363.339 357.175 363.253 357.309 363.117 357.339C362.981 357.369 362.847 357.283 362.817 357.147Z" fill="#FFF6E7"/>
<path d="M371.439 336.608C371.575 336.577 371.709 336.663 371.739 336.799C371.788 337.016 371.815 337.36 371.747 337.71C371.678 338.062 371.506 338.448 371.13 338.699C371.014 338.776 370.858 338.745 370.781 338.629C370.703 338.514 370.735 338.357 370.85 338.28C371.078 338.128 371.2 337.885 371.253 337.614C371.306 337.341 371.283 337.068 371.248 336.908C371.218 336.772 371.303 336.638 371.439 336.608Z" fill="#FFF6E7"/>
<path d="M363.639 356.458C363.765 356.399 363.915 356.454 363.973 356.58C364.067 356.782 364.168 357.112 364.176 357.469C364.184 357.827 364.098 358.241 363.784 358.567C363.688 358.667 363.528 358.67 363.428 358.573C363.328 358.477 363.325 358.317 363.422 358.217C363.612 358.02 363.679 357.756 363.672 357.48C363.666 357.203 363.585 356.941 363.516 356.792C363.458 356.666 363.513 356.516 363.639 356.458Z" fill="#FFF6E7"/>
<path d="M370.824 337.671C370.928 337.579 371.087 337.588 371.179 337.692C371.271 337.796 371.262 337.955 371.158 338.047C370.982 338.203 370.706 338.491 370.463 338.835C370.217 339.183 370.025 339.562 369.982 339.904C369.965 340.042 369.839 340.14 369.701 340.123C369.563 340.106 369.465 339.98 369.482 339.842C369.54 339.378 369.788 338.918 370.052 338.544C370.319 338.167 370.622 337.851 370.824 337.671Z" fill="#FFF6E7"/>
<path d="M363.267 357.628C363.349 357.516 363.506 357.491 363.619 357.573C363.731 357.654 363.756 357.812 363.674 357.924C363.536 358.114 363.328 358.455 363.164 358.842C362.998 359.235 362.891 359.646 362.923 359.99C362.935 360.128 362.833 360.251 362.695 360.263C362.557 360.276 362.434 360.174 362.421 360.036C362.379 359.571 362.522 359.068 362.7 358.647C362.88 358.22 363.108 357.847 363.267 357.628Z" fill="#FFF6E7"/>
<path d="M370.587 339.37C370.726 339.358 370.848 339.46 370.861 339.598C370.908 340.117 370.751 341.346 369.781 342.316C369.683 342.415 369.524 342.415 369.425 342.316C369.327 342.218 369.327 342.059 369.425 341.96C370.268 341.118 370.396 340.048 370.359 339.644C370.347 339.505 370.449 339.383 370.587 339.37Z" fill="#FFF6E7"/>
<path d="M363.399 359.338C363.531 359.296 363.673 359.37 363.715 359.502C363.872 359.999 363.982 361.234 363.242 362.389C363.167 362.506 363.011 362.54 362.894 362.465C362.777 362.39 362.743 362.234 362.818 362.117C363.461 361.114 363.357 360.041 363.235 359.654C363.193 359.522 363.266 359.38 363.399 359.338Z" fill="#FFF6E7"/>
<path d="M369.583 340.799C369.697 340.72 369.854 340.747 369.933 340.861C370.013 340.975 369.985 341.132 369.871 341.212C369.674 341.35 369.36 341.604 369.073 341.906C368.78 342.214 368.542 342.544 368.459 342.837C368.421 342.971 368.281 343.048 368.148 343.01C368.014 342.972 367.936 342.832 367.975 342.699C368.092 342.286 368.4 341.883 368.708 341.559C369.02 341.23 369.361 340.955 369.583 340.799Z" fill="#FFF6E7"/>
<path d="M362.727 360.948C362.821 360.846 362.98 360.84 363.083 360.934C363.185 361.028 363.191 361.187 363.097 361.289C362.934 361.467 362.681 361.782 362.465 362.138C362.246 362.501 362.084 362.876 362.065 363.179C362.056 363.318 361.937 363.423 361.798 363.415C361.659 363.406 361.554 363.286 361.562 363.148C361.589 362.72 361.803 362.26 362.035 361.878C362.27 361.489 362.543 361.148 362.727 360.948Z" fill="#FFF6E7"/>
<path d="M368.769 342.152C368.9 342.108 369.043 342.179 369.087 342.311C369.194 342.633 369.231 343.382 368.664 344.062C368.575 344.169 368.416 344.183 368.309 344.094C368.203 344.005 368.188 343.846 368.277 343.74C368.717 343.212 368.67 342.651 368.609 342.47C368.566 342.338 368.637 342.196 368.769 342.152Z" fill="#FFF6E7"/>
<path d="M362.216 362.444C362.335 362.373 362.489 362.412 362.561 362.531C362.734 362.823 362.931 363.546 362.522 364.332C362.458 364.456 362.306 364.504 362.183 364.44C362.059 364.376 362.011 364.223 362.075 364.1C362.392 363.491 362.226 362.953 362.128 362.789C362.057 362.669 362.096 362.515 362.216 362.444Z" fill="#FFF6E7"/>
<path d="M367.643 343.241C367.73 343.132 367.888 343.115 367.997 343.202C368.105 343.288 368.123 343.447 368.036 343.556C367.882 343.748 367.656 344.098 367.494 344.505C367.331 344.915 367.245 345.352 367.33 345.735C367.36 345.871 367.274 346.006 367.139 346.036C367.003 346.066 366.868 345.98 366.838 345.844C366.722 345.321 366.846 344.773 367.026 344.318C367.208 343.861 367.461 343.468 367.643 343.241Z" fill="#FFF6E7"/>
<path d="M361.846 363.641C361.908 363.516 362.059 363.465 362.184 363.527C362.308 363.588 362.36 363.74 362.298 363.864C362.189 364.085 362.043 364.475 361.972 364.907C361.9 365.343 361.91 365.789 362.075 366.144C362.133 366.271 362.078 366.42 361.952 366.479C361.826 366.537 361.676 366.482 361.618 366.356C361.392 365.87 361.395 365.308 361.475 364.825C361.555 364.34 361.717 363.902 361.846 363.641Z" fill="#FFF6E7"/>
<path d="M347.705 365.048C347.495 365.342 347 366.181 346.698 367.188C346.74 366.936 346.698 366.156 346.194 365.048C345.062 364.419 344.684 361.902 346.698 361.398C347.131 360.798 347.909 359.372 348.21 357.7C348.256 357.192 348.303 356.723 348.334 356.363C348.334 356.818 348.288 357.267 348.21 357.7C348.068 359.267 347.938 361.2 348.334 361.398C349.593 362.027 349.593 365.048 347.705 365.048Z" fill="#FFF6E7"/>
<path d="M348.457 356.362C348.457 356.824 348.41 357.278 348.332 357.715C348.261 358.497 348.194 359.365 348.193 360.061C348.193 360.411 348.209 360.711 348.249 360.934C348.268 361.046 348.293 361.132 348.321 361.193C348.35 361.257 348.375 361.278 348.387 361.285C348.738 361.46 348.991 361.796 349.146 362.187C349.302 362.578 349.363 363.034 349.322 363.47C349.281 363.905 349.136 364.329 348.87 364.646C348.613 364.953 348.246 365.154 347.77 365.171C347.55 365.494 347.097 366.284 346.816 367.223L346.571 367.166C346.607 366.95 346.574 366.21 346.092 365.135C345.497 364.779 345.121 363.96 345.137 363.173C345.146 362.766 345.258 362.358 345.505 362.017C345.747 361.685 346.112 361.424 346.618 361.287C347.046 360.681 347.79 359.297 348.082 357.681C348.128 357.173 348.175 356.71 348.206 356.352L348.457 356.362ZM347.974 359.087C347.607 360.166 347.114 361.032 346.797 361.471L346.77 361.508L346.725 361.519C346.248 361.639 345.92 361.874 345.709 362.165C345.497 362.458 345.396 362.813 345.389 363.177C345.374 363.892 345.715 364.605 346.205 364.909L346.253 364.937L346.289 364.957L346.306 364.995C346.587 365.614 346.728 366.137 346.791 366.529C347.081 365.794 347.429 365.213 347.6 364.974L347.637 364.921H347.702C348.136 364.921 348.455 364.75 348.677 364.485C348.903 364.216 349.033 363.845 349.071 363.446C349.109 363.048 349.052 362.632 348.912 362.279C348.772 361.926 348.553 361.649 348.275 361.51C348.188 361.466 348.131 361.384 348.092 361.298C348.051 361.209 348.022 361.1 348 360.978C347.957 360.733 347.941 360.415 347.941 360.061C347.942 359.76 347.954 359.429 347.974 359.087Z" fill="#FFF6E7"/>
<path d="M348.202 364.831C348.321 364.759 348.475 364.798 348.547 364.917C348.618 365.036 348.58 365.191 348.461 365.263C348.407 365.295 348.378 365.339 348.365 365.413C348.351 365.496 348.361 365.612 348.4 365.753C348.479 366.035 348.652 366.342 348.789 366.539C348.869 366.653 348.841 366.81 348.727 366.889C348.613 366.969 348.456 366.941 348.377 366.827C348.22 366.604 348.015 366.244 347.916 365.889C347.866 365.711 347.837 365.515 347.869 365.329C347.902 365.133 348.003 364.95 348.202 364.831Z" fill="#FFF6E7"/>
<path d="M362.25 365.373C362.348 365.274 362.507 365.274 362.605 365.373C362.834 365.601 363.148 366.003 363.368 366.484C363.587 366.965 363.725 367.556 363.55 368.14C363.51 368.273 363.369 368.349 363.236 368.309C363.103 368.269 363.028 368.129 363.067 367.996C363.194 367.573 363.102 367.115 362.91 366.693C362.718 366.273 362.441 365.92 362.25 365.729C362.151 365.63 362.151 365.471 362.25 365.373Z" fill="#FFF6E7"/>
<path d="M362.448 367.213C362.502 367.085 362.65 367.026 362.778 367.081C362.906 367.136 362.965 367.284 362.91 367.411C362.795 367.681 362.666 368.133 362.66 368.593C362.654 369.054 362.771 369.481 363.096 369.766C363.201 369.858 363.211 370.017 363.12 370.121C363.028 370.226 362.869 370.237 362.765 370.145C362.284 369.725 362.15 369.124 362.156 368.587C362.163 368.048 362.311 367.531 362.448 367.213Z" fill="#FFF6E7"/>
<path d="M363.55 368.867C363.665 368.789 363.822 368.821 363.899 368.936C364.117 369.263 364.354 370.106 363.923 371.183C363.871 371.312 363.725 371.375 363.596 371.324C363.467 371.272 363.404 371.126 363.456 370.996C363.83 370.06 363.598 369.392 363.48 369.216C363.403 369.1 363.434 368.944 363.55 368.867Z" fill="#FFF6E7"/>
<path d="M362.827 370.744C362.878 370.615 363.025 370.552 363.154 370.604C363.283 370.656 363.346 370.802 363.294 370.931C363.223 371.111 363.141 371.442 363.149 371.821C363.156 372.197 363.251 372.603 363.514 372.952C363.597 373.064 363.574 373.221 363.463 373.305C363.352 373.388 363.194 373.366 363.111 373.254C362.769 372.799 362.654 372.281 362.645 371.831C362.636 371.383 362.731 370.984 362.827 370.744Z" fill="#FFF6E7"/>
<path d="M363.242 372.061C363.331 371.954 363.49 371.94 363.597 372.029C363.889 372.272 364.41 372.979 364.044 373.832C363.99 373.96 363.842 374.019 363.714 373.964C363.586 373.91 363.527 373.762 363.582 373.634C363.82 373.077 363.486 372.592 363.274 372.416C363.167 372.327 363.153 372.168 363.242 372.061Z" fill="#FFF6E7"/>
<path d="M363.358 373.209C363.439 373.096 363.596 373.07 363.709 373.15C363.822 373.231 363.848 373.388 363.767 373.501C363.608 373.725 363.398 374.345 363.992 374.939C364.091 375.038 364.091 375.197 363.992 375.295C363.894 375.394 363.735 375.394 363.636 375.295C362.821 374.48 363.098 373.573 363.358 373.209Z" fill="#FFF6E7"/>
<path d="M363.879 374.322C363.97 374.218 364.129 374.207 364.234 374.299C364.421 374.462 364.685 374.754 364.891 375.115C365.096 375.475 365.259 375.93 365.199 376.407C365.182 376.545 365.056 376.643 364.918 376.626C364.78 376.609 364.682 376.483 364.699 376.345C364.74 376.017 364.63 375.675 364.454 375.365C364.278 375.057 364.051 374.808 363.902 374.678C363.798 374.586 363.787 374.427 363.879 374.322Z" fill="#FFF6E7"/>
<path d="M364.078 375.802C364.116 375.668 364.255 375.591 364.389 375.629C364.523 375.667 364.6 375.806 364.562 375.94C364.525 376.07 364.478 376.303 364.464 376.561C364.451 376.822 364.472 377.085 364.554 377.288C364.605 377.417 364.542 377.564 364.413 377.615C364.284 377.667 364.138 377.604 364.086 377.475C363.966 377.175 363.946 376.829 363.962 376.534C363.977 376.237 364.031 375.966 364.078 375.802Z" fill="#FFF6E7"/>
<path d="M364.524 376.817C364.627 376.724 364.786 376.731 364.88 376.834C365.107 377.084 365.414 377.519 365.614 378.029C365.812 378.537 365.917 379.154 365.682 379.74C365.631 379.869 365.484 379.932 365.355 379.881C365.226 379.829 365.163 379.683 365.215 379.554C365.383 379.133 365.319 378.659 365.145 378.213C364.971 377.768 364.699 377.385 364.507 377.173C364.413 377.07 364.421 376.911 364.524 376.817Z" fill="#FFF6E7"/>
<path d="M364.723 378.395C364.789 378.273 364.942 378.228 365.064 378.294C365.186 378.361 365.231 378.514 365.165 378.636C365.049 378.849 364.895 379.21 364.819 379.582C364.741 379.965 364.758 380.299 364.902 380.516C364.979 380.631 364.947 380.788 364.832 380.865C364.716 380.942 364.56 380.91 364.483 380.795C364.224 380.407 364.24 379.902 364.326 379.482C364.414 379.051 364.588 378.643 364.723 378.395Z" fill="#FFF6E7"/>
<path d="M364.875 379.659C365.008 379.619 365.148 379.695 365.188 379.828C365.256 380.055 365.336 380.426 365.359 380.823C365.382 381.214 365.353 381.666 365.172 382.027C365.11 382.151 364.959 382.202 364.835 382.139C364.71 382.077 364.66 381.926 364.722 381.802C364.843 381.558 364.878 381.213 364.856 380.853C364.836 380.499 364.764 380.166 364.706 379.973C364.666 379.839 364.742 379.699 364.875 379.659Z" fill="#FFF6E7"/>
<path d="M364.355 381.28C364.427 381.161 364.581 381.123 364.7 381.194C364.82 381.266 364.858 381.42 364.787 381.54C364.7 381.685 364.534 382.196 364.802 382.821C364.857 382.949 364.798 383.097 364.67 383.152C364.542 383.206 364.394 383.147 364.34 383.019C364.003 382.235 364.191 381.554 364.355 381.28Z" fill="#FFF6E7"/>
<path d="M364.672 382.338C364.785 382.257 364.942 382.283 365.023 382.396C365.148 382.572 365.296 382.871 365.359 383.226C365.422 383.585 365.4 384.015 365.163 384.43C365.094 384.55 364.94 384.592 364.819 384.523C364.698 384.454 364.656 384.301 364.725 384.18C364.891 383.89 364.911 383.586 364.863 383.313C364.814 383.037 364.698 382.807 364.613 382.689C364.533 382.576 364.559 382.419 364.672 382.338Z" fill="#FFF6E7"/>
<path d="M364.387 383.373C364.486 383.274 364.645 383.274 364.743 383.373C364.842 383.471 364.842 383.63 364.743 383.729C364.633 383.839 364.485 384.027 364.4 384.223C364.313 384.425 364.319 384.565 364.389 384.658C364.472 384.769 364.45 384.927 364.339 385.011C364.228 385.094 364.07 385.071 363.986 384.96C363.754 384.651 363.824 384.287 363.938 384.023C364.055 383.753 364.246 383.514 364.387 383.373Z" fill="#FFF6E7"/>
<path d="M364.524 384.056C364.661 384.033 364.791 384.126 364.814 384.263C364.859 384.533 364.878 384.947 364.758 385.283C364.697 385.454 364.591 385.629 364.41 385.738C364.223 385.85 363.998 385.869 363.749 385.807C363.614 385.774 363.532 385.637 363.566 385.502C363.6 385.367 363.736 385.285 363.871 385.319C364.025 385.358 364.106 385.333 364.15 385.307C364.199 385.277 364.247 385.219 364.284 385.114C364.362 384.895 364.356 384.58 364.317 384.346C364.294 384.209 364.387 384.079 364.524 384.056Z" fill="#FFF6E7"/>
<path d="M362.782 384.78C363.137 384.733 363.566 384.768 363.85 384.812C363.987 384.833 364.082 384.962 364.061 385.099C364.039 385.237 363.911 385.331 363.773 385.31C363.512 385.27 363.135 385.241 362.847 385.279C362.698 385.298 362.606 385.331 362.562 385.362C362.553 385.368 362.549 385.372 362.546 385.375C362.546 385.377 362.547 385.382 362.548 385.389C362.575 385.525 362.487 385.658 362.351 385.685C362.214 385.713 362.082 385.624 362.054 385.488C362.033 385.381 362.04 385.274 362.084 385.173C362.128 385.074 362.199 385.001 362.275 384.949C362.419 384.848 362.608 384.802 362.782 384.78Z" fill="#FFF6E7"/>
<path d="M362.678 385.564C362.678 385.425 362.791 385.312 362.93 385.312C363.069 385.312 363.182 385.425 363.182 385.564C363.182 385.731 363.114 385.957 362.917 386.124C362.714 386.296 362.414 386.374 362.013 386.317C361.875 386.297 361.78 386.17 361.799 386.032C361.819 385.894 361.947 385.799 362.084 385.818C362.388 385.862 362.529 385.793 362.591 385.741C362.658 385.684 362.678 385.608 362.678 385.564Z" fill="#FFF6E7"/>
<path d="M360.726 385.196C361.527 384.967 362.205 385.287 362.463 385.493C362.571 385.58 362.589 385.739 362.502 385.847C362.415 385.956 362.256 385.973 362.148 385.887C361.986 385.757 361.473 385.506 360.864 385.68C360.73 385.718 360.591 385.641 360.553 385.508C360.515 385.374 360.592 385.234 360.726 385.196Z" fill="#FFF6E7"/>
<path d="M361.206 385.582C361.335 385.531 361.481 385.594 361.533 385.723C361.584 385.852 361.522 385.998 361.392 386.05C361.166 386.141 360.801 386.249 360.433 386.281C360.081 386.312 359.644 386.279 359.359 385.994C359.261 385.896 359.261 385.737 359.359 385.638C359.457 385.54 359.617 385.54 359.715 385.638C359.832 385.756 360.067 385.808 360.39 385.779C360.698 385.753 361.013 385.66 361.206 385.582Z" fill="#FFF6E7"/>
<path d="M359.093 384.689C359.414 384.609 359.687 384.768 359.867 384.929C360.05 385.094 360.187 385.304 360.26 385.451C360.322 385.575 360.272 385.726 360.148 385.788C360.023 385.851 359.872 385.8 359.81 385.676C359.757 385.57 359.655 385.416 359.53 385.304C359.401 385.188 359.297 385.158 359.215 385.178C359.08 385.212 358.944 385.13 358.91 384.995C358.876 384.86 358.958 384.723 359.093 384.689Z" fill="#FFF6E7"/>
<path d="M357.928 384.071C358.057 384.019 358.204 384.082 358.255 384.211C358.332 384.403 358.502 384.59 358.708 384.751C358.911 384.91 359.125 385.025 359.253 385.08C359.381 385.135 359.44 385.283 359.385 385.411C359.331 385.538 359.183 385.598 359.055 385.543C358.89 385.472 358.638 385.336 358.398 385.148C358.161 384.963 357.912 384.709 357.788 384.398C357.736 384.269 357.799 384.122 357.928 384.071Z" fill="#FFF6E7"/>
<path d="M358.655 384.557C358.655 384.174 358.399 383.305 357.335 383.039C357.2 383.005 357.118 382.869 357.152 382.734C357.186 382.599 357.322 382.517 357.457 382.551C358.81 382.889 359.158 384.016 359.158 384.557C359.158 384.696 359.046 384.809 358.907 384.809C358.768 384.809 358.655 384.696 358.655 384.557Z" fill="#FFF6E7"/>
<path d="M355.276 382.062C355.403 382.004 355.552 382.06 355.61 382.187C355.831 382.673 356.231 383.004 356.659 383.221C357.088 383.439 357.527 383.531 357.79 383.55C357.929 383.56 358.033 383.681 358.023 383.819C358.013 383.958 357.893 384.062 357.754 384.052C357.43 384.029 356.925 383.92 356.431 383.67C355.936 383.419 355.434 383.016 355.152 382.395C355.094 382.269 355.15 382.119 355.276 382.062Z" fill="#FFF6E7"/>
<path d="M356.134 382.544C356.134 382.193 355.912 381.261 354.982 380.61C354.869 380.531 354.841 380.374 354.92 380.26C355 380.146 355.157 380.118 355.271 380.198C356.355 380.957 356.637 382.055 356.637 382.544C356.637 382.683 356.524 382.796 356.385 382.796C356.246 382.796 356.134 382.683 356.134 382.544Z" fill="#FFF6E7"/>
<path d="M353.449 379.148C353.586 379.125 353.715 379.218 353.738 379.355C353.827 379.884 354.12 380.274 354.463 380.55C354.809 380.829 355.195 380.984 355.435 381.039C355.57 381.07 355.655 381.205 355.623 381.341C355.592 381.476 355.457 381.561 355.322 381.53C355.015 381.459 354.558 381.273 354.147 380.942C353.733 380.608 353.355 380.117 353.242 379.438C353.219 379.3 353.312 379.171 353.449 379.148Z" fill="#FFF6E7"/>
<path d="M353.406 378.507C353.479 378.389 353.635 378.353 353.752 378.427C354.191 378.701 354.428 379.007 354.523 379.303C354.617 379.596 354.565 379.86 354.464 380.029C354.393 380.148 354.238 380.186 354.119 380.115C353.999 380.043 353.961 379.889 354.032 379.77C354.057 379.728 354.094 379.615 354.043 379.457C353.994 379.302 353.852 379.083 353.485 378.854C353.368 378.78 353.332 378.625 353.406 378.507Z" fill="#FFF6E7"/>
<path d="M352.105 376.879C352.105 376.74 352.218 376.627 352.357 376.627C352.496 376.627 352.609 376.74 352.609 376.879C352.609 377.867 353.287 378.492 353.612 378.673C353.734 378.74 353.778 378.893 353.71 379.015C353.643 379.136 353.489 379.18 353.368 379.113C352.938 378.874 352.105 378.106 352.105 376.879Z" fill="#FFF6E7"/>
<path d="M352.344 374.82C352.355 374.825 352.37 374.834 352.375 374.837C352.378 374.839 352.383 374.842 352.385 374.843C352.391 374.848 352.396 374.851 352.396 374.852C352.403 374.857 352.421 374.872 352.444 374.892C352.496 374.936 352.6 375.025 352.776 375.176C352.796 375.194 352.816 375.212 352.836 375.231C352.837 375.232 352.838 375.233 352.84 375.234H352.839C352.843 375.237 352.846 375.24 352.85 375.244C353.224 375.603 353.38 376.075 353.43 376.499C353.48 376.922 353.427 377.322 353.359 377.573C353.322 377.708 353.183 377.787 353.049 377.75C352.915 377.714 352.836 377.575 352.873 377.441C352.926 377.245 352.972 376.91 352.93 376.558C352.889 376.207 352.764 375.862 352.503 375.609C352.348 375.475 352.16 375.314 352.096 375.258C352.088 375.251 352.082 375.245 352.077 375.242C352.076 375.24 352.073 375.237 352.07 375.235C352.069 375.234 352.067 375.233 352.065 375.231C352.064 375.23 352.062 375.227 352.059 375.224C352.058 375.223 352.054 375.219 352.052 375.217C352.049 375.213 352.039 375.201 352.033 375.194C352.02 375.173 351.987 375.043 352.014 374.936C352.124 374.825 352.312 374.808 352.344 374.82Z" fill="#FFF6E7"/>
<path d="M350.978 373.812C351.003 373.675 351.134 373.585 351.271 373.61C351.407 373.634 351.498 373.765 351.473 373.902C351.386 374.383 351.511 374.816 351.714 375.17C351.919 375.527 352.195 375.789 352.377 375.917C352.491 375.996 352.518 376.153 352.439 376.267C352.359 376.381 352.202 376.409 352.088 376.329C351.85 376.163 351.522 375.846 351.278 375.42C351.032 374.992 350.864 374.438 350.978 373.812Z" fill="#FFF6E7"/>
<path d="M351.175 372.673C351.274 372.575 351.433 372.575 351.531 372.673C352.194 373.336 352.218 374.011 352.091 374.329C352.039 374.458 351.892 374.521 351.763 374.47C351.634 374.418 351.571 374.272 351.623 374.142C351.663 374.041 351.72 373.574 351.175 373.029C351.077 372.931 351.077 372.772 351.175 372.673Z" fill="#FFF6E7"/>
<path d="M350.618 371.744C350.672 371.617 350.82 371.557 350.948 371.612C351.076 371.667 351.135 371.815 351.081 371.943C350.844 372.494 351.172 372.889 351.366 373.019C351.482 373.096 351.513 373.252 351.436 373.368C351.359 373.483 351.203 373.515 351.087 373.438C350.778 373.232 350.25 372.603 350.618 371.744Z" fill="#FFF6E7"/>
<path d="M350.152 369.417C350.241 369.31 350.4 369.296 350.507 369.385C351.822 370.48 351.622 371.792 351.322 372.342C351.255 372.464 351.102 372.509 350.98 372.442C350.858 372.376 350.813 372.223 350.88 372.101C351.083 371.727 351.286 370.689 350.184 369.771C350.078 369.682 350.063 369.524 350.152 369.417Z" fill="#FFF6E7"/>
<path d="M348.457 367.943C348.457 367.804 348.57 367.691 348.709 367.691C348.848 367.691 348.961 367.804 348.961 367.943C348.961 368.413 349.214 368.914 349.568 369.368C349.918 369.816 350.34 370.184 350.617 370.382C350.73 370.462 350.757 370.62 350.676 370.733C350.595 370.846 350.438 370.872 350.325 370.791C350.014 370.569 349.555 370.169 349.171 369.678C348.791 369.192 348.457 368.581 348.457 367.943Z" fill="#FFF6E7"/>
<path d="M348.452 365.461C348.57 365.388 348.725 365.425 348.798 365.544C349.631 366.897 349.686 368.046 349.585 368.499C349.555 368.635 349.42 368.721 349.284 368.691C349.149 368.66 349.063 368.526 349.093 368.39C349.16 368.088 349.148 367.072 348.369 365.808C348.297 365.689 348.333 365.534 348.452 365.461Z" fill="#FFF6E7"/>
<mask id="mask0_337_2731" style="mask-type:alpha" maskUnits="userSpaceOnUse" x="1133" y="566" width="186" height="173">
<path d="M1186.49 730.03H1219.43C1220.99 730.899 1221.77 732.377 1221.77 734.463C1221.77 736.433 1220.99 737.939 1219.43 738.982H1135.38C1134.11 738.982 1133.47 738.316 1133.47 736.983V568.631C1133.47 567.414 1134.05 566.806 1135.21 566.806H1219.43C1220.99 567.675 1221.77 569.152 1221.77 571.238C1221.77 573.208 1220.99 574.715 1219.43 575.758H1186.49V730.03ZM1147.72 730.03H1172.23V575.758H1147.72V730.03ZM1232.64 730.03H1265.58V575.758H1232.64C1231.07 574.715 1230.29 573.208 1230.29 571.238C1230.29 569.152 1231.07 567.675 1232.64 566.806H1316.77C1317.29 566.806 1317.73 566.979 1318.08 567.327C1318.42 567.675 1318.6 568.109 1318.6 568.631V736.983C1318.6 738.316 1317.93 738.982 1316.6 738.982H1232.64C1231.07 737.939 1230.29 736.433 1230.29 734.463C1230.29 732.377 1231.07 730.899 1232.64 730.03ZM1279.75 730.03H1304.34V575.758H1279.75V730.03Z" fill="#002137"/>
</mask>
<g mask="url(#mask0_337_2731)">
<rect x="1116" y="549" width="237" height="218" fill="#002137"/>
<circle cx="1165" cy="579" r="29" fill="#F9DBB3"/>
<circle cx="1287" cy="720" r="29" fill="#F9DBB3"/>
</g>
<mask id="mask1_337_2731" style="mask-type:alpha" maskUnits="userSpaceOnUse" x="1145" y="824" width="156" height="119">
<path d="M1161.47 859.617C1159.67 866.139 1158.76 874.137 1158.76 883.611C1158.76 893.086 1159.67 901.104 1161.47 907.667C1163.28 914.229 1166.33 919.992 1170.64 924.955C1175.48 930.451 1181.65 934.573 1189.16 937.321C1190.14 937.69 1190.63 938.326 1190.63 939.229C1190.63 940.09 1190.39 940.89 1189.9 941.628C1189.4 942.366 1188.93 942.735 1188.48 942.735C1188.15 942.735 1187.74 942.653 1187.25 942.489C1181.88 940.972 1176.73 938.49 1171.81 935.045C1166.89 931.641 1162.46 927.498 1158.52 922.617C1154.62 917.695 1151.5 911.851 1149.17 905.083C1146.83 898.315 1145.66 891.158 1145.66 883.611C1145.66 876.064 1146.83 868.928 1149.17 862.201C1151.5 855.434 1154.62 849.609 1158.52 844.729C1162.46 839.807 1166.87 835.644 1171.75 832.239C1176.67 828.835 1181.84 826.354 1187.25 824.795C1187.74 824.631 1188.15 824.549 1188.48 824.549C1188.93 824.549 1189.4 824.938 1189.9 825.718C1190.39 826.456 1190.63 827.276 1190.63 828.179C1190.63 829.081 1190.14 829.717 1189.16 830.086C1185.06 831.521 1181.55 833.244 1178.64 835.254C1175.77 837.223 1173.1 839.622 1170.64 842.452C1166.33 847.374 1163.28 853.096 1161.47 859.617ZM1191.06 859.617C1189.26 866.139 1188.36 874.137 1188.36 883.611C1188.36 893.086 1189.26 901.104 1191.06 907.667C1192.87 914.229 1195.92 919.992 1200.23 924.955C1205.07 930.451 1211.24 934.573 1218.75 937.321C1219.78 937.69 1220.29 938.326 1220.29 939.229C1220.29 940.09 1220.04 940.89 1219.55 941.628C1219.06 942.366 1218.59 942.735 1218.13 942.735C1217.77 942.735 1217.33 942.653 1216.84 942.489C1211.47 940.972 1206.32 938.49 1201.4 935.045C1196.48 931.641 1192.05 927.498 1188.11 922.617C1184.21 917.695 1181.1 911.851 1178.76 905.083C1176.42 898.315 1175.25 891.158 1175.25 883.611C1175.25 876.064 1176.42 868.928 1178.76 862.201C1181.1 855.434 1184.21 849.609 1188.11 844.729C1192.05 839.807 1196.46 835.644 1201.34 832.239C1206.26 828.835 1211.43 826.354 1216.84 824.795C1217.33 824.631 1217.77 824.549 1218.13 824.549C1218.59 824.549 1219.06 824.938 1219.55 825.718C1220.04 826.456 1220.29 827.276 1220.29 828.179C1220.29 829.081 1219.78 829.717 1218.75 830.086C1214.65 831.521 1211.14 833.244 1208.23 835.254C1205.36 837.223 1202.69 839.622 1200.23 842.452C1195.92 847.374 1192.87 853.096 1191.06 859.617ZM1255.23 907.667C1257.04 901.104 1257.94 893.086 1257.94 883.611C1257.94 874.137 1257.04 866.139 1255.23 859.617C1253.43 853.096 1250.39 847.374 1246.13 842.452C1243.67 839.622 1240.98 837.223 1238.07 835.254C1235.2 833.244 1231.71 831.521 1227.61 830.086C1226.58 829.717 1226.07 829.081 1226.07 828.179C1226.07 827.276 1226.32 826.456 1226.81 825.718C1227.3 824.938 1227.77 824.549 1228.22 824.549C1228.55 824.549 1228.96 824.631 1229.46 824.795C1234.87 826.354 1240.02 828.835 1244.9 832.239C1249.82 835.644 1254.23 839.807 1258.12 844.729C1262.06 849.609 1265.2 855.434 1267.54 862.201C1269.88 868.928 1271.04 876.064 1271.04 883.611C1271.04 891.158 1269.88 898.315 1267.54 905.083C1265.2 911.851 1262.06 917.695 1258.12 922.617C1254.23 927.498 1249.82 931.641 1244.9 935.045C1239.98 938.49 1234.83 940.972 1229.46 942.489C1228.96 942.653 1228.55 942.735 1228.22 942.735C1227.77 942.735 1227.3 942.366 1226.81 941.628C1226.32 940.89 1226.07 940.09 1226.07 939.229C1226.07 938.326 1226.58 937.69 1227.61 937.321C1235.12 934.573 1241.29 930.451 1246.13 924.955C1250.39 919.992 1253.43 914.229 1255.23 907.667ZM1284.89 907.667C1286.69 901.104 1287.59 893.086 1287.59 883.611C1287.59 874.137 1286.69 866.139 1284.89 859.617C1283.08 853.096 1280.03 847.374 1275.72 842.452C1273.26 839.622 1270.57 837.223 1267.66 835.254C1264.79 833.244 1261.3 831.521 1257.2 830.086C1256.18 829.717 1255.66 829.081 1255.66 828.179C1255.66 827.276 1255.91 826.456 1256.4 825.718C1256.89 824.938 1257.37 824.549 1257.82 824.549C1258.19 824.549 1258.62 824.631 1259.11 824.795C1264.52 826.354 1269.67 828.835 1274.55 832.239C1279.47 835.644 1283.88 839.807 1287.78 844.729C1291.72 849.609 1294.85 855.434 1297.19 862.201C1299.53 868.928 1300.7 876.064 1300.7 883.611C1300.7 891.158 1299.53 898.315 1297.19 905.083C1294.85 911.851 1291.72 917.695 1287.78 922.617C1283.88 927.498 1279.47 931.641 1274.55 935.045C1269.63 938.49 1264.48 940.972 1259.11 942.489C1258.62 942.653 1258.19 942.735 1257.82 942.735C1257.37 942.735 1256.89 942.366 1256.4 941.628C1255.91 940.89 1255.66 940.09 1255.66 939.229C1255.66 938.326 1256.18 937.69 1257.2 937.321C1264.71 934.573 1270.88 930.451 1275.72 924.955C1280.03 919.992 1283.08 914.229 1284.89 907.667Z" fill="#002137"/>
</mask>
<g mask="url(#mask1_337_2731)">
<rect x="1136" y="789" width="237" height="218" fill="#002137"/>
<circle cx="1268" cy="915" r="24" fill="#F9DBB3"/>
<circle cx="1179" cy="852" r="24" fill="#F9DBB3"/>
</g>
</g>
<defs>
<clipPath id="clip0_337_2731">
<rect width="1440" height="1073" fill="white"/>
</clipPath>
</defs>
</svg>
