<svg width="437" height="692" viewBox="0 0 437 692" fill="none" xmlns="http://www.w3.org/2000/svg">
<path d="M408.575 300.165C409.147 306.616 410.163 311.839 411.092 315.191C423.831 314.838 433.803 308.237 437.676 304.363C432.409 314.315 447.185 328.512 455.231 334.366C464.009 316.218 458.889 304.851 455.231 301.436C475.713 307.876 489.611 296.313 494 289.727C480.541 278.019 464.497 278.995 458.157 280.946C467.52 275.475 464.985 258.664 462.546 250.943C448.502 253.87 441.577 263.871 439.87 268.506C438.7 260.31 430.117 253.382 425.972 250.943C416.024 268.506 421.827 282.822 425.972 287.784C417.774 288.84 412.181 294.187 408.575 300.165Z" fill="#1C3753"/>
<path d="M390.861 66.5337C369.204 87.609 370.621 101.172 374.036 105.319C353.554 105.319 343.071 123.857 340.389 133.126C352.093 140.151 366.722 137.517 372.574 135.321C364.381 142.346 366.722 158.738 368.917 166.056C388.228 158.446 393.543 143.371 393.787 136.785C403.735 146.152 424.753 143.127 434.019 140.444C434.604 126.979 417.682 116.295 409.148 112.636C423.778 112.203 433.287 98.7958 436.213 92.1461C413.117 87.6872 403.652 89.9878 400.581 93.3634C400.41 94.8921 400.104 96.4414 399.639 98.0003C399.114 96.5748 399.216 94.863 400.581 93.3634C401.909 81.4377 394.967 70.7636 390.861 66.5337Z" fill="#1C3753"/>
<path d="M311.13 144.646C315.519 140.806 322.98 129.76 317.713 116.295C312.846 117.1 303.756 120.058 301.438 125.876C301.373 126.965 301.169 127.935 300.889 128.735C300.889 127.714 301.085 126.762 301.438 125.876C301.77 120.322 298.5 111.676 283.333 106.782C280.407 113.856 275.872 129.321 281.139 134.589C275.531 134.589 262.852 138.395 257 153.616C259.926 157.275 269.728 163.86 285.528 160.934C283.577 162.641 280.846 169.277 285.528 182.156C290.16 182.156 300.596 178.496 305.278 163.861C309.732 165.324 319.04 169.276 320.639 173.374C322.638 178.496 321.37 148.848 311.13 144.646Z" fill="#1C3753"/>
<path d="M374.036 105.319C345.662 83.176 311.562 106.844 322.638 145.566C325.838 156.753 332.808 169.197 344.777 182.156C346.225 183.158 347.617 184.161 348.954 185.163C350.266 182.926 351.648 181.123 353.065 179.699C302.061 133.252 336.017 79.9606 374.036 105.319Z" fill="#1C3753"/>
<path d="M475.762 690.034C463.815 680.764 373.896 500.774 411.348 460.965C412.81 456.574 412.663 449.11 400.375 454.379C416.469 428.035 474.256 339.489 433.293 324.853C426.713 323.608 415.877 321.065 412.084 318.644C413.564 324.133 414.382 329.363 414.645 334.366C437.698 328.512 442.796 353.392 431.093 375.346C421.73 392.909 390.622 449.883 376.238 476.174C379.675 486.019 425 632.034 457.5 690.034H475.762Z" fill="#1C3753"/>
<path d="M411.348 262.652C377.701 223.135 425.247 197.523 417.932 157.275C415.219 184.023 393.819 191.487 389.336 227.862C391.378 235.186 392.162 242.436 392.043 249.377C394.037 254.92 396.978 260.714 401.108 264.847C411.348 275.092 387.942 301.436 401.108 316.072C414.275 330.708 398.182 372.419 376.238 395.104C393.055 359.979 366.143 301.729 378.432 294.118C384.892 284.423 391.723 268.01 392.043 249.377C390.082 243.927 389.036 238.72 388.673 235.576C388.811 232.865 389.035 230.298 389.336 227.862C385.273 213.292 376.229 198.423 359.407 185.083C357.161 183.302 355.049 181.506 353.065 179.699C351.648 181.123 350.266 182.926 348.954 185.163C409.116 230.255 359.534 275.012 365.259 304.363C359.407 299.728 346.241 293.24 340.389 304.363C395.981 324.853 361.602 411.935 352.824 439.011C344.046 466.087 387.5 531.534 443.262 690.034H457.5C425 632.034 379.675 486.019 376.238 476.174C370.678 460.251 360.287 453.975 365.259 442.67C371.119 408.148 417.113 381.164 414.645 334.366C414.382 329.363 413.564 324.133 412.084 318.644C410.677 317.746 410.239 316.864 411.348 316.072C411.264 315.795 411.178 315.501 411.092 315.191C410.163 311.839 409.147 306.616 408.575 300.165C407.958 293.209 407.857 284.826 408.937 275.823C409.45 271.544 410.23 267.125 411.348 262.652Z" fill="#1C3753"/>
<path d="M411.348 316.072C411.264 315.795 411.178 315.501 411.092 315.191M411.348 316.072C410.239 316.864 410.677 317.746 412.084 318.644M411.348 316.072C411.609 316.936 411.855 317.793 412.084 318.644M374.036 105.319C345.662 83.176 311.562 106.844 322.638 145.566M374.036 105.319C384.763 109.709 407.387 120.539 412.074 128.735M374.036 105.319C374.768 113.263 378.133 130.679 385.741 136.785M374.036 105.319C382.083 104.099 399.054 102.392 402.565 105.319M374.036 105.319C370.621 101.172 369.204 87.609 390.861 66.5337C394.967 70.7636 401.909 81.4377 400.581 93.3634M374.036 105.319C353.554 105.319 343.071 123.857 340.389 133.126C352.093 140.151 366.722 137.517 372.574 135.321C364.381 142.346 366.722 158.738 368.917 166.056C388.228 158.446 393.543 143.371 393.787 136.785C403.735 146.152 424.753 143.127 434.019 140.444C434.604 126.979 417.682 116.295 409.148 112.636C423.778 112.203 433.287 98.7958 436.213 92.1461C413.117 87.6872 403.652 89.9878 400.581 93.3634M374.036 105.319C336.017 79.9606 302.061 133.252 353.065 179.699M457.5 690.034H443.262C387.5 531.534 344.046 466.087 352.824 439.011C361.602 411.935 395.981 324.853 340.389 304.363C346.241 293.24 359.407 299.728 365.259 304.363C359.534 275.012 409.116 230.255 348.954 185.163M457.5 690.034C425 632.034 379.675 486.019 376.238 476.174M457.5 690.034H475.762C463.815 680.764 373.896 500.774 411.348 460.965C412.81 456.574 412.663 449.11 400.375 454.379C416.469 428.035 474.256 339.489 433.293 324.853C426.713 323.608 415.877 321.065 412.084 318.644M376.238 476.174C370.678 460.251 360.287 453.975 365.259 442.67C371.119 408.148 417.113 381.164 414.645 334.366M376.238 476.174C390.622 449.883 421.73 392.909 431.093 375.346C442.796 353.392 437.698 328.512 414.645 334.366M414.645 334.366C414.382 329.363 413.564 324.133 412.084 318.644M408.937 275.823C409.45 271.544 410.23 267.125 411.348 262.652C377.701 223.135 425.247 197.523 417.932 157.275C415.219 184.023 393.819 191.487 389.336 227.862M408.937 275.823C412.693 279.193 419.809 284.818 425.972 287.784M408.937 275.823C407.857 284.826 407.958 293.209 408.575 300.165M433.293 289.727C439.725 289.142 447.185 280.214 450.111 275.823M433.293 289.727H464.741M433.293 289.727L441.333 301.436M433.293 289.727C431.303 289.908 428.734 289.113 425.972 287.784M425.972 287.784C421.827 282.822 416.024 268.506 425.972 250.943C430.117 253.382 438.7 260.31 439.87 268.506C441.577 263.871 448.502 253.87 462.546 250.943C464.985 258.664 467.52 275.475 458.157 280.946C464.497 278.995 480.541 278.019 494 289.727C489.611 296.313 475.713 307.876 455.231 301.436C458.889 304.851 464.009 316.218 455.231 334.366C447.185 328.512 432.409 314.315 437.676 304.363C433.803 308.237 423.831 314.838 411.092 315.191M425.972 287.784C417.774 288.84 412.181 294.187 408.575 300.165M374.036 190.937C378.93 182.235 364.832 167.873 353.065 179.699M342.583 202.645C344.297 195.055 346.501 189.348 348.954 185.163M322.638 145.566C325.838 156.753 332.808 169.197 344.777 182.156C346.225 183.158 347.617 184.161 348.954 185.163M322.638 145.566C319.449 145.216 315.44 144.875 311.13 144.646M277.481 149.225C280.166 145.004 292.997 144.116 305.278 144.417M305.278 144.417C302.352 139.677 295.476 130.784 291.38 133.126M305.278 144.417C304.546 147.727 301.62 154.934 295.769 157.275M305.278 144.417C307.258 144.465 309.223 144.545 311.13 144.646M311.13 144.646C315.519 140.806 322.98 129.76 317.713 116.295C312.846 117.1 303.756 120.058 301.438 125.876M311.13 144.646C321.37 148.848 322.638 178.496 320.639 173.374C319.04 169.276 309.732 165.324 305.278 163.861C300.596 178.496 290.16 182.156 285.528 182.156C280.846 169.277 283.577 162.641 285.528 160.934C269.728 163.86 259.926 157.275 257 153.616C262.852 138.395 275.531 134.589 281.139 134.589C275.872 129.321 280.407 113.856 283.333 106.782C298.5 111.676 301.77 120.322 301.438 125.876M408.575 300.165C409.147 306.616 410.163 311.839 411.092 315.191M400.581 93.3634C400.41 94.8921 400.104 96.4414 399.639 98.0003C399.114 96.5748 399.216 94.863 400.581 93.3634ZM301.438 125.876C301.373 126.965 301.169 127.935 300.889 128.735C300.889 127.714 301.085 126.762 301.438 125.876ZM389.336 227.862C391.378 235.186 392.162 242.436 392.043 249.377M389.336 227.862C389.035 230.298 388.811 232.865 388.673 235.576C389.036 238.72 390.082 243.927 392.043 249.377M389.336 227.862C385.273 213.292 376.229 198.423 359.407 185.083C357.161 183.302 355.049 181.506 353.065 179.699M392.043 249.377C394.037 254.92 396.978 260.714 401.108 264.847C411.348 275.092 387.942 301.436 401.108 316.072C414.275 330.708 398.182 372.419 376.238 395.104C393.055 359.979 366.143 301.729 378.432 294.118C384.892 284.423 391.723 268.01 392.043 249.377ZM353.065 179.699C351.648 181.123 350.266 182.926 348.954 185.163" stroke="#002137" stroke-width="2" stroke-linecap="round"/>
<path d="M321.346 309.067C324.543 310.756 325.588 315.394 323.405 319.527C321.222 323.659 316.801 325.409 313.604 323.72C310.407 322.031 309.361 317.393 311.544 313.261C313.728 309.128 318.149 307.377 321.346 309.067Z" fill="#1C3753" stroke="#002137"/>
<path d="M328.998 299.186C330.62 299.473 331.97 300.606 332.824 302.276C333.679 303.946 334.02 306.127 333.615 308.418C333.209 310.71 332.14 312.642 330.765 313.917C329.389 315.192 327.732 315.792 326.11 315.505C324.488 315.218 323.137 314.086 322.282 312.416C321.427 310.746 321.087 308.565 321.493 306.274C321.898 303.982 322.966 302.05 324.342 300.775C325.718 299.5 327.376 298.899 328.998 299.186Z" fill="#1C3753" stroke="#002137"/>
<path d="M340.955 305.94C344.516 306.57 346.93 310.666 346.116 315.269C345.301 319.871 341.628 322.89 338.067 322.26C334.507 321.63 332.092 317.534 332.907 312.932C333.721 308.329 337.394 305.31 340.955 305.94Z" fill="#1C3753" stroke="#002137"/>
<path d="M324.886 322.685C327.367 323.996 328.207 327.621 326.484 330.881C324.762 334.141 321.294 335.491 318.813 334.18C316.331 332.869 315.493 329.244 317.215 325.984C318.938 322.724 322.404 321.374 324.886 322.685Z" fill="#1C3753" stroke="#002137"/>
<path d="M333.618 324.199C335.324 321.033 340.164 320.099 344.561 322.466C348.957 324.834 350.842 329.389 349.136 332.556C347.431 335.722 342.591 336.656 338.194 334.289C333.798 331.921 331.913 327.366 333.618 324.199Z" fill="#1C3753" stroke="#002137"/>
<path d="M330.076 312.207C333.637 312.837 336.051 316.934 335.237 321.536C334.422 326.138 330.749 329.157 327.188 328.527C323.628 327.897 321.214 323.801 322.028 319.199C322.842 314.596 326.515 311.577 330.076 312.207Z" fill="#1C3753" stroke="#002137"/>
<path d="M323.586 334.474C326.852 334.529 329.605 337.843 329.534 342.091C329.463 346.338 326.602 349.558 323.336 349.504C320.069 349.45 317.316 346.136 317.386 341.889C317.457 337.641 320.319 334.42 323.586 334.474Z" fill="#1C3753" stroke="#002137"/>
<path d="M330.74 327.333C334.378 327.393 337.395 330.908 337.321 335.346C337.247 339.783 334.116 343.195 330.477 343.134C326.838 343.074 323.822 339.56 323.895 335.122C323.969 330.685 327.101 327.272 330.74 327.333Z" fill="#1C3753" stroke="#002137"/>
<path d="M358.197 25.0337C355.201 36.0337 329.703 36.0337 334.197 59.0337C320.593 59.0337 314.199 74.7004 312.703 82.5337C325.903 82.5337 332.533 78.5337 334.197 76.5337C330.993 82.9337 338.199 94.2004 342.203 99.0337C355.007 88.4248 355.682 80.6319 354.174 77.3378C353.991 77.0814 353.833 76.8135 353.703 76.5337C353.874 76.7615 354.033 77.03 354.174 77.3378C357.919 82.5782 372.211 83.0104 379.203 82.5337C376.917 65.8817 370.256 60.3126 365.529 59.1909C364.639 59.2527 363.698 59.2067 362.703 59.0337C363.499 58.9112 364.465 58.9384 365.529 59.1909C372.864 58.6811 376.662 50.8443 377.703 46.5337C365.098 41.8436 358.526 42.5955 355.586 44.3815C355.012 45.0826 354.386 45.8001 353.703 46.5337C353.925 45.8212 354.514 45.0327 355.586 44.3815C364.086 33.9975 361.009 27.2195 358.197 25.0337Z" fill="#1C3753"/>
<path d="M309.244 55.3962C309.812 55.4803 310.892 55.5337 312.703 55.5337C321.037 55.2004 338.905 48.7337 343.705 25.5337C338.245 24.7537 326.712 24.5578 321.649 29.4552C321.338 29.8986 321.018 30.2576 320.705 30.5337C320.987 30.1494 321.303 29.7903 321.649 29.4552C324.154 25.8833 326.033 16.8342 318.205 1.53369C312.872 5.70036 302.305 16.3337 302.705 25.5337C294.969 6.19412 270.87 18.1786 266.574 11.7579C273.355 25.7337 263.583 45.709 285.205 50.0337C281.555 50.0337 274.352 52.0292 268.631 59.0337C266.776 61.3057 265.076 64.1048 263.705 67.5337C267.372 71.367 279.305 76.1337 297.705 64.5337C299.205 70.2004 303.405 82.3337 308.205 85.5337C313.037 79.1936 320.702 64.3176 312.703 55.5337C310.892 55.5337 309.812 55.4803 309.244 55.3962C307.805 55.1831 309.65 54.7727 311.203 54.5337C310.727 54.7859 310.071 55.0805 309.244 55.3962Z" fill="#1C3753"/>
<path d="M141.204 78.5337C142.871 72.7004 142.004 59.4337 125.204 53.0337C122.371 57.9804 118.404 69.4057 125.204 75.5337C122.142 78.2128 117.527 81.0678 112.414 82.2707C109.6 84.2573 107.35 86.4309 106.703 88.5337C107.761 89.367 112.241 91.0337 121.703 91.0337C118.203 92.7004 113.303 101.234 121.703 122.034C122.718 121.667 123.913 121.165 125.204 120.532C131.547 117.423 140.207 111.175 141.204 102.534C142.036 105.2 146.601 110.134 158.203 108.534C158.703 105.7 157.103 98.5337 146.703 92.5337C149.536 92.867 156.503 91.7337 161.703 84.5337C156.886 81.2004 146.041 75.3337 141.204 78.5337Z" fill="#1C3753"/>
<path d="M62.7062 92.5337C60.3062 80.1337 51.3729 74.8784 47.2062 73.8008C43.6056 64.8144 32.7059 65.8784 27.7062 67.5337C27.7062 72.7337 32.3729 79.367 34.7062 82.0337C28.7062 79.6337 27.5395 94.7004 27.7062 102.534C38.9062 102.534 42.0395 94.867 42.2062 91.0337C47.4062 95.8337 58.0395 94.0337 62.7062 92.5337Z" fill="#1C3753"/>
<path d="M88.2032 67.5337C91.3709 68.5337 100.106 69.1337 109.705 63.5337C108.172 60.0337 103.626 53.0337 97.7047 53.0337C101.038 50.7004 106.705 43.7337 102.705 34.5337C97.6208 34.6926 87.5998 36.275 86.3272 41.2732C86.3027 41.5563 86.2605 41.8106 86.2047 42.0337C86.2234 41.7718 86.2648 41.5184 86.3272 41.2732C86.5955 38.173 84.7346 31.6313 75.2047 25.0337C72.8714 30.7004 69.2047 42.6337 73.2047 45.0337C69.5385 45.2004 60.6062 47.0337 54.2062 53.0337C58.54 55.2004 67.8074 60.3337 70.2062 63.5337C69.3719 66.5337 69.2035 73.7337 75.2047 78.5337C80.2037 76.6829 89.8021 71.8917 88.2032 67.5337Z" fill="#1C3753"/>
<path d="M235.705 82.5337C240.905 67.7337 236.538 60.7004 233.705 59.0337C242.105 57.371 251.206 47.0076 254.707 42.0337C247.508 38.4337 241.04 40.5337 238.707 42.0337C239.507 31.2337 233.373 23.5337 230.207 21.0337C219.007 31.0337 219.207 39.2004 220.707 42.0337C218.762 38.5306 204.031 42.3186 196.329 44.8286C196.116 44.898 195.908 44.9664 195.707 45.0337C196.474 47.7751 197.76 50.028 199.316 51.8646C203.434 56.7272 209.439 58.6708 212.705 59.0337C207.905 59.0337 208.038 74.7004 208.705 82.5337C220.305 80.1337 223.205 72.867 223.205 69.5337C226.805 76.271 233.038 81.0076 235.705 82.5337Z" fill="#1C3753"/>
<path d="M334.197 59.0337C329.703 36.0337 355.201 36.0337 358.197 25.0337C361.009 27.2195 364.086 33.9975 355.586 44.3815M334.197 59.0337C320.593 59.0337 314.199 74.7004 312.703 82.5337C325.903 82.5337 332.533 78.5337 334.197 76.5337C330.993 82.9337 338.199 94.2004 342.203 99.0337C355.007 88.4248 355.682 80.6319 354.174 77.3378M334.197 59.0337C335.647 59.3835 337.738 60.0628 340.203 61.1121M334.197 59.0337C329.699 57.867 319.103 55.5337 312.703 55.5337M360.203 75.0337C353.761 68.0317 345.961 63.5628 340.203 61.1121M340.203 61.1121C343.205 58.086 350.107 52.7337 353.703 55.5337M340.203 61.1121C339.87 64.9193 339.802 74.5337 342.203 82.5337M312.703 55.5337C321.037 55.2004 338.905 48.7337 343.705 25.5337C338.245 24.7537 326.712 24.5578 321.649 29.4552M312.703 55.5337C320.702 64.3176 313.037 79.1937 308.205 85.5337C303.405 82.3337 299.205 70.2004 297.705 64.5337C279.305 76.1337 267.372 71.367 263.705 67.5337C265.076 64.1048 266.776 61.3057 268.631 59.0337M312.703 55.5337C310.892 55.5337 309.812 55.4803 309.244 55.3962M311.203 54.5337C304.87 46.367 290.805 30.5337 285.205 32.5337M311.203 54.5337C312.203 51.0337 313.903 41.7337 312.703 32.5337M311.203 54.5337C309.65 54.7727 307.805 55.1831 309.244 55.3962M311.203 54.5337C310.727 54.7859 310.071 55.0805 309.244 55.3962M285.205 59.0337C296.851 59.0337 305.151 56.9577 309.244 55.3962M268.631 59.0337C274.352 52.0292 281.555 50.0337 285.205 50.0337C263.583 45.709 273.355 25.7337 266.574 11.7579M268.631 59.0337C263.656 62.0337 249.705 66.2337 233.705 59.0337M233.705 59.0337C232.538 55.7004 229.605 48.5337 227.205 46.5337M233.705 59.0337C228.205 57.2004 216.705 52.8337 214.705 50.0337M233.705 59.0337C231.705 60.867 225.905 64.5337 218.705 64.5337M233.705 59.0337C236.538 60.7004 240.905 67.7337 235.705 82.5337C233.038 81.0076 226.805 76.271 223.205 69.5337C223.205 72.867 220.305 80.1337 208.705 82.5337C208.038 74.7004 207.905 59.0337 212.705 59.0337C209.439 58.6708 203.434 56.7272 199.316 51.8646C197.76 50.028 196.474 47.7751 195.707 45.0337C195.908 44.9664 196.116 44.898 196.329 44.8286C204.031 42.3186 218.762 38.5306 220.707 42.0337C219.207 39.2004 219.007 31.0337 230.207 21.0337C233.373 23.5337 239.507 31.2337 238.707 42.0337C241.04 40.5337 247.508 38.4337 254.707 42.0337C251.206 47.0076 242.105 57.371 233.705 59.0337ZM164.204 67.5337C160.371 66.0337 150.404 66.1337 141.204 78.5337M141.204 78.5337C132.004 90.9337 129.371 101.034 129.204 104.534M141.204 78.5337C139.537 83.5337 136.704 93.8337 138.704 95.0337M141.204 78.5337C138.871 80.7004 132.404 85.0337 125.204 85.0337M141.204 78.5337C142.871 72.7004 142.004 59.4337 125.204 53.0337C122.371 57.9804 118.404 69.4057 125.204 75.5337M141.204 78.5337C146.041 75.3337 156.886 81.2004 161.703 84.5337C156.503 91.7337 149.536 92.867 146.703 92.5337C157.103 98.5337 158.703 105.7 158.203 108.534C146.601 110.134 142.036 105.2 141.204 102.534C140.207 111.175 131.547 117.423 125.204 120.532M125.204 75.5337C122.142 78.2128 117.527 81.0678 112.414 82.2707M125.204 75.5337C121.928 76.8242 116.559 79.3446 112.414 82.2707M88.2032 67.5337C87.2032 64.867 84.3032 56.9337 80.7032 46.5337M88.2032 67.5337C90.0366 64.2004 92.9032 56.4337 89.7032 52.0337M88.2032 67.5337C84.2032 67.2004 76.4032 65.9337 77.2032 63.5337M88.2032 67.5337C91.3709 68.5337 100.106 69.1337 109.705 63.5337C108.172 60.0337 103.626 53.0337 97.7047 53.0337C101.038 50.7004 106.705 43.7337 102.705 34.5337C97.6208 34.6926 87.5998 36.275 86.3272 41.2732M88.2032 67.5337C89.8021 71.8917 80.2037 76.6829 75.2047 78.5337C69.2035 73.7337 69.3719 66.5337 70.2062 63.5337M88.2032 67.5337C94.6228 81.8542 104.167 84.2109 112.414 82.2707M70.2062 63.5337C67.8074 60.3337 58.54 55.2004 54.2062 53.0337C60.6062 47.0337 69.5385 45.2004 73.2047 45.0337C69.2047 42.6337 72.8714 30.7004 75.2047 25.0337C84.7346 31.6313 86.5955 38.173 86.3272 41.2732M70.2062 63.5337C64.5698 64.4355 54.5722 67.5485 47.2062 73.8008M39.2062 85.0337C40.7596 80.5028 43.6817 76.7924 47.2062 73.8008M47.2062 73.8008C51.3729 74.8784 60.3062 80.1337 62.7062 92.5337C58.0395 94.0337 47.4062 95.8337 42.2062 91.0337C42.0395 94.867 38.9062 102.534 27.7062 102.534C27.5395 94.7004 28.7062 79.6337 34.7062 82.0337C32.3729 79.367 27.7062 72.7337 27.7062 67.5337C32.7059 65.8784 43.6056 64.8144 47.2062 73.8008ZM27.7062 91.0337C17.8731 93.867 -1.19304 91.7337 1.20696 60.5337C1.69663 58.4357 3.63453 55.1783 6.30574 53.0337M8.70703 60.5337C1.20703 69.0337 27.91 69.5337 19.707 56.5337C15.0983 49.2298 10.0005 50.0673 6.30574 53.0337M6.30574 53.0337C5.84306 48.1817 8.06079 38.9951 12.707 36.6845M12.707 45.0337C10.207 50.0337 27.7062 46.5337 21.707 40.0337C18.0944 36.1194 15.0831 35.5028 12.707 36.6845M12.707 36.6845C12.3737 30.8009 9.6069 19.2337 1.20696 20.0337M125.204 120.532C123.913 121.165 122.718 121.667 121.703 122.034C113.303 101.234 118.203 92.7004 121.703 91.0337C112.241 91.0337 107.761 89.367 106.703 88.5337C107.35 86.4309 109.6 84.2573 112.414 82.2707M125.204 120.532C154.819 104.534 157.673 123.494 166.832 126.57M166.832 117.111C169.332 112.126 185.832 117.611 177.828 123.611C173.452 126.891 169.809 127.569 166.832 126.57M166.832 126.57C165.831 131.376 162.382 138.504 158.238 144.111M152.828 141.111C151.325 139.111 137.828 136.111 140.83 146.111C144.25 157.505 152.025 152.519 158.238 144.111M158.238 144.111C161.436 150.611 164.032 164.111 148.832 166.111C156.166 164.444 174.254 166.703 166.832 182.111C160.329 195.611 149.328 185.111 152.828 182.111M396.207 138.534C399.027 143.704 406.884 151.845 414.207 150.539M409.207 143.034C402.707 137.343 429.707 129.534 422.707 143.034C420.239 147.794 417.27 149.993 414.207 150.539M414.207 150.539C418.54 156.541 431.7 165.999 436.207 150.539C439.707 138.534 425.207 142.534 426.207 148.534C424.207 153.534 447.907 169.434 442.707 175.034C437.507 180.634 438.54 182.7 439.707 183.034M354.174 77.3378C353.991 77.0814 353.833 76.8135 353.703 76.5337C353.874 76.7615 354.033 77.03 354.174 77.3378ZM354.174 77.3378C357.919 82.5782 372.211 83.0104 379.203 82.5337C376.917 65.8817 370.256 60.3126 365.529 59.1909M365.529 59.1909C364.639 59.2527 363.698 59.2067 362.703 59.0337C363.499 58.9112 364.465 58.9384 365.529 59.1909ZM365.529 59.1909C372.864 58.6811 376.662 50.8443 377.703 46.5337C365.098 41.8436 358.526 42.5955 355.586 44.3815M355.586 44.3815C355.012 45.0826 354.386 45.8001 353.703 46.5337C353.925 45.8212 354.514 45.0327 355.586 44.3815ZM321.649 29.4552C321.338 29.8986 321.018 30.2576 320.705 30.5337C320.987 30.1494 321.303 29.7903 321.649 29.4552ZM321.649 29.4552C324.154 25.8833 326.033 16.8342 318.205 1.53369C312.872 5.70036 302.305 16.3337 302.705 25.5337C294.969 6.19412 270.87 18.1786 266.574 11.7579M266.574 11.7579C266.456 11.5146 266.333 11.2732 266.205 11.0337C266.304 11.2979 266.428 11.5386 266.574 11.7579ZM86.3272 41.2732C86.3027 41.5563 86.2605 41.8106 86.2047 42.0337C86.2234 41.7718 86.2648 41.5184 86.3272 41.2732Z" stroke="#002137" stroke-width="2" stroke-linecap="round"/>
<path d="M172.224 63.2709C175.129 64.6886 176.165 68.9848 174.202 73.0059C172.24 77.027 168.216 78.8534 165.311 77.4357C162.406 76.0179 161.37 71.7218 163.332 67.7008C165.295 63.6798 169.319 61.8534 172.224 63.2709Z" fill="#1C3753" stroke="#002137"/>
<path d="M174.17 77.3106C177.597 78.9835 178.814 83.9529 176.577 88.5377C174.339 93.1224 169.673 95.2208 166.245 93.5483C162.818 91.8756 161.6 86.9056 163.838 82.3207C166.076 77.7358 170.743 75.6378 174.17 77.3106Z" fill="#1C3753" stroke="#002137"/>
<path d="M182.454 81.3988C186.267 81.5023 189.432 85.5218 189.294 90.6216C189.156 95.7214 185.777 99.5636 181.965 99.4605C178.152 99.3572 174.986 95.3375 175.124 90.2376C175.263 85.1376 178.642 81.2954 182.454 81.3988Z" fill="#1C3753" stroke="#002137"/>
<path d="M184.294 95.2386C188.107 95.3421 191.272 99.3616 191.134 104.461C190.995 109.561 187.617 113.403 183.805 113.3C179.992 113.197 176.826 109.177 176.964 104.077C177.102 98.9775 180.482 95.1353 184.294 95.2386Z" fill="#1C3753" stroke="#002137"/>
<path d="M193.472 99.6753C195.404 98.952 197.574 99.3171 199.541 100.563C201.508 101.808 203.243 103.921 204.252 106.617C205.261 109.312 205.34 112.044 204.675 114.276C204.01 116.506 202.613 118.208 200.681 118.932C198.749 119.655 196.578 119.289 194.611 118.043C192.644 116.798 190.909 114.685 189.9 111.989C188.891 109.294 188.812 106.561 189.477 104.33C190.142 102.1 191.539 100.399 193.472 99.6753Z" fill="#1C3753" stroke="#002137"/>
<path d="M189.007 89.6898C190.114 87.9486 192.067 86.9327 194.387 86.7424C196.707 86.552 199.364 87.194 201.793 88.7377C204.222 90.2814 205.932 92.4151 206.744 94.5968C207.557 96.7782 207.467 98.9779 206.36 100.719C205.254 102.46 203.3 103.476 200.98 103.666C198.66 103.856 196.002 103.214 193.573 101.671C191.144 100.127 189.435 97.9934 188.622 95.8116C187.81 93.6302 187.901 91.431 189.007 89.6898Z" fill="#1C3753" stroke="#002137"/>
<path d="M185.744 86.182C184.707 84.3988 184.702 82.1977 185.599 80.0497C186.496 77.9014 188.288 75.8364 190.775 74.3886C193.263 72.941 195.943 72.4035 198.254 72.6843C200.565 72.9651 202.477 74.056 203.515 75.8392C204.553 77.6224 204.557 79.8238 203.66 81.9719C202.762 84.1201 200.971 86.1853 198.484 87.633C195.996 89.0806 193.316 89.6182 191.005 89.3373C188.694 89.0564 186.782 87.9651 185.744 86.182Z" fill="#1C3753" stroke="#002137"/>
<path d="M251.886 120.101C249.996 119.274 248.693 117.5 248.149 115.237C247.606 112.973 247.833 110.248 248.986 107.611C250.139 104.975 251.986 102.959 254.017 101.821C256.048 100.684 258.236 100.436 260.126 101.262C262.016 102.089 263.319 103.864 263.863 106.127C264.406 108.391 264.179 111.116 263.026 113.752C261.873 116.389 260.026 118.405 257.995 119.543C255.964 120.68 253.777 120.927 251.886 120.101Z" fill="#1C3753" stroke="#002137"/>
<path d="M296.886 98.1007C294.996 97.2739 293.693 95.5 293.149 93.2365C292.606 90.9727 292.833 88.2483 293.986 85.6115C295.139 82.9747 296.986 80.9587 299.017 79.821C301.048 78.6837 303.236 78.4355 305.126 79.2623C307.016 80.0891 308.319 81.8638 308.863 84.1274C309.406 86.3912 309.179 89.1156 308.026 91.7524C306.873 94.3892 305.026 96.4053 302.995 97.5428C300.964 98.6801 298.777 98.9274 296.886 98.1007Z" fill="#1C3753" stroke="#002137"/>
<path d="M311.372 112.638C309.309 112.627 307.41 111.514 306.015 109.65C304.62 107.787 303.75 105.195 303.766 102.317C303.781 99.439 304.679 96.8568 306.094 95.0081C307.509 93.1598 309.42 92.0661 311.483 92.0773C313.546 92.0884 315.445 93.2027 316.84 95.0662C318.235 96.9301 319.105 99.5219 319.09 102.4C319.074 105.278 318.176 107.86 316.761 109.709C315.346 111.557 313.435 112.65 311.372 112.638Z" fill="#1C3753" stroke="#002137"/>
<path d="M321.666 114.683C320.367 114.676 319.144 113.916 318.228 112.59C317.313 111.266 316.737 109.412 316.748 107.346C316.76 105.279 317.355 103.432 318.285 102.118C319.215 100.802 320.446 100.056 321.745 100.063C323.043 100.07 324.267 100.829 325.183 102.155C326.098 103.479 326.674 105.333 326.663 107.399C326.652 109.466 326.055 111.313 325.126 112.627C324.196 113.944 322.965 114.69 321.666 114.683Z" fill="#1C3753" stroke="#002137"/>
<path d="M333.31 106.405C331.906 107.701 329.897 108.135 327.734 107.725C325.571 107.314 323.29 106.061 321.426 104.043C319.562 102.024 318.494 99.6515 318.257 97.4627C318.019 95.2741 318.612 93.3055 320.015 92.0089C321.419 90.7122 323.429 90.2777 325.592 90.6881C327.755 91.0986 330.036 92.3519 331.9 94.3702C333.764 96.3885 334.832 98.7614 335.07 100.95C335.307 103.139 334.714 105.108 333.31 106.405Z" fill="#1C3753" stroke="#002137"/>
<path d="M322.443 96.4721C321.039 97.7686 319.03 98.2026 316.867 97.7922C314.704 97.3817 312.423 96.1285 310.559 94.1101C308.695 92.0918 307.627 89.7189 307.39 87.5301C307.152 85.3415 307.744 83.3729 309.148 82.0763C310.552 80.7796 312.562 80.345 314.725 80.7555C316.888 81.166 319.169 82.4192 321.033 84.4375C322.897 86.4559 323.965 88.8288 324.202 91.0176C324.44 93.2064 323.847 95.1754 322.443 96.4721Z" fill="#1C3753" stroke="#002137"/>
<path d="M258.337 105.298C254.299 103.532 252.666 97.9122 254.985 92.6112C257.303 87.3102 262.539 84.6937 266.577 86.4597C270.614 88.2258 272.247 93.8463 269.928 99.1474C267.61 104.448 262.375 107.064 258.337 105.298Z" fill="#1C3753" stroke="#002137"/>
<path d="M246.337 89.2981C242.299 87.532 240.666 81.9122 242.985 76.6112C245.303 71.3102 250.539 68.6937 254.577 70.4597C258.614 72.2258 260.247 77.8463 257.928 83.1474C255.61 88.4482 250.375 91.0641 246.337 89.2981Z" fill="#1C3753" stroke="#002137"/>
<path d="M260.337 87.2981C256.299 85.532 254.666 79.9122 256.985 74.6112C259.303 69.3102 264.539 66.6937 268.577 68.4597C272.614 70.2258 274.247 75.8463 271.928 81.1474C269.61 86.4482 264.375 89.0641 260.337 87.2981Z" fill="#1C3753" stroke="#002137"/>
<path d="M250.491 71.5681C247.367 68.4598 247.88 62.63 251.96 58.5285C256.041 54.4269 261.869 53.884 264.993 56.9924C268.117 60.1008 267.604 65.9311 263.523 70.0327C259.442 74.134 253.615 74.6765 250.491 71.5681Z" fill="#1C3753" stroke="#002137"/>
<path d="M261.299 58.2599C260.07 57.037 259.59 55.2408 259.863 53.2771C260.137 51.3133 261.165 49.2146 262.904 47.4669C264.643 45.7193 266.737 44.6803 268.699 44.3967C270.661 44.1132 272.459 44.5852 273.688 45.808C274.917 47.0308 275.399 48.8265 275.125 50.7901C274.851 52.7539 273.823 54.8526 272.084 56.6003C270.345 58.3479 268.251 59.3868 266.289 59.6705C264.327 59.9541 262.528 59.4827 261.299 58.2599Z" fill="#1C3753" stroke="#002137"/>
<path d="M284.763 91.6044C282.547 95.4138 276.778 96.3939 271.776 93.4851C266.775 90.5761 264.774 85.0759 266.989 81.2664C269.205 77.4568 274.975 76.477 279.977 79.3861C284.978 82.2952 286.979 87.7949 284.763 91.6044Z" fill="#1C3753" stroke="#002137"/>
<path d="M198.718 119.275C200.315 119.215 201.834 120.034 202.995 121.486C204.155 122.939 204.931 125.001 205.018 127.328C205.105 129.655 204.484 131.769 203.434 133.303C202.385 134.838 200.931 135.767 199.334 135.827C197.737 135.886 196.217 135.068 195.056 133.615C193.896 132.163 193.12 130.101 193.033 127.774C192.947 125.447 193.567 123.333 194.617 121.798C195.666 120.263 197.121 119.334 198.718 119.275Z" fill="#1C3753" stroke="#002137"/>
<path d="M175.611 69.4163C178.829 65.6025 183.78 64.7435 186.661 67.1738C189.542 69.6041 189.53 74.6294 186.312 78.4434C183.095 82.2575 178.143 83.117 175.262 80.6867C172.381 78.2563 172.394 73.2304 175.611 69.4163Z" fill="#1C3753" stroke="#002137"/>
</svg>
