<svg width="870" height="870" viewBox="0 0 870 870" fill="none" xmlns="http://www.w3.org/2000/svg">
<rect width="870" height="870" rx="80" fill="#FFF6E7"/>
<path fill-rule="evenodd" clip-rule="evenodd" d="M275.193 597.658C270.237 605.954 235.977 698.892 266.119 698.892C317.798 698.892 447.597 698.892 554.203 698.892C560.885 688.416 570.067 617.855 548.075 593.316C542.107 587.15 534.976 574.389 554.203 572.674C578.237 570.531 647.249 517.778 647.947 487.83C654.371 485.771 668.916 477.635 675.705 461.561C701.262 418.586 840.461 418.409 821.411 263.361C821.206 257.828 821.829 245.219 825.957 239.049C831.117 231.336 735.274 184.14 690.527 249.421C684.304 251.868 674.499 252.963 685.058 237.768C695.617 222.573 697.437 216.439 697.027 215.272C562.595 251.456 376.025 257.359 109.122 231.669C146.162 267.549 178.763 329.175 167.908 495.467C166.797 511.725 184.884 551.548 266.119 580.779C272.019 582.642 282.093 588.625 275.193 597.658ZM641.731 429.23C646.164 375.743 635.421 327.781 654.898 297.534C664.19 291.282 673.673 297.04 677.254 300.701C687.054 326.372 695.491 315.477 698.484 306.82C710.153 272.823 724.284 255.928 729.891 251.73C774.617 229.417 793.717 254.236 797.677 269.435C809.194 366.106 687.887 415.582 665.261 432.378C647.159 445.814 642.032 435.878 641.731 429.23Z" fill="#002137"/>
<path d="M693.105 190.094C666.622 185.819 354.299 146.176 108.609 199.392C135.959 258.243 690.218 229.993 693.105 190.094Z" fill="#002137"/>
<path d="M697.027 215.272C704.547 208.304 714.291 193.513 693.105 190.094C690.218 229.993 135.959 258.243 108.609 199.392C99.6446 201.687 93.6213 216.653 109.122 231.669C376.025 257.359 562.595 251.456 697.027 215.272Z" fill="#1C3753"/>
<path d="M634.92 369.22C634.92 362.335 635.521 347.868 636.115 335.218C636.413 328.872 636.71 322.951 636.933 318.617C637.045 316.451 637.138 314.68 637.203 313.451C637.235 312.837 637.262 312.357 637.279 312.031C637.288 311.868 637.294 311.742 637.298 311.658C637.3 311.618 637.304 311.586 637.305 311.565V311.533L637.433 309.188L639.625 308.37C640.519 308.037 640.959 307.68 641.194 307.41C641.422 307.148 641.614 306.789 641.736 306.193C642.02 304.799 641.815 302.749 641.213 299.542C640.923 298.003 640.557 296.277 640.206 294.399C640.172 294.432 640.142 294.47 640.108 294.503C636.341 298.202 631.87 297.708 628.416 296.724C626.728 296.244 624.944 295.546 623.432 294.995C621.829 294.41 620.387 293.93 619 293.662C616.587 293.196 614.501 293.378 612.372 295.074C611.661 296.511 610.983 298.642 611.008 300.759C611.034 302.973 611.796 305.076 614.193 306.685L611.357 313.136C608.492 312.432 605.175 311.866 602.082 311.71C598.894 311.548 596.361 311.845 594.792 312.523C594.057 312.841 593.709 313.17 593.542 313.406C593.402 313.604 593.238 313.943 593.263 314.642C593.321 316.275 594.401 319.35 598.198 324.371L600.115 326.907L597.828 329.114C588.101 338.497 561.404 349.784 529.388 326.453C527.038 324.74 524.738 325.595 524.032 327C523.575 327.909 523.209 329.768 524.181 333.027C525.15 336.278 527.379 340.639 531.652 346.185L538.476 355.044L527.791 351.797C522.406 350.161 516.34 347.708 510.943 344.507C505.606 341.343 500.585 337.251 497.732 332.193C494.742 326.891 494.271 320.73 497.786 314.28C500.497 309.306 505.492 304.319 513.111 299.281C505.151 296.479 497.885 296.483 491.642 298.367C483.795 300.736 477.253 306.167 472.842 313.39C464.011 327.849 463.927 349.171 479.125 365.808L484.043 371.192L476.786 371.793C472.414 372.155 465.586 371.836 459.004 369.696C452.425 367.556 445.595 363.417 442.188 355.792L440.822 352.732L443.778 351.163C451.058 347.304 453.635 340.531 452.865 336.222C452.498 334.172 451.438 332.768 449.829 332.062C448.12 331.313 445.141 331.07 440.522 332.852L436.238 334.505C436.897 337.146 437.323 340.049 437.481 343.23C438.813 370.053 458.041 384.818 467.251 388.759L472.698 391.09L468.1 394.83C466.522 396.114 466.037 397.569 466.103 398.881C466.174 400.284 466.897 401.807 468.262 402.964C470.712 405.038 476.039 406.345 483.023 400.265L487.858 396.056L488.888 402.393C489.07 403.516 489.55 404.286 490.173 404.712C490.758 405.111 492.063 405.613 494.762 404.989C500.418 403.681 510.371 397.818 526.28 381.598C528.235 379.604 530.063 378.132 531.77 377.249C533.393 376.41 535.584 375.775 537.719 376.731C539.956 377.734 540.776 379.853 541.017 381.414C541.028 381.485 541.033 381.558 541.043 381.63L543.246 383.129C546.299 385.202 550.08 386.265 552.774 385.114C555.14 384.104 558.62 380.447 558.965 368.125V368.069L558.969 368.013C559.345 361.707 564.509 349.11 580.803 343.032L591.907 338.891L584.934 348.495C582.232 352.216 580.674 355.503 580.027 358.043C579.347 360.713 579.813 361.893 580.048 362.208C580.104 362.283 580.594 362.957 582.914 362.522C585.251 362.084 588.713 360.588 593.3 357.355L593.625 357.125L593.995 356.973C603.079 353.228 610.614 353.756 615.557 358.696C620.177 363.312 621.344 370.711 620.638 377.883C619.916 385.224 617.171 393.237 612.83 400.041C608.5 406.829 602.375 412.725 594.713 415.297L589.599 417.012L590.018 411.624C590.436 406.239 589.943 402.165 588.967 399.3C587.993 396.441 586.626 394.997 585.397 394.36C583.251 393.247 578.945 393.684 573.665 399.813C572.148 404.264 572.059 409.823 575.294 413.775C578.573 417.781 586.381 421.494 603.914 419.359C606.289 417.897 609.873 415.411 613.453 412.335C617.354 408.983 621.024 405.126 623.221 401.321C624.275 398.844 625.582 396.604 626.856 394.497C628.209 392.262 629.51 390.192 630.706 387.843C633.02 383.296 634.92 377.728 634.92 369.22ZM195.986 268.313C197.784 271.9 200.037 276.1 202.544 280.264C206.643 287.076 211.208 293.439 215.363 297.016L218.264 299.514L215.579 302.245C213.584 304.276 211.071 305.075 208.617 305.247C206.231 305.414 203.705 305.006 201.314 304.441C198.906 303.872 196.359 303.075 193.952 302.334C191.49 301.576 189.136 300.868 186.89 300.376C182.197 299.35 179.117 299.552 177.16 301.045C176.09 301.862 174.969 303.37 174.185 306.163C176.223 304.716 178.561 303.483 181.047 302.994C184.294 302.355 187.719 303.018 190.561 305.772C193.208 308.336 195.019 312.399 196.147 317.867C196.829 321.179 199.959 325.488 203.91 328.727C205.613 330.123 207.286 331.162 208.708 331.776C210.3 331.75 211.844 331.796 213.29 331.899L224.698 332.715L214.854 338.55C212.474 339.962 209.743 339.658 207.544 338.97C205.808 339.047 204.047 339.231 202.353 339.541C198.841 340.184 195.952 341.318 194.078 342.899C192.375 344.335 191.375 346.225 191.602 349.119C191.834 352.067 193.366 356.256 197.358 361.968L198.19 363.131L198.692 363.816L198.831 364.655C199.45 368.35 200.646 372.556 202.483 376.356C204.332 380.182 206.718 383.363 209.584 385.322C212.336 387.202 215.71 388.091 220.045 387.109C224.52 386.096 230.215 383.034 237.234 376.519L242.086 381.775C234.257 389.041 236.391 395.554 238.88 397.524C240.172 398.546 242.021 398.954 244.254 397.902C246.613 396.791 249.667 393.884 252.348 387.652L259.196 389.19C259.062 393.246 259.856 399.126 262.432 403.651C263.692 405.866 265.317 407.654 267.374 408.823C269.405 409.977 272.085 410.661 275.698 410.324C281.994 409.737 288.493 411.801 294.457 415.115C300.457 418.45 306.199 423.202 311.105 428.437C316.011 433.672 320.186 439.505 322.983 445.088C325.712 450.535 327.409 456.299 326.542 461.174L325.324 468.011L320.475 463.05C312.097 454.48 298.685 444.092 285.612 440.227C279.132 438.311 273.036 438.084 267.727 440.141C262.49 442.169 257.496 446.621 253.539 455.11C251.822 458.791 248.459 461.658 244.722 463.469C240.947 465.299 236.433 466.234 232.011 465.711C227.534 465.182 223.112 463.142 219.852 459.032C217.911 456.585 216.487 453.53 215.654 449.857C215.761 456.797 216.924 465.419 219.654 473.686C223.91 486.576 231.546 497.417 243.622 500.443L244.805 500.711L245.828 500.918L246.579 501.646C248.384 503.396 251.73 505.551 255.628 506.167C259.324 506.75 263.732 506.001 268.222 501.646L268.274 501.597L268.327 501.548C272.734 497.602 280.526 494.168 289.694 496.479C298.866 498.79 308.559 506.629 317.332 523.401L317.813 524.322L317.727 525.354C317.458 528.67 316.426 531.449 314.529 533.595C312.652 535.718 310.218 536.895 307.737 537.564C303.036 538.83 296.988 538.505 291.844 538.447C286.306 538.384 281.387 538.585 277.516 540.227C274.008 541.716 271.097 544.505 269.773 550.587C269.539 551.852 269.464 553.256 269.643 554.488C269.827 555.759 270.229 556.529 270.64 556.935C271.106 557.394 273.44 558.948 281.442 554.665L288.308 550.99L286.609 558.604C285.604 563.102 285.005 568.991 285.91 572.769C286.363 574.66 286.992 575.211 287.274 575.353C287.494 575.463 288.541 575.837 291.295 574.468L293.862 573.19L295.661 575.428C298.092 578.45 301.921 581.545 305.603 582.189C307.3 582.485 308.963 582.269 310.624 581.249C312.35 580.189 314.349 578.087 316.284 574.118C317.75 571.111 320.065 569.065 323.011 568.061C325.831 567.1 328.955 567.183 332.044 567.802C338.181 569.033 345.35 572.63 352.525 577.152C366.495 585.957 381.726 599.082 391.886 608.841H394.859C392.149 606.003 389.696 602.797 387.618 599.414C383.687 593.011 380.934 585.732 380.391 578.802C379.846 571.841 381.535 564.897 386.935 559.923C391.94 555.312 399.548 552.94 409.82 553.176L411.909 553.257L414.859 553.421L415.252 556.355C415.832 560.683 417.637 564.893 420.071 568.233C422.54 571.622 425.418 573.797 427.923 574.544C430.156 575.211 432.21 574.828 434.108 572.668C436.249 570.234 438.348 565.318 439.206 556.485L439.65 551.924L443.955 553.458C446.967 554.53 451.245 555.435 454.532 555.04C456.144 554.847 457.15 554.385 457.718 553.859C458.185 553.427 458.704 552.639 458.704 550.876V537.156L465.389 549.128C466.579 551.258 469.061 554.086 472.416 555.525C475.547 556.868 479.793 557.169 485.229 553.789L491.993 549.585L490.629 557.445C490.131 560.31 489.728 563.573 489.611 566.539C489.5 569.35 489.67 571.524 490.034 572.839C490.405 572.585 490.9 572.195 491.521 571.601C492.666 570.506 494.077 568.889 495.78 566.602C502.588 557.46 503.414 551.572 502.691 548.205C502.028 545.123 499.879 543.306 497.93 542.516C493.762 542.242 490.922 539.59 488.96 536.867C486.958 534.088 485.297 530.408 483.862 527.584C482.279 524.468 480.905 522.228 479.362 520.98C478.667 520.417 478.001 520.115 477.295 520.008C476.578 519.899 475.576 519.954 474.164 520.481L470.945 521.681L469.622 518.502C466.98 512.145 460.375 503.465 449.253 498.704C438.251 493.995 422.368 492.927 400.742 502.531L398.532 503.512L396.802 501.818C393.944 499.019 389.6 497.286 384.996 499.721C379.97 502.378 373.427 510.492 368.16 530.926L361.156 530.435C359.633 516.965 360.673 496.989 369.139 481.116C373.408 473.11 379.619 466.06 388.399 461.528C397.184 456.993 408.245 455.132 421.951 456.997C422.941 457.132 424.172 456.764 425.61 455.352C427.055 453.932 428.386 451.733 429.308 449.16C430.227 446.597 430.646 443.925 430.503 441.697C430.356 439.407 429.664 438.095 428.934 437.481L421.398 431.156H431.226C444.339 431.156 452.203 419.643 451.201 409.273C450.717 404.267 448.15 399.66 443.007 396.835C437.767 393.956 429.385 392.68 416.944 395.541L405.982 398.06L413.488 389.664C415.153 387.8 415.879 385.329 414.106 382.784C411.948 379.686 405.619 375.5 389.813 372.749L387.862 372.408L387.116 370.57C385.861 367.479 383.607 365.384 380.954 365.501C377.941 365.633 372.239 368.498 364.155 381.085L357.934 377.594C360.521 372.206 363.075 365.77 364.78 359.462C366.505 353.081 367.266 347.169 366.579 342.682C365.92 338.38 364.072 335.891 360.731 334.896C356.891 333.753 350.255 334.29 339.457 338.776C339.543 338.741 339.236 338.882 338.56 339.543C337.957 340.132 337.247 340.95 336.519 341.939C335.045 343.941 333.681 346.389 332.96 348.66C332.196 351.068 332.39 352.479 332.788 353.14C333.034 353.548 333.909 354.533 337.153 354.694C338.159 353.988 339.274 352.775 340.54 351.072C341.285 350.071 341.971 349.062 342.714 348.003C343.419 346.997 344.19 345.925 344.978 345.022C345.712 344.181 346.771 343.115 348.144 342.524C348.89 342.203 349.797 341.991 350.805 342.088C351.824 342.187 352.719 342.579 353.46 343.121C354.822 344.116 355.727 345.657 356.403 347.185C357.117 348.8 357.78 350.883 358.423 353.459L358.541 353.934L358.527 354.424C358.374 360.249 357.508 369.843 355.415 379.924C353.334 389.944 349.97 400.806 344.634 408.911L338.095 406.635C338.599 400.709 336.059 382.099 320.15 360.422L319.41 359.416L319.457 358.166C319.892 346.485 318.28 330.532 312.507 319.909C309.662 314.675 306.004 311.086 301.409 309.615C296.827 308.148 290.579 308.555 282.056 312.856L276.879 315.469V309.659C276.879 307.337 276.269 303.361 274.396 299.481C273.486 297.596 272.3 295.776 270.77 294.179C270.769 294.248 270.772 294.317 270.77 294.385C270.707 297.333 270.119 300.59 268.378 303.322C266.54 306.207 263.596 308.21 259.552 308.722C255.685 309.212 250.999 308.324 245.391 306.023L244.029 305.464L243.455 304.105C239.094 293.77 223.651 272.933 195.986 268.313ZM521.219 414.472C518.531 419.923 515.093 424.139 511.173 427.427C504.169 433.301 495.949 435.94 488.767 437.712C486.965 438.157 485.201 438.553 483.539 438.926C481.863 439.303 480.298 439.654 478.827 440.022C475.84 440.768 473.528 441.516 471.831 442.457C470.206 443.357 469.383 444.3 468.983 445.387C468.556 446.549 468.402 448.448 469.287 451.642L470.196 454.914L466.984 455.995C463.612 457.129 458.285 457.991 453.283 456.596C450.736 455.886 448.205 454.565 446.131 452.336C445.478 456.121 445.478 460.242 446.682 464.087C448.663 470.412 454.171 476.835 467.791 479.594L469.134 479.848L469.32 479.881L469.501 479.934C475.525 481.682 495.785 479.957 517.993 450.444L524.111 454.042C520.161 463.047 516.015 475.564 515.831 484.416C515.736 488.972 516.715 491.407 517.956 492.438C518.498 492.888 519.434 493.329 521.029 493.354C520.278 492.319 519.594 491.147 519.027 489.825C516.961 485.005 516.527 478.54 519.227 470.34L519.915 468.249L522.084 467.923C526.858 467.201 532.309 464.451 534.501 459.064C536.675 453.724 536.258 444.299 525.864 428.789L525.668 428.497L525.534 428.173C524.384 425.418 522.62 420.371 521.219 414.472ZM230.849 433.3C227.789 432.782 224.32 433.111 221.537 434.282C218.786 435.439 217.054 437.236 216.509 439.532C216.371 440.114 216.247 440.754 216.14 441.446L221.732 440.474C222.234 441.876 222.989 443.431 223.934 444.764C224.897 446.125 225.905 447.04 226.835 447.486C227.633 447.87 228.485 447.977 229.619 447.51C230.899 446.982 232.74 445.625 235.015 442.534C237.633 438.976 237.142 437.151 236.66 436.328C235.956 435.126 234.03 433.84 230.849 433.3ZM533.753 384.462C533.104 384.961 532.312 385.66 531.373 386.618C528.562 389.484 525.897 392.066 523.376 394.39C525.894 394.187 528.07 392.985 529.857 391.202C531.859 389.204 533.194 386.643 533.73 384.574C533.739 384.536 533.744 384.498 533.753 384.462ZM349.936 350.238C349.53 350.75 349.08 351.376 348.557 352.121C347.886 353.079 347.09 354.243 346.265 355.351C344.674 357.491 342.499 360.106 339.675 361.508L338.925 361.881H338.09C332.943 361.881 328.82 360.393 326.679 356.845C326.663 356.819 326.65 356.792 326.635 356.766C326.632 356.906 326.627 357.045 326.623 357.183C336.827 371.372 341.829 384.528 343.955 394.262C345.83 389.299 347.304 383.865 348.425 378.465C350.368 369.109 351.19 360.195 351.368 354.72C350.846 352.693 350.366 351.243 349.936 350.238ZM459.95 340.375C459.148 345.883 455.812 351.544 450.247 355.545C452.788 359.085 456.726 361.428 461.208 362.886C463.812 363.733 466.49 364.238 468.971 364.508C463.681 356.842 460.798 348.551 459.95 340.375ZM437.732 296.03C435.997 295.221 434.733 295.376 433.727 295.857C432.584 296.405 431.432 297.557 430.51 299.23C429.597 300.886 429.063 302.787 428.969 304.436C428.868 306.2 429.287 307.054 429.487 307.279L424.724 312.556C421.91 310.509 418.469 308.363 414.989 306.706C411.453 305.023 408.151 303.978 405.54 303.854C403.039 303.734 401.716 304.437 400.926 305.681C400.149 306.904 399.513 309.204 399.762 313.25C405.855 312.214 413.616 312.251 420.598 315.252C424.996 317.143 429.08 320.213 432.142 324.882C433.285 326.625 434.267 328.566 435.068 330.711L435.854 328.373C437.573 323.244 439.614 315.348 440.203 308.365C440.499 304.856 440.406 301.817 439.859 299.551C439.307 297.262 438.46 296.369 437.732 296.03ZM642.061 369.22C642.061 378.977 639.837 385.653 637.066 391.097C635.719 393.743 634.235 396.105 632.961 398.212C631.655 400.37 630.543 402.298 629.695 404.344L629.609 404.549L629.499 404.742C626.72 409.628 622.301 414.161 618.1 417.77C613.864 421.409 609.612 424.311 606.926 425.903L606.294 426.279L605.566 426.372C586.72 428.805 575.482 425.291 569.774 418.317C564.11 411.399 565.031 402.468 567.175 396.746L567.386 396.18L567.772 395.716C573.839 388.405 581.785 384.428 588.676 388.002C591.993 389.722 594.342 392.931 595.724 396.988C596.618 399.612 597.14 402.679 597.272 406.152C600.924 403.799 604.168 400.333 606.815 396.184C610.567 390.302 612.922 383.364 613.53 377.181C614.155 370.829 612.882 366.13 610.517 363.767C608.504 361.755 604.591 360.433 597.033 363.468C592.192 366.831 587.888 368.874 584.225 369.56C580.453 370.267 576.651 369.601 574.334 366.5C572.196 363.638 572.207 359.804 573.107 356.272C573.158 356.07 573.214 355.866 573.272 355.661C567.951 360.453 566.269 365.886 566.101 368.386C565.726 381.403 561.963 388.971 555.573 391.7C551.335 393.51 546.885 392.743 543.309 391.251C541.08 396.648 537.645 399.91 533.69 401.482C531.192 402.475 528.675 402.713 526.415 402.533C527.254 411.546 530.273 420.879 532 425.116C542.706 441.209 544.607 453.187 541.112 461.77C538.029 469.343 531.218 473.116 525.424 474.544C523.867 480.361 524.463 484.377 525.587 486.998C526.865 489.979 528.948 491.48 530.148 491.96L538.758 495.4L530.071 498.639C523.314 501.16 517.483 501.34 513.402 497.952C509.504 494.716 508.588 489.297 508.693 484.267C508.79 479.588 509.799 474.239 511.245 468.932C492.791 486.675 475.992 489.126 467.753 486.872C451.223 483.894 442.872 475.823 439.869 466.231C436.98 457.006 439.328 447.255 442.221 441.14L445.394 434.431C442.919 435.947 440.127 437.086 437.047 437.726C437.371 438.886 437.555 440.078 437.63 441.238C437.847 444.615 437.216 448.273 436.028 451.583C434.845 454.883 433.015 458.103 430.608 460.467C428.193 462.839 424.879 464.62 420.991 464.091C408.443 462.384 398.911 464.154 391.668 467.892C384.419 471.634 379.164 477.502 375.436 484.493C371.425 492.014 369.24 500.733 368.292 509.154C372.334 500.905 376.882 495.915 381.665 493.386C388.821 489.603 395.506 491.75 399.92 495.09C422.007 485.786 439.297 486.657 452.056 492.118C463.58 497.051 471.052 505.585 474.89 512.935C476.073 512.765 477.232 512.758 478.365 512.93C480.517 513.257 482.33 514.183 483.844 515.407C486.718 517.733 488.684 521.299 490.227 524.336C491.919 527.666 493.174 530.49 494.748 532.674C496.252 534.761 497.436 535.384 498.641 535.385H499.225L499.776 535.569C503.639 536.866 508.312 540.375 509.671 546.697C511.017 552.959 508.887 560.969 501.503 570.886C499.658 573.363 497.983 575.317 496.452 576.782C494.957 578.211 493.41 579.359 491.8 579.956C490.067 580.599 488.076 580.644 486.298 579.513C484.709 578.503 483.877 576.91 483.414 575.598C482.489 572.98 482.349 569.494 482.477 566.257C482.522 565.108 482.604 563.932 482.714 562.759C477.84 564.218 473.389 563.731 469.606 562.109C467.228 561.089 465.192 559.652 463.513 558.093C463.222 558.453 462.908 558.797 462.563 559.116C460.489 561.036 457.833 561.854 455.38 562.148C452.203 562.53 448.754 562.106 445.77 561.421C444.626 568.65 442.496 573.953 439.464 577.402C435.625 581.768 430.639 582.823 425.887 581.406C421.407 580.069 417.353 576.637 414.306 572.456C411.784 568.995 409.785 564.803 408.732 560.326C400.097 560.274 394.825 562.376 391.765 565.194C388.451 568.248 387.081 572.745 387.511 578.241C387.944 583.769 390.202 589.964 393.699 595.659C397.192 601.348 401.767 606.288 406.565 609.421L416.644 616H389.006L387.969 614.991C378.004 605.314 362.592 591.954 348.725 583.214C341.738 578.811 335.469 575.792 330.645 574.824C328.253 574.345 326.513 574.43 325.31 574.84C324.232 575.208 323.363 575.902 322.7 577.262C320.376 582.028 317.584 585.369 314.355 587.353C311.059 589.377 307.601 589.807 304.375 589.243C299.328 588.361 294.916 585.083 291.895 581.951C289.146 582.863 286.47 582.955 284.08 581.757C281.013 580.22 279.612 577.149 278.964 574.442C278.188 571.202 278.204 567.321 278.566 563.705C273.131 565.472 268.702 565.07 265.628 562.037C263.719 560.151 262.891 557.689 262.576 555.518C262.258 553.321 262.411 551.083 262.762 549.216L262.771 549.17L262.781 549.125C264.566 540.85 268.966 536.079 274.733 533.632C280.148 531.335 286.485 531.226 291.923 531.288C297.755 531.353 302.408 531.585 305.884 530.649C307.491 530.216 308.515 529.603 309.185 528.845C309.728 528.23 310.232 527.294 310.487 525.75C302.399 510.697 294.272 505.014 287.953 503.421C281.495 501.794 276.068 504.217 273.083 506.889C266.959 512.773 260.324 514.157 254.517 513.24C249.396 512.431 245.104 509.873 242.388 507.5C226.502 503.781 217.48 489.887 212.874 475.937C208.165 461.678 207.611 446.1 209.564 437.875C210.785 432.727 214.596 429.437 218.776 427.679C222.924 425.934 227.776 425.519 232.039 426.241C236.18 426.943 240.579 428.881 242.818 432.704C245.279 436.906 244.351 441.906 240.761 446.785C238.068 450.444 235.278 452.917 232.337 454.131C229.916 455.129 227.574 455.192 225.449 454.585C227.38 457.014 229.983 458.262 232.848 458.601C235.773 458.946 238.924 458.329 241.614 457.025C244.34 455.704 246.241 453.856 247.069 452.078C251.627 442.3 257.839 436.295 265.154 433.461C272.398 430.656 280.205 431.163 287.632 433.359C298.569 436.592 309.333 443.677 317.741 450.779C317.408 449.984 317.03 449.156 316.602 448.302C314.162 443.431 310.414 438.156 305.9 433.34C301.387 428.524 296.214 424.279 290.993 421.377C285.736 418.456 280.706 417.047 276.358 417.453C271.456 417.91 267.289 417.004 263.852 415.05C260.442 413.111 257.976 410.269 256.228 407.198C254.88 404.83 253.927 402.264 253.271 399.727C251.41 401.834 249.403 403.388 247.29 404.383C242.678 406.555 237.93 405.894 234.454 403.143C230.9 400.33 229.12 395.92 229.499 391.06C226.759 392.518 224.137 393.521 221.618 394.092C215.326 395.517 209.93 394.221 205.563 391.237C201.312 388.331 198.228 383.968 196.058 379.479C194.019 375.261 192.69 370.723 191.944 366.682C187.299 360.179 184.868 354.562 184.484 349.681C184.069 344.381 186.093 340.277 189.48 337.42C191.927 335.357 194.983 334.018 198.113 333.165C194.038 329.493 190.202 324.407 189.152 319.317C188.151 314.462 186.752 312.038 185.598 310.92C184.639 309.991 183.669 309.774 182.42 310.02C180.972 310.305 179.2 311.242 177.306 312.761C175.456 314.245 173.731 316.089 172.388 317.816L166 326.031L166.002 315.613C166.005 305.654 168.134 298.937 172.834 295.349C177.503 291.787 183.461 292.297 188.413 293.38C190.989 293.943 193.61 294.739 196.049 295.489C198.544 296.257 200.827 296.971 202.95 297.473C204.251 297.78 205.392 297.981 206.384 298.071C202.826 293.98 199.402 288.9 196.43 283.962C192.215 276.959 188.69 269.879 186.716 265.46L184.278 260L190.228 260.426C224.067 262.844 243.257 286.785 249.401 299.908C253.721 301.531 256.692 301.867 258.657 301.619C260.637 301.368 261.685 300.528 262.36 299.467C263.132 298.255 263.581 296.462 263.629 294.231C263.676 292.039 263.329 289.723 262.806 287.747L260.944 280.718L267.637 283.527C274.303 286.324 278.414 291.371 280.824 296.361C282.149 299.106 282.987 301.888 283.471 304.385C291.097 301.379 297.791 300.94 303.58 302.793C310.499 305.008 315.389 310.252 318.776 316.483C323.398 324.988 325.579 335.976 326.337 345.959C327.378 342.938 329.068 340.001 330.773 337.686C331.683 336.449 332.643 335.324 333.576 334.414C334.434 333.576 335.53 332.658 336.723 332.162C347.919 327.51 356.494 326.165 362.765 328.033C369.535 330.049 372.7 335.467 373.639 341.596C374.549 347.542 373.495 354.594 371.672 361.336C371.625 361.512 371.572 361.687 371.523 361.863C374.69 359.605 377.726 358.476 380.642 358.348C386.793 358.079 390.773 362.206 392.853 366.03C407.832 368.859 416.207 373.297 419.961 378.687C422.034 381.662 422.546 384.64 422.179 387.31C432.359 385.942 440.429 387.255 446.438 390.556C453.829 394.617 457.617 401.427 458.309 408.581C459.174 417.531 455.163 427.237 447.439 433.044L448.967 442.075C449.406 444.668 450.318 446.333 451.333 447.433C452.356 448.541 453.666 449.271 455.196 449.698C457.262 450.274 459.587 450.251 461.656 449.933C461.328 447.375 461.501 445.03 462.281 442.909C463.444 439.746 465.746 437.647 468.376 436.19C470.933 434.774 474.007 433.848 477.1 433.074C478.67 432.682 480.321 432.312 481.979 431.939C483.651 431.564 485.343 431.184 487.061 430.76C493.959 429.058 500.872 426.733 506.591 421.937C512.07 417.342 516.752 410.216 518.927 398.352C509.303 406.592 501.962 410.671 496.366 411.964C492.338 412.896 488.838 412.463 486.152 410.629C485.25 410.013 484.512 409.284 483.911 408.494C476.176 413.341 468.603 412.624 463.655 408.434C460.919 406.117 459.151 402.801 458.971 399.242C458.868 397.181 459.303 395.125 460.296 393.243C448.819 386.637 431.683 370.443 430.35 343.587C430.02 336.942 428.395 332.198 426.177 328.816C423.969 325.449 421.045 323.233 417.786 321.831C411.125 318.968 403.059 319.526 397.621 321.048L393.762 322.127L393.134 318.158C392.027 311.135 392.489 305.636 394.903 301.835C397.521 297.715 401.788 296.508 405.88 296.703C409.862 296.893 414.159 298.386 418.051 300.239C419.4 300.881 420.733 301.587 422.028 302.322C422.374 300.088 423.136 297.808 424.26 295.769C425.662 293.223 427.778 290.775 430.65 289.4C433.659 287.958 437.158 287.865 440.745 289.537C444.275 291.183 446 294.552 446.8 297.866C447.606 301.205 447.646 305.115 447.321 308.967C446.881 314.188 445.721 319.745 444.457 324.486C447.513 324.117 450.286 324.449 452.691 325.504C456.491 327.172 458.795 330.386 459.694 334.039C459.894 325.211 462.412 316.757 466.751 309.652C471.964 301.116 479.857 294.447 489.583 291.511C499.351 288.562 510.66 289.473 522.475 295.554L528.355 298.582L522.605 301.854C512.013 307.878 506.483 313.255 504.053 317.713C501.773 321.895 502.119 325.425 503.948 328.669C505.915 332.155 509.714 335.461 514.578 338.345C516.261 339.344 518.035 340.263 519.839 341.107C518.72 338.953 517.897 336.945 517.34 335.078C516.039 330.718 516.117 326.84 517.656 323.777C520.942 317.24 528.84 317.203 533.586 320.661C560.013 339.919 581.333 332.761 590.531 325.921C587.77 321.781 586.241 318.124 586.126 314.896C586.052 312.812 586.568 310.886 587.714 309.265C588.832 307.683 590.376 306.638 591.966 305.951C595.046 304.619 598.895 304.38 602.442 304.56C603.092 304.593 603.746 304.643 604.399 304.704C604.046 303.413 603.882 302.108 603.867 300.84C603.821 296.893 605.173 293.242 606.443 291.01L606.731 290.502L607.166 290.113C611.531 286.204 616.198 285.83 620.352 286.633C622.332 287.016 624.223 287.665 625.873 288.267C627.615 288.902 629.005 289.45 630.366 289.838C633.011 290.591 634.141 290.342 635.113 289.388C636.429 288.096 638.043 284.953 639.318 277.819C639.43 276.952 639.574 276.077 639.753 275.195L646.782 276.437C646.662 277.246 646.531 278.028 646.399 278.786C645.491 285.818 647.108 292.247 648.23 298.218C648.806 301.285 649.337 304.666 648.732 307.629C648.409 309.213 647.75 310.765 646.573 312.118C645.926 312.861 645.169 313.483 644.325 314.005C644.261 315.222 644.171 316.924 644.065 318.986C643.842 323.312 643.544 329.222 643.246 335.553C642.65 348.259 642.061 362.539 642.061 369.22Z" fill="#1C3753"/>
</svg>
